<?xml version="1.0" encoding="UTF-8"?>
<svg xmlns="http://www.w3.org/2000/svg" xmlns:xlink="http://www.w3.org/1999/xlink" width="40px" height="40px" viewBox="0 0 40 40" version="1.1">
<defs>
<clipPath id="clip1">
  <path d="M 4 16.296875 L 34.289062 16.296875 L 34.289062 39.429688 L 4 39.429688 Z M 4 16.296875 "/>
</clipPath>
<clipPath id="clip2">
  <path d="M 26.699219 35.808594 L 32.269531 35.808594 L 32.269531 39.429688 L 26.699219 39.429688 Z M 26.699219 35.808594 "/>
</clipPath>
<clipPath id="clip3">
  <path d="M 0.558594 18.304688 L 23 18.304688 L 23 37.964844 L 0.558594 37.964844 Z M 0.558594 18.304688 "/>
</clipPath>
<clipPath id="clip4">
  <path d="M 14 18.304688 L 39.558594 18.304688 L 39.558594 37.964844 L 14 37.964844 Z M 14 18.304688 "/>
</clipPath>
<clipPath id="clip5">
  <path d="M 14 19 L 39.558594 19 L 39.558594 37.964844 L 14 37.964844 Z M 14 19 "/>
</clipPath>
</defs>
<g id="surface1">
<g clip-path="url(#clip1)" clip-rule="nonzero">
<path style=" stroke:none;fill-rule:nonzero;fill:rgb(29.803923%,30.588236%,31.764707%);fill-opacity:1;" d="M 6.601562 34.441406 L 7.601562 34.984375 C 7.601562 34.984375 6.398438 36 7.398438 36.542969 C 7.398438 36.542969 6.898438 37.695312 7.300781 38.507812 C 7.300781 38.507812 6.601562 42.238281 6 45.558594 L 32.199219 45.558594 C 32 43.527344 31.601562 41.21875 30.898438 39.59375 C 30.898438 39.59375 32.199219 37.898438 31.101562 37.289062 L 31.699219 35.660156 L 31.199219 34.238281 C 32 33.355469 31.199219 31.933594 31.199219 31.933594 C 33.800781 26.78125 34.300781 18.914062 34.300781 18.914062 C 33.800781 18.710938 33 18.371094 33 18.371094 C 29.800781 17.492188 19.601562 16.40625 19.601562 16.40625 C 15.800781 16.203125 5.199219 18.578125 5.199219 18.578125 C 4.398438 18.710938 4 19.320312 4 19.320312 C 4 19.320312 5.800781 29.492188 7.300781 32.203125 Z M 6.601562 34.441406 "/>
</g>
<g clip-path="url(#clip2)" clip-rule="nonzero">
<path style=" stroke:none;fill-rule:nonzero;fill:rgb(24.313726%,25.098041%,25.882354%);fill-opacity:1;" d="M 32.199219 45.558594 C 32 43.527344 31.601562 41.21875 30.898438 39.59375 C 30.898438 39.59375 32.199219 37.898438 31.101562 37.289062 L 31.601562 35.863281 L 27 36.066406 L 28 38.578125 L 27 39.59375 L 27 45.085938 L 26.699219 45.558594 Z M 32.199219 45.558594 "/>
</g>
<path style=" stroke:none;fill-rule:nonzero;fill:rgb(24.313726%,25.098041%,25.882354%);fill-opacity:1;" d="M 20.398438 28.339844 L 19.601562 28.542969 C 20.199219 28.746094 21.800781 29.832031 21.800781 29.832031 L 21 29.015625 L 27.398438 23.730469 L 27 22.644531 L 29.300781 22.78125 L 27.800781 17.421875 C 27.398438 17.378906 26.964844 17.3125 26.5 17.21875 Z M 20.398438 28.339844 "/>
<path style=" stroke:none;fill-rule:nonzero;fill:rgb(17.647059%,18.039216%,18.82353%);fill-opacity:1;" d="M 6.601562 34.441406 L 7.601562 34.984375 C 7.601562 34.984375 6.398438 36 7.398438 36.542969 C 7.398438 36.542969 6.898438 37.695312 7.300781 38.507812 C 7.300781 38.507812 7.300781 38.53125 7.300781 38.578125 L 9.5 38.578125 C 9.5 38.578125 17.800781 38.304688 19.898438 37.492188 L 22.800781 37.492188 C 22.800781 37.492188 27.601562 37.964844 31.5 38.304688 C 31.601562 37.898438 31.5 37.492188 31.101562 37.289062 L 31.699219 35.660156 L 31.300781 34.507812 L 13.300781 33.628906 Z M 6.601562 34.441406 "/>
<path style=" stroke:none;fill-rule:nonzero;fill:rgb(100%,100%,100%);fill-opacity:1;" d="M 13.601562 33.628906 L 13.300781 30.304688 L 14.898438 30.304688 L 15.199219 33.628906 Z M 13.601562 33.628906 "/>
<path style=" stroke:none;fill-rule:nonzero;fill:rgb(98.039216%,73.725492%,52.941179%);fill-opacity:1;" d="M 5.5 32.269531 L 8.800781 29.898438 C 8.800781 29.898438 10.199219 29.558594 11.898438 30.371094 C 11.898438 30.371094 13 30.78125 13.398438 30.78125 C 13.398438 30.78125 13.898438 33.421875 13.199219 34.710938 C 13.199219 34.710938 5.601562 34.238281 5.5 32.269531 Z M 5.5 32.269531 "/>
<path style=" stroke:none;fill-rule:nonzero;fill:rgb(100%,100%,100%);fill-opacity:1;" d="M 13.5 16.8125 C 13.5 16.8125 14.300781 23.1875 20.101562 28.203125 C 20.101562 28.203125 22.898438 24.269531 25.800781 17.015625 Z M 13.5 16.8125 "/>
<path style=" stroke:none;fill-rule:nonzero;fill:rgb(76.47059%,89.019608%,89.411765%);fill-opacity:1;" d="M 23.898438 21.421875 L 21.300781 19.457031 L 20.699219 19.933594 L 22.300781 25.421875 L 20.398438 27.59375 L 19.5 18.914062 L 21 17.964844 L 21.199219 17.964844 L 24.101562 20.8125 Z M 23.898438 21.421875 "/>
<path style=" stroke:none;fill-rule:nonzero;fill:rgb(87.843138%,61.960787%,43.137255%);fill-opacity:1;" d="M 14.101562 11.933594 C 14.101562 11.933594 15.5 15.253906 14.199219 17.085938 C 14.199219 17.085938 18.800781 19.59375 24.699219 17.355469 C 24.699219 17.355469 23.601562 13.964844 24.601562 11.933594 Z M 14.101562 11.933594 "/>
<path style=" stroke:none;fill-rule:evenodd;fill:rgb(83.529413%,64.705884%,52.156866%);fill-opacity:1;" d="M 14.699219 13.832031 C 14.566406 13.378906 14.464844 12.996094 14.398438 12.679688 C 14.5 12.949219 14.601562 13.355469 14.699219 13.832031 Z M 24.5 16.746094 C 24.5 16.40625 24.398438 16 24.300781 15.527344 C 24.398438 16 24.5 16.40625 24.5 16.746094 Z M 24.5 16.746094 "/>
<path style=" stroke:none;fill-rule:nonzero;fill:rgb(80.392158%,54.901963%,38.82353%);fill-opacity:1;" d="M 19.800781 18.304688 C 20.601562 17.558594 21 16 21 16 C 20.699219 16.136719 20.300781 16.203125 20 16.203125 C 19.699219 16.203125 19.601562 16.136719 19.601562 16.136719 C 18.699219 16.066406 15.800781 14.441406 14.699219 13.832031 C 14.601562 13.355469 14.5 12.949219 14.398438 12.679688 L 14.5 11.933594 L 24.601562 11.933594 C 24.101562 13.015625 24.101562 14.371094 24.300781 15.527344 C 24.398438 16 24.5 16.40625 24.5 16.746094 L 21.601562 18.167969 C 20.933594 18.261719 20.332031 18.304688 19.800781 18.304688 Z M 19.800781 18.304688 "/>
<path style=" stroke:none;fill-rule:nonzero;fill:rgb(98.039216%,73.725492%,52.941179%);fill-opacity:1;" d="M 12.101562 8.339844 C 12.101562 8.339844 11.398438 7.253906 10.601562 8.203125 C 10.601562 8.203125 9.800781 9.289062 11.300781 10.167969 C 11.300781 10.167969 12 10.644531 12.101562 10.78125 C 12.101562 10.78125 12.898438 11.320312 13.199219 10.78125 Z M 12.101562 8.339844 "/>
<path style=" stroke:none;fill-rule:nonzero;fill:rgb(98.039216%,73.725492%,52.941179%);fill-opacity:1;" d="M 27.199219 8.339844 C 27.199219 8.339844 27.898438 7.253906 28.800781 8.203125 C 28.800781 8.203125 29.601562 9.289062 28 10.167969 C 28 10.167969 27.398438 10.644531 27.199219 10.78125 C 27.199219 10.78125 26.5 11.320312 26.101562 10.78125 Z M 27.199219 8.339844 "/>
<path style=" stroke:none;fill-rule:nonzero;fill:rgb(92.941177%,65.098041%,44.705883%);fill-opacity:1;" d="M 27.199219 8.339844 C 27.199219 8.339844 27.898438 7.253906 28.800781 8.203125 C 28.800781 8.203125 29.601562 9.289062 28 10.167969 C 28 10.167969 27.398438 10.644531 27.199219 10.78125 C 27.199219 10.78125 26.5 11.320312 26.101562 10.78125 Z M 27.199219 8.339844 "/>
<path style=" stroke:none;fill-rule:nonzero;fill:rgb(77.254903%,52.156866%,37.254903%);fill-opacity:1;" d="M 28.800781 8.746094 C 28.800781 8.746094 28 8 27.5 8.472656 C 27.5 8.472656 27.101562 9.289062 27.199219 9.421875 C 27.199219 9.421875 27.300781 9.832031 26.898438 9.964844 C 26.898438 9.964844 26.398438 10.441406 26.601562 10.710938 C 26.601562 10.710938 27.101562 10.710938 27.300781 10.441406 C 27.300781 10.441406 26.898438 10.441406 27.101562 10.101562 C 27.101562 10.101562 27.800781 9.761719 27.699219 9.289062 C 27.699219 9.289062 27.898438 8.746094 28.199219 9.152344 C 28.199219 9.152344 28.300781 9.015625 28.101562 8.679688 C 28.101562 8.679688 28.601562 8.609375 28.800781 8.746094 Z M 28.800781 8.746094 "/>
<path style=" stroke:none;fill-rule:nonzero;fill:rgb(98.039216%,73.725492%,52.941179%);fill-opacity:1;" d="M 27.398438 8.472656 C 27.398438 4.269531 24 1.421875 19.800781 1.355469 C 19.734375 1.355469 19.699219 1.355469 19.699219 1.355469 C 15.398438 1.421875 12 4.269531 12 8.472656 C 12 8.472656 13.800781 15.457031 19.699219 15.527344 C 19.699219 15.527344 19.734375 15.527344 19.800781 15.527344 C 25.601562 15.457031 27.398438 8.472656 27.398438 8.472656 Z M 27.398438 8.472656 "/>
<path style=" stroke:none;fill-rule:nonzero;fill:rgb(92.941177%,65.098041%,44.705883%);fill-opacity:1;" d="M 20.699219 15.457031 C 25.800781 14.710938 27.398438 8.472656 27.398438 8.472656 C 27.398438 4.8125 24.800781 2.167969 21.398438 1.492188 L 18.898438 1.558594 C 18.898438 1.558594 14.601562 2.507812 14.5 4.882812 C 14.5 4.882812 16.300781 4.40625 17.101562 4.679688 C 17.101562 4.679688 20.898438 5.628906 22.601562 5.015625 C 22.601562 5.015625 23.101562 6.984375 24.101562 7.390625 C 24.101562 7.390625 25.101562 8.40625 25.199219 9.421875 C 25.199219 9.421875 24.898438 13.761719 20.699219 15.457031 Z M 20.699219 15.457031 "/>
<path style=" stroke:none;fill-rule:nonzero;fill:rgb(100%,100%,100%);fill-opacity:1;" d="M 13.5 16.8125 C 13.5 16.8125 14.199219 15.050781 14.800781 15.050781 L 19.199219 18.101562 L 20.300781 18.101562 L 25.101562 15.050781 C 25.101562 15.050781 26 15.117188 25.5 16.40625 L 24 20.746094 L 20.398438 18.304688 L 19.101562 18.238281 L 18 19.527344 L 15.101562 20.949219 Z M 13.5 16.8125 "/>
<path style=" stroke:none;fill-rule:nonzero;fill:rgb(69.803923%,11.372549%,13.725491%);fill-opacity:1;" d="M 19.199219 18.101562 L 18.398438 19.050781 L 19.199219 19.933594 L 19.800781 19.933594 L 19.800781 18.101562 Z M 19.199219 18.101562 "/>
<path style=" stroke:none;fill-rule:nonzero;fill:rgb(69.803923%,11.372549%,13.725491%);fill-opacity:1;" d="M 20.300781 18.101562 L 21 19.050781 L 20.300781 19.933594 L 19.699219 19.933594 L 19.699219 18.101562 Z M 20.300781 18.101562 "/>
<path style=" stroke:none;fill-rule:nonzero;fill:rgb(69.803923%,11.372549%,13.725491%);fill-opacity:1;" d="M 19.199219 19.933594 L 18.199219 26.847656 L 19.898438 28.203125 L 19.800781 19.933594 Z M 19.199219 19.933594 "/>
<path style=" stroke:none;fill-rule:nonzero;fill:rgb(69.803923%,11.372549%,13.725491%);fill-opacity:1;" d="M 20.300781 19.933594 L 21.800781 26.847656 L 19.800781 28.40625 L 19.699219 19.933594 Z M 20.300781 19.933594 "/>
<path style=" stroke:none;fill-rule:nonzero;fill:rgb(17.647059%,18.039216%,18.82353%);fill-opacity:1;" d="M 27.398438 17.21875 L 28 21.628906 L 23.601562 22.101562 L 23.398438 21.832031 L 25.601562 15.796875 L 26 15.796875 Z M 27.398438 17.21875 "/>
<path style=" stroke:none;fill-rule:nonzero;fill:rgb(17.647059%,18.039216%,18.82353%);fill-opacity:1;" d="M 12.601562 17.015625 L 11.5 21.695312 L 15.898438 22.101562 L 16 21.761719 L 13.898438 16 Z M 12.601562 17.015625 "/>
<path style=" stroke:none;fill-rule:nonzero;fill:rgb(17.647059%,18.039216%,18.82353%);fill-opacity:1;" d="M 14.699219 20.269531 L 13.398438 23.117188 C 13.398438 23.117188 18 28.542969 20.800781 29.21875 C 20.800781 29.21875 15.601562 21.761719 14.699219 20.269531 Z M 14.699219 20.269531 "/>
<path style=" stroke:none;fill-rule:nonzero;fill:rgb(17.647059%,18.039216%,18.82353%);fill-opacity:1;" d="M 19.800781 28.679688 C 19.601562 28.472656 19.800781 28.679688 19.800781 28.679688 C 19.867188 28.722656 19.898438 28.769531 19.898438 28.8125 C 20.035156 28.859375 20.132812 28.902344 20.199219 28.949219 C 20.265625 28.996094 20.300781 29.015625 20.300781 29.015625 C 23.101562 27.796875 26 23.050781 26 23.050781 L 24.5 20.136719 C 24 21.152344 21.398438 26.78125 19.601562 28.542969 C 19.667969 28.585938 19.734375 28.632812 19.800781 28.679688 Z M 19.800781 28.679688 "/>
<path style=" stroke:none;fill-rule:nonzero;fill:rgb(12.156863%,12.54902%,12.941177%);fill-opacity:1;" d="M 11.800781 8 L 12.5 9.695312 L 13.199219 9.289062 C 13.199219 9.289062 13.101562 8.136719 13.199219 7.1875 C 13.199219 7.1875 14.101562 6.371094 15 4.472656 C 15 4.472656 16.601562 3.863281 17.699219 4.136719 C 17.699219 4.136719 20.699219 4.949219 22.398438 4.269531 C 22.398438 4.269531 23.5 4.136719 23.699219 4.472656 C 23.699219 4.472656 24.300781 6.578125 25.199219 7.253906 C 25.199219 7.253906 25.800781 7.796875 26 8.269531 L 26 9.289062 L 26.800781 9.695312 C 26.800781 9.695312 27.398438 8.679688 27.398438 8.203125 C 27.398438 8.203125 28.398438 5.152344 26.5 2.847656 C 26.5 2.847656 25.398438 2.167969 25 1.558594 C 24.601562 0.949219 23.898438 0.542969 23.101562 0.746094 C 23.101562 0.746094 20.800781 -0.269531 19.699219 0.203125 C 19.699219 0.203125 18 0.472656 17.101562 0.339844 C 16.300781 0.269531 15.601562 0.0664062 14.800781 0.609375 C 14.800781 0.609375 12.300781 1.355469 12.300781 2.578125 C 12.300781 2.578125 11.898438 3.59375 11.5 3.730469 C 11.5 3.730469 9.699219 4.949219 10.398438 5.898438 C 10.398438 5.898438 10.398438 7.050781 11.800781 8 Z M 11.800781 8 "/>
<g clip-path="url(#clip3)" clip-rule="nonzero">
<path style=" stroke:none;fill-rule:nonzero;fill:rgb(29.803923%,30.588236%,31.764707%);fill-opacity:1;" d="M 1.800781 20.203125 L 2 21.695312 C 2 21.695312 0.601562 27.796875 1.699219 29.421875 L 1 30.238281 C 1 30.238281 1.601562 31.457031 1 31.796875 C 1 31.796875 0.699219 33.21875 1 33.695312 C 1 33.695312 2 35.796875 2.5 36.746094 C 2.5 36.746094 3.898438 37.289062 5.199219 37.492188 C 5.199219 37.492188 12 38.644531 22.800781 34.984375 C 22.800781 34.984375 21 33.355469 19.898438 32 C 19.898438 32 9.199219 31.933594 7.5 32.542969 L 7.101562 30.644531 L 8 29.832031 C 8 29.832031 7.699219 27.527344 8 26.441406 C 8 26.441406 8.398438 22.644531 7.398438 20.269531 C 7.398438 20.269531 5.5 18.984375 4 18.914062 Z M 1.800781 20.203125 "/>
</g>
<g clip-path="url(#clip4)" clip-rule="nonzero">
<path style=" stroke:none;fill-rule:nonzero;fill:rgb(29.803923%,30.588236%,31.764707%);fill-opacity:1;" d="M 15.101562 32.472656 C 14.300781 32.40625 15.101562 29.628906 15.101562 29.628906 C 15.101562 29.628906 24.101562 30.167969 27.699219 31.050781 L 28.898438 31.050781 L 29.300781 31.527344 L 30.601562 31.320312 L 31.300781 31.730469 C 31.300781 31.730469 30.601562 29.832031 31.300781 27.1875 L 34 18.914062 L 34.800781 18.914062 L 37.5 19.933594 L 37.300781 21.289062 C 37.300781 21.289062 38.800781 26.441406 38.5 28.679688 L 39.199219 29.492188 C 39.199219 29.492188 39.300781 29.492188 38.800781 29.832031 C 38.800781 29.832031 39.5 30.507812 38.699219 31.253906 C 38.699219 31.253906 38.699219 35.253906 38.300781 36.679688 L 37 37.492188 C 37 37.492188 32.300781 37.289062 31.101562 37.289062 C 31.101562 37.289062 29.398438 37.289062 28.5 36.746094 L 27.101562 36.746094 L 26 35.933594 L 25.199219 36.269531 C 25.199219 36.269531 16.699219 32.746094 15.101562 32.472656 Z M 15.101562 32.472656 "/>
</g>
<path style=" stroke:none;fill-rule:nonzero;fill:rgb(17.647059%,18.039216%,18.82353%);fill-opacity:1;" d="M 34.800781 18.914062 L 34 19.660156 L 33.300781 24.136719 L 34.800781 24.136719 L 36.101562 25.492188 L 34.300781 24.746094 L 32.800781 25.015625 L 34 25.492188 L 36.101562 27.59375 L 33.699219 26.167969 L 32.800781 26.035156 L 33.300781 28.8125 L 33.199219 30.78125 L 31.5 31.117188 L 32.398438 28.8125 L 31.898438 25.832031 L 32.800781 22.507812 L 33.199219 19.457031 C 33.199219 19.457031 33.800781 18.984375 34.800781 18.914062 Z M 34.800781 18.914062 "/>
<path style=" stroke:none;fill-rule:nonzero;fill:rgb(98.039216%,73.725492%,52.941179%);fill-opacity:1;" d="M 33.699219 31.796875 C 33.699219 31.796875 34.199219 32.136719 34.300781 31.730469 C 34.300781 31.730469 34.199219 30.441406 32.800781 30.035156 C 32.800781 30.035156 32.199219 30.238281 32.300781 30.578125 Z M 33.699219 31.796875 "/>
<path style=" stroke:none;fill-rule:nonzero;fill:rgb(98.039216%,73.725492%,52.941179%);fill-opacity:1;" d="M 31.601562 30.914062 L 31.601562 30.644531 C 31.601562 30.644531 32.101562 30.371094 32.398438 30.238281 C 32.398438 30.238281 33.398438 30.710938 33.699219 31.253906 C 33.699219 31.253906 34 31.863281 34 32.136719 C 34 32.136719 33.699219 32.269531 33.199219 31.933594 Z M 31.601562 30.914062 "/>
<path style=" stroke:none;fill-rule:nonzero;fill:rgb(98.039216%,73.725492%,52.941179%);fill-opacity:1;" d="M 32.898438 32.40625 C 32.898438 32.40625 33.398438 32.746094 33.699219 32.542969 L 33.300781 31.59375 C 33.300781 31.59375 32.699219 31.050781 32.101562 30.78125 C 32.101562 30.78125 30.898438 30.710938 30.898438 31.1875 Z M 32.898438 32.40625 "/>
<path style=" stroke:none;fill-rule:nonzero;fill:rgb(98.039216%,73.725492%,52.941179%);fill-opacity:1;" d="M 30.601562 31.320312 L 31.699219 32.269531 C 31.699219 32.269531 32.199219 33.015625 33.199219 32.949219 L 32.898438 32 C 32.898438 32 31.699219 30.507812 30.601562 31.320312 Z M 30.601562 31.320312 "/>
<path style=" stroke:none;fill-rule:nonzero;fill:rgb(77.254903%,52.156866%,37.254903%);fill-opacity:1;" d="M 10.601562 8.746094 C 10.601562 8.746094 11.300781 8 11.800781 8.472656 C 11.800781 8.472656 12.199219 9.289062 12.101562 9.421875 C 12.101562 9.421875 12 9.832031 12.398438 9.964844 C 12.398438 9.964844 12.898438 10.441406 12.699219 10.710938 C 12.699219 10.710938 12.199219 10.710938 12 10.441406 C 12 10.441406 12.5 10.441406 12.199219 10.101562 C 12.199219 10.101562 11.5 9.761719 11.699219 9.289062 C 11.699219 9.289062 11.5 8.746094 11.199219 9.152344 C 11.199219 9.152344 11 9.015625 11.300781 8.679688 C 11.300781 8.679688 10.800781 8.609375 10.601562 8.746094 Z M 10.601562 8.746094 "/>
<path style=" stroke:none;fill-rule:nonzero;fill:rgb(17.647059%,18.039216%,18.82353%);fill-opacity:1;" d="M 4.300781 18.984375 C 4.300781 18.984375 7.101562 20.8125 7.101562 21.289062 L 7.300781 24.066406 L 5.800781 23.457031 L 3.5 23.1875 C 3.5 23.1875 6.601562 24.269531 7.199219 25.355469 L 4.800781 24.949219 L 2.699219 24.949219 L 5.5 25.492188 L 7.601562 26.710938 L 7.300781 29.21875 L 6.601562 30.578125 L 7.199219 31.050781 L 7.800781 30.644531 L 8.300781 29.015625 L 7.898438 28.40625 L 8 26.167969 C 8 26.167969 8.199219 22.035156 7.398438 20.40625 C 7.398438 20.40625 4.5 19.117188 4.300781 18.984375 Z M 4.300781 18.984375 "/>
<g clip-path="url(#clip5)" clip-rule="nonzero">
<path style=" stroke:none;fill-rule:nonzero;fill:rgb(24.313726%,25.098041%,25.882354%);fill-opacity:1;" d="M 38.800781 29.832031 C 39.300781 29.492188 39.199219 29.492188 39.199219 29.492188 L 38.5 28.679688 C 38.800781 26.441406 37.300781 21.289062 37.300781 21.289062 L 37.5 19.933594 L 35.898438 19.320312 L 35.398438 20.949219 L 37.199219 24.609375 L 37.199219 28.339844 L 36.101562 28.203125 L 37.199219 29.558594 L 36.101562 29.21875 L 37.199219 30.78125 L 36.300781 30.78125 L 36.300781 35.050781 L 35 36.136719 L 31.699219 35.660156 L 29.699219 36.136719 L 28 35.457031 L 27 35.457031 L 25.699219 34.710938 C 25.699219 34.710938 17.300781 31.796875 14.800781 31.1875 C 14.699219 31.796875 14.699219 32.472656 15.101562 32.472656 C 16.699219 32.746094 25.199219 36.269531 25.199219 36.269531 L 26 35.933594 L 27.101562 36.746094 L 28.5 36.746094 C 29.398438 37.289062 31.101562 37.289062 31.101562 37.289062 C 32.300781 37.289062 37 37.492188 37 37.492188 L 38.300781 36.679688 C 38.699219 35.253906 38.699219 31.253906 38.699219 31.253906 C 39.5 30.507812 38.800781 29.832031 38.800781 29.832031 Z M 38.800781 29.832031 "/>
</g>
</g>
</svg>
