<svg xmlns="http://www.w3.org/2000/svg" xmlns:xlink="http://www.w3.org/1999/xlink" width="500" zoomAndPan="magnify" viewBox="0 0 375 374.999991" height="500" preserveAspectRatio="xMidYMid meet" version="1.0"><defs><clipPath id="25928719b3"><path d="M 5.59375 5.59375 L 369.40625 5.59375 L 369.40625 369.40625 L 5.59375 369.40625 Z M 5.59375 5.59375 " clip-rule="nonzero"/></clipPath><clipPath id="4dfb73b2ef"><path d="M 187.5 5.59375 C 87.035156 5.59375 5.59375 87.035156 5.59375 187.5 C 5.59375 287.964844 87.035156 369.40625 187.5 369.40625 C 287.964844 369.40625 369.40625 287.964844 369.40625 187.5 C 369.40625 87.035156 287.964844 5.59375 187.5 5.59375 Z M 187.5 5.59375 " clip-rule="nonzero"/></clipPath><clipPath id="2d360c4fdc"><path d="M 77.691406 71.003906 L 310.683594 71.003906 L 310.683594 303.996094 L 77.691406 303.996094 Z M 77.691406 71.003906 " clip-rule="nonzero"/></clipPath><clipPath id="9ebc8acea1"><path d="M 310.683594 187.5 L 194.1875 71.003906 L 194.1875 129.253906 L 77.691406 129.253906 L 77.691406 245.746094 L 194.1875 245.746094 L 194.1875 303.996094 Z M 310.683594 187.5 " clip-rule="nonzero"/></clipPath></defs><g clip-path="url(#25928719b3)"><g clip-path="url(#4dfb73b2ef)"><path fill="#ede9dd" d="M 5.59375 5.59375 L 369.40625 5.59375 L 369.40625 369.40625 L 5.59375 369.40625 Z M 5.59375 5.59375 " fill-opacity="1" fill-rule="nonzero"/></g></g><g clip-path="url(#2d360c4fdc)"><g clip-path="url(#9ebc8acea1)"><path fill="#544013" d="M 77.691406 71.003906 L 310.683594 71.003906 L 310.683594 303.996094 L 77.691406 303.996094 Z M 77.691406 71.003906 " fill-opacity="1" fill-rule="nonzero"/></g></g></svg>