<?xml version="1.0" encoding="UTF-8"?>
<svg xmlns="http://www.w3.org/2000/svg" xmlns:xlink="http://www.w3.org/1999/xlink" width="40px" height="40px" viewBox="0 0 40 40" version="1.1">
<defs>
<clipPath id="clip1">
  <path d="M 16 29.019531 L 30.589844 29.019531 L 30.589844 36.855469 L 16 36.855469 Z M 16 29.019531 "/>
</clipPath>
<clipPath id="clip2">
  <path d="M 7.941406 19.796875 L 30.589844 19.796875 L 30.589844 35.292969 L 7.941406 35.292969 Z M 7.941406 19.796875 "/>
</clipPath>
<clipPath id="clip3">
  <path d="M 17.261719 10.398438 L 28.390625 10.398438 L 28.390625 39.546875 L 17.261719 39.546875 Z M 17.261719 10.398438 "/>
</clipPath>
<clipPath id="clip4">
  <path d="M 17.175781 10.03125 L 28.53125 10.03125 L 28.53125 39.546875 L 17.175781 39.546875 Z M 17.175781 10.03125 "/>
</clipPath>
<clipPath id="clip5">
  <path d="M 0 0 L 20 0 L 20 40 L 0 40 Z M 0 0 "/>
</clipPath>
<clipPath id="clip6">
  <path d="M 0.179688 0.164062 L 19.589844 0.164062 L 19.601562 39.546875 L 0.179688 39.546875 Z M 0.179688 0.164062 "/>
</clipPath>
<clipPath id="clip7">
  <path d="M 19.578125 0.164062 L 39 0.164062 L 39 39.546875 L 19.578125 39.546875 Z M 19.578125 0.164062 "/>
</clipPath>
<filter id="alpha" filterUnits="objectBoundingBox" x="0%" y="0%" width="100%" height="100%">
  <feColorMatrix type="matrix" in="SourceGraphic" values="0 0 0 0 1 0 0 0 0 1 0 0 0 0 1 0 0 0 1 0"/>
</filter>
<mask id="mask0">
  <g filter="url(#alpha)">
<rect x="0" y="0" width="40" height="40" style="fill:rgb(0%,0%,0%);fill-opacity:0.4;stroke:none;"/>
  </g>
</mask>
<clipPath id="clip8">
  <rect x="0" y="0" width="40" height="40"/>
</clipPath>
<g id="surface5" clip-path="url(#clip8)">
<path style=" stroke:none;fill-rule:nonzero;fill:rgb(0%,0%,0%);fill-opacity:1;" d="M 20.539062 34.902344 C 20.539062 35.292969 20.109375 35.609375 19.570312 35.609375 C 19.03125 35.609375 18.597656 35.292969 18.597656 34.902344 C 18.597656 34.511719 19.03125 34.195312 19.570312 34.195312 C 20.109375 34.195312 20.539062 34.511719 20.539062 34.902344 Z M 20.539062 34.902344 "/>
</g>
</defs>
<g id="surface1">
<g clip-path="url(#clip1)" clip-rule="nonzero">
<path style=" stroke:none;fill-rule:nonzero;fill:rgb(96.470588%,96.470588%,91.37255%);fill-opacity:1;" d="M 26.148438 31.921875 C 24.636719 33.332031 22.265625 34.273438 19.570312 34.273438 C 18.921875 34.273438 18.273438 34.222656 17.628906 34.117188 L 16.011719 36.234375 C 17.160156 36.496094 18.347656 36.628906 19.570312 36.628906 C 21.078125 36.628906 22.589844 36.417969 24.097656 36 C 25.464844 35.582031 26.6875 34.980469 27.765625 34.195312 C 28.699219 33.515625 29.417969 32.757812 29.921875 31.921875 C 30.066406 31.765625 30.171875 31.632812 30.246094 31.53125 C 30.605469 30.902344 30.855469 30.25 31 29.570312 L 21.402344 29.570312 L 19.460938 31.921875 Z M 26.148438 31.921875 "/>
</g>
<g clip-path="url(#clip2)" clip-rule="nonzero">
<path style=" stroke:none;fill-rule:nonzero;fill:rgb(96.470588%,96.470588%,91.37255%);fill-opacity:1;" d="M 14.929688 20.46875 C 13.492188 20.941406 12.234375 21.59375 11.15625 22.429688 C 11.011719 22.535156 10.832031 22.667969 10.617188 22.824219 C 10.617188 22.824219 10.617188 22.851562 10.617188 22.902344 L 14.929688 28.234375 L 12.558594 31.136719 L 8.351562 26.039062 C 8.066406 26.71875 7.921875 27.449219 7.921875 28.234375 C 7.921875 29.125 8.101562 29.960938 8.460938 30.746094 C 8.605469 31.007812 8.75 31.269531 8.890625 31.53125 C 9.324219 32.261719 9.898438 32.941406 10.617188 33.570312 C 10.761719 33.777344 10.941406 33.960938 11.15625 34.117188 L 11.371094 34.195312 C 11.875 34.5625 12.414062 34.902344 12.988281 35.214844 L 18.707031 28.234375 L 14.714844 23.292969 C 16.117188 22.589844 17.734375 22.195312 19.570312 22.195312 C 22.265625 22.195312 24.636719 23.136719 26.148438 24.550781 L 19.460938 24.550781 L 21.402344 26.902344 L 31 26.902344 C 30.855469 26.222656 30.605469 25.570312 30.246094 24.941406 C 30.171875 24.835938 30.066406 24.707031 29.921875 24.550781 C 29.417969 23.710938 28.699219 22.953125 27.765625 22.273438 C 26.6875 21.488281 25.429688 20.890625 23.988281 20.46875 C 22.550781 20.050781 21.078125 19.84375 19.570312 19.84375 C 17.914062 19.84375 16.371094 20.050781 14.929688 20.46875 Z M 14.929688 20.46875 "/>
</g>
<path style=" stroke:none;fill-rule:nonzero;fill:rgb(100%,100%,100%);fill-opacity:1;" d="M 10.617188 10.429688 L 20.96875 26.824219 L 20.539062 38.117188 L 18.273438 37.804688 C 18.273438 37.804688 8.351562 17.488281 10.617188 10.429688 Z M 10.617188 10.429688 "/>
<path style=" stroke:none;fill-rule:evenodd;fill:rgb(0%,0%,0%);fill-opacity:1;" d="M 20.648438 38.195312 L 18.167969 37.882812 L 18.167969 37.804688 C 18.167969 37.804688 15.6875 32.707031 13.53125 26.824219 C 12.234375 23.292969 11.265625 20.234375 10.726562 17.726562 C 10.078125 14.511719 9.96875 12 10.511719 10.351562 L 10.617188 10.195312 L 21.078125 26.824219 Z M 18.273438 37.726562 L 20.429688 38.039062 L 20.863281 26.902344 L 10.617188 10.667969 C 10.1875 12.234375 10.292969 14.589844 10.941406 17.648438 C 11.480469 20.234375 12.34375 23.292969 13.636719 26.746094 C 15.6875 32.390625 18.058594 37.253906 18.273438 37.726562 Z M 18.273438 37.726562 "/>
<g clip-path="url(#clip3)" clip-rule="nonzero">
<path style=" stroke:none;fill-rule:nonzero;fill:rgb(100%,100%,100%);fill-opacity:1;" d="M 28.410156 10.429688 L 27.550781 23.53125 L 25.390625 28.078125 L 20.324219 38.902344 C 20.109375 39.058594 19.929688 39.214844 19.785156 39.371094 C 19.710938 39.425781 19.640625 39.476562 19.570312 39.53125 C 19.496094 39.476562 19.425781 39.425781 19.351562 39.371094 C 19.28125 39.269531 19.171875 39.136719 19.03125 38.980469 L 17.949219 36.390625 L 17.304688 34.902344 L 17.304688 26.824219 L 27.550781 11.6875 Z M 28.410156 10.429688 "/>
</g>
<g clip-path="url(#clip4)" clip-rule="nonzero">
<path style=" stroke:none;fill-rule:evenodd;fill:rgb(0%,0%,0%);fill-opacity:1;" d="M 28.519531 10.039062 L 27.65625 23.609375 L 25.390625 28.078125 L 19.785156 39.371094 C 19.710938 39.425781 19.640625 39.476562 19.570312 39.53125 C 19.496094 39.476562 19.425781 39.425781 19.351562 39.371094 L 17.949219 36.390625 L 17.195312 34.902344 L 17.195312 26.824219 L 27.550781 11.449219 Z M 27.441406 23.53125 L 28.304688 10.746094 L 27.550781 11.84375 L 17.410156 26.902344 L 17.410156 34.902344 L 18.167969 36.390625 L 19.570312 39.292969 L 21.078125 36.390625 Z M 27.441406 23.53125 "/>
</g>
<g clip-path="url(#clip5)" clip-rule="nonzero">
<g clip-path="url(#clip6)" clip-rule="nonzero">
<path style=" stroke:none;fill-rule:nonzero;fill:rgb(0%,0%,0%);fill-opacity:1;" d="M 19.570312 39.53125 C 19.496094 39.476562 19.425781 39.425781 19.351562 39.371094 C 19.28125 39.269531 19.171875 39.136719 19.03125 38.980469 C 1.34375 22.824219 0.15625 10.273438 0.15625 7.214844 C 0.15625 6.902344 0.695312 6.667969 1.128906 6.746094 L 4.578125 7.84375 L 2.3125 6.589844 C 2.097656 6.429688 2.097656 6.195312 2.3125 6.039062 L 11.695312 0.15625 C 10.1875 13.488281 14.390625 26.824219 17.195312 34.039062 C 17.195312 34.144531 17.230469 34.222656 17.304688 34.273438 C 17.304688 34.378906 17.339844 34.484375 17.410156 34.589844 C 17.628906 35.214844 17.878906 35.816406 18.167969 36.390625 C 19.03125 38.429688 19.570312 39.53125 19.570312 39.53125 Z M 19.570312 39.53125 "/>
</g>
</g>
<g clip-path="url(#clip7)" clip-rule="nonzero">
<path style=" stroke:none;fill-rule:nonzero;fill:rgb(0%,0%,0%);fill-opacity:1;" d="M 38.980469 7.214844 C 38.980469 10.273438 37.902344 22.746094 20.324219 38.902344 C 20.109375 39.058594 19.929688 39.214844 19.785156 39.371094 C 19.710938 39.425781 19.640625 39.476562 19.570312 39.53125 C 19.570312 39.53125 20.214844 38.429688 20.96875 36.390625 L 21.078125 36.390625 C 23.019531 31.765625 26.46875 22.429688 27.550781 11.84375 C 27.550781 11.789062 27.550781 11.738281 27.550781 11.6875 C 27.550781 11.582031 27.550781 11.503906 27.550781 11.449219 C 27.871094 7.765625 27.980469 4 27.550781 0.15625 L 36.929688 6.039062 C 37.148438 6.195312 37.148438 6.429688 36.824219 6.589844 L 34.558594 7.84375 L 38.117188 6.746094 C 38.550781 6.667969 38.980469 6.902344 38.980469 7.214844 Z M 38.980469 7.214844 "/>
</g>
<path style=" stroke:none;fill-rule:nonzero;fill:rgb(0%,0%,0%);fill-opacity:1;" d="M 19.570312 6.117188 C 19.785156 6.117188 20.109375 6.195312 20.214844 6.195312 C 20.429688 6.195312 20.324219 6.195312 20.324219 6.195312 C 24.207031 7.921875 25.5 7.84375 25.5 7.84375 C 27.550781 5.175781 25.5 2.746094 25.5 2.746094 C 23.558594 2.824219 20.324219 4.390625 20.324219 4.390625 C 20.324219 4.3125 20.324219 4.390625 20.324219 4.390625 C 20.109375 4.390625 19.570312 4.46875 19.570312 4.46875 C 19.570312 4.46875 19.03125 4.390625 18.921875 4.390625 C 18.921875 4.390625 18.8125 4.3125 18.8125 4.390625 C 18.8125 4.390625 15.578125 2.824219 13.636719 2.746094 C 13.636719 2.746094 11.695312 5.175781 13.636719 7.84375 C 13.636719 7.84375 14.929688 7.921875 18.8125 6.195312 C 18.8125 6.195312 18.8125 6.195312 18.921875 6.195312 C 19.03125 6.195312 19.460938 6.117188 19.570312 6.117188 Z M 19.570312 6.117188 "/>
<path style=" stroke:none;fill-rule:nonzero;fill:rgb(0%,0%,0%);fill-opacity:1;" d="M 20.539062 27.53125 C 20.539062 27.921875 20.109375 28.234375 19.570312 28.234375 C 19.03125 28.234375 18.597656 27.921875 18.597656 27.53125 C 18.597656 27.136719 19.03125 26.824219 19.570312 26.824219 C 20.109375 26.824219 20.539062 27.136719 20.539062 27.53125 Z M 20.539062 27.53125 "/>
<path style=" stroke:none;fill-rule:nonzero;fill:rgb(0%,0%,0%);fill-opacity:1;" d="M 20.539062 20.078125 C 20.539062 20.46875 20.109375 20.785156 19.570312 20.785156 C 19.03125 20.785156 18.597656 20.46875 18.597656 20.078125 C 18.597656 19.6875 19.03125 19.292969 19.570312 19.292969 C 20.109375 19.292969 20.539062 19.6875 20.539062 20.078125 Z M 20.539062 20.078125 "/>
<path style=" stroke:none;fill-rule:nonzero;fill:rgb(0%,0%,0%);fill-opacity:1;" d="M 20.539062 12.550781 C 20.539062 12.941406 20.109375 13.253906 19.570312 13.253906 C 19.03125 13.253906 18.597656 12.941406 18.597656 12.550781 C 18.597656 12.15625 19.03125 11.84375 19.570312 11.84375 C 20.109375 11.84375 20.539062 12.15625 20.539062 12.550781 Z M 20.539062 12.550781 "/>
<use xlink:href="#surface5" mask="url(#mask0)"/>
</g>
</svg>
