<?xml version="1.0" encoding="UTF-8"?>
<svg xmlns="http://www.w3.org/2000/svg" xmlns:xlink="http://www.w3.org/1999/xlink" width="40px" height="40px" viewBox="0 0 40 40" version="1.1">
<defs>
<clipPath id="clip1">
  <path d="M 0.503906 0.175781 L 39.636719 0.175781 L 39.636719 39.304688 L 0.503906 39.304688 Z M 0.503906 0.175781 "/>
</clipPath>
<clipPath id="clip2">
  <path d="M 2 30 L 38 30 L 38 39.304688 L 2 39.304688 Z M 2 30 "/>
</clipPath>
</defs>
<g id="surface1">
<g clip-path="url(#clip1)" clip-rule="nonzero">
<path style=" stroke:none;fill-rule:nonzero;fill:rgb(100%,76.862746%,18.039216%);fill-opacity:1;" d="M 39.652344 19.738281 C 39.652344 20.375 39.625 21.015625 39.566406 21.652344 C 39.507812 22.289062 39.390625 22.925781 39.21875 23.566406 C 39.101562 24.203125 38.957031 24.8125 38.78125 25.390625 C 38.609375 26.027344 38.40625 26.636719 38.175781 27.21875 C 37.882812 27.796875 37.59375 28.375 37.304688 28.957031 C 37.015625 29.535156 36.695312 30.085938 36.347656 30.609375 C 36 31.128906 35.625 31.652344 35.21875 32.175781 C 34.8125 32.636719 34.375 33.101562 33.914062 33.566406 C 33.449219 34.027344 32.984375 34.464844 32.523438 34.871094 C 32 35.273438 31.476562 35.652344 30.957031 36 C 30.433594 36.347656 29.882812 36.667969 29.304688 36.957031 C 28.726562 37.304688 28.144531 37.59375 27.566406 37.824219 C 26.984375 38.058594 26.375 38.261719 25.738281 38.433594 C 25.101562 38.667969 24.492188 38.839844 23.914062 38.957031 C 23.273438 39.074219 22.636719 39.160156 22 39.21875 C 21.363281 39.273438 20.726562 39.304688 20.085938 39.304688 C 19.449219 39.304688 18.8125 39.273438 18.175781 39.21875 C 17.535156 39.160156 16.898438 39.074219 16.261719 38.957031 C 15.625 38.839844 14.984375 38.667969 14.347656 38.433594 C 13.769531 38.261719 13.1875 38.058594 12.609375 37.824219 C 11.972656 37.59375 11.390625 37.304688 10.871094 36.957031 C 10.289062 36.667969 9.738281 36.347656 9.21875 36 C 8.695312 35.652344 8.175781 35.273438 7.652344 34.871094 C 7.128906 34.464844 6.667969 34.027344 6.261719 33.566406 C 5.796875 33.101562 5.363281 32.636719 4.957031 32.175781 C 4.550781 31.652344 4.175781 31.128906 3.824219 30.609375 C 3.476562 30.085938 3.128906 29.535156 2.78125 28.957031 C 2.492188 28.375 2.230469 27.796875 2 27.21875 C 1.769531 26.636719 1.535156 26.027344 1.304688 25.390625 C 1.128906 24.8125 0.984375 24.203125 0.871094 23.566406 C 0.753906 22.925781 0.667969 22.289062 0.609375 21.652344 C 0.550781 21.015625 0.523438 20.375 0.523438 19.738281 C 0.523438 19.101562 0.550781 18.464844 0.609375 17.824219 C 0.667969 17.1875 0.753906 16.550781 0.871094 15.914062 C 0.984375 15.273438 1.128906 14.667969 1.304688 14.085938 C 1.535156 13.449219 1.769531 12.839844 2 12.261719 C 2.230469 11.679688 2.492188 11.101562 2.78125 10.523438 C 3.128906 9.941406 3.476562 9.390625 3.824219 8.871094 C 4.175781 8.347656 4.550781 7.824219 4.957031 7.304688 C 5.363281 6.839844 5.796875 6.375 6.261719 5.914062 C 6.667969 5.449219 7.128906 5.015625 7.652344 4.609375 C 8.175781 4.203125 8.695312 3.824219 9.21875 3.476562 C 9.738281 3.128906 10.289062 2.8125 10.871094 2.523438 C 11.390625 2.175781 11.972656 1.882812 12.609375 1.652344 C 13.1875 1.421875 13.769531 1.21875 14.347656 1.042969 C 14.984375 0.8125 15.625 0.636719 16.261719 0.523438 C 16.898438 0.40625 17.535156 0.320312 18.175781 0.261719 C 18.8125 0.203125 19.449219 0.175781 20.085938 0.175781 C 20.726562 0.175781 21.363281 0.203125 22 0.261719 C 22.636719 0.320312 23.273438 0.40625 23.914062 0.523438 C 24.492188 0.636719 25.101562 0.8125 25.738281 1.042969 C 26.375 1.21875 26.984375 1.421875 27.566406 1.652344 C 28.144531 1.882812 28.726562 2.175781 29.304688 2.523438 C 29.882812 2.8125 30.433594 3.128906 30.957031 3.476562 C 31.476562 3.824219 32 4.203125 32.523438 4.609375 C 32.984375 5.015625 33.449219 5.449219 33.914062 5.914062 C 34.375 6.375 34.8125 6.839844 35.21875 7.304688 C 35.625 7.824219 36 8.347656 36.347656 8.871094 C 36.695312 9.390625 37.015625 9.941406 37.304688 10.523438 C 37.59375 11.101562 37.882812 11.679688 38.175781 12.261719 C 38.40625 12.839844 38.609375 13.449219 38.78125 14.085938 C 38.957031 14.667969 39.101562 15.273438 39.21875 15.914062 C 39.390625 16.550781 39.507812 17.1875 39.566406 17.824219 C 39.625 18.464844 39.652344 19.101562 39.652344 19.738281 Z M 39.652344 19.738281 "/>
</g>
<path style=" stroke:none;fill-rule:evenodd;fill:rgb(80.784315%,81.960785%,85.09804%);fill-opacity:1;" d="M 6.085938 15.304688 L 34 15.304688 C 35.566406 15.304688 36.78125 16.523438 36.78125 18.085938 L 36.78125 30.085938 L 3.390625 30.085938 L 3.390625 18.085938 C 3.390625 16.523438 4.609375 15.304688 6.085938 15.304688 Z M 6.085938 15.304688 "/>
<path style=" stroke:none;fill-rule:evenodd;fill:rgb(77.254903%,79.215688%,82.745099%);fill-opacity:1;" d="M 6.085938 15.304688 L 34 15.304688 C 35.566406 15.304688 36.78125 16.523438 36.78125 18.085938 L 36.78125 18.695312 C 36.78125 17.21875 35.566406 15.914062 34 15.914062 L 6.085938 15.914062 C 4.609375 15.914062 3.390625 17.21875 3.390625 18.695312 L 3.390625 18.085938 C 3.390625 16.523438 4.609375 15.304688 6.085938 15.304688 Z M 6.085938 15.304688 "/>
<g clip-path="url(#clip2)" clip-rule="nonzero">
<path style=" stroke:none;fill-rule:evenodd;fill:rgb(42.745098%,49.019608%,55.29412%);fill-opacity:1;" d="M 3.390625 30.085938 L 36.78125 30.085938 C 37.21875 30.085938 37.652344 30.433594 37.652344 30.957031 L 37.652344 38.433594 C 37.652344 38.871094 37.21875 39.304688 36.78125 39.304688 L 3.390625 39.304688 C 2.871094 39.304688 2.523438 38.871094 2.523438 38.433594 L 2.523438 30.957031 C 2.523438 30.433594 2.871094 30.085938 3.390625 30.085938 Z M 3.390625 30.085938 "/>
</g>
<path style=" stroke:none;fill-rule:evenodd;fill:rgb(67.843139%,70.19608%,76.078433%);fill-opacity:1;" d="M 4 31.476562 L 36.085938 31.476562 L 36.085938 37.914062 L 4 37.914062 Z M 4 31.476562 "/>
<path style=" stroke:none;fill-rule:evenodd;fill:rgb(27.843139%,33.333334%,38.82353%);fill-opacity:1;" d="M 22.261719 7.128906 L 36.261719 7.128906 C 36.695312 7.128906 37.128906 7.566406 37.128906 8.085938 L 37.128906 12.085938 C 37.128906 12.523438 36.695312 12.957031 36.261719 12.957031 L 22.261719 12.957031 C 21.824219 12.957031 21.390625 12.523438 21.390625 12.085938 L 21.390625 8.085938 C 21.390625 7.566406 21.824219 7.128906 22.261719 7.128906 Z M 22.261719 7.128906 "/>
<path style=" stroke:none;fill-rule:evenodd;fill:rgb(88.235295%,89.803922%,92.941177%);fill-opacity:1;" d="M 25.476562 18.175781 L 33.042969 18.175781 C 33.652344 18.175781 34.085938 18.609375 34.085938 19.21875 L 34.085938 26.871094 C 34.085938 27.476562 33.652344 27.914062 33.042969 27.914062 L 25.476562 27.914062 C 24.871094 27.914062 24.433594 27.476562 24.433594 26.871094 L 24.433594 19.21875 C 24.433594 18.609375 24.871094 18.175781 25.476562 18.175781 Z M 25.476562 18.175781 "/>
<path style=" stroke:none;fill-rule:evenodd;fill:rgb(27.843139%,33.333334%,38.82353%);fill-opacity:1;" d="M 25.824219 19.042969 L 27.21875 19.042969 C 27.390625 19.042969 27.476562 19.21875 27.476562 19.390625 L 27.476562 19.914062 C 27.476562 20.085938 27.390625 20.175781 27.21875 20.175781 L 25.824219 20.175781 C 25.652344 20.175781 25.476562 20.085938 25.476562 19.914062 L 25.476562 19.390625 C 25.476562 19.21875 25.652344 19.042969 25.824219 19.042969 Z M 25.824219 19.042969 "/>
<path style=" stroke:none;fill-rule:evenodd;fill:rgb(27.843139%,33.333334%,38.82353%);fill-opacity:1;" d="M 28.523438 19.042969 L 30 19.042969 C 30.175781 19.042969 30.261719 19.21875 30.261719 19.390625 L 30.261719 19.914062 C 30.261719 20.085938 30.175781 20.175781 30 20.175781 L 28.523438 20.175781 C 28.433594 20.175781 28.261719 20.085938 28.261719 19.914062 L 28.261719 19.390625 C 28.261719 19.21875 28.433594 19.042969 28.523438 19.042969 Z M 28.523438 19.042969 "/>
<path style=" stroke:none;fill-rule:evenodd;fill:rgb(27.843139%,33.333334%,38.82353%);fill-opacity:1;" d="M 31.304688 19.042969 L 32.695312 19.042969 C 32.871094 19.042969 33.042969 19.21875 33.042969 19.390625 L 33.042969 19.914062 C 33.042969 20.085938 32.871094 20.175781 32.695312 20.175781 L 31.304688 20.175781 C 31.128906 20.175781 31.042969 20.085938 31.042969 19.914062 L 31.042969 19.390625 C 31.042969 19.21875 31.128906 19.042969 31.304688 19.042969 Z M 31.304688 19.042969 "/>
<path style=" stroke:none;fill-rule:evenodd;fill:rgb(27.843139%,33.333334%,38.82353%);fill-opacity:1;" d="M 25.824219 20.957031 L 27.21875 20.957031 C 27.390625 20.957031 27.476562 21.042969 27.476562 21.21875 L 27.476562 21.738281 C 27.476562 21.914062 27.390625 22.085938 27.21875 22.085938 L 25.824219 22.085938 C 25.652344 22.085938 25.476562 21.914062 25.476562 21.738281 L 25.476562 21.21875 C 25.476562 21.042969 25.652344 20.957031 25.824219 20.957031 Z M 25.824219 20.957031 "/>
<path style=" stroke:none;fill-rule:evenodd;fill:rgb(27.843139%,33.333334%,38.82353%);fill-opacity:1;" d="M 28.523438 20.957031 L 30 20.957031 C 30.175781 20.957031 30.261719 21.042969 30.261719 21.21875 L 30.261719 21.738281 C 30.261719 21.914062 30.175781 22.085938 30 22.085938 L 28.523438 22.085938 C 28.433594 22.085938 28.261719 21.914062 28.261719 21.738281 L 28.261719 21.21875 C 28.261719 21.042969 28.433594 20.957031 28.523438 20.957031 Z M 28.523438 20.957031 "/>
<path style=" stroke:none;fill-rule:evenodd;fill:rgb(27.843139%,33.333334%,38.82353%);fill-opacity:1;" d="M 31.304688 20.957031 L 32.695312 20.957031 C 32.871094 20.957031 33.042969 21.042969 33.042969 21.21875 L 33.042969 21.738281 C 33.042969 21.914062 32.871094 22.085938 32.695312 22.085938 L 31.304688 22.085938 C 31.128906 22.085938 31.042969 21.914062 31.042969 21.738281 L 31.042969 21.21875 C 31.042969 21.042969 31.128906 20.957031 31.304688 20.957031 Z M 31.304688 20.957031 "/>
<path style=" stroke:none;fill-rule:evenodd;fill:rgb(27.843139%,33.333334%,38.82353%);fill-opacity:1;" d="M 25.824219 22.871094 L 27.21875 22.871094 C 27.390625 22.871094 27.476562 22.957031 27.476562 23.128906 L 27.476562 23.652344 C 27.476562 23.824219 27.390625 23.914062 27.21875 23.914062 L 25.824219 23.914062 C 25.652344 23.914062 25.476562 23.824219 25.476562 23.652344 L 25.476562 23.128906 C 25.476562 22.957031 25.652344 22.871094 25.824219 22.871094 Z M 25.824219 22.871094 "/>
<path style=" stroke:none;fill-rule:evenodd;fill:rgb(27.843139%,33.333334%,38.82353%);fill-opacity:1;" d="M 28.523438 22.871094 L 30 22.871094 C 30.175781 22.871094 30.261719 22.957031 30.261719 23.128906 L 30.261719 23.652344 C 30.261719 23.824219 30.175781 23.914062 30 23.914062 L 28.523438 23.914062 C 28.433594 23.914062 28.261719 23.824219 28.261719 23.652344 L 28.261719 23.128906 C 28.261719 22.957031 28.433594 22.871094 28.523438 22.871094 Z M 28.523438 22.871094 "/>
<path style=" stroke:none;fill-rule:evenodd;fill:rgb(27.843139%,33.333334%,38.82353%);fill-opacity:1;" d="M 31.304688 22.871094 L 32.695312 22.871094 C 32.871094 22.871094 33.042969 22.957031 33.042969 23.128906 L 33.042969 23.652344 C 33.042969 23.824219 32.871094 23.914062 32.695312 23.914062 L 31.304688 23.914062 C 31.128906 23.914062 31.042969 23.824219 31.042969 23.652344 L 31.042969 23.128906 C 31.042969 22.957031 31.128906 22.871094 31.304688 22.871094 Z M 31.304688 22.871094 "/>
<path style=" stroke:none;fill-rule:evenodd;fill:rgb(44.705883%,81.176472%,48.235294%);fill-opacity:1;" d="M 25.824219 24.78125 L 27.21875 24.78125 C 27.390625 24.78125 27.476562 24.957031 27.476562 25.042969 L 27.476562 26.433594 C 27.476562 26.609375 27.390625 26.695312 27.21875 26.695312 L 25.824219 26.695312 C 25.652344 26.695312 25.476562 26.609375 25.476562 26.433594 L 25.476562 25.042969 C 25.476562 24.957031 25.652344 24.78125 25.824219 24.78125 Z M 25.824219 24.78125 "/>
<path style=" stroke:none;fill-rule:evenodd;fill:rgb(100%,34.117648%,41.960785%);fill-opacity:1;" d="M 28.523438 24.78125 L 30 24.78125 C 30.175781 24.78125 30.261719 24.957031 30.261719 25.042969 L 30.261719 26.433594 C 30.261719 26.609375 30.175781 26.695312 30 26.695312 L 28.523438 26.695312 C 28.347656 26.695312 28.261719 26.609375 28.261719 26.433594 L 28.261719 25.042969 C 28.261719 24.957031 28.347656 24.78125 28.523438 24.78125 Z M 28.523438 24.78125 "/>
<path style=" stroke:none;fill-rule:evenodd;fill:rgb(100%,76.862746%,18.039216%);fill-opacity:1;" d="M 31.304688 24.78125 L 32.78125 24.78125 C 32.871094 24.78125 33.042969 24.957031 33.042969 25.042969 L 33.042969 26.433594 C 33.042969 26.609375 32.871094 26.695312 32.78125 26.695312 L 31.304688 26.695312 C 31.128906 26.695312 31.042969 26.609375 31.042969 26.433594 L 31.042969 25.042969 C 31.042969 24.957031 31.128906 24.78125 31.304688 24.78125 Z M 31.304688 24.78125 "/>
<path style=" stroke:none;fill-rule:evenodd;fill:rgb(25.098041%,68.235296%,92.941177%);fill-opacity:1;" d="M 22.347656 8.085938 L 36.175781 8.085938 L 36.175781 12 L 22.347656 12 Z M 22.347656 8.085938 "/>
<path style=" stroke:none;fill-rule:evenodd;fill:rgb(88.235295%,89.803922%,92.941177%);fill-opacity:1;" d="M 6.695312 15.304688 L 19.390625 15.304688 L 19.390625 29.128906 L 6.695312 29.128906 Z M 6.695312 15.304688 "/>
<path style=" stroke:none;fill-rule:evenodd;fill:rgb(85.09804%,86.274511%,88.627452%);fill-opacity:1;" d="M 10.261719 15.304688 L 18.261719 15.304688 L 18.261719 18.433594 L 10.261719 18.433594 Z M 10.261719 15.304688 "/>
<path style=" stroke:none;fill-rule:evenodd;fill:rgb(65.490198%,70.980394%,76.862746%);fill-opacity:1;" d="M 8.957031 17.566406 L 17.042969 17.566406 C 17.566406 17.566406 17.914062 18 17.914062 18.433594 C 17.914062 18.871094 17.566406 19.304688 17.042969 19.304688 L 8.957031 19.304688 C 8.523438 19.304688 8.175781 18.871094 8.175781 18.433594 C 8.175781 18 8.523438 17.566406 8.957031 17.566406 Z M 8.957031 17.566406 "/>
<path style=" stroke:none;fill-rule:evenodd;fill:rgb(85.09804%,86.274511%,88.627452%);fill-opacity:1;" d="M 6.695312 15.304688 L 19.390625 15.304688 L 19.390625 15.914062 L 6.695312 15.914062 Z M 6.695312 15.304688 "/>
<path style=" stroke:none;fill-rule:evenodd;fill:rgb(40.784314%,46.666667%,52.941179%);fill-opacity:1;" d="M 8.695312 18.261719 L 17.390625 18.261719 L 17.390625 18.609375 L 8.695312 18.609375 Z M 8.695312 18.261719 "/>
<path style=" stroke:none;fill-rule:evenodd;fill:rgb(50.588238%,54.11765%,58.039218%);fill-opacity:1;" d="M 16.175781 34 L 24 34 C 24.433594 34 24.78125 34.347656 24.78125 34.871094 C 24.78125 35.304688 24.433594 35.652344 24 35.652344 L 16.175781 35.652344 C 15.738281 35.652344 15.304688 35.304688 15.304688 34.871094 C 15.304688 34.347656 15.738281 34 16.175781 34 Z M 16.175781 34 "/>
<path style=" stroke:none;fill-rule:evenodd;fill:rgb(88.235295%,89.019608%,90.980393%);fill-opacity:1;" d="M 16.085938 33.824219 L 24.085938 33.824219 C 25.128906 33.824219 25.128906 35.304688 24.085938 35.304688 L 16.085938 35.304688 C 15.042969 35.304688 15.042969 33.824219 16.085938 33.824219 Z M 16.085938 33.824219 "/>
<path style=" stroke:none;fill-rule:evenodd;fill:rgb(27.843139%,33.333334%,38.82353%);fill-opacity:1;" d="M 9.566406 20.957031 L 10.957031 20.957031 C 11.128906 20.957031 11.304688 21.042969 11.304688 21.21875 L 11.304688 21.738281 C 11.304688 21.914062 11.128906 22 10.957031 22 L 9.566406 22 C 9.390625 22 9.304688 21.914062 9.304688 21.738281 L 9.304688 21.21875 C 9.304688 21.042969 9.390625 20.957031 9.566406 20.957031 Z M 9.566406 20.957031 "/>
<path style=" stroke:none;fill-rule:evenodd;fill:rgb(27.843139%,33.333334%,38.82353%);fill-opacity:1;" d="M 12.347656 20.957031 L 13.738281 20.957031 C 13.914062 20.957031 14 21.042969 14 21.21875 L 14 21.738281 C 14 21.914062 13.914062 22 13.738281 22 L 12.347656 22 C 12.175781 22 12.085938 21.914062 12.085938 21.738281 L 12.085938 21.21875 C 12.085938 21.042969 12.175781 20.957031 12.347656 20.957031 Z M 12.347656 20.957031 "/>
<path style=" stroke:none;fill-rule:evenodd;fill:rgb(27.843139%,33.333334%,38.82353%);fill-opacity:1;" d="M 15.042969 20.957031 L 16.523438 20.957031 C 16.695312 20.957031 16.78125 21.042969 16.78125 21.21875 L 16.78125 21.738281 C 16.78125 21.914062 16.695312 22 16.523438 22 L 15.042969 22 C 14.957031 22 14.78125 21.914062 14.78125 21.738281 L 14.78125 21.21875 C 14.78125 21.042969 14.957031 20.957031 15.042969 20.957031 Z M 15.042969 20.957031 "/>
<path style=" stroke:none;fill-rule:evenodd;fill:rgb(27.843139%,33.333334%,38.82353%);fill-opacity:1;" d="M 9.566406 22.78125 L 10.957031 22.78125 C 11.128906 22.78125 11.304688 22.957031 11.304688 23.042969 L 11.304688 23.652344 C 11.304688 23.738281 11.128906 23.914062 10.957031 23.914062 L 9.566406 23.914062 C 9.390625 23.914062 9.304688 23.738281 9.304688 23.652344 L 9.304688 23.042969 C 9.304688 22.957031 9.390625 22.78125 9.566406 22.78125 Z M 9.566406 22.78125 "/>
<path style=" stroke:none;fill-rule:evenodd;fill:rgb(27.843139%,33.333334%,38.82353%);fill-opacity:1;" d="M 12.347656 22.78125 L 13.738281 22.78125 C 13.914062 22.78125 14 22.957031 14 23.042969 L 14 23.652344 C 14 23.738281 13.914062 23.914062 13.738281 23.914062 L 12.347656 23.914062 C 12.175781 23.914062 12.085938 23.738281 12.085938 23.652344 L 12.085938 23.042969 C 12.085938 22.957031 12.175781 22.78125 12.347656 22.78125 Z M 12.347656 22.78125 "/>
<path style=" stroke:none;fill-rule:evenodd;fill:rgb(27.843139%,33.333334%,38.82353%);fill-opacity:1;" d="M 15.042969 22.78125 L 16.523438 22.78125 C 16.695312 22.78125 16.78125 22.957031 16.78125 23.042969 L 16.78125 23.652344 C 16.78125 23.738281 16.695312 23.914062 16.523438 23.914062 L 15.042969 23.914062 C 14.957031 23.914062 14.78125 23.738281 14.78125 23.652344 L 14.78125 23.042969 C 14.78125 22.957031 14.957031 22.78125 15.042969 22.78125 Z M 15.042969 22.78125 "/>
<path style=" stroke:none;fill-rule:evenodd;fill:rgb(27.843139%,33.333334%,38.82353%);fill-opacity:1;" d="M 9.566406 24.695312 L 10.957031 24.695312 C 11.128906 24.695312 11.304688 24.78125 11.304688 24.957031 L 11.304688 25.476562 C 11.304688 25.652344 11.128906 25.738281 10.957031 25.738281 L 9.566406 25.738281 C 9.390625 25.738281 9.304688 25.652344 9.304688 25.476562 L 9.304688 24.957031 C 9.304688 24.78125 9.390625 24.695312 9.566406 24.695312 Z M 9.566406 24.695312 "/>
<path style=" stroke:none;fill-rule:evenodd;fill:rgb(27.843139%,33.333334%,38.82353%);fill-opacity:1;" d="M 12.347656 24.695312 L 13.738281 24.695312 C 13.914062 24.695312 14 24.78125 14 24.957031 L 14 25.476562 C 14 25.652344 13.914062 25.738281 13.738281 25.738281 L 12.347656 25.738281 C 12.175781 25.738281 12.085938 25.652344 12.085938 25.476562 L 12.085938 24.957031 C 12.085938 24.78125 12.175781 24.695312 12.347656 24.695312 Z M 12.347656 24.695312 "/>
<path style=" stroke:none;fill-rule:evenodd;fill:rgb(27.843139%,33.333334%,38.82353%);fill-opacity:1;" d="M 15.042969 24.695312 L 16.523438 24.695312 C 16.695312 24.695312 16.78125 24.78125 16.78125 24.957031 L 16.78125 25.476562 C 16.78125 25.652344 16.695312 25.738281 16.523438 25.738281 L 15.042969 25.738281 C 14.957031 25.738281 14.78125 25.652344 14.78125 25.476562 L 14.78125 24.957031 C 14.78125 24.78125 14.957031 24.695312 15.042969 24.695312 Z M 15.042969 24.695312 "/>
<path style=" stroke:none;fill-rule:evenodd;fill:rgb(27.843139%,33.333334%,38.82353%);fill-opacity:1;" d="M 9.566406 26.609375 L 10.957031 26.609375 C 11.128906 26.609375 11.304688 26.695312 11.304688 26.871094 L 11.304688 27.390625 C 11.304688 27.566406 11.128906 27.652344 10.957031 27.652344 L 9.566406 27.652344 C 9.390625 27.652344 9.304688 27.566406 9.304688 27.390625 L 9.304688 26.871094 C 9.304688 26.695312 9.390625 26.609375 9.566406 26.609375 Z M 9.566406 26.609375 "/>
<path style=" stroke:none;fill-rule:evenodd;fill:rgb(27.843139%,33.333334%,38.82353%);fill-opacity:1;" d="M 12.347656 26.609375 L 13.738281 26.609375 C 13.914062 26.609375 14 26.695312 14 26.871094 L 14 27.390625 C 14 27.566406 13.914062 27.652344 13.738281 27.652344 L 12.347656 27.652344 C 12.175781 27.652344 12.085938 27.566406 12.085938 27.390625 L 12.085938 26.871094 C 12.085938 26.695312 12.175781 26.609375 12.347656 26.609375 Z M 12.347656 26.609375 "/>
<path style=" stroke:none;fill-rule:evenodd;fill:rgb(27.843139%,33.333334%,38.82353%);fill-opacity:1;" d="M 15.042969 26.609375 L 16.523438 26.609375 C 16.695312 26.609375 16.78125 26.695312 16.78125 26.871094 L 16.78125 27.390625 C 16.78125 27.566406 16.695312 27.652344 16.523438 27.652344 L 15.042969 27.652344 C 14.957031 27.652344 14.78125 27.566406 14.78125 27.390625 L 14.78125 26.871094 C 14.78125 26.695312 14.957031 26.609375 15.042969 26.609375 Z M 15.042969 26.609375 "/>
<path style=" stroke:none;fill-rule:evenodd;fill:rgb(90.196079%,90.196079%,90.196079%);fill-opacity:1;" d="M 18.261719 14.695312 L 17.042969 14.695312 L 17.042969 8.957031 C 17.738281 8.957031 18.261719 9.476562 18.261719 10.175781 Z M 18.261719 14.695312 "/>
<path style=" stroke:none;fill-rule:evenodd;fill:rgb(100%,100%,100%);fill-opacity:1;" d="M 9.042969 18.433594 L 17.042969 18.433594 L 17.042969 10.175781 C 17.042969 9.738281 17.21875 9.21875 17.914062 9.304688 C 17.652344 9.042969 17.304688 8.957031 17.042969 8.957031 L 10.609375 8.957031 C 9.738281 8.957031 9.042969 9.652344 9.042969 10.523438 Z M 9.042969 18.433594 "/>
<path style=" stroke:none;fill-rule:evenodd;fill:rgb(67.450982%,70.19608%,72.941178%);fill-opacity:1;" d="M 3.566406 29.128906 L 36.609375 29.128906 C 36.695312 29.128906 36.78125 29.21875 36.78125 29.304688 L 36.78125 30.085938 L 3.390625 30.085938 L 3.390625 29.304688 C 3.390625 29.21875 3.476562 29.128906 3.566406 29.128906 Z M 3.566406 29.128906 "/>
<path style=" stroke:none;fill-rule:evenodd;fill:rgb(80.784315%,81.960785%,85.09804%);fill-opacity:1;" d="M 4 31.476562 L 36.085938 31.476562 L 36.085938 32.175781 L 4 32.175781 Z M 4 31.476562 "/>
<path style=" stroke:none;fill-rule:evenodd;fill:rgb(22.352941%,60.784316%,83.137256%);fill-opacity:1;" d="M 22.347656 8.085938 L 36.175781 8.085938 L 36.175781 8.609375 L 22.347656 8.609375 Z M 22.347656 8.085938 "/>
<path style=" stroke:none;fill-rule:evenodd;fill:rgb(90.196079%,90.196079%,90.196079%);fill-opacity:1;" d="M 9.042969 17.738281 L 17.042969 17.738281 L 17.042969 18.433594 L 9.042969 18.433594 Z M 9.042969 17.738281 "/>
<path style=" stroke:none;fill-rule:evenodd;fill:rgb(77.254903%,79.215688%,82.745099%);fill-opacity:1;" d="M 10.261719 11.128906 L 15.652344 11.128906 L 15.652344 11.390625 L 10.261719 11.390625 Z M 10.261719 11.128906 "/>
<path style=" stroke:none;fill-rule:evenodd;fill:rgb(77.254903%,79.215688%,82.745099%);fill-opacity:1;" d="M 10.261719 12.261719 L 15.652344 12.261719 L 15.652344 12.609375 L 10.261719 12.609375 Z M 10.261719 12.261719 "/>
<path style=" stroke:none;fill-rule:evenodd;fill:rgb(77.254903%,79.215688%,82.745099%);fill-opacity:1;" d="M 10.261719 13.476562 L 15.652344 13.476562 L 15.652344 13.738281 L 10.261719 13.738281 Z M 10.261719 13.476562 "/>
<path style=" stroke:none;fill-rule:evenodd;fill:rgb(77.254903%,79.215688%,82.745099%);fill-opacity:1;" d="M 10.261719 14.609375 L 15.652344 14.609375 L 15.652344 14.957031 L 10.261719 14.957031 Z M 10.261719 14.609375 "/>
<path style=" stroke:none;fill-rule:evenodd;fill:rgb(77.254903%,79.215688%,82.745099%);fill-opacity:1;" d="M 10.261719 15.824219 L 15.652344 15.824219 L 15.652344 16.085938 L 10.261719 16.085938 Z M 10.261719 15.824219 "/>
<path style=" stroke:none;fill-rule:evenodd;fill:rgb(100%,100%,100%);fill-opacity:1;" d="M 24.78125 34.78125 C 24.871094 34.347656 24.695312 33.824219 24.085938 33.824219 L 16.085938 33.824219 C 15.476562 33.824219 15.21875 34.347656 15.304688 34.78125 C 15.304688 34.726562 15.332031 34.667969 15.390625 34.609375 C 15.476562 34.347656 15.738281 34.175781 16.085938 34.175781 L 24.085938 34.175781 C 24.433594 34.175781 24.695312 34.347656 24.78125 34.609375 C 24.78125 34.667969 24.78125 34.726562 24.78125 34.78125 Z M 24.78125 34.78125 "/>
<path style=" stroke:none;fill-rule:evenodd;fill:rgb(83.92157%,85.490197%,89.019608%);fill-opacity:1;" d="M 27.738281 12.957031 L 31.304688 12.957031 L 31.304688 17.21875 L 27.738281 17.21875 Z M 27.738281 12.957031 "/>
<path style=" stroke:none;fill-rule:evenodd;fill:rgb(88.235295%,89.803922%,92.941177%);fill-opacity:1;" d="M 27.738281 12.957031 L 27.21875 12.957031 L 27.21875 17.042969 L 27.738281 17.21875 Z M 27.738281 12.957031 "/>
<path style=" stroke:none;fill-rule:evenodd;fill:rgb(70.980394%,72.941178%,78.039217%);fill-opacity:1;" d="M 27.738281 12.957031 L 31.304688 12.957031 L 31.304688 14.78125 Z M 27.738281 12.957031 "/>
<path style=" stroke:none;fill-rule:evenodd;fill:rgb(58.431375%,60.784316%,67.058825%);fill-opacity:1;" d="M 4 37.476562 L 36.085938 37.476562 L 36.085938 37.914062 L 4 37.914062 Z M 4 37.476562 "/>
<path style=" stroke:none;fill-rule:evenodd;fill:rgb(97.647059%,98.431373%,98.823529%);fill-opacity:1;" d="M 29.21875 10.175781 L 28.871094 10 L 28.871094 9.304688 L 29.042969 9.128906 L 29.21875 9.304688 Z M 28.957031 9.042969 L 28.78125 9.21875 L 28 9.21875 L 27.824219 9.042969 L 28 8.957031 L 28.78125 8.957031 Z M 29.21875 11.042969 L 29.042969 11.128906 L 28.871094 11.042969 L 28.871094 10.261719 L 29.21875 10.175781 Z M 27.914062 9.914062 L 27.652344 10.085938 L 27.652344 9.21875 L 27.824219 9.042969 L 27.914062 9.21875 Z M 27.914062 11.042969 L 27.824219 11.128906 L 27.652344 11.042969 L 27.652344 10.175781 L 27.914062 10.261719 Z M 28.957031 11.304688 L 28.78125 11.476562 L 28 11.476562 L 27.824219 11.304688 L 28 11.128906 L 28.78125 11.128906 Z M 31.042969 10.175781 L 30.78125 10 L 30.78125 9.304688 L 30.871094 9.128906 L 31.042969 9.304688 Z M 30.871094 9.128906 L 30.695312 9.21875 L 29.914062 9.21875 L 29.738281 9.128906 L 29.914062 8.957031 L 30.695312 8.957031 Z M 31.042969 11.128906 L 30.871094 11.304688 L 30.78125 11.128906 L 30.78125 10.433594 L 31.042969 10.261719 Z M 29.824219 10 L 29.476562 10.175781 L 29.476562 9.304688 L 29.652344 9.21875 L 29.824219 9.304688 Z M 29.824219 11.128906 L 29.652344 11.304688 L 29.476562 11.128906 L 29.476562 10.261719 L 29.824219 10.433594 Z M 30.871094 11.304688 L 30.695312 11.476562 L 29.914062 11.476562 L 29.738281 11.304688 L 29.914062 11.128906 L 30.695312 11.128906 Z M 31.652344 11.476562 L 31.304688 11.476562 L 31.304688 10.957031 L 31.652344 10.957031 Z M 33.476562 10.175781 L 33.128906 10 L 33.128906 9.304688 L 33.304688 9.128906 L 33.476562 9.304688 Z M 33.21875 9.128906 L 33.042969 9.304688 L 32.261719 9.304688 L 32.085938 9.128906 L 32.261719 8.957031 L 33.042969 8.957031 Z M 33.476562 11.128906 L 33.304688 11.304688 L 33.128906 11.128906 L 33.128906 10.433594 L 33.476562 10.261719 Z M 32.261719 10 L 31.914062 10.175781 L 31.914062 9.304688 L 32.085938 9.21875 L 32.261719 9.304688 Z M 32.261719 11.128906 L 32.085938 11.304688 L 31.914062 11.128906 L 31.914062 10.261719 L 32.261719 10.433594 Z M 33.21875 11.304688 L 33.042969 11.476562 L 32.261719 11.476562 L 32.085938 11.304688 L 32.261719 11.21875 L 33.042969 11.21875 Z M 35.390625 10.085938 L 35.042969 9.914062 L 35.042969 9.21875 L 35.21875 9.128906 L 35.390625 9.21875 Z M 35.128906 9.042969 L 34.957031 9.21875 L 34.175781 9.21875 L 34 9.042969 L 34.175781 8.871094 L 34.957031 8.871094 Z M 35.390625 11.128906 L 35.21875 11.21875 L 35.042969 11.128906 L 35.042969 10.347656 L 35.390625 10.261719 Z M 34.085938 10 L 33.824219 10.175781 L 33.824219 9.304688 L 34 9.128906 L 34.085938 9.304688 Z M 34.085938 11.128906 L 34 11.21875 L 33.824219 11.128906 L 33.824219 10.261719 L 34.085938 10.347656 Z M 35.128906 11.390625 L 34.957031 11.476562 L 34.175781 11.476562 L 34 11.390625 L 34.175781 11.21875 L 34.957031 11.21875 Z M 35.128906 11.390625 "/>
</g>
</svg>
