<?xml version="1.0" encoding="UTF-8"?>
<svg xmlns="http://www.w3.org/2000/svg" xmlns:xlink="http://www.w3.org/1999/xlink" width="40px" height="40px" viewBox="0 0 40 40" version="1.1">
<defs>
<clipPath id="clip1">
  <path d="M 0 0.226562 L 39.746094 0.226562 L 39.746094 40 L 0 40 Z M 0 0.226562 "/>
</clipPath>
</defs>
<g id="surface1">
<path style=" stroke:none;fill-rule:nonzero;fill:rgb(0%,0%,0%);fill-opacity:1;" d="M 38.347656 24.582031 C 38.175781 26.183594 37.738281 27.78125 37.128906 29.238281 C 36.347656 29.671875 35.304688 29.964844 34.085938 30.035156 C 32.871094 30.109375 32.175781 29.816406 31.21875 29.527344 C 30.433594 28.144531 29.476562 26.835938 28.347656 25.746094 C 28 25.382812 27.652344 24.945312 27.128906 24.726562 C 28.78125 26.617188 29.914062 28.726562 31.042969 30.910156 C 31.042969 30.957031 31.074219 30.980469 31.128906 30.980469 C 31.476562 31.78125 31.914062 32.582031 32.175781 33.527344 C 32.230469 33.722656 32.261719 33.914062 32.261719 34.109375 C 32.320312 34.109375 32.347656 34.085938 32.347656 34.035156 C 32.578125 33.84375 32.8125 33.625 33.042969 33.382812 C 33.042969 33.382812 33.304688 34.035156 33.390625 34.328125 C 33.21875 34.472656 33.042969 34.617188 32.871094 34.761719 C 32.753906 34.859375 32.636719 34.957031 32.523438 35.054688 C 29.042969 37.890625 24.347656 39.636719 19.128906 39.636719 C 18.261719 39.636719 17.421875 39.585938 16.609375 39.492188 C 17.21875 39.199219 17.824219 38.835938 18.347656 38.398438 C 18.609375 38.253906 18.871094 38.035156 19.21875 37.890625 C 19.738281 37.601562 20.433594 37.453125 21.042969 37.238281 C 21.332031 37.089844 21.625 36.96875 21.914062 36.871094 C 22.261719 36.726562 22.523438 36.582031 22.78125 36.507812 C 23.128906 36.363281 23.566406 36.363281 24 36.289062 C 24.433594 36.21875 24.78125 36.144531 25.128906 36.074219 C 25.738281 35.925781 26.957031 35.636719 26.957031 35.054688 C 26.871094 34.691406 26.085938 34.472656 25.738281 34.328125 C 25.21875 34.183594 24.609375 34.109375 24.175781 33.964844 C 24.175781 32.21875 23.566406 30.980469 22.695312 29.964844 C 22 29.042969 21.042969 28.339844 19.824219 27.855469 C 21.042969 26.980469 22 25.914062 22.695312 24.65625 C 23.914062 23.78125 24.871094 22.835938 25.824219 21.890625 C 27.652344 22.183594 29.128906 22.910156 30.347656 23.78125 C 30.523438 23.925781 30.871094 24.074219 30.871094 24.21875 C 30.957031 24.363281 30.871094 24.582031 30.871094 24.800781 C 30.871094 26.183594 31.21875 27.273438 32 28.144531 C 31.824219 27.417969 31.738281 26.546875 31.566406 25.746094 C 31.738281 26.035156 31.941406 26.277344 32.175781 26.472656 C 32.175781 26.472656 32.175781 26.546875 32.175781 26.472656 C 31.738281 25.382812 31.476562 24.074219 31.128906 22.835938 C 30.78125 22.035156 30.433594 21.089844 30.261719 20.144531 C 30.261719 19.855469 30.085938 19.417969 30.523438 19.34375 C 30.261719 19.925781 30.695312 20.507812 31.128906 20.726562 C 32.695312 21.601562 35.914062 20.871094 36.347656 19.492188 C 36.433594 19.054688 36.261719 18.472656 36.085938 18.253906 C 36 18.183594 35.824219 18.035156 35.914062 17.890625 C 36.433594 18.109375 36.433594 18.546875 36.695312 19.128906 C 37.21875 20.800781 38 22.617188 38.347656 24.582031 Z M 38.347656 24.582031 "/>
<path style=" stroke:none;fill-rule:nonzero;fill:rgb(0%,0%,0%);fill-opacity:1;" d="M 34.085938 30.035156 C 35.304688 29.964844 36.347656 29.671875 37.128906 29.238281 C 36.957031 29.574219 36.753906 29.9375 36.523438 30.328125 C 35.128906 30.761719 33.390625 30.910156 31.824219 30.472656 C 32.085938 31.128906 32.433594 31.710938 32.695312 32.363281 C 32.871094 32.703125 32.984375 33.042969 33.042969 33.382812 C 32.8125 33.625 32.550781 33.867188 32.261719 34.109375 C 32.085938 32.945312 31.566406 31.925781 31.042969 30.910156 C 29.914062 28.726562 28.78125 26.617188 27.128906 24.726562 C 27.652344 24.945312 28 25.382812 28.347656 25.746094 C 29.476562 26.835938 30.433594 28.144531 31.21875 29.527344 C 32.175781 29.816406 32.871094 30.109375 34.085938 30.035156 Z M 34.085938 30.035156 "/>
<path style=" stroke:none;fill-rule:nonzero;fill:rgb(92.54902%,64.313728%,34.117648%);fill-opacity:1;" d="M 19.304688 36.726562 C 16.957031 36.945312 14.433594 36.871094 12.085938 36.800781 C 12.433594 36.945312 12.871094 36.945312 13.21875 37.089844 C 12.925781 37.140625 12.609375 37.164062 12.261719 37.164062 C 12.78125 37.453125 13.476562 37.601562 14 37.890625 C 13.652344 37.964844 13.304688 37.816406 13.042969 37.890625 C 13.738281 38.328125 15.042969 38.691406 16.261719 38.472656 C 17.042969 38.328125 17.914062 37.964844 18.695312 37.601562 C 19.566406 37.308594 20.347656 36.945312 20.957031 36.65625 C 19.824219 36.65625 19.21875 37.238281 18.261719 37.382812 C 18.523438 37.089844 18.957031 36.945312 19.304688 36.726562 Z M 19.304688 36.726562 "/>
<path style=" stroke:none;fill-rule:nonzero;fill:rgb(100%,100%,100%);fill-opacity:1;" d="M 24.085938 34.761719 C 22.957031 35.199219 21.566406 35.273438 20.085938 35.417969 C 18.609375 35.5625 17.042969 35.5625 15.476562 35.5625 C 13.914062 35.5625 12.347656 35.5625 10.871094 35.417969 C 9.476562 35.273438 8 35.199219 6.957031 34.691406 C 6.871094 34.691406 7.042969 34.472656 6.871094 34.472656 C 6.085938 34.617188 5.304688 34.761719 4.78125 35.128906 C 5.042969 35.417969 5.652344 35.5625 6.085938 35.636719 C 7.738281 35.925781 9.566406 36.074219 11.390625 36.144531 C 13.914062 36.21875 16.695312 36.289062 19.128906 36.144531 C 21.128906 36.074219 23.128906 36 24.78125 35.636719 C 25.304688 35.5625 25.914062 35.417969 26.261719 35.128906 C 25.738281 34.691406 24.871094 34.617188 24.085938 34.472656 C 24 34.546875 24.175781 34.691406 24.085938 34.761719 Z M 24.085938 34.761719 "/>
<path style=" stroke:none;fill-rule:nonzero;fill:rgb(70.19608%,69.803923%,70.19608%);fill-opacity:1;" d="M 16.261719 27.273438 C 16.347656 27.054688 16.433594 26.910156 16.347656 26.761719 C 16.175781 26.253906 14.957031 26.253906 14.695312 26.617188 C 14.523438 26.835938 14.609375 27.128906 14.78125 27.273438 C 15.042969 27.492188 15.914062 27.492188 16.261719 27.273438 Z M 16.261719 27.273438 "/>
<path style=" stroke:none;fill-rule:nonzero;fill:rgb(100%,100%,100%);fill-opacity:1;" d="M 15.304688 25.816406 C 13.652344 25.601562 11.914062 25.238281 11.21875 24.4375 C 11.21875 24.386719 11.1875 24.363281 11.128906 24.363281 C 10 25.089844 8.957031 26.109375 8.175781 27.34375 C 7.390625 28.582031 6.871094 29.964844 6.695312 31.5625 C 6.695312 31.855469 6.695312 32.144531 6.695312 32.4375 C 6.78125 32.65625 6.78125 32.871094 6.871094 33.089844 C 7.476562 29.601562 9.914062 27.636719 14.261719 27.273438 C 13.566406 26.183594 15.21875 25.671875 16.261719 26.035156 C 16.78125 26.183594 17.042969 26.691406 16.78125 27.273438 C 17.738281 27.34375 18.523438 27.492188 19.304688 27.710938 C 20 27.199219 20.78125 26.546875 21.304688 25.890625 C 21.476562 25.671875 21.738281 25.453125 21.824219 25.164062 C 21.304688 25.382812 20.78125 25.816406 20.175781 25.890625 C 18.78125 26.183594 16.871094 25.964844 15.304688 25.816406 Z M 15.304688 25.816406 "/>
<path style=" stroke:none;fill-rule:nonzero;fill:rgb(100%,100%,100%);fill-opacity:1;" d="M 11.738281 24.144531 C 12.175781 24.4375 12.695312 24.582031 13.304688 24.800781 C 14.871094 25.308594 16.957031 25.527344 19.21875 25.453125 C 19.21875 25.238281 18.957031 25.164062 18.78125 25.019531 C 15.652344 24.945312 13.390625 24.21875 11.738281 22.835938 C 11.824219 23.273438 11.738281 23.636719 11.738281 24.144531 Z M 11.738281 24.144531 "/>
<path style=" stroke:none;fill-rule:nonzero;fill:rgb(78.039217%,78.039217%,78.039217%);fill-opacity:1;" d="M 15.476562 27.78125 C 15.128906 27.78125 14.695312 27.78125 14.347656 27.78125 C 12.433594 27.855469 10.871094 28.507812 9.652344 29.453125 C 8.261719 30.617188 7.21875 32.289062 7.476562 34.472656 C 9.738281 34.980469 12.609375 35.199219 15.476562 35.199219 C 18.347656 35.199219 21.21875 34.980469 23.476562 34.472656 C 23.738281 33.089844 23.304688 31.925781 22.695312 30.980469 C 21.914062 29.671875 20.433594 28.65625 18.78125 28.144531 C 17.824219 27.855469 16.695312 27.78125 15.476562 27.78125 Z M 15.476562 27.78125 "/>
<path style=" stroke:none;fill-rule:nonzero;fill:rgb(100%,100%,100%);fill-opacity:1;" d="M 12.085938 12.21875 C 14.175781 11.199219 16.609375 10.398438 19.476562 10.253906 C 20.609375 10.253906 21.476562 10.328125 22.433594 10.472656 C 22.175781 9.746094 22 9.019531 21.824219 8.289062 C 19.390625 8.726562 16.523438 8.4375 14.78125 7.710938 C 12.871094 8 11.304688 8.582031 9.738281 9.308594 C 8.609375 9.890625 7.652344 10.472656 6.78125 11.199219 C 6.609375 11.417969 6 11.855469 6 12.074219 C 6 12.144531 6.175781 12.289062 6.261719 12.4375 C 6.433594 12.871094 6.609375 13.382812 6.78125 13.746094 C 6.957031 14.253906 7.304688 14.980469 7.304688 15.5625 C 7.390625 15.78125 7.21875 16.144531 7.476562 16.363281 C 8.523438 14.691406 10.085938 13.238281 12.085938 12.21875 Z M 12.085938 12.21875 "/>
<path style=" stroke:none;fill-rule:nonzero;fill:rgb(100%,100%,100%);fill-opacity:1;" d="M 3.304688 11.855469 C 4.085938 12.144531 5.128906 12 5.738281 11.710938 C 6 11.34375 6.261719 10.980469 6.609375 10.691406 C 6.695312 10.617188 6.957031 10.472656 6.871094 10.398438 C 6.175781 10.328125 5.476562 10.109375 5.304688 9.671875 C 5.914062 9.890625 6.78125 10.183594 7.566406 9.964844 C 7.738281 9.890625 7.824219 9.746094 8 9.671875 C 8.433594 9.382812 8.957031 9.089844 9.390625 8.871094 C 8.78125 8.726562 8.433594 8.4375 8.261719 7.925781 C 8.695312 8.289062 9.128906 8.65625 10.175781 8.507812 C 11.21875 8 12.433594 7.636719 13.652344 7.273438 C 12.523438 6.835938 10.957031 6.546875 9.304688 6.691406 C 8.78125 6.691406 8.261719 6.835938 7.824219 6.835938 C 8.609375 6.472656 9.652344 6.183594 10.957031 6.183594 C 12.433594 6.253906 13.652344 6.691406 14.871094 7.054688 C 16.175781 7.417969 17.390625 7.855469 18.871094 7.925781 C 22.433594 8.144531 24.523438 6.835938 25.042969 4.21875 C 25.21875 5.671875 24.347656 6.761719 23.476562 7.492188 C 23.21875 7.710938 22.957031 7.925781 22.609375 8.074219 C 22.695312 8.4375 22.78125 8.726562 22.871094 9.089844 C 23.914062 8.726562 24.609375 8.074219 25.21875 7.273438 C 25.738281 6.472656 26.175781 5.382812 26.085938 4.21875 C 25.914062 2.472656 24.695312 1.527344 22.78125 1.164062 C 21.914062 0.945312 20.695312 0.871094 19.566406 0.945312 C 17.390625 1.164062 15.652344 1.527344 13.914062 1.964844 C 13.304688 2.109375 12.695312 2.328125 12.085938 2.109375 C 12.523438 1.964844 12.957031 1.890625 13.390625 1.746094 C 10.085938 0.945312 6.871094 1.890625 4.957031 3.34375 C 3.304688 4.582031 2.261719 6.472656 2.523438 8.945312 C 1.824219 9.601562 0.78125 10.546875 1.21875 11.855469 C 1.566406 12.726562 2.433594 13.238281 3.566406 13.527344 C 4.175781 14.109375 5.042969 14.472656 6.347656 14.398438 C 6.085938 13.671875 5.738281 12.945312 5.476562 12.21875 C 4.78125 12.4375 3.566406 12.4375 3.304688 11.855469 Z M 3.304688 11.855469 "/>
<path style=" stroke:none;fill-rule:nonzero;fill:rgb(100%,100%,100%);fill-opacity:1;" d="M 22.085938 24.289062 C 21.476562 24.582031 20.78125 24.726562 20 24.871094 C 20 25.089844 19.914062 25.238281 19.824219 25.453125 C 20.695312 25.164062 21.390625 24.726562 22.085938 24.289062 Z M 22.085938 24.289062 "/>
<path style=" stroke:none;fill-rule:nonzero;fill:rgb(100%,100%,100%);fill-opacity:1;" d="M 15.738281 39.054688 C 13.652344 39.34375 12 38.691406 11.652344 37.308594 C 11.21875 36.945312 10.261719 37.089844 10 36.65625 C 9.390625 36.582031 8.695312 36.582031 8.175781 36.507812 C 9.476562 38.183594 12.261719 39.925781 15.652344 39.128906 C 15.652344 39.054688 15.914062 39.054688 15.738281 39.054688 Z M 15.738281 39.054688 "/>
<path style=" stroke:none;fill-rule:nonzero;fill:rgb(30.19608%,30.588236%,30.588236%);fill-opacity:1;" d="M 18.523438 11.710938 C 18.433594 12.074219 18.695312 12.289062 18.78125 12.65625 C 19.390625 12.074219 20.695312 11.636719 21.824219 12 C 21.914062 11.78125 22 11.5625 22 11.34375 C 21.738281 11.128906 21.304688 10.910156 20.78125 10.835938 C 19.914062 10.761719 18.695312 11.34375 18.523438 11.710938 Z M 18.523438 11.710938 "/>
<path style=" stroke:none;fill-rule:nonzero;fill:rgb(30.19608%,30.588236%,30.588236%);fill-opacity:1;" d="M 10.523438 13.816406 C 10.523438 13.769531 10.492188 13.746094 10.433594 13.746094 C 10.175781 13.964844 9.914062 14.183594 9.652344 14.398438 C 9.21875 14.835938 8.78125 15.34375 8.347656 15.855469 C 8.175781 16.074219 7.738281 16.4375 7.738281 16.65625 C 7.738281 16.871094 8 17.019531 8.085938 17.238281 C 8.347656 17.019531 8.871094 16.871094 9.304688 17.019531 C 10.261719 17.164062 10.523438 18.183594 10.609375 19.054688 C 10.78125 19.34375 10.957031 19.5625 11.304688 19.710938 C 10.957031 19.054688 10.957031 18.183594 10.957031 17.308594 C 11.042969 16 10.871094 14.761719 10.523438 13.816406 Z M 10.523438 13.816406 "/>
<path style=" stroke:none;fill-rule:nonzero;fill:rgb(30.19608%,30.588236%,30.588236%);fill-opacity:1;" d="M 15.824219 14.109375 C 15.21875 13.308594 13.21875 13.238281 12.261719 13.746094 C 12.320312 14.183594 12.464844 14.546875 12.695312 14.835938 C 13.476562 14.472656 14.433594 14.035156 15.824219 14.109375 Z M 15.824219 14.109375 "/>
<path style=" stroke:none;fill-rule:nonzero;fill:rgb(30.19608%,30.588236%,30.588236%);fill-opacity:1;" d="M 21.21875 17.816406 C 20.957031 17.964844 20.695312 18.183594 20.261719 18.253906 C 19.824219 18.328125 19.390625 18.328125 18.871094 18.398438 C 18.78125 18.398438 18.609375 18.398438 18.523438 18.472656 C 18.347656 18.472656 18.175781 18.472656 18.085938 18.472656 C 17.824219 18.546875 17.738281 18.761719 17.566406 18.835938 C 17.042969 19.199219 16.347656 19.492188 15.566406 19.5625 C 14.347656 19.636719 13.652344 19.199219 13.042969 18.835938 C 13.304688 19.710938 14.175781 20.289062 15.304688 20.4375 C 17.042969 20.726562 18.78125 20.144531 19.566406 19.34375 C 19.738281 19.273438 19.914062 19.054688 20 18.980469 C 20.175781 18.980469 20.347656 19.054688 20.433594 19.054688 C 21.390625 19.199219 22.347656 19.054688 22.957031 18.691406 C 23.914062 18.183594 24.347656 16.65625 23.824219 15.492188 C 23.914062 16.945312 22.78125 17.601562 21.21875 17.816406 Z M 21.21875 17.816406 "/>
<path style=" stroke:none;fill-rule:nonzero;fill:rgb(92.54902%,64.313728%,34.117648%);fill-opacity:1;" d="M 29.390625 15.273438 C 29.476562 14.910156 29.566406 14.472656 29.21875 14.328125 C 28.957031 14.183594 28.523438 14.253906 28.523438 14.472656 C 28.433594 14.691406 28.695312 14.910156 28.695312 15.128906 C 28.957031 15.054688 29.21875 15.199219 29.390625 15.273438 Z M 29.390625 15.273438 "/>
<path style=" stroke:none;fill-rule:evenodd;fill:rgb(92.54902%,64.313728%,34.117648%);fill-opacity:1;" d="M 26.261719 18.980469 C 26 20.4375 25.042969 21.671875 24 22.617188 C 23.476562 23.101562 22.839844 23.515625 22.085938 23.855469 C 21.476562 24.144531 20.609375 24.507812 19.738281 24.582031 C 18.695312 24.726562 17.476562 24.582031 16.523438 24.4375 C 13.652344 23.925781 11.738281 22.617188 10.695312 20.582031 C 10.433594 20.871094 10.261719 21.238281 9.738281 21.308594 C 8 21.527344 7.042969 18.910156 8.085938 17.964844 C 8.433594 17.601562 9.390625 17.453125 9.824219 17.890625 C 10.175781 18.691406 10.347656 19.5625 11.128906 20 C 11.304688 20.074219 11.566406 20.21875 11.738281 20.074219 C 11.914062 19.925781 11.390625 19.199219 11.390625 18.910156 C 11.304688 17.964844 11.566406 16.871094 11.476562 15.925781 C 11.390625 14.980469 11.042969 14.183594 10.78125 13.527344 C 13.128906 12.074219 15.824219 10.835938 19.824219 10.691406 C 19.21875 10.980469 18.347656 11.199219 18.261719 11.78125 C 18.175781 12.21875 18.523438 12.65625 18.695312 12.945312 C 19.042969 12.871094 19.042969 12.65625 19.21875 12.507812 C 19.738281 12.21875 20.609375 12 21.304688 12.074219 C 21.476562 12.144531 21.738281 12.363281 22 12.289062 C 22.175781 12.21875 22.347656 11.492188 22.261719 11.34375 C 22.175781 10.980469 21.824219 10.980469 21.652344 10.761719 C 22 10.835938 22.347656 10.910156 22.609375 11.054688 C 22.871094 11.855469 23.042969 12.507812 23.390625 13.164062 C 23.738281 13.746094 24.261719 14.253906 24.78125 14.761719 C 25.824219 15.78125 26.609375 16.945312 26.261719 18.980469 Z M 21.824219 22.835938 C 21.566406 22.910156 21.476562 23.054688 21.21875 23.128906 C 20.78125 23.34375 20.175781 23.5625 19.476562 23.5625 C 18.523438 23.636719 17.914062 23.417969 17.128906 23.273438 C 17.566406 23.855469 18.523438 24.144531 19.652344 24.074219 C 20.609375 24 21.566406 23.417969 21.824219 22.835938 Z M 12.609375 15.199219 C 12.695312 15.199219 13.042969 15.054688 13.21875 14.910156 C 13.476562 14.835938 13.652344 14.691406 13.824219 14.691406 C 14.609375 14.398438 15.390625 14.328125 16.261719 14.328125 C 16.261719 14.035156 16 13.890625 15.738281 13.671875 C 15.21875 13.382812 14.523438 13.164062 13.652344 13.238281 C 13.128906 13.238281 12.175781 13.382812 12 13.746094 C 11.914062 14.035156 12.085938 14.328125 12.175781 14.617188 C 12.261719 14.761719 12.347656 15.199219 12.609375 15.199219 Z M 9.566406 19.78125 C 9.566406 19.636719 9.824219 19.417969 9.824219 19.273438 C 9.914062 19.128906 9.652344 18.910156 9.566406 18.835938 C 9.390625 18.546875 9.128906 18.328125 8.871094 18.253906 C 8.261719 18.253906 7.914062 18.910156 8.261719 19.34375 C 8.175781 18.835938 8.347656 18.546875 8.695312 18.472656 C 9.128906 18.472656 9.304688 18.980469 9.476562 19.273438 C 9.042969 19.636719 9.21875 20.4375 9.824219 20.4375 C 9.566406 20.289062 9.476562 20.074219 9.566406 19.78125 Z M 23.304688 14.691406 C 23.246094 14.691406 23.21875 14.691406 23.21875 14.691406 C 23.304688 14.910156 23.390625 14.980469 23.476562 15.128906 C 23.824219 16.4375 22.695312 17.382812 21.476562 17.453125 C 21.824219 16.871094 21.652344 16.144531 21.21875 15.78125 C 20.695312 15.417969 19.914062 15.636719 19.390625 15.273438 C 19.128906 15.128906 19.128906 14.910156 18.957031 14.761719 C 18.957031 15.925781 20.523438 15.492188 21.042969 16.144531 C 21.652344 16.871094 20.957031 17.890625 19.914062 17.964844 C 19.652344 18.035156 19.21875 17.964844 18.871094 17.964844 C 18.695312 17.964844 18.523438 18.035156 18.433594 18.109375 C 17.476562 18.253906 17.128906 17.671875 17.652344 17.164062 C 16.957031 17.238281 16.957031 18.183594 17.476562 18.398438 C 16.609375 19.34375 13.304688 19.5625 12.871094 18.183594 C 12.433594 19.78125 13.914062 20.507812 15.390625 20.800781 C 15.824219 22.109375 17.128906 23.128906 19.21875 22.910156 C 21.390625 22.761719 22.957031 21.089844 22.78125 19.128906 C 24.523438 18.691406 24.871094 15.492188 23.304688 14.691406 Z M 23.304688 14.691406 "/>
<path style=" stroke:none;fill-rule:evenodd;fill:rgb(92.54902%,64.313728%,34.117648%);fill-opacity:1;" d="M 35.738281 16.144531 C 35.738281 17.238281 34.957031 17.964844 34.433594 18.761719 C 34.78125 18.761719 35.128906 18.472656 35.476562 18.328125 C 35.566406 18.835938 35.824219 19.199219 35.476562 19.5625 C 34.78125 20.289062 32.695312 20.800781 31.390625 20.289062 C 31.304688 20 31.21875 19.636719 31.042969 19.34375 C 31.476562 19.34375 31.914062 19.273438 32.175781 19.054688 C 31.21875 18.910156 30.085938 18.472656 29.128906 18.109375 C 28.871094 18.035156 28.347656 17.816406 28.261719 17.671875 C 28 17.308594 28.175781 16.800781 28.175781 16.289062 C 28.609375 16.800781 29.566406 16.507812 29.476562 15.855469 C 29.738281 16.144531 29.738281 16.65625 29.652344 17.089844 C 29.824219 17.019531 29.824219 16.800781 29.914062 16.65625 C 30.609375 16.800781 30.78125 17.308594 31.21875 17.527344 C 31.128906 17.019531 30.871094 16.582031 30.347656 16.363281 C 30.523438 16 30.871094 15.855469 31.304688 15.710938 C 31.21875 15.5625 30.871094 15.5625 30.695312 15.636719 C 30.523438 15.417969 30.261719 15.199219 30.347656 14.835938 C 30.609375 14.617188 31.042969 14.546875 31.128906 14.253906 C 30.871094 14.183594 30.609375 14.253906 30.433594 14.328125 C 30.433594 13.816406 30.347656 13.453125 30 13.238281 C 30 13.816406 30 14.617188 29.738281 15.054688 C 29.824219 14.328125 29.042969 13.890625 28.433594 14.183594 C 28.175781 13.238281 28.695312 12.4375 29.824219 12.582031 C 30.175781 13.164062 30.78125 14.035156 31.566406 14.328125 C 31.824219 14.398438 32.347656 14.253906 32.695312 14.183594 C 32.347656 13.964844 31.652344 13.890625 31.21875 13.601562 C 30.78125 13.238281 30.523438 12.65625 30.175781 12.144531 C 29.824219 11.636719 29.476562 11.199219 29.390625 10.617188 C 29.304688 10.253906 29.566406 9.601562 30.085938 9.890625 C 30.695312 10.183594 30.871094 10.835938 31.042969 11.492188 C 31.304688 12.507812 32.085938 14.035156 33.21875 14.398438 C 33.390625 14.472656 33.738281 14.472656 34 14.398438 C 32.695312 13.671875 31.304688 12.507812 31.476562 10.546875 C 31.476562 10.328125 31.566406 10.035156 31.824219 9.964844 C 32.085938 9.964844 32.433594 10.472656 32.523438 10.617188 C 32.695312 10.980469 32.871094 11.34375 32.957031 11.5625 C 32.957031 11.78125 32.957031 12.074219 32.957031 12.21875 C 33.042969 12.800781 33.304688 13.308594 33.566406 13.746094 C 33.824219 14.109375 34.175781 14.546875 34.695312 14.691406 C 34.523438 14.398438 34.175781 14.035156 33.914062 13.601562 C 33.738281 13.308594 33.476562 12.65625 33.476562 12.289062 C 33.390625 11.855469 33.476562 11.417969 33.824219 11.199219 C 34.347656 11.5625 34.523438 12.289062 34.78125 12.945312 C 34.898438 13.285156 35.015625 13.601562 35.128906 13.890625 C 35.304688 14.253906 35.476562 14.546875 35.566406 14.835938 C 35.652344 15.273438 35.738281 15.710938 35.738281 16.144531 Z M 34.261719 16 C 33.304688 16.21875 32.523438 17.019531 32.78125 18.183594 C 33.042969 17.238281 33.652344 16.507812 34.261719 16 Z M 34.261719 16 "/>
<path style=" stroke:none;fill-rule:nonzero;fill:rgb(92.54902%,64.313728%,34.117648%);fill-opacity:1;" d="M 28.695312 16.363281 C 29.128906 16.4375 29.304688 16.074219 29.304688 15.5625 C 28.695312 14.761719 27.824219 16.289062 28.695312 16.363281 Z M 28.695312 16.363281 "/>
<path style=" stroke:none;fill-rule:nonzero;fill:rgb(92.941177%,16.470589%,18.431373%);fill-opacity:1;" d="M 18.433594 20.507812 C 18.320312 20.460938 18.230469 20.460938 18.175781 20.507812 C 17.476562 20.726562 16.695312 20.800781 15.738281 20.800781 C 16.085938 21.527344 16.609375 22.035156 17.476562 22.328125 C 18.347656 22.546875 19.738281 22.546875 20.433594 22.109375 C 20.085938 21.308594 19.390625 20.65625 18.433594 20.507812 Z M 18.433594 20.507812 "/>
<path style=" stroke:none;fill-rule:nonzero;fill:rgb(100%,100%,100%);fill-opacity:1;" d="M 19.128906 38.835938 C 24.261719 38.835938 28.957031 37.019531 32.261719 34.109375 C 32.085938 32.945312 31.566406 31.925781 31.042969 30.910156 C 29.914062 28.726562 28.78125 26.617188 27.128906 24.726562 C 27.652344 24.945312 28 25.382812 28.347656 25.746094 C 29.476562 26.835938 30.433594 28.144531 31.21875 29.527344 C 32.175781 29.816406 32.871094 30.109375 34.085938 30.035156 C 36.261719 29.890625 38.085938 29.164062 38.433594 27.492188 C 38.523438 26.910156 38.523438 26.253906 38.523438 25.527344 C 38.261719 23.273438 37.390625 21.164062 36.695312 19.128906 C 36.433594 18.546875 36.433594 18.109375 35.914062 17.890625 C 35.824219 18.035156 36 18.183594 36.085938 18.253906 C 36.261719 18.472656 36.433594 19.054688 36.347656 19.492188 C 35.914062 20.871094 32.695312 21.601562 31.128906 20.726562 C 30.695312 20.507812 30.261719 19.925781 30.523438 19.34375 C 30.085938 19.417969 30.261719 19.855469 30.261719 20.144531 C 30.433594 21.089844 30.78125 22.035156 31.128906 22.835938 C 31.476562 24.074219 31.738281 25.382812 32.175781 26.472656 C 32.175781 26.546875 32.175781 26.472656 32.175781 26.472656 C 31.941406 26.277344 31.738281 26.035156 31.566406 25.746094 C 31.738281 26.546875 31.824219 27.417969 32 28.144531 C 31.21875 27.273438 30.871094 26.183594 30.871094 24.800781 C 30.871094 24.582031 30.957031 24.363281 30.871094 24.21875 C 30.871094 24.074219 30.523438 23.925781 30.347656 23.78125 C 29.128906 22.910156 27.652344 22.183594 25.824219 21.890625 C 24.871094 22.835938 23.914062 23.78125 22.695312 24.65625 C 22 25.914062 21.042969 26.980469 19.824219 27.855469 C 21.042969 28.339844 22 29.042969 22.695312 29.964844 C 23.566406 30.980469 24.175781 32.21875 24.175781 33.964844 C 24.609375 34.109375 25.21875 34.183594 25.738281 34.328125 C 26.085938 34.472656 26.871094 34.691406 26.957031 35.054688 C 26.957031 35.636719 25.738281 35.925781 25.128906 36.074219 C 24.78125 36.144531 24.433594 36.21875 24 36.289062 C 23.566406 36.363281 23.128906 36.363281 22.78125 36.507812 C 22.523438 36.582031 22.261719 36.726562 21.914062 36.871094 C 21.625 36.96875 21.332031 37.089844 21.042969 37.238281 C 20.433594 37.453125 19.738281 37.601562 19.21875 37.890625 C 18.871094 38.035156 18.609375 38.253906 18.347656 38.398438 C 18.175781 38.546875 18 38.667969 17.824219 38.761719 C 18.289062 38.8125 18.726562 38.835938 19.128906 38.835938 Z M 19.128906 38.835938 "/>
<path style=" stroke:none;fill-rule:nonzero;fill:rgb(81.568629%,54.509807%,25.098041%);fill-opacity:1;" d="M 32.957031 14.472656 C 33.390625 14.761719 34.433594 15.054688 34.871094 14.691406 C 34.8125 14.640625 34.753906 14.617188 34.695312 14.617188 C 34.695312 14.617188 34.695312 14.640625 34.695312 14.691406 C 34.175781 14.546875 33.824219 14.109375 33.566406 13.746094 C 33.304688 13.308594 33.042969 12.800781 32.957031 12.21875 C 32.957031 12.074219 32.957031 11.855469 32.957031 11.636719 C 32.871094 11.78125 32.871094 12 32.78125 12.21875 C 32.78125 12.945312 33.128906 13.601562 33.476562 14.109375 C 33.652344 14.207031 33.824219 14.304688 34 14.398438 C 33.738281 14.472656 33.390625 14.472656 33.21875 14.398438 C 32.085938 14.035156 31.304688 12.507812 31.042969 11.492188 C 30.984375 11.25 30.898438 11.007812 30.78125 10.761719 C 30.78125 10.910156 30.78125 11.128906 30.78125 11.273438 C 30.871094 12.144531 31.566406 13.382812 32.085938 13.890625 C 32.144531 13.9375 32.203125 13.988281 32.261719 14.035156 C 32.433594 14.085938 32.578125 14.132812 32.695312 14.183594 C 32.347656 14.253906 31.824219 14.398438 31.566406 14.328125 C 30.78125 14.035156 30.175781 13.164062 29.824219 12.582031 C 29.710938 12.582031 29.625 12.582031 29.566406 12.582031 C 29.507812 12.582031 29.449219 12.605469 29.390625 12.65625 C 29.566406 12.945312 29.652344 13.601562 29.566406 14.183594 C 29.566406 14.277344 29.566406 14.351562 29.566406 14.398438 C 29.738281 14.546875 29.738281 14.761719 29.738281 15.054688 C 30 14.617188 30 13.816406 30 13.238281 C 30.347656 13.453125 30.433594 13.816406 30.433594 14.328125 C 30.609375 14.253906 30.871094 14.183594 31.128906 14.253906 C 31.042969 14.546875 30.695312 14.617188 30.523438 14.761719 C 30.753906 14.761719 30.984375 14.714844 31.21875 14.617188 C 31.738281 14.761719 32.523438 14.691406 32.957031 14.472656 Z M 32.957031 14.472656 "/>
<path style=" stroke:none;fill-rule:nonzero;fill:rgb(81.568629%,54.509807%,25.098041%);fill-opacity:1;" d="M 30.175781 16.726562 C 30.117188 16.726562 30.027344 16.703125 29.914062 16.65625 C 29.824219 16.800781 29.824219 17.019531 29.652344 17.089844 C 29.652344 16.992188 29.652344 16.871094 29.652344 16.726562 C 29.652344 17.089844 29.566406 17.382812 29.390625 17.671875 C 29.824219 17.453125 30.261719 17.164062 30.175781 16.726562 Z M 30.175781 16.726562 "/>
<path style=" stroke:none;fill-rule:nonzero;fill:rgb(81.568629%,54.509807%,25.098041%);fill-opacity:1;" d="M 33.128906 15.78125 C 32.609375 15.710938 32.085938 15.636719 31.824219 15.710938 C 31.738281 16.074219 32 16.144531 32.175781 16.507812 C 32.347656 16.945312 32.261719 17.601562 32.433594 18.035156 C 32.433594 18.183594 32.523438 18.328125 32.609375 18.398438 C 32.695312 18.546875 32.871094 18.691406 32.957031 18.691406 C 32.898438 18.449219 32.871094 18.183594 32.871094 17.890625 C 32.8125 17.988281 32.78125 18.085938 32.78125 18.183594 C 32.523438 17.019531 33.304688 16.21875 34.261719 16 C 34.144531 16.046875 34.058594 16.121094 34 16.21875 C 34.175781 16.121094 34.320312 16 34.433594 15.855469 C 34.085938 15.710938 33.566406 15.78125 33.128906 15.78125 Z M 33.128906 15.78125 "/>
<path style=" stroke:none;fill-rule:nonzero;fill:rgb(81.568629%,54.509807%,25.098041%);fill-opacity:1;" d="M 17.476562 18.398438 C 17.042969 18.253906 16.957031 17.382812 17.476562 17.164062 C 17.421875 17.164062 17.390625 17.164062 17.390625 17.164062 C 16.78125 17.671875 16.347656 18.328125 15.914062 18.835938 C 15.824219 18.910156 15.652344 18.980469 15.566406 19.128906 C 16.347656 19.054688 17.128906 18.761719 17.476562 18.398438 Z M 17.476562 18.398438 "/>
<path style=" stroke:none;fill-rule:nonzero;fill:rgb(81.568629%,54.509807%,25.098041%);fill-opacity:1;" d="M 9.476562 19.273438 C 9.304688 18.980469 9.128906 18.472656 8.695312 18.472656 C 8.433594 18.472656 8.261719 18.691406 8.261719 18.980469 C 8.175781 19.710938 8.78125 20.363281 9.652344 20.4375 C 9.128906 20.289062 9.042969 19.5625 9.476562 19.273438 Z M 9.476562 19.273438 "/>
<path style=" stroke:none;fill-rule:nonzero;fill:rgb(78.039217%,78.039217%,78.039217%);fill-opacity:1;" d="M 15.476562 35.5625 C 13.914062 35.5625 12.347656 35.5625 10.871094 35.417969 C 9.476562 35.273438 8 35.199219 6.957031 34.691406 C 6.898438 34.691406 6.871094 34.667969 6.871094 34.617188 C 6.609375 34.761719 6.347656 34.980469 6.347656 35.054688 C 6.347656 35.417969 7.21875 35.492188 7.824219 35.5625 C 10.871094 35.855469 14.347656 35.855469 17.476562 35.710938 C 19.042969 35.5625 20.609375 35.492188 21.914062 35.199219 C 21.304688 35.273438 20.695312 35.34375 20.085938 35.417969 C 18.609375 35.5625 17.042969 35.5625 15.476562 35.5625 Z M 15.476562 35.5625 "/>
<path style=" stroke:none;fill-rule:nonzero;fill:rgb(70.19608%,70.19608%,70.588237%);fill-opacity:1;" d="M 23.128906 34.109375 C 23.128906 32.726562 22.695312 31.855469 22 31.054688 C 21.824219 30.835938 21.652344 30.546875 21.304688 30.472656 C 21.652344 31.273438 21.914062 32.074219 22 33.089844 C 21.476562 33.453125 20.78125 33.527344 20 33.671875 C 17.652344 34.109375 14.085938 33.964844 12.261719 33.238281 C 12.261719 31.492188 12.78125 30.109375 13.476562 28.945312 C 13.738281 28.582031 14.175781 28.289062 14.347656 27.925781 C 13.738281 27.925781 13.390625 28.144531 12.871094 28.289062 C 10.609375 29.238281 9.128906 30.835938 8.871094 33.453125 C 8.871094 33.746094 8.695312 34.328125 8.78125 34.691406 C 10.78125 35.054688 13.128906 35.199219 15.476562 35.199219 C 18.175781 35.199219 20.957031 34.980469 23.128906 34.546875 C 23.128906 34.398438 23.128906 34.253906 23.128906 34.109375 Z M 23.128906 34.109375 "/>
<path style=" stroke:none;fill-rule:nonzero;fill:rgb(81.568629%,54.509807%,25.098041%);fill-opacity:1;" d="M 18.175781 11.78125 C 18.085938 12.289062 18 12.945312 18.175781 13.453125 C 18.261719 14.109375 18.609375 14.472656 19.042969 14.910156 C 18.984375 14.859375 18.957031 14.8125 18.957031 14.761719 C 19.128906 14.910156 19.128906 15.128906 19.390625 15.273438 C 19.652344 15.492188 20.085938 15.492188 20.433594 15.5625 C 20 15.199219 19.566406 14.835938 19.476562 14.253906 C 19.304688 13.453125 19.652344 12.582031 20.347656 12.363281 C 20.609375 12.289062 20.957031 12.289062 21.21875 12.289062 C 21.476562 12.363281 21.738281 12.507812 22 12.289062 C 21.738281 12.289062 21.476562 12.144531 21.304688 12.074219 C 21.1875 12.074219 21.042969 12.074219 20.871094 12.074219 C 20.871094 12.074219 20.839844 12.074219 20.78125 12.074219 C 20.726562 12.121094 20.636719 12.144531 20.523438 12.144531 C 20 12.144531 19.566406 12.363281 19.21875 12.507812 C 19.042969 12.65625 19.042969 12.871094 18.695312 12.945312 C 18.523438 12.65625 18.175781 12.21875 18.261719 11.78125 C 18.347656 11.199219 19.21875 10.980469 19.824219 10.691406 C 17.476562 10.761719 15.566406 11.199219 13.914062 11.855469 C 15.21875 11.78125 16.871094 11.5625 18.175781 11.78125 Z M 18.175781 11.78125 "/>
<path style=" stroke:none;fill-rule:nonzero;fill:rgb(81.568629%,54.509807%,25.098041%);fill-opacity:1;" d="M 15.128906 37.671875 C 16.175781 37.816406 17.476562 37.746094 18.261719 37.453125 C 18.492188 37.40625 18.695312 37.332031 18.871094 37.238281 C 18.695312 37.285156 18.492188 37.332031 18.261719 37.382812 C 18.523438 37.089844 18.957031 36.945312 19.304688 36.726562 C 16.957031 36.945312 14.433594 36.871094 12.085938 36.800781 C 12.433594 36.945312 12.871094 36.945312 13.21875 37.089844 C 13.21875 37.089844 13.1875 37.089844 13.128906 37.089844 C 13.246094 37.140625 13.363281 37.164062 13.476562 37.164062 C 14 37.382812 14.523438 37.601562 15.128906 37.671875 Z M 15.128906 37.671875 "/>
<path style=" stroke:none;fill-rule:nonzero;fill:rgb(78.039217%,78.039217%,78.039217%);fill-opacity:1;" d="M 25.042969 4.800781 C 24.957031 5.964844 24.261719 6.910156 23.476562 7.492188 C 23.21875 7.710938 22.957031 7.925781 22.609375 8.074219 C 22.695312 8.363281 22.78125 8.65625 22.78125 9.019531 C 24.175781 8.144531 25.304688 6.761719 25.042969 4.800781 Z M 25.042969 4.800781 "/>
<path style=" stroke:none;fill-rule:nonzero;fill:rgb(78.039217%,78.039217%,78.039217%);fill-opacity:1;" d="M 8.261719 7.925781 C 8.320312 7.976562 8.347656 8.023438 8.347656 8.074219 C 8.347656 8.023438 8.347656 7.976562 8.347656 7.925781 C 8.289062 7.925781 8.261719 7.925781 8.261719 7.925781 C 8.175781 8.4375 8.261719 9.019531 8.609375 9.308594 C 8.898438 9.164062 9.160156 9.019531 9.390625 8.871094 C 8.78125 8.726562 8.433594 8.4375 8.261719 7.925781 Z M 8.261719 7.925781 "/>
<path style=" stroke:none;fill-rule:nonzero;fill:rgb(78.039217%,78.039217%,78.039217%);fill-opacity:1;" d="M 6.433594 10.835938 C 6.492188 10.789062 6.550781 10.738281 6.609375 10.691406 C 6.695312 10.617188 6.957031 10.472656 6.871094 10.398438 C 6.175781 10.328125 5.566406 10.109375 5.390625 9.746094 C 5.332031 9.695312 5.304688 9.671875 5.304688 9.671875 C 5.304688 10.328125 5.914062 10.617188 6.433594 10.835938 Z M 6.433594 10.835938 "/>
<path style=" stroke:none;fill-rule:nonzero;fill:rgb(78.039217%,78.039217%,78.039217%);fill-opacity:1;" d="M 33.128906 25.671875 C 33.566406 27.128906 34.175781 28.65625 35.738281 29.238281 C 35.304688 28.726562 35.042969 28.289062 34.871094 27.710938 C 34.609375 27.128906 34.523438 26.546875 34.433594 25.816406 C 34.261719 24.800781 34.261719 23.710938 34.261719 22.691406 C 34.261719 22.328125 34.347656 21.964844 34.085938 21.671875 C 32.871094 21.746094 31.824219 21.453125 31.042969 21.089844 C 31.042969 21.089844 31.042969 21.164062 31.042969 21.164062 C 31.128906 21.746094 31.652344 22.035156 32 22.472656 C 32.230469 22.714844 32.433594 23.007812 32.609375 23.34375 C 32.871094 24 32.957031 24.871094 33.128906 25.671875 Z M 33.128906 25.671875 "/>
<path style=" stroke:none;fill-rule:nonzero;fill:rgb(78.039217%,78.039217%,78.039217%);fill-opacity:1;" d="M 10.78125 37.964844 C 11.566406 38.398438 12.261719 38.761719 13.21875 38.835938 C 12.433594 38.546875 11.824219 38.035156 11.652344 37.308594 C 11.21875 36.945312 10.261719 37.089844 10 36.65625 C 9.652344 36.65625 9.332031 36.628906 9.042969 36.582031 C 9.390625 37.164062 10.085938 37.527344 10.78125 37.964844 Z M 10.78125 37.964844 "/>
<path style=" stroke:none;fill-rule:nonzero;fill:rgb(78.039217%,78.039217%,78.039217%);fill-opacity:1;" d="M 21.652344 10.398438 C 21.566406 9.671875 21.304688 9.019531 21.128906 8.363281 C 18.871094 8.65625 16.347656 8.363281 14.78125 7.710938 C 13.304688 7.925781 12.085938 8.363281 10.871094 8.871094 C 11.042969 8.777344 11.246094 8.726562 11.476562 8.726562 C 13.304688 8.65625 14.695312 9.671875 14.085938 11.199219 C 14.085938 11.273438 14 11.273438 14 11.417969 C 15.566406 10.835938 17.390625 10.398438 19.476562 10.253906 C 20.261719 10.253906 20.957031 10.328125 21.652344 10.398438 Z M 21.652344 10.398438 "/>
<path style=" stroke:none;fill-rule:nonzero;fill:rgb(78.039217%,78.039217%,78.039217%);fill-opacity:1;" d="M 11.652344 6.109375 C 14 6.253906 15.824219 7.273438 18 7.492188 C 18.609375 7.5625 19.304688 7.5625 19.738281 7.492188 C 21.914062 7.273438 23.476562 6.328125 24.175781 4.800781 C 24.347656 4.363281 24.609375 3.710938 24.347656 3.34375 C 23.304688 5.019531 21.390625 5.964844 18.78125 6.109375 C 16.871094 6.183594 15.304688 5.890625 14 5.382812 C 13.042969 4.945312 12.175781 4.289062 11.128906 4.074219 C 10.347656 3.925781 9.566406 4.074219 8.871094 4.21875 C 8.433594 4.289062 7.914062 4.4375 7.566406 4.21875 C 7.566406 3.710938 8.085938 3.417969 8 2.910156 C 7.476562 2.980469 7.042969 3.199219 6.609375 3.417969 C 5.042969 4.144531 3.476562 5.164062 3.476562 7.054688 C 3.476562 7.34375 3.476562 7.710938 3.566406 7.925781 C 3.824219 9.089844 5.652344 9.527344 7.476562 9.308594 C 7.738281 9.308594 8 9.238281 8 9.019531 C 8 8.871094 7.824219 8.65625 7.652344 8.507812 C 7.476562 8.144531 7.390625 7.78125 7.566406 7.417969 C 8.261719 6.980469 10.261719 7.054688 10.78125 7.5625 C 11.128906 7.855469 10.871094 8.074219 10.609375 8.289062 C 11.566406 7.925781 12.609375 7.5625 13.652344 7.273438 C 12.523438 6.835938 10.957031 6.546875 9.304688 6.691406 C 8.78125 6.691406 8.261719 6.835938 7.824219 6.835938 C 8 6.738281 8.203125 6.640625 8.433594 6.546875 C 9.21875 6.109375 10.433594 6.035156 11.652344 6.109375 Z M 11.652344 6.109375 "/>
<path style=" stroke:none;fill-rule:nonzero;fill:rgb(78.039217%,78.039217%,78.039217%);fill-opacity:1;" d="M 28.347656 25.746094 C 29.304688 26.691406 30.175781 27.855469 30.957031 29.019531 C 31.1875 29.019531 31.421875 29.042969 31.652344 29.089844 C 32 29.089844 32.523438 29.164062 32.523438 28.871094 C 32.523438 28.871094 32.347656 28.65625 32.261719 28.507812 C 32.144531 28.316406 32.027344 28.097656 31.914062 27.855469 C 31.972656 27.953125 32 28.046875 32 28.144531 C 31.304688 27.34375 30.957031 26.328125 30.871094 25.019531 C 30.78125 25.601562 30.957031 26.398438 31.042969 26.910156 C 29.652344 26.253906 28.433594 25.382812 27.128906 24.65625 C 27.128906 24.703125 27.160156 24.75 27.21875 24.800781 C 27.738281 24.945312 28 25.382812 28.347656 25.746094 Z M 28.347656 25.746094 "/>
<path style=" stroke:none;fill-rule:nonzero;fill:rgb(78.039217%,78.039217%,78.039217%);fill-opacity:1;" d="M 32.175781 26.472656 C 31.941406 26.277344 31.738281 26.035156 31.566406 25.746094 C 31.625 25.9375 31.652344 26.132812 31.652344 26.328125 C 32.085938 27.128906 32.695312 27.710938 33.390625 28.21875 C 33.042969 27.78125 32.78125 27.273438 32.433594 26.761719 C 32.320312 26.570312 32.203125 26.375 32.085938 26.183594 C 32.085938 26.277344 32.117188 26.375 32.175781 26.472656 C 32.175781 26.546875 32.175781 26.472656 32.175781 26.472656 Z M 32.175781 26.472656 "/>
<path style=" stroke:none;fill-rule:nonzero;fill:rgb(78.039217%,78.039217%,78.039217%);fill-opacity:1;" d="M 20.609375 36.65625 C 20.320312 36.703125 20.058594 36.777344 19.824219 36.871094 C 20.085938 36.800781 20.347656 36.726562 20.609375 36.65625 Z M 20.609375 36.65625 "/>
<path style=" stroke:none;fill-rule:nonzero;fill:rgb(78.039217%,78.039217%,78.039217%);fill-opacity:1;" d="M 4.609375 13.019531 C 5.042969 13.308594 5.476562 13.601562 6.085938 13.671875 C 5.914062 13.238281 5.652344 12.726562 5.476562 12.21875 C 4.871094 12.4375 3.824219 12.4375 3.390625 12 C 3.566406 12.507812 4.175781 12.800781 4.609375 13.019531 Z M 4.609375 13.019531 "/>
<path style=" stroke:none;fill-rule:nonzero;fill:rgb(81.568629%,54.509807%,25.098041%);fill-opacity:1;" d="M 23.566406 20.582031 C 23.042969 21.453125 22.523438 22.328125 21.652344 22.910156 C 21.710938 22.859375 21.769531 22.835938 21.824219 22.835938 C 21.566406 23.417969 20.609375 24 19.652344 24.074219 C 18.523438 24.144531 17.566406 23.855469 17.128906 23.273438 C 17.246094 23.273438 17.390625 23.296875 17.566406 23.34375 C 16.609375 23.054688 15.824219 22.691406 15.304688 22.109375 C 15.128906 22.035156 15.042969 21.816406 14.957031 21.890625 C 15.042969 23.34375 16 24.074219 17.304688 24.507812 C 18.085938 24.65625 18.957031 24.726562 19.738281 24.582031 C 20.609375 24.507812 21.476562 24.144531 22.085938 23.855469 C 22.144531 23.855469 22.175781 23.855469 22.175781 23.855469 C 22.230469 23.757812 22.320312 23.660156 22.433594 23.5625 C 23.128906 22.835938 23.914062 21.816406 23.566406 20.582031 Z M 23.566406 20.582031 "/>
<path style=" stroke:none;fill-rule:nonzero;fill:rgb(97.254902%,71.764708%,43.137255%);fill-opacity:1;" d="M 24.78125 14.761719 C 24.347656 14.328125 23.914062 13.890625 23.566406 13.453125 C 23.566406 13.453125 23.535156 13.429688 23.476562 13.382812 C 23.476562 13.332031 23.449219 13.261719 23.390625 13.164062 C 23.042969 12.507812 22.871094 11.855469 22.609375 11.054688 C 22.550781 11.007812 22.492188 10.980469 22.433594 10.980469 C 22.433594 11.128906 22.523438 11.34375 22.609375 11.492188 C 22.78125 12.074219 22.871094 12.507812 22.957031 13.019531 C 23.042969 13.238281 23.042969 13.527344 23.128906 13.746094 C 23.21875 13.890625 23.390625 14.035156 23.566406 14.183594 C 24.433594 15.054688 25.21875 16.074219 25.566406 17.527344 C 25.824219 18.691406 25.738281 19.925781 25.390625 21.019531 C 25.824219 20.4375 26.085938 19.710938 26.261719 18.980469 C 26.609375 16.945312 25.824219 15.78125 24.78125 14.761719 Z M 24.78125 14.761719 "/>
<path style=" stroke:none;fill-rule:nonzero;fill:rgb(97.254902%,71.764708%,43.137255%);fill-opacity:1;" d="M 21.042969 16.144531 C 20.695312 15.710938 19.738281 15.78125 19.304688 15.417969 C 19.246094 15.417969 19.21875 15.417969 19.21875 15.417969 C 19.390625 16.144531 20.695312 16.21875 20.871094 16.945312 C 20.871094 17.164062 20.78125 17.453125 20.695312 17.671875 C 21.21875 17.308594 21.476562 16.65625 21.042969 16.144531 Z M 21.042969 16.144531 "/>
<path style=" stroke:none;fill-rule:nonzero;fill:rgb(90.196079%,90.196079%,89.803922%);fill-opacity:1;" d="M 9.21875 8.144531 C 8.78125 8 8.433594 7.78125 8.175781 7.710938 C 8.175781 7.660156 8.175781 7.636719 8.175781 7.636719 C 8.085938 7.636719 8.085938 7.710938 8.085938 7.710938 C 8.085938 7.804688 8.144531 7.878906 8.261719 7.925781 C 8.433594 8.074219 8.636719 8.195312 8.871094 8.289062 C 8.925781 8.339844 8.984375 8.386719 9.042969 8.4375 C 9.042969 8.4375 9.074219 8.4375 9.128906 8.4375 C 9.390625 8.507812 9.738281 8.582031 10.175781 8.507812 C 10.230469 8.507812 10.261719 8.484375 10.261719 8.4375 C 10.175781 8.21875 9.476562 8.21875 9.21875 8.144531 Z M 9.21875 8.144531 "/>
<path style=" stroke:none;fill-rule:nonzero;fill:rgb(90.196079%,90.196079%,89.803922%);fill-opacity:1;" d="M 3.566406 13.527344 C 4.175781 14.109375 5.042969 14.472656 6.347656 14.398438 C 6.347656 14.304688 6.320312 14.230469 6.261719 14.183594 C 5.128906 14.183594 4.347656 13.671875 3.824219 13.019531 C 3.042969 12.871094 2.609375 12.582031 2.347656 12.074219 C 2.085938 11.5625 2.085938 10.761719 2.261719 10.253906 C 2.347656 9.816406 2.695312 9.382812 2.609375 8.945312 C 2.609375 8.945312 2.578125 8.945312 2.523438 8.945312 C 1.824219 9.601562 0.78125 10.546875 1.21875 11.855469 C 1.273438 12 1.363281 12.121094 1.476562 12.21875 C 1.535156 12.316406 1.625 12.4375 1.738281 12.582031 C 2.175781 13.019531 2.78125 13.308594 3.566406 13.527344 Z M 3.566406 13.527344 "/>
<path style=" stroke:none;fill-rule:nonzero;fill:rgb(90.196079%,90.196079%,89.803922%);fill-opacity:1;" d="M 10.347656 12.65625 C 9.304688 12.363281 9.042969 11.128906 9.128906 9.964844 C 8.347656 10.472656 7.476562 10.910156 6.871094 11.5625 C 7.566406 12.289062 7.914062 13.308594 8 14.546875 C 8.433594 14.253906 8.871094 13.964844 9.304688 13.671875 C 9.652344 13.308594 10.085938 13.019531 10.347656 12.65625 Z M 10.347656 12.65625 "/>
<path style=" stroke:none;fill-rule:nonzero;fill:rgb(90.196079%,90.196079%,89.803922%);fill-opacity:1;" d="M 15.128906 26.398438 C 15.042969 26.835938 16.085938 27.128906 16.433594 26.835938 C 16.433594 26.789062 16.40625 26.761719 16.347656 26.761719 C 16.261719 26.398438 15.652344 26.328125 15.128906 26.398438 Z M 15.128906 26.398438 "/>
<path style=" stroke:none;fill-rule:nonzero;fill:rgb(90.196079%,90.196079%,89.803922%);fill-opacity:1;" d="M 22.695312 30.980469 C 21.914062 29.671875 20.433594 28.65625 18.78125 28.144531 C 18.609375 28.097656 18.40625 28.046875 18.175781 28 C 18.40625 28.046875 18.609375 28.121094 18.78125 28.21875 C 19.074219 28.363281 19.363281 28.535156 19.652344 28.726562 C 20.695312 29.382812 21.824219 30.183594 22.433594 31.199219 C 22.695312 31.78125 23.042969 32.4375 23.128906 33.089844 C 23.128906 33.382812 23.128906 33.671875 23.128906 33.964844 C 23.128906 34.183594 23.128906 34.398438 23.128906 34.546875 C 23.246094 34.496094 23.363281 34.472656 23.476562 34.472656 C 23.738281 33.089844 23.304688 31.925781 22.695312 30.980469 Z M 22.695312 30.980469 "/>
<path style=" stroke:none;fill-rule:nonzero;fill:rgb(90.196079%,90.196079%,89.803922%);fill-opacity:1;" d="M 17.042969 28.144531 C 18.175781 28.65625 18.957031 29.601562 19.128906 30.980469 C 18.609375 30.253906 18.347656 29.527344 17.566406 29.019531 C 16.78125 28.582031 15.914062 28.21875 14.871094 28.074219 C 13.914062 29.238281 13.566406 30.835938 13.652344 32.726562 C 15.042969 33.164062 17.21875 33.308594 18.957031 33.089844 C 19.738281 32.945312 20.523438 32.800781 20.957031 32.4375 C 20.957031 31.78125 20.957031 31.199219 20.871094 30.691406 C 20.523438 29.019531 18.957031 28.4375 17.042969 28.144531 Z M 17.042969 28.144531 "/>
<path style=" stroke:none;fill-rule:nonzero;fill:rgb(90.196079%,90.196079%,89.803922%);fill-opacity:1;" d="M 8.347656 34.035156 C 8.347656 33.890625 8.347656 33.722656 8.347656 33.527344 C 8.523438 31.128906 9.824219 29.382812 11.652344 28.363281 C 11.652344 28.316406 11.679688 28.289062 11.738281 28.289062 C 10.925781 28.582031 10.230469 28.96875 9.652344 29.453125 C 8.261719 30.617188 7.21875 32.289062 7.476562 34.472656 C 7.769531 34.519531 8.058594 34.570312 8.347656 34.617188 C 8.347656 34.398438 8.347656 34.183594 8.347656 34.035156 Z M 8.347656 34.035156 "/>
<path style=" stroke:none;fill-rule:nonzero;fill:rgb(90.196079%,90.196079%,89.803922%);fill-opacity:1;" d="M 19.824219 15.417969 C 19.769531 15.417969 19.738281 15.417969 19.738281 15.417969 C 19.855469 15.464844 20 15.492188 20.175781 15.492188 C 20.058594 15.441406 19.941406 15.417969 19.824219 15.417969 Z M 19.824219 15.417969 "/>
<path style=" stroke:none;fill-rule:nonzero;fill:rgb(90.196079%,90.196079%,89.803922%);fill-opacity:1;" d="M 12.261719 2.109375 C 12.609375 1.964844 13.042969 1.890625 13.390625 1.746094 C 13.332031 1.746094 13.246094 1.746094 13.128906 1.746094 C 10.261719 1.019531 7.390625 1.746094 5.476562 2.910156 C 5.535156 2.910156 5.566406 2.910156 5.566406 2.910156 C 5.449219 3.007812 5.332031 3.078125 5.21875 3.128906 C 5.101562 3.175781 5.015625 3.25 4.957031 3.34375 C 4.667969 3.539062 4.40625 3.757812 4.175781 4 C 5.652344 2.980469 7.476562 2.183594 10 1.964844 C 10.871094 1.964844 11.566406 2.035156 12.261719 2.109375 Z M 12.261719 2.109375 "/>
<path style=" stroke:none;fill-rule:nonzero;fill:rgb(90.196079%,90.196079%,89.803922%);fill-opacity:1;" d="M 25.21875 7.273438 C 25.738281 6.472656 26.175781 5.382812 26.085938 4.21875 C 25.914062 2.472656 24.695312 1.527344 22.78125 1.164062 C 21.914062 0.945312 20.695312 0.871094 19.566406 0.945312 C 17.390625 1.164062 15.652344 1.527344 13.914062 1.964844 C 13.625 2.011719 13.332031 2.085938 13.042969 2.183594 C 13.160156 2.183594 13.273438 2.15625 13.390625 2.109375 C 15.738281 1.964844 18.085938 1.527344 20.609375 1.527344 C 21.304688 1.527344 22 1.527344 22.433594 1.816406 C 22.871094 2.035156 22.957031 2.472656 22.695312 2.835938 C 22.085938 3.5625 20.523438 3.925781 19.128906 4.074219 C 17.824219 4.21875 16.347656 4.074219 15.042969 4.074219 C 14.347656 4.074219 13.21875 4.21875 13.914062 4.726562 C 14.175781 5.019531 14.871094 5.164062 15.390625 5.308594 C 16.085938 5.382812 16.695312 5.527344 17.304688 5.601562 C 20.871094 5.671875 23.652344 4.726562 24.523438 2.617188 C 24.636719 2.859375 24.667969 3.101562 24.609375 3.34375 C 24.523438 5.019531 23.566406 6.109375 22.433594 6.835938 C 22.085938 7.054688 21.738281 7.273438 21.390625 7.417969 C 20.523438 7.710938 19.476562 7.710938 18.523438 7.710938 C 17.304688 7.636719 16.433594 7.273438 15.304688 7.199219 C 16.433594 7.492188 17.566406 7.855469 18.871094 7.925781 C 20.320312 8.023438 21.507812 7.878906 22.433594 7.492188 C 22.609375 7.394531 22.78125 7.296875 22.957031 7.199219 C 24.085938 6.617188 24.78125 5.601562 25.042969 4.21875 C 25.042969 4.265625 25.042969 4.289062 25.042969 4.289062 C 25.101562 4.097656 25.160156 3.902344 25.21875 3.710938 C 25.914062 5.671875 25.042969 7.34375 24 8.507812 C 24.464844 8.167969 24.871094 7.757812 25.21875 7.273438 Z M 25.21875 7.273438 "/>
<path style=" stroke:none;fill-rule:nonzero;fill:rgb(0%,0%,0%);fill-opacity:1;" d="M 15.128906 15.78125 C 15.21875 16.289062 14.957031 16.726562 14.523438 16.800781 C 14.085938 16.871094 13.652344 16.507812 13.566406 16.074219 C 13.390625 15.5625 13.652344 15.128906 14.085938 15.054688 C 14.523438 14.980469 14.957031 15.34375 15.128906 15.78125 Z M 15.128906 15.78125 "/>
<path style=" stroke:none;fill-rule:nonzero;fill:rgb(0%,0%,0%);fill-opacity:1;" d="M 21.128906 13.746094 C 21.304688 14.183594 21.128906 14.691406 20.695312 14.761719 C 20.261719 14.910156 19.738281 14.691406 19.566406 14.253906 C 19.390625 13.746094 19.566406 13.308594 20 13.164062 C 20.433594 13.019531 20.871094 13.308594 21.128906 13.746094 Z M 21.128906 13.746094 "/>
<path style=" stroke:none;fill-rule:nonzero;fill:rgb(100%,100%,100%);fill-opacity:1;" d="M 14 15.5625 C 14 15.636719 13.914062 15.710938 13.824219 15.710938 C 13.738281 15.710938 13.652344 15.636719 13.652344 15.5625 C 13.652344 15.492188 13.738281 15.417969 13.824219 15.417969 C 13.914062 15.417969 14 15.492188 14 15.5625 Z M 14 15.5625 "/>
<path style=" stroke:none;fill-rule:nonzero;fill:rgb(100%,100%,100%);fill-opacity:1;" d="M 19.914062 13.816406 C 19.914062 13.890625 19.824219 13.964844 19.738281 13.964844 C 19.652344 13.964844 19.566406 13.890625 19.566406 13.816406 C 19.566406 13.746094 19.652344 13.671875 19.738281 13.671875 C 19.824219 13.671875 19.914062 13.746094 19.914062 13.816406 Z M 19.914062 13.816406 "/>
<path style=" stroke:none;fill-rule:evenodd;fill:rgb(0%,0%,0%);fill-opacity:1;" d="M 13.21875 14.910156 C 13.042969 15.054688 12.695312 15.199219 12.609375 15.199219 C 12.347656 15.199219 12.261719 14.761719 12.175781 14.617188 C 12.085938 14.328125 11.914062 14.035156 12 13.746094 C 12.175781 13.382812 13.128906 13.238281 13.652344 13.238281 C 14.523438 13.164062 15.21875 13.382812 15.738281 13.671875 C 16 13.890625 16.261719 14.035156 16.261719 14.328125 C 15.390625 14.328125 14.609375 14.398438 13.824219 14.691406 C 13.652344 14.691406 13.476562 14.835938 13.21875 14.910156 Z M 12.695312 14.835938 C 13.476562 14.472656 14.433594 14.035156 15.824219 14.109375 C 15.21875 13.308594 13.21875 13.238281 12.261719 13.746094 C 12.320312 14.183594 12.464844 14.546875 12.695312 14.835938 Z M 12.695312 14.835938 "/>
<path style=" stroke:none;fill-rule:evenodd;fill:rgb(0%,0%,0%);fill-opacity:1;" d="M 22.78125 19.128906 C 22.957031 21.089844 21.390625 22.761719 19.21875 22.980469 C 17.128906 23.128906 15.824219 22.109375 15.390625 20.800781 C 13.914062 20.507812 12.433594 19.78125 12.871094 18.183594 C 13.304688 19.5625 16.609375 19.34375 17.476562 18.398438 C 16.957031 18.183594 16.957031 17.238281 17.652344 17.164062 C 17.128906 17.671875 17.476562 18.253906 18.433594 18.109375 C 18.523438 18.035156 18.695312 17.964844 18.871094 17.964844 C 19.21875 17.964844 19.652344 18.035156 19.914062 17.964844 C 20.957031 17.890625 21.652344 16.871094 21.042969 16.144531 C 20.523438 15.492188 18.957031 15.925781 18.957031 14.761719 C 19.128906 14.910156 19.128906 15.128906 19.390625 15.273438 C 19.914062 15.636719 20.695312 15.417969 21.21875 15.78125 C 21.652344 16.144531 21.824219 16.871094 21.476562 17.453125 C 22.695312 17.382812 23.824219 16.4375 23.476562 15.128906 C 23.390625 14.980469 23.304688 14.910156 23.21875 14.691406 C 23.21875 14.691406 23.246094 14.691406 23.304688 14.691406 C 24.871094 15.492188 24.523438 18.691406 22.78125 19.128906 Z M 20.433594 22.109375 C 20.085938 21.308594 19.390625 20.65625 18.433594 20.507812 C 18.320312 20.460938 18.230469 20.460938 18.175781 20.507812 C 17.476562 20.726562 16.695312 20.800781 15.738281 20.800781 C 16.085938 21.527344 16.609375 22.035156 17.476562 22.328125 C 18.347656 22.546875 19.738281 22.546875 20.433594 22.109375 Z M 23.824219 15.492188 C 23.914062 16.945312 22.78125 17.601562 21.21875 17.816406 C 20.957031 17.964844 20.695312 18.183594 20.261719 18.253906 C 19.824219 18.328125 19.390625 18.328125 18.871094 18.398438 C 18.78125 18.398438 18.609375 18.398438 18.523438 18.472656 C 18.347656 18.472656 18.175781 18.472656 18.085938 18.472656 C 17.824219 18.546875 17.738281 18.761719 17.566406 18.835938 C 17.042969 19.199219 16.347656 19.492188 15.566406 19.5625 C 14.347656 19.636719 13.652344 19.199219 13.042969 18.835938 C 13.304688 19.710938 14.175781 20.289062 15.304688 20.4375 C 17.042969 20.726562 18.78125 20.144531 19.566406 19.34375 C 19.738281 19.273438 19.914062 19.054688 20 18.980469 C 20.175781 18.980469 20.347656 19.054688 20.433594 19.054688 C 21.390625 19.199219 22.347656 19.054688 22.957031 18.691406 C 23.914062 18.183594 24.347656 16.65625 23.824219 15.492188 Z M 23.824219 15.492188 "/>
<path style=" stroke:none;fill-rule:nonzero;fill:rgb(0%,0%,0%);fill-opacity:1;" d="M 32.78125 18.183594 C 33.042969 17.238281 33.652344 16.507812 34.261719 16 C 33.304688 16.21875 32.523438 17.019531 32.78125 18.183594 Z M 32.78125 18.183594 "/>
<path style=" stroke:none;fill-rule:nonzero;fill:rgb(0%,0%,0%);fill-opacity:1;" d="M 9.824219 19.273438 C 9.914062 19.128906 9.652344 18.910156 9.566406 18.835938 C 9.390625 18.546875 9.128906 18.328125 8.871094 18.253906 C 8.261719 18.253906 7.914062 18.910156 8.261719 19.34375 C 8.175781 18.835938 8.347656 18.546875 8.695312 18.472656 C 9.128906 18.472656 9.304688 18.980469 9.476562 19.273438 C 9.042969 19.636719 9.21875 20.4375 9.824219 20.4375 C 9.566406 20.289062 9.476562 20.074219 9.566406 19.78125 C 9.566406 19.636719 9.824219 19.417969 9.824219 19.273438 Z M 9.824219 19.273438 "/>
<path style=" stroke:none;fill-rule:nonzero;fill:rgb(0%,0%,0%);fill-opacity:1;" d="M 19.476562 23.5625 C 18.523438 23.636719 17.914062 23.417969 17.128906 23.273438 C 17.566406 23.855469 18.523438 24.144531 19.652344 24.074219 C 20.609375 24 21.566406 23.417969 21.824219 22.835938 C 21.566406 22.910156 21.476562 23.054688 21.21875 23.128906 C 20.78125 23.34375 20.175781 23.5625 19.476562 23.5625 Z M 19.476562 23.5625 "/>
<g clip-path="url(#clip1)" clip-rule="nonzero">
<path style=" stroke:none;fill-rule:evenodd;fill:rgb(0%,0%,0%);fill-opacity:1;" d="M 38.609375 29.019531 C 38.175781 29.527344 37.476562 30.035156 36.523438 30.328125 C 35.128906 30.761719 33.390625 30.910156 31.824219 30.472656 C 32.085938 31.128906 32.433594 31.710938 32.695312 32.363281 C 32.753906 32.414062 32.78125 32.507812 32.78125 32.65625 C 32.957031 33.089844 33.304688 34.035156 33.390625 34.328125 C 33.21875 34.472656 33.042969 34.617188 32.871094 34.761719 C 32.753906 34.859375 32.636719 34.957031 32.523438 35.054688 C 32.464844 34.761719 32.40625 34.425781 32.347656 34.035156 C 32.289062 33.890625 32.230469 33.722656 32.175781 33.527344 C 31.824219 32.582031 31.390625 31.636719 31.128906 30.980469 C 31.074219 30.980469 31.042969 30.957031 31.042969 30.910156 C 29.914062 28.726562 28.78125 26.617188 27.128906 24.726562 C 27.652344 24.945312 28 25.382812 28.347656 25.746094 C 29.476562 26.835938 30.433594 28.144531 31.21875 29.527344 C 32.175781 29.816406 32.871094 30.109375 34.085938 30.035156 C 35.304688 29.964844 36.347656 29.671875 37.128906 29.238281 C 37.738281 28.800781 38.261719 28.289062 38.433594 27.492188 C 38.523438 26.910156 38.523438 26.253906 38.523438 25.527344 C 38.464844 25.1875 38.40625 24.871094 38.347656 24.582031 C 38 22.617188 37.21875 20.800781 36.695312 19.128906 C 36.433594 18.546875 36.433594 18.109375 35.914062 17.890625 C 35.824219 18.035156 36 18.183594 36.085938 18.253906 C 36.261719 18.472656 36.433594 19.054688 36.347656 19.492188 C 35.914062 20.871094 32.695312 21.601562 31.128906 20.726562 C 30.695312 20.507812 30.261719 19.925781 30.523438 19.34375 C 30.085938 19.417969 30.261719 19.855469 30.261719 20.144531 C 30.433594 21.089844 30.78125 22.035156 31.128906 22.835938 C 31.476562 24.074219 31.738281 25.382812 32.175781 26.472656 C 32.175781 26.546875 32.175781 26.472656 32.175781 26.472656 C 31.941406 26.277344 31.738281 26.035156 31.566406 25.746094 C 31.738281 26.546875 31.824219 27.417969 32 28.144531 C 31.21875 27.273438 30.871094 26.183594 30.871094 24.800781 C 30.871094 24.582031 30.957031 24.363281 30.871094 24.21875 C 30.871094 24.074219 30.523438 23.925781 30.347656 23.78125 C 29.128906 22.910156 27.652344 22.183594 25.824219 21.890625 C 24.871094 22.835938 23.914062 23.78125 22.695312 24.65625 C 22 25.914062 21.042969 26.980469 19.824219 27.855469 C 21.042969 28.339844 22 29.042969 22.695312 29.964844 C 23.566406 30.980469 24.175781 32.21875 24.175781 33.964844 C 24.609375 34.109375 25.21875 34.183594 25.738281 34.328125 C 26.085938 34.472656 26.871094 34.691406 26.957031 35.054688 C 26.957031 35.636719 25.738281 35.925781 25.128906 36.074219 C 24.78125 36.144531 24.433594 36.21875 24 36.289062 C 23.566406 36.363281 23.128906 36.363281 22.78125 36.507812 C 22.523438 36.582031 22.261719 36.726562 21.914062 36.871094 C 21.625 36.96875 21.332031 37.089844 21.042969 37.238281 C 20.433594 37.453125 19.738281 37.601562 19.21875 37.890625 C 18.871094 38.035156 18.609375 38.253906 18.347656 38.398438 C 17.824219 38.835938 17.21875 39.199219 16.609375 39.492188 C 15.824219 39.855469 15.042969 40.074219 13.824219 40.074219 C 12.175781 40.074219 10.871094 39.492188 9.824219 38.835938 C 8.695312 38.253906 7.914062 37.527344 7.21875 36.507812 C 6.523438 36.4375 5.914062 36.289062 5.304688 36.144531 C 4.695312 36 3.476562 35.492188 4.085938 34.761719 C 4.261719 34.546875 4.523438 34.398438 4.78125 34.253906 C 5.21875 34.109375 5.738281 33.964844 6.175781 33.890625 C 5.914062 33.164062 5.824219 32.4375 5.824219 31.492188 C 6.085938 27.855469 8.261719 25.164062 10.957031 23.636719 C 10.871094 23.199219 11.042969 22.835938 11.042969 22.546875 C 10.957031 22.253906 10.609375 22.109375 10.433594 21.816406 C 10.175781 21.964844 9.566406 22.109375 9.042969 22.035156 C 7.21875 21.671875 6.085938 19.054688 7.390625 17.601562 C 7.304688 17.308594 7.042969 17.164062 6.78125 16.945312 C 6.347656 16.507812 6.433594 15.855469 6.347656 15.128906 C 5.042969 15.199219 4.175781 14.980469 3.566406 14.546875 C 3.390625 14.472656 3.304688 14.328125 3.21875 14.253906 C 3.160156 14.207031 3.128906 14.183594 3.128906 14.183594 C 2.957031 14.109375 2.78125 14.035156 2.609375 14.035156 C 1.652344 13.601562 0.695312 13.019531 0.347656 12 C 0 10.691406 0.695312 9.671875 1.390625 9.019531 C 1.476562 8.871094 1.652344 8.800781 1.652344 8.726562 C 1.738281 8.507812 1.652344 8.289062 1.652344 8.144531 C 1.652344 5.238281 3.128906 3.492188 5.128906 2.253906 C 6.78125 1.238281 8.78125 0.65625 11.652344 0.726562 C 12.261719 0.800781 12.871094 0.945312 13.476562 1.019531 C 13.652344 1.089844 13.824219 1.164062 14 1.164062 C 14.261719 1.164062 14.609375 1.019531 14.871094 0.945312 C 15.824219 0.726562 16.78125 0.507812 17.738281 0.4375 C 18.433594 0.363281 19.128906 0.21875 19.914062 0.21875 C 20.695312 0.21875 21.476562 0.289062 22.085938 0.289062 C 25.128906 0.582031 27.128906 2.035156 26.957031 4.945312 C 26.871094 6.183594 26.347656 7.199219 25.738281 8 C 25.679688 8.046875 25.652344 8.074219 25.652344 8.074219 C 25.042969 8.871094 24.085938 9.453125 23.042969 9.890625 C 23.476562 10.910156 23.652344 12.074219 24.261719 13.019531 C 24.433594 13.308594 24.78125 13.601562 25.128906 13.890625 C 25.914062 14.691406 26.957031 15.636719 27.128906 16.945312 C 27.476562 18.472656 27.042969 20.074219 26.261719 21.164062 C 27.824219 21.527344 29.042969 22.035156 30.175781 22.691406 C 29.914062 21.890625 29.476562 20.871094 29.390625 19.855469 C 29.332031 19.515625 29.421875 19.25 29.652344 19.054688 C 29.304688 18.910156 29.042969 18.691406 28.78125 18.546875 C 28.609375 18.472656 28.433594 18.472656 28.175781 18.328125 C 27.914062 18.183594 27.476562 17.816406 27.390625 17.453125 C 27.304688 16.726562 27.390625 15.5625 27.824219 15.199219 C 27.652344 14.472656 27.390625 13.671875 27.652344 13.019531 C 27.824219 12.4375 28.347656 12.074219 29.042969 11.925781 C 28.695312 11.34375 28.261719 10.328125 28.871094 9.601562 C 28.925781 9.550781 28.984375 9.480469 29.042969 9.382812 C 29.566406 9.019531 30.523438 9.019531 30.957031 9.671875 C 31.128906 9.601562 31.304688 9.382812 31.476562 9.308594 C 32.523438 9.089844 33.042969 10.109375 33.390625 10.617188 C 34 10.398438 34.523438 10.761719 34.78125 11.054688 C 35.042969 11.417969 35.21875 11.855469 35.390625 12.289062 C 35.566406 12.726562 35.738281 13.164062 35.914062 13.601562 C 36.261719 14.472656 36.609375 15.417969 36.523438 16.363281 C 36.523438 16.703125 36.464844 17.019531 36.347656 17.308594 C 36.609375 17.453125 36.871094 17.601562 37.128906 17.816406 C 37.304688 18.109375 37.390625 18.691406 37.566406 19.128906 C 37.738281 19.660156 37.941406 20.195312 38.175781 20.726562 C 38.433594 21.527344 38.695312 22.328125 38.957031 23.199219 C 39.390625 24.945312 39.738281 27.710938 38.609375 29.019531 Z M 34.433594 18.761719 C 34.957031 17.964844 35.738281 17.238281 35.738281 16.144531 C 35.738281 15.78125 35.652344 15.273438 35.566406 14.910156 C 35.566406 14.910156 35.566406 14.886719 35.566406 14.835938 C 35.476562 14.546875 35.304688 14.253906 35.128906 13.890625 C 35.015625 13.601562 34.898438 13.285156 34.78125 12.945312 C 34.523438 12.289062 34.347656 11.5625 33.824219 11.199219 C 33.476562 11.417969 33.390625 11.855469 33.476562 12.289062 C 33.476562 12.386719 33.476562 12.484375 33.476562 12.582031 C 33.652344 12.945312 33.824219 13.382812 33.914062 13.601562 C 34.175781 14.035156 34.523438 14.398438 34.695312 14.691406 C 34.175781 14.546875 33.824219 14.109375 33.566406 13.746094 C 33.304688 13.308594 33.042969 12.800781 32.957031 12.21875 C 32.957031 12.167969 32.957031 12.121094 32.957031 12.074219 C 32.957031 11.925781 32.957031 11.78125 32.957031 11.5625 C 32.871094 11.34375 32.695312 10.980469 32.523438 10.617188 C 32.433594 10.472656 32.085938 9.964844 31.824219 9.964844 C 31.566406 10.035156 31.566406 10.328125 31.476562 10.546875 C 31.476562 10.640625 31.476562 10.761719 31.476562 10.910156 C 31.476562 12.65625 32.78125 13.671875 34 14.398438 C 33.738281 14.472656 33.390625 14.472656 33.21875 14.398438 C 32.085938 14.035156 31.304688 12.507812 31.042969 11.492188 C 30.871094 11.054688 30.78125 10.617188 30.523438 10.253906 C 30.40625 10.109375 30.261719 9.988281 30.085938 9.890625 C 29.972656 9.84375 29.882812 9.816406 29.824219 9.816406 C 29.476562 9.890625 29.304688 10.328125 29.390625 10.617188 C 29.476562 11.199219 29.824219 11.636719 30.175781 12.144531 C 30.523438 12.65625 30.78125 13.238281 31.21875 13.601562 C 31.652344 13.890625 32.347656 13.964844 32.695312 14.183594 C 32.347656 14.253906 31.824219 14.398438 31.566406 14.328125 C 30.78125 14.035156 30.175781 13.164062 29.824219 12.582031 C 28.695312 12.4375 28.175781 13.238281 28.433594 14.183594 C 29.042969 13.890625 29.824219 14.328125 29.738281 15.054688 C 30 14.617188 30 13.816406 30 13.238281 C 30.347656 13.453125 30.433594 13.816406 30.433594 14.328125 C 30.609375 14.253906 30.871094 14.183594 31.128906 14.253906 C 31.042969 14.546875 30.609375 14.617188 30.347656 14.835938 C 30.261719 15.199219 30.523438 15.417969 30.695312 15.636719 C 30.871094 15.5625 31.21875 15.5625 31.304688 15.710938 C 30.871094 15.855469 30.523438 16 30.347656 16.363281 C 30.871094 16.582031 31.128906 17.019531 31.21875 17.527344 C 30.78125 17.308594 30.609375 16.800781 29.914062 16.65625 C 29.824219 16.800781 29.824219 17.019531 29.652344 17.089844 C 29.738281 16.65625 29.738281 16.144531 29.476562 15.855469 C 29.566406 16.507812 28.609375 16.800781 28.175781 16.289062 C 28.175781 16.800781 28 17.308594 28.261719 17.671875 C 28.347656 17.816406 28.871094 18.035156 29.128906 18.109375 C 30.085938 18.472656 31.21875 18.910156 32.175781 19.054688 C 31.914062 19.273438 31.566406 19.34375 31.042969 19.34375 C 31.21875 19.636719 31.304688 20 31.390625 20.289062 C 32.695312 20.800781 34.78125 20.289062 35.476562 19.5625 C 35.824219 19.199219 35.566406 18.835938 35.476562 18.328125 C 35.128906 18.472656 34.78125 18.761719 34.433594 18.761719 Z M 28.695312 16.363281 C 29.128906 16.4375 29.304688 16.074219 29.304688 15.5625 C 28.695312 14.761719 27.824219 16.289062 28.695312 16.363281 Z M 28.695312 15.128906 C 28.957031 15.054688 29.21875 15.199219 29.390625 15.273438 C 29.476562 14.910156 29.566406 14.472656 29.21875 14.328125 C 28.957031 14.183594 28.523438 14.253906 28.523438 14.472656 C 28.433594 14.691406 28.695312 14.910156 28.695312 15.128906 Z M 26.261719 18.980469 C 26.609375 16.945312 25.824219 15.78125 24.78125 14.761719 C 24.261719 14.253906 23.738281 13.746094 23.390625 13.164062 C 23.042969 12.507812 22.871094 11.855469 22.609375 11.054688 C 22.347656 10.910156 22 10.835938 21.652344 10.761719 C 21.824219 10.980469 22.175781 10.980469 22.261719 11.34375 C 22.347656 11.492188 22.175781 12.21875 22 12.289062 C 21.738281 12.363281 21.476562 12.144531 21.304688 12.074219 C 20.609375 12 19.738281 12.21875 19.21875 12.507812 C 19.042969 12.65625 19.042969 12.871094 18.695312 12.945312 C 18.523438 12.65625 18.175781 12.21875 18.261719 11.78125 C 18.347656 11.199219 19.21875 10.980469 19.824219 10.691406 C 15.824219 10.835938 13.128906 12.074219 10.78125 13.527344 C 11.042969 14.183594 11.390625 14.980469 11.476562 15.925781 C 11.566406 16.871094 11.304688 17.964844 11.390625 18.910156 C 11.390625 19.199219 11.914062 19.925781 11.738281 20.074219 C 11.566406 20.21875 11.304688 20.074219 11.128906 20 C 10.347656 19.5625 10.175781 18.691406 9.824219 17.890625 C 9.390625 17.453125 8.433594 17.601562 8.085938 17.964844 C 7.042969 18.910156 8 21.527344 9.738281 21.308594 C 10.261719 21.238281 10.433594 20.871094 10.695312 20.582031 C 11.738281 22.617188 13.652344 23.925781 16.523438 24.4375 C 17.476562 24.582031 18.695312 24.726562 19.738281 24.582031 C 20.609375 24.507812 21.476562 24.144531 22.085938 23.855469 C 22.839844 23.515625 23.476562 23.101562 24 22.617188 C 25.042969 21.671875 26 20.4375 26.261719 18.980469 Z M 22.085938 24.289062 C 21.476562 24.582031 20.78125 24.726562 20 24.871094 C 20 25.089844 19.914062 25.238281 19.824219 25.453125 C 20.695312 25.164062 21.390625 24.726562 22.085938 24.289062 Z M 11.738281 24.144531 C 12.175781 24.4375 12.695312 24.582031 13.304688 24.800781 C 14.871094 25.308594 16.957031 25.527344 19.21875 25.453125 C 19.21875 25.238281 18.957031 25.164062 18.78125 25.019531 C 15.652344 24.945312 13.390625 24.21875 11.738281 22.835938 C 11.824219 23.273438 11.738281 23.636719 11.738281 24.144531 Z M 21.824219 25.164062 C 21.304688 25.382812 20.78125 25.816406 20.175781 25.890625 C 18.78125 26.183594 16.871094 25.964844 15.304688 25.816406 C 13.652344 25.601562 11.914062 25.238281 11.21875 24.4375 C 11.21875 24.386719 11.1875 24.363281 11.128906 24.363281 C 10 25.089844 8.957031 26.109375 8.175781 27.34375 C 7.390625 28.582031 6.871094 29.964844 6.695312 31.5625 C 6.695312 31.855469 6.695312 32.144531 6.695312 32.4375 C 6.78125 32.65625 6.78125 32.871094 6.871094 33.089844 C 7.476562 29.601562 9.914062 27.636719 14.261719 27.273438 C 13.566406 26.183594 15.21875 25.671875 16.261719 26.035156 C 16.78125 26.183594 17.042969 26.691406 16.78125 27.273438 C 17.738281 27.34375 18.523438 27.492188 19.304688 27.710938 C 20 27.199219 20.78125 26.546875 21.304688 25.890625 C 21.476562 25.671875 21.738281 25.453125 21.824219 25.164062 Z M 14.78125 27.273438 C 15.042969 27.492188 15.914062 27.492188 16.261719 27.273438 C 16.347656 27.054688 16.433594 26.910156 16.347656 26.761719 C 16.175781 26.253906 14.957031 26.253906 14.695312 26.617188 C 14.523438 26.835938 14.609375 27.128906 14.78125 27.273438 Z M 18.78125 28.144531 C 17.824219 27.855469 16.695312 27.78125 15.476562 27.78125 C 15.128906 27.78125 14.695312 27.78125 14.347656 27.78125 C 12.433594 27.855469 10.871094 28.507812 9.652344 29.453125 C 8.261719 30.617188 7.21875 32.289062 7.476562 34.472656 C 9.738281 34.980469 12.609375 35.199219 15.476562 35.199219 C 18.347656 35.199219 21.21875 34.980469 23.476562 34.472656 C 23.738281 33.089844 23.304688 31.925781 22.695312 30.980469 C 21.914062 29.671875 20.433594 28.65625 18.78125 28.144531 Z M 24.085938 34.761719 C 22.957031 35.199219 21.566406 35.273438 20.085938 35.417969 C 18.609375 35.5625 17.042969 35.5625 15.476562 35.5625 C 13.914062 35.5625 12.347656 35.5625 10.871094 35.417969 C 9.476562 35.273438 8 35.199219 6.957031 34.691406 C 6.871094 34.691406 7.042969 34.546875 6.871094 34.472656 C 6.347656 34.617188 5.824219 34.691406 5.390625 34.835938 C 5.160156 34.886719 4.957031 34.980469 4.78125 35.128906 C 5.042969 35.417969 5.652344 35.5625 6.085938 35.636719 C 6.261719 35.636719 6.433594 35.660156 6.609375 35.710938 C 8.085938 36 9.738281 36.074219 11.390625 36.144531 C 13.914062 36.21875 16.695312 36.289062 19.128906 36.144531 C 21.128906 36.074219 23.128906 36 24.78125 35.636719 C 25.304688 35.5625 25.914062 35.417969 26.261719 35.128906 C 25.738281 34.691406 24.871094 34.617188 24.085938 34.472656 C 24 34.546875 24.175781 34.691406 24.085938 34.761719 Z M 20.957031 36.65625 C 19.824219 36.65625 19.21875 37.238281 18.261719 37.382812 C 18.523438 37.089844 18.957031 36.945312 19.304688 36.726562 C 16.957031 36.945312 14.433594 36.871094 12.085938 36.800781 C 12.433594 36.945312 12.871094 36.945312 13.21875 37.089844 C 12.925781 37.140625 12.609375 37.164062 12.261719 37.164062 C 12.78125 37.453125 13.476562 37.671875 14 37.890625 C 13.652344 37.964844 13.304688 37.816406 13.042969 37.890625 C 13.738281 38.328125 15.042969 38.691406 16.261719 38.472656 C 17.042969 38.328125 17.914062 37.964844 18.695312 37.601562 C 19.566406 37.308594 20.347656 36.945312 20.957031 36.65625 Z M 14.871094 39.273438 C 15.101562 39.222656 15.363281 39.175781 15.652344 39.128906 C 15.652344 39.054688 15.914062 39.054688 15.738281 39.054688 C 15.042969 39.152344 14.433594 39.152344 13.914062 39.054688 C 13.679688 39.007812 13.449219 38.933594 13.21875 38.835938 C 12.433594 38.546875 11.824219 38.035156 11.652344 37.308594 C 11.21875 36.945312 10.261719 37.089844 10 36.65625 C 9.390625 36.582031 8.695312 36.582031 8.175781 36.507812 C 8.289062 36.65625 8.433594 36.824219 8.609375 37.019531 C 9.914062 38.328125 12.175781 39.5625 14.871094 39.273438 Z M 10.957031 17.308594 C 11.042969 16 10.871094 14.761719 10.523438 13.816406 C 10.523438 13.769531 10.492188 13.746094 10.433594 13.746094 C 10.175781 13.964844 9.914062 14.183594 9.652344 14.398438 C 9.21875 14.835938 8.78125 15.34375 8.347656 15.855469 C 8.175781 16.074219 7.738281 16.4375 7.738281 16.65625 C 7.738281 16.871094 8 17.019531 8.085938 17.238281 C 8.347656 17.019531 8.871094 16.871094 9.304688 17.019531 C 10.261719 17.164062 10.523438 18.183594 10.609375 19.054688 C 10.78125 19.34375 10.957031 19.5625 11.304688 19.710938 C 10.957031 19.054688 10.957031 18.183594 10.957031 17.308594 Z M 7.476562 16.363281 C 8.523438 14.691406 10.085938 13.238281 12.085938 12.21875 C 14.175781 11.199219 16.609375 10.398438 19.476562 10.253906 C 20.609375 10.253906 21.476562 10.328125 22.433594 10.472656 C 22.175781 9.746094 22 9.019531 21.824219 8.289062 C 19.390625 8.726562 16.523438 8.4375 14.78125 7.710938 C 12.871094 8 11.304688 8.582031 9.738281 9.308594 C 8.609375 9.890625 7.652344 10.472656 6.78125 11.199219 C 6.609375 11.417969 6 11.855469 6 12.074219 C 6 12.144531 6.175781 12.289062 6.261719 12.4375 C 6.433594 12.871094 6.609375 13.382812 6.78125 13.746094 C 6.957031 14.253906 7.304688 14.980469 7.304688 15.5625 C 7.390625 15.78125 7.21875 16.144531 7.476562 16.363281 Z M 6.347656 14.398438 C 6.085938 13.671875 5.738281 12.945312 5.476562 12.21875 C 5.363281 12.265625 5.21875 12.289062 5.042969 12.289062 C 4.347656 12.4375 3.566406 12.289062 3.304688 11.855469 C 4.085938 12.144531 5.128906 12 5.738281 11.710938 C 6 11.34375 6.261719 10.980469 6.609375 10.691406 C 6.695312 10.617188 6.957031 10.472656 6.871094 10.398438 C 6.175781 10.328125 5.476562 10.109375 5.304688 9.671875 C 5.914062 9.890625 6.78125 10.183594 7.566406 9.964844 C 7.738281 9.890625 7.824219 9.746094 8 9.671875 C 8.433594 9.382812 8.957031 9.089844 9.390625 8.871094 C 8.78125 8.726562 8.433594 8.4375 8.261719 7.925781 C 8.695312 8.289062 9.128906 8.65625 10.175781 8.507812 C 11.21875 8 12.433594 7.636719 13.652344 7.273438 C 12.523438 6.835938 10.957031 6.546875 9.304688 6.691406 C 8.78125 6.691406 8.261719 6.835938 7.824219 6.835938 C 8.609375 6.472656 9.652344 6.183594 10.957031 6.183594 C 12.433594 6.253906 13.652344 6.691406 14.871094 7.054688 C 15.21875 7.152344 15.535156 7.25 15.824219 7.34375 C 16.78125 7.636719 17.738281 7.855469 18.871094 7.925781 C 20.375 8.023438 21.652344 7.855469 22.695312 7.417969 C 24 6.761719 24.78125 5.746094 25.042969 4.21875 C 25.21875 5.671875 24.347656 6.761719 23.476562 7.492188 C 23.21875 7.78125 22.957031 7.925781 22.609375 8.074219 C 22.695312 8.4375 22.78125 8.726562 22.871094 9.089844 C 23.652344 8.800781 24.261719 8.363281 24.78125 7.78125 C 24.898438 7.636719 25.042969 7.464844 25.21875 7.273438 C 25.738281 6.472656 26.175781 5.382812 26.085938 4.21875 C 25.914062 2.472656 24.695312 1.527344 22.78125 1.164062 C 21.914062 0.945312 20.695312 0.871094 19.566406 0.945312 C 17.390625 1.164062 15.652344 1.527344 13.914062 1.964844 C 13.304688 2.109375 12.695312 2.328125 12.085938 2.109375 C 12.523438 1.964844 12.957031 1.890625 13.390625 1.746094 C 10.085938 0.945312 6.871094 1.890625 4.957031 3.34375 C 3.304688 4.582031 2.261719 6.472656 2.523438 8.945312 C 1.824219 9.671875 0.78125 10.546875 1.21875 11.855469 C 1.566406 12.726562 2.433594 13.238281 3.566406 13.527344 C 3.625 13.574219 3.679688 13.601562 3.738281 13.601562 C 4.261719 14.183594 5.128906 14.472656 6.347656 14.398438 Z M 18.523438 11.710938 C 18.433594 12.074219 18.695312 12.289062 18.78125 12.65625 C 19.390625 12.074219 20.695312 11.636719 21.824219 12 C 21.914062 11.78125 22 11.5625 22 11.34375 C 21.738281 11.128906 21.304688 10.910156 20.78125 10.835938 C 19.914062 10.761719 18.695312 11.34375 18.523438 11.710938 Z M 18.523438 11.710938 "/>
</g>
</g>
</svg>
