<svg xmlns="http://www.w3.org/2000/svg" xmlns:xlink="http://www.w3.org/1999/xlink" width="500" zoomAndPan="magnify" viewBox="0 0 375 374.999991" height="500" preserveAspectRatio="xMidYMid meet" version="1.0"><defs><clipPath id="7955cf8dfc"><path d="M 0 207 L 375 207 L 375 348.5625 L 0 348.5625 Z M 0 207 " clip-rule="nonzero"/></clipPath><clipPath id="e0df91fb56"><path d="M 102 21.5625 L 273 21.5625 L 273 194 L 102 194 Z M 102 21.5625 " clip-rule="nonzero"/></clipPath></defs><path fill="#d79555" d="M 354.097656 209.992188 L 20.902344 209.992188 C 11.058594 209.992188 3.085938 217.964844 3.085938 227.808594 L 3.085938 327.957031 C 3.085938 337.804688 11.058594 345.777344 20.902344 345.777344 L 354.097656 345.777344 C 363.941406 345.777344 371.914062 337.804688 371.914062 327.957031 L 371.914062 227.808594 C 371.914062 217.964844 363.941406 209.992188 354.097656 209.992188 Z M 354.097656 209.992188 " fill-opacity="1" fill-rule="nonzero"/><path fill="#d79555" d="M 187.5 190.125 C 232.980469 190.125 269.832031 153.0625 269.832031 107.34375 C 269.832031 61.597656 232.980469 24.535156 187.5 24.535156 C 142.019531 24.535156 105.167969 61.597656 105.167969 107.34375 C 105.167969 153.0625 142.019531 190.125 187.5 190.125 Z M 187.5 190.125 " fill-opacity="1" fill-rule="nonzero"/><path fill="#d79555" d="M 354.097656 209.992188 L 20.902344 209.992188 C 11.058594 209.992188 3.085938 217.964844 3.085938 227.808594 L 3.085938 327.957031 C 3.085938 337.804688 11.058594 345.777344 20.902344 345.777344 L 354.097656 345.777344 C 363.941406 345.777344 371.914062 337.804688 371.914062 327.957031 L 371.914062 227.808594 C 371.914062 217.964844 363.941406 209.992188 354.097656 209.992188 Z M 354.097656 209.992188 " fill-opacity="1" fill-rule="nonzero"/><path fill="#d6eae8" d="M 228.367188 135.484375 L 227.03125 150.386719 L 147.96875 150.386719 L 146.632812 135.484375 Z M 228.367188 135.484375 " fill-opacity="1" fill-rule="nonzero"/><path fill="#cd3f14" d="M 210.523438 135.484375 L 146.632812 135.484375 L 144.699219 113.949219 C 133.039062 110.496094 127.269531 97.648438 131.519531 87.445312 C 135.507812 77.898438 147.464844 72.929688 157.875 77.511719 C 161.296875 63.949219 173.550781 54.339844 187.5 54.339844 C 201.449219 54.339844 213.703125 63.949219 217.125 77.511719 C 227.535156 72.929688 239.492188 77.898438 243.480469 87.445312 C 247.730469 97.648438 241.960938 110.496094 230.300781 113.949219 L 228.367188 135.484375 Z M 210.523438 135.484375 " fill-opacity="1" fill-rule="nonzero"/><g clip-path="url(#7955cf8dfc)"><path fill="#3a322b" d="M 354.101562 207.019531 L 20.898438 207.019531 C 9.4375 207.019531 0.109375 216.347656 0.109375 227.808594 L 0.109375 327.960938 C 0.109375 339.425781 9.4375 348.75 20.898438 348.75 L 354.097656 348.75 C 365.5625 348.75 374.886719 339.425781 374.886719 327.960938 L 374.886719 227.808594 C 374.890625 216.347656 365.5625 207.019531 354.101562 207.019531 Z M 368.941406 327.960938 C 368.941406 336.144531 362.285156 342.800781 354.101562 342.800781 L 20.898438 342.800781 C 12.714844 342.800781 6.058594 336.144531 6.058594 327.960938 L 6.058594 227.808594 C 6.058594 219.625 12.714844 212.96875 20.898438 212.96875 L 354.097656 212.96875 C 362.28125 212.96875 368.9375 219.625 368.9375 227.808594 L 368.9375 327.960938 Z M 368.941406 327.960938 " fill-opacity="1" fill-rule="nonzero"/></g><g clip-path="url(#e0df91fb56)"><path fill="#3a322b" d="M 187.5 193.097656 C 234.535156 193.097656 272.804688 154.621094 272.804688 107.332031 C 272.804688 60.039062 234.535156 21.5625 187.5 21.5625 C 140.464844 21.5625 102.195312 60.039062 102.195312 107.332031 C 102.195312 154.621094 140.464844 193.097656 187.5 193.097656 Z M 187.5 27.511719 C 231.257812 27.511719 266.855469 63.316406 266.855469 107.332031 C 266.855469 151.34375 231.257812 187.148438 187.5 187.148438 C 143.742188 187.148438 108.144531 151.34375 108.144531 107.332031 C 108.144531 63.316406 143.742188 27.511719 187.5 27.511719 Z M 187.5 27.511719 " fill-opacity="1" fill-rule="nonzero"/></g><path fill="#3a322b" d="M 312.957031 107.332031 C 312.957031 128.128906 305.050781 147.816406 290.6875 162.777344 C 289.554688 163.960938 289.589844 165.84375 290.773438 166.984375 C 291.347656 167.539062 292.09375 167.8125 292.832031 167.8125 C 293.617188 167.8125 294.394531 167.507812 294.980469 166.894531 C 310.414062 150.824219 318.90625 129.671875 318.90625 107.332031 C 318.90625 85.398438 310.671875 64.519531 295.722656 48.550781 C 294.601562 47.355469 292.71875 47.292969 291.519531 48.414062 C 290.320312 49.535156 290.257812 51.417969 291.382812 52.621094 C 305.296875 67.476562 312.957031 86.90625 312.957031 107.332031 Z M 312.957031 107.332031 " fill-opacity="1" fill-rule="nonzero"/><path fill="#3a322b" d="M 277.648438 150.460938 C 278.222656 151.011719 278.964844 151.289062 279.707031 151.289062 C 280.488281 151.289062 281.269531 150.984375 281.855469 150.375 C 292.976562 138.789062 299.105469 123.542969 299.105469 107.441406 C 299.105469 91.628906 293.167969 76.578125 282.390625 65.066406 C 281.269531 63.867188 279.390625 63.808594 278.1875 64.929688 C 276.988281 66.050781 276.925781 67.933594 278.050781 69.136719 C 287.789062 79.539062 293.15625 93.140625 293.15625 107.441406 C 293.15625 122.003906 287.621094 135.785156 277.5625 146.253906 C 276.421875 147.441406 276.460938 149.324219 277.648438 150.460938 Z M 277.648438 150.460938 " fill-opacity="1" fill-rule="nonzero"/><path fill="#3a322b" d="M 82.167969 167.808594 C 82.90625 167.808594 83.652344 167.535156 84.226562 166.980469 C 85.410156 165.84375 85.445312 163.960938 84.3125 162.773438 C 69.949219 147.816406 62.042969 128.125 62.042969 107.328125 C 62.042969 86.90625 69.703125 67.472656 83.617188 52.613281 C 84.742188 51.414062 84.679688 49.53125 83.480469 48.40625 C 82.28125 47.28125 80.398438 47.34375 79.277344 48.542969 C 64.328125 64.511719 56.09375 85.386719 56.09375 107.324219 C 56.09375 129.664062 64.585938 150.820312 80.019531 166.886719 C 80.605469 167.503906 81.382812 167.808594 82.167969 167.808594 Z M 82.167969 167.808594 " fill-opacity="1" fill-rule="nonzero"/><path fill="#3a322b" d="M 93.144531 150.375 C 93.730469 150.984375 94.511719 151.289062 95.292969 151.289062 C 96.035156 151.289062 96.777344 151.011719 97.351562 150.460938 C 98.535156 149.324219 98.574219 147.4375 97.4375 146.253906 C 87.382812 135.785156 81.847656 122.003906 81.847656 107.441406 C 81.847656 93.140625 87.214844 79.539062 96.953125 69.136719 C 98.074219 67.9375 98.011719 66.054688 96.8125 64.929688 C 95.609375 63.808594 93.730469 63.867188 92.605469 65.066406 C 81.832031 76.578125 75.898438 91.625 75.898438 107.441406 C 75.898438 123.546875 82.027344 138.796875 93.144531 150.375 Z M 93.144531 150.375 " fill-opacity="1" fill-rule="nonzero"/><path fill="#3a322b" d="M 55.773438 248.417969 C 54.128906 248.417969 52.800781 249.75 52.800781 251.390625 L 52.800781 293.957031 L 25.371094 249.820312 C 24.667969 248.691406 23.300781 248.15625 22.027344 248.53125 C 20.746094 248.894531 19.867188 250.0625 19.867188 251.386719 L 19.867188 304.375 C 19.867188 306.015625 21.195312 307.347656 22.839844 307.347656 C 24.484375 307.347656 25.816406 306.015625 25.816406 304.375 L 25.816406 261.808594 L 53.246094 305.949219 C 53.800781 306.835938 54.765625 307.351562 55.773438 307.351562 C 56.046875 307.351562 56.320312 307.316406 56.589844 307.234375 C 57.867188 306.871094 58.75 305.703125 58.75 304.378906 L 58.75 251.390625 C 58.75 249.75 57.417969 248.417969 55.773438 248.417969 Z M 55.773438 248.417969 " fill-opacity="1" fill-rule="nonzero"/><path fill="#3a322b" d="M 95.292969 254.367188 C 96.9375 254.367188 98.265625 253.03125 98.265625 251.390625 C 98.265625 249.75 96.9375 248.417969 95.292969 248.417969 L 68.949219 248.417969 C 67.304688 248.417969 65.972656 249.75 65.972656 251.390625 L 65.972656 304.378906 C 65.972656 306.019531 67.304688 307.351562 68.949219 307.351562 L 95.292969 307.351562 C 96.9375 307.351562 98.265625 306.019531 98.265625 304.378906 C 98.265625 302.734375 96.9375 301.402344 95.292969 301.402344 L 71.921875 301.402344 L 71.921875 280.859375 L 95.292969 280.859375 C 96.9375 280.859375 98.265625 279.527344 98.265625 277.882812 C 98.265625 276.242188 96.9375 274.910156 95.292969 274.910156 L 71.921875 274.910156 L 71.921875 254.367188 Z M 95.292969 254.367188 " fill-opacity="1" fill-rule="nonzero"/><path fill="#3a322b" d="M 315.933594 254.367188 C 317.578125 254.367188 318.90625 253.03125 318.90625 251.390625 C 318.90625 249.75 317.578125 248.417969 315.933594 248.417969 L 289.589844 248.417969 C 287.945312 248.417969 286.613281 249.75 286.613281 251.390625 L 286.613281 304.378906 C 286.613281 306.019531 287.945312 307.351562 289.589844 307.351562 L 315.933594 307.351562 C 317.578125 307.351562 318.90625 306.019531 318.90625 304.378906 C 318.90625 302.734375 317.578125 301.402344 315.933594 301.402344 L 292.5625 301.402344 L 292.5625 280.859375 L 315.933594 280.859375 C 317.578125 280.859375 318.90625 279.527344 318.90625 277.882812 C 318.90625 276.242188 317.578125 274.910156 315.933594 274.910156 L 292.5625 274.910156 L 292.5625 254.367188 Z M 315.933594 254.367188 " fill-opacity="1" fill-rule="nonzero"/><path fill="#3a322b" d="M 148.347656 248.441406 C 146.699219 248.222656 145.230469 249.394531 145.03125 251.023438 L 140.253906 289.46875 L 131.085938 257.203125 C 130.722656 255.925781 129.554688 255.039062 128.226562 255.039062 C 126.894531 255.039062 125.726562 255.925781 125.363281 257.203125 L 116.195312 289.46875 L 111.421875 251.023438 C 111.21875 249.394531 109.746094 248.21875 108.101562 248.441406 C 106.46875 248.640625 105.3125 250.125 105.519531 251.757812 L 112.105469 304.746094 C 112.28125 306.148438 113.414062 307.234375 114.828125 307.347656 C 116.15625 307.445312 117.527344 306.554688 117.917969 305.191406 L 128.226562 268.898438 L 138.539062 305.191406 C 138.90625 306.480469 140.082031 307.355469 141.398438 307.355469 C 141.476562 307.355469 141.554688 307.351562 141.628906 307.347656 C 143.042969 307.234375 144.175781 306.148438 144.351562 304.746094 L 150.9375 251.757812 C 151.132812 250.125 149.980469 248.640625 148.347656 248.441406 Z M 148.347656 248.441406 " fill-opacity="1" fill-rule="nonzero"/><path fill="#3a322b" d="M 185.851562 248.417969 C 175.875 248.417969 168.058594 261.359375 168.058594 277.882812 C 168.058594 294.40625 175.875 307.351562 185.851562 307.351562 C 195.828125 307.351562 203.644531 294.40625 203.644531 277.882812 C 203.644531 261.359375 195.832031 248.417969 185.851562 248.417969 Z M 185.851562 301.40625 C 180.25 301.40625 174.007812 291.746094 174.007812 277.886719 C 174.007812 264.027344 180.25 254.367188 185.851562 254.367188 C 191.453125 254.367188 197.695312 264.027344 197.695312 277.886719 C 197.695312 291.746094 191.457031 301.40625 185.851562 301.40625 Z M 185.851562 301.40625 " fill-opacity="1" fill-rule="nonzero"/><path fill="#3a322b" d="M 243.164062 264.640625 C 243.164062 255.695312 235.921875 248.417969 227.019531 248.417969 L 213.84375 248.417969 C 212.199219 248.417969 210.871094 249.75 210.871094 251.390625 L 210.871094 304.378906 C 210.871094 306.019531 212.199219 307.351562 213.84375 307.351562 C 215.488281 307.351562 216.820312 306.019531 216.820312 304.378906 L 216.820312 280.859375 L 225.175781 280.859375 L 237.523438 305.703125 C 238.042969 306.75 239.09375 307.355469 240.1875 307.355469 C 240.632812 307.355469 241.085938 307.253906 241.507812 307.046875 C 242.980469 306.3125 243.578125 304.527344 242.847656 303.058594 L 231.492188 280.214844 C 238.226562 278.253906 243.164062 272.023438 243.164062 264.640625 Z M 227.019531 274.910156 L 216.820312 274.910156 L 216.820312 254.367188 L 227.019531 254.367188 C 232.640625 254.367188 237.214844 258.972656 237.214844 264.640625 C 237.214844 270.304688 232.640625 274.910156 227.019531 274.910156 Z M 227.019531 274.910156 " fill-opacity="1" fill-rule="nonzero"/><path fill="#3a322b" d="M 358.421875 264.640625 C 358.421875 255.695312 351.179688 248.417969 342.277344 248.417969 L 329.105469 248.417969 C 327.457031 248.417969 326.128906 249.75 326.128906 251.390625 L 326.128906 304.378906 C 326.128906 306.019531 327.457031 307.351562 329.105469 307.351562 C 330.75 307.351562 332.078125 306.019531 332.078125 304.378906 L 332.078125 280.859375 L 340.433594 280.859375 L 352.78125 305.703125 C 353.304688 306.75 354.355469 307.355469 355.449219 307.355469 C 355.890625 307.355469 356.34375 307.253906 356.769531 307.046875 C 358.238281 306.3125 358.839844 304.527344 358.109375 303.058594 L 346.75 280.214844 C 353.484375 278.253906 358.421875 272.023438 358.421875 264.640625 Z M 342.277344 274.910156 L 332.078125 274.910156 L 332.078125 254.367188 L 342.277344 254.367188 C 347.898438 254.367188 352.472656 258.972656 352.472656 264.640625 C 352.472656 270.304688 347.898438 274.910156 342.277344 274.910156 Z M 342.277344 274.910156 " fill-opacity="1" fill-rule="nonzero"/><path fill="#3a322b" d="M 253.757812 248.441406 C 252.894531 248.324219 252.046875 248.589844 251.402344 249.152344 C 250.757812 249.714844 250.386719 250.53125 250.386719 251.390625 L 250.386719 304.378906 C 250.386719 305.238281 250.757812 306.050781 251.402344 306.617188 C 251.949219 307.09375 252.644531 307.351562 253.359375 307.351562 C 253.492188 307.351562 253.625 307.34375 253.757812 307.324219 C 268.367188 305.355469 279.386719 292.699219 279.386719 277.882812 C 279.386719 263.070312 268.367188 250.410156 253.757812 248.441406 Z M 256.335938 300.722656 L 256.335938 255.050781 C 266.292969 257.929688 273.441406 267.203125 273.441406 277.882812 C 273.441406 288.566406 266.289062 297.84375 256.335938 300.722656 Z M 256.335938 300.722656 " fill-opacity="1" fill-rule="nonzero"/><path fill="#3a322b" d="M 141.902344 116.132812 L 145.019531 150.648438 C 145.160156 152.183594 146.445312 153.355469 147.980469 153.355469 L 227.019531 153.355469 C 228.558594 153.355469 229.839844 152.183594 229.980469 150.648438 L 233.097656 116.132812 C 238.558594 113.964844 243.050781 109.765625 245.605469 104.378906 C 248.367188 98.554688 248.59375 91.96875 246.226562 86.3125 C 244.011719 81.011719 239.539062 76.699219 233.964844 74.476562 C 229.152344 72.554688 223.972656 72.296875 219.070312 73.675781 C 214.332031 60.390625 201.777344 51.371094 187.5 51.371094 C 173.222656 51.371094 160.667969 60.390625 155.929688 73.675781 C 151.035156 72.300781 145.847656 72.558594 141.035156 74.476562 C 135.460938 76.699219 130.988281 81.011719 128.773438 86.3125 C 126.40625 91.96875 126.632812 98.550781 129.394531 104.378906 C 131.949219 109.765625 136.441406 113.960938 141.902344 116.132812 Z M 150.699219 147.40625 L 149.890625 138.441406 L 225.113281 138.441406 L 224.300781 147.40625 Z M 134.261719 88.609375 C 135.867188 84.773438 139.140625 81.636719 143.238281 80.003906 C 147.597656 78.265625 152.367188 78.351562 156.664062 80.246094 C 157.46875 80.605469 158.378906 80.585938 159.171875 80.199219 C 159.960938 79.816406 160.535156 79.101562 160.75 78.253906 C 163.863281 65.929688 174.863281 57.316406 187.503906 57.316406 C 200.144531 57.316406 211.144531 65.929688 214.253906 78.253906 C 214.46875 79.105469 215.050781 79.816406 215.835938 80.199219 C 216.625 80.585938 217.539062 80.605469 218.34375 80.246094 C 222.632812 78.351562 227.40625 78.265625 231.769531 80.003906 C 235.867188 81.636719 239.140625 84.773438 240.742188 88.609375 C 242.457031 92.710938 242.273438 97.53125 240.234375 101.832031 C 238.105469 106.320312 234.179688 109.699219 229.464844 111.105469 C 228.296875 111.453125 227.460938 112.476562 227.351562 113.691406 L 225.652344 132.496094 L 213.890625 132.496094 L 216.785156 108.421875 C 216.976562 106.792969 215.816406 105.3125 214.183594 105.113281 C 212.558594 104.921875 211.074219 106.082031 210.875 107.714844 L 207.898438 132.5 L 190.460938 132.5 L 190.460938 108.070312 C 190.460938 106.429688 189.128906 105.097656 187.484375 105.097656 C 185.839844 105.097656 184.511719 106.429688 184.511719 108.070312 L 184.511719 132.5 L 167.066406 132.5 L 164.085938 107.714844 C 163.890625 106.085938 162.429688 104.917969 160.777344 105.113281 C 159.144531 105.3125 157.984375 106.789062 158.179688 108.421875 L 161.070312 132.496094 L 149.351562 132.496094 L 147.652344 113.691406 C 147.542969 112.476562 146.707031 111.453125 145.535156 111.105469 C 140.820312 109.699219 136.898438 106.320312 134.769531 101.832031 C 132.730469 97.53125 132.542969 92.707031 134.261719 88.609375 Z M 134.261719 88.609375 " fill-opacity="1" fill-rule="nonzero"/></svg>