<?xml version="1.0" encoding="UTF-8"?>
<svg xmlns="http://www.w3.org/2000/svg" xmlns:xlink="http://www.w3.org/1999/xlink" width="40px" height="40px" viewBox="0 0 40 40" version="1.1">
<defs>
<clipPath id="clip1">
  <path d="M 19 27.316406 L 39 27.316406 L 39 39.953125 L 19 39.953125 Z M 19 27.316406 "/>
</clipPath>
<clipPath id="clip2">
  <path d="M 1 21 L 23.828125 21 L 23.828125 39.953125 L 1 39.953125 Z M 1 21 "/>
</clipPath>
<clipPath id="clip3">
  <path d="M 21 27.316406 L 39.550781 27.316406 L 39.550781 39.953125 L 21 39.953125 Z M 21 27.316406 "/>
</clipPath>
<clipPath id="clip4">
  <path d="M 1 21 L 23.828125 21 L 23.828125 39.953125 L 1 39.953125 Z M 1 21 "/>
</clipPath>
<clipPath id="clip5">
  <path d="M 34.042969 27.316406 L 39.550781 27.316406 L 39.550781 39.953125 L 34.042969 39.953125 Z M 34.042969 27.316406 "/>
</clipPath>
<clipPath id="clip6">
  <path d="M 17.019531 23.414062 L 23.828125 23.414062 L 23.828125 39.953125 L 17.019531 39.953125 Z M 17.019531 23.414062 "/>
</clipPath>
<clipPath id="clip7">
  <path d="M 5.105469 0.4375 L 20 0.4375 L 20 11 L 5.105469 11 Z M 5.105469 0.4375 "/>
</clipPath>
<clipPath id="clip8">
  <path d="M 0.613281 18.378906 L 9.820312 18.378906 L 9.820312 39.953125 L 0.613281 39.953125 Z M 0.613281 18.378906 "/>
</clipPath>
<clipPath id="clip9">
  <path d="M 18.886719 26.859375 L 22.246094 26.859375 L 22.246094 39.953125 L 18.886719 39.953125 Z M 18.886719 26.859375 "/>
</clipPath>
<clipPath id="clip10">
  <path d="M 36.1875 26.859375 L 39.550781 26.859375 L 39.550781 39.953125 L 36.1875 39.953125 Z M 36.1875 26.859375 "/>
</clipPath>
<clipPath id="clip11">
  <path d="M 24 0.4375 L 34 0.4375 L 34 7.804688 L 24 7.804688 Z M 24 0.4375 "/>
</clipPath>
</defs>
<g id="surface1">
<g clip-path="url(#clip1)" clip-rule="nonzero">
<path style=" stroke:none;fill-rule:nonzero;fill:rgb(100%,100%,100%);fill-opacity:1;" d="M 38.894531 31.21875 L 38.894531 39.804688 L 19.574219 39.804688 L 19.574219 31.21875 C 19.574219 29.660156 20.597656 28.195312 21.957031 27.609375 L 24.679688 27.609375 L 28.9375 33.074219 C 28.992188 33.136719 29.050781 33.171875 29.105469 33.171875 C 29.105469 33.171875 29.132812 33.171875 29.191406 33.171875 C 29.25 33.171875 29.277344 33.171875 29.277344 33.171875 C 29.332031 33.171875 29.390625 33.136719 29.445312 33.074219 L 33.703125 27.609375 L 36.425781 27.609375 C 37.871094 28.195312 38.894531 29.660156 38.894531 31.21875 Z M 38.894531 31.21875 "/>
</g>
<path style=" stroke:none;fill-rule:nonzero;fill:rgb(100%,100%,100%);fill-opacity:1;" d="M 26.980469 23.707031 C 27.660156 24.03125 28.367188 24.226562 29.105469 24.292969 C 29.957031 24.292969 30.808594 24 31.488281 23.609375 L 31.488281 25.855469 L 29.191406 31.902344 L 26.980469 25.855469 Z M 26.980469 23.707031 "/>
<path style=" stroke:none;fill-rule:nonzero;fill:rgb(100%,100%,100%);fill-opacity:1;" d="M 33.617188 26.828125 C 33.503906 26.828125 33.417969 26.894531 33.363281 27.023438 L 30.382812 30.828125 L 32.171875 26.046875 C 32.171875 26.046875 32.171875 26.015625 32.171875 25.953125 L 32.171875 24.195312 L 35.488281 26.828125 Z M 33.617188 26.828125 "/>
<path style=" stroke:none;fill-rule:nonzero;fill:rgb(100%,100%,100%);fill-opacity:1;" d="M 34.722656 14.535156 C 34.496094 14.667969 34.210938 14.765625 33.871094 14.828125 C 33.445312 14.925781 33.105469 14.925781 32.9375 14.925781 C 30.722656 14.535156 29.105469 13.269531 27.828125 11.804688 C 28.511719 10.828125 30.128906 8.195312 30.636719 5.464844 C 31.402344 5.757812 32.085938 6.242188 32.679688 6.925781 C 33.617188 8 34.210938 9.367188 34.46875 11.316406 C 34.554688 12.097656 34.636719 13.953125 34.722656 14.535156 Z M 34.722656 14.535156 "/>
<path style=" stroke:none;fill-rule:nonzero;fill:rgb(100%,100%,100%);fill-opacity:1;" d="M 28.9375 1.171875 C 30.980469 1.171875 32.679688 3.21875 32.679688 5.5625 C 32.679688 5.691406 32.679688 5.820312 32.679688 5.953125 C 32 5.269531 31.320312 4.878906 30.46875 4.585938 C 30.070312 4.457031 29.644531 4.390625 29.191406 4.390625 C 29.078125 4.390625 28.992188 4.390625 28.9375 4.390625 C 27.488281 4.390625 26.210938 4.878906 25.105469 5.855469 C 25.105469 5.789062 25.105469 5.691406 25.105469 5.5625 C 25.105469 3.21875 26.808594 1.171875 28.9375 1.171875 Z M 28.9375 1.171875 "/>
<path style=" stroke:none;fill-rule:nonzero;fill:rgb(100%,100%,100%);fill-opacity:1;" d="M 24 8.878906 C 24.226562 8.164062 24.597656 7.511719 25.105469 6.925781 C 26.128906 5.757812 27.488281 5.074219 28.9375 5.074219 C 28.992188 5.074219 29.078125 5.105469 29.191406 5.171875 C 29.476562 5.171875 29.757812 5.203125 30.042969 5.269531 C 29.53125 8 27.660156 10.828125 27.148438 11.609375 L 27.0625 11.609375 C 26.441406 12.519531 25.703125 13.332031 24.851562 14.046875 C 24.679688 14.179688 24.539062 14.277344 24.425781 14.339844 C 24.3125 14.472656 24.199219 14.535156 24.085938 14.535156 C 24.027344 14.601562 23.972656 14.632812 23.914062 14.632812 C 23.800781 14.570312 23.6875 14.535156 23.574219 14.535156 L 23.574219 11.316406 C 23.574219 10.472656 23.714844 9.660156 24 8.878906 Z M 24 8.878906 "/>
<path style=" stroke:none;fill-rule:nonzero;fill:rgb(100%,100%,100%);fill-opacity:1;" d="M 24.679688 18.339844 L 24.679688 18.242188 C 24.679688 18.046875 24.597656 17.953125 24.511719 17.855469 C 24.339844 17.855469 24.171875 17.855469 24.085938 17.953125 C 24.085938 18.015625 24.058594 18.046875 24 18.046875 C 23.746094 18.144531 23.320312 17.660156 23.0625 16.878906 C 22.894531 16.292969 22.894531 15.804688 23.0625 15.511719 C 23.0625 15.382812 23.121094 15.285156 23.234375 15.21875 C 23.402344 15.21875 23.828125 15.414062 24.085938 15.902344 C 24.171875 16.097656 24.339844 16.097656 24.511719 16 C 24.679688 15.902344 24.765625 15.609375 24.597656 15.511719 C 24.539062 15.382812 24.480469 15.285156 24.425781 15.21875 C 24.539062 15.15625 24.652344 15.089844 24.765625 15.023438 C 24.9375 14.894531 25.078125 14.796875 25.191406 14.730469 C 25.984375 14.082031 26.722656 13.300781 27.402344 12.390625 C 28.765625 13.953125 30.46875 15.316406 32.851562 15.609375 C 32.964844 15.675781 33.078125 15.707031 33.191406 15.707031 C 33.363281 15.707031 33.503906 15.675781 33.617188 15.609375 L 33.617188 15.902344 C 33.617188 16.097656 33.789062 16.292969 33.957031 16.292969 C 34.128906 16.292969 34.296875 16.097656 34.296875 15.902344 L 34.296875 15.511719 C 34.554688 15.414062 34.894531 15.316406 35.0625 15.121094 C 35.175781 15.1875 35.234375 15.253906 35.234375 15.316406 C 35.402344 15.707031 35.402344 16.195312 35.234375 16.78125 C 34.980469 17.5625 34.554688 18.046875 34.296875 17.953125 C 34.242188 17.886719 34.210938 17.855469 34.210938 17.855469 C 34.15625 17.789062 34.070312 17.757812 33.957031 17.757812 C 33.789062 17.757812 33.617188 17.855469 33.617188 18.144531 L 33.617188 18.339844 C 33.617188 19.707031 33.105469 20.976562 32.253906 21.953125 C 31.488281 22.925781 30.296875 23.511719 29.105469 23.511719 C 27.914062 23.511719 26.808594 22.925781 25.957031 21.953125 C 25.105469 20.976562 24.679688 19.707031 24.679688 18.339844 Z M 24.679688 18.339844 "/>
<path style=" stroke:none;fill-rule:nonzero;fill:rgb(100%,100%,100%);fill-opacity:1;" d="M 26.296875 26.046875 L 28.085938 30.828125 L 25.105469 27.023438 C 25.050781 26.894531 24.964844 26.828125 24.851562 26.828125 L 22.980469 26.828125 L 26.296875 24.195312 L 26.296875 25.953125 C 26.296875 26.015625 26.296875 26.046875 26.296875 26.046875 Z M 26.296875 26.046875 "/>
<path style=" stroke:none;fill-rule:nonzero;fill:rgb(100%,100%,100%);fill-opacity:1;" d="M 12.851562 1.464844 C 16.253906 1.464844 19.0625 4.683594 19.0625 8.683594 L 19.0625 9.953125 C 18.835938 9.953125 18.609375 10.046875 18.382812 10.242188 L 18.382812 9.074219 C 18.382812 8.8125 18.382812 8.554688 18.382812 8.292969 C 18.382812 8.226562 18.328125 8.164062 18.210938 8.097656 C 18.15625 8.03125 18.070312 8 17.957031 8 C 15.828125 8.683594 14.128906 6.144531 14.128906 6.046875 C 14.015625 5.984375 13.902344 5.953125 13.789062 5.953125 C 13.671875 5.953125 13.589844 6.015625 13.53125 6.144531 C 13.445312 6.339844 13.019531 7.023438 12.597656 7.023438 C 12.339844 7.023438 11.488281 5.953125 10.808594 4.683594 C 10.695312 4.617188 10.609375 4.554688 10.554688 4.488281 C 10.441406 4.488281 10.355469 4.554688 10.296875 4.683594 L 7.488281 7.804688 C 7.433594 7.871094 7.402344 7.933594 7.402344 8 C 7.347656 8.324219 7.320312 8.683594 7.320312 9.074219 L 7.320312 10.339844 C 7.09375 10.144531 6.867188 10.046875 6.636719 10.046875 L 6.636719 8.683594 C 6.636719 4.683594 9.445312 1.464844 12.851562 1.464844 Z M 12.851562 1.464844 "/>
<path style=" stroke:none;fill-rule:nonzero;fill:rgb(100%,100%,100%);fill-opacity:1;" d="M 7.914062 14.144531 L 7.914062 14.046875 C 7.914062 13.855469 7.828125 13.660156 7.660156 13.660156 C 7.546875 13.660156 7.460938 13.691406 7.402344 13.757812 C 7.347656 13.820312 7.289062 13.855469 7.234375 13.855469 C 6.980469 13.953125 6.46875 13.464844 6.210938 12.585938 C 6.042969 12 6.042969 11.414062 6.128906 11.023438 C 6.183594 10.894531 6.269531 10.828125 6.382812 10.828125 C 6.554688 10.730469 7.0625 10.925781 7.320312 11.511719 C 7.320312 11.511719 7.347656 11.511719 7.402344 11.511719 C 7.402344 11.578125 7.433594 11.609375 7.488281 11.609375 C 7.546875 11.609375 7.574219 11.609375 7.574219 11.609375 C 7.574219 11.609375 7.601562 11.609375 7.660156 11.609375 C 7.660156 11.609375 7.6875 11.609375 7.746094 11.609375 C 7.746094 11.609375 7.773438 11.609375 7.828125 11.609375 C 7.828125 11.609375 7.828125 11.578125 7.828125 11.511719 C 7.886719 11.511719 7.914062 11.480469 7.914062 11.414062 C 7.914062 11.347656 7.914062 11.316406 7.914062 11.316406 C 7.914062 11.316406 7.914062 11.285156 7.914062 11.21875 L 7.914062 9.074219 C 7.914062 8.8125 7.941406 8.519531 8 8.195312 L 10.46875 5.464844 C 10.980469 6.4375 12 7.804688 12.597656 7.804688 C 13.191406 7.804688 13.617188 7.316406 13.871094 6.925781 C 14.46875 7.707031 15.914062 9.171875 17.703125 8.878906 C 17.703125 8.941406 17.703125 9.007812 17.703125 9.074219 L 17.703125 11.21875 C 17.703125 11.21875 17.730469 11.21875 17.789062 11.21875 C 17.789062 11.285156 17.789062 11.316406 17.789062 11.316406 C 17.789062 11.316406 17.789062 11.347656 17.789062 11.414062 C 17.84375 11.480469 17.871094 11.511719 17.871094 11.511719 C 17.871094 11.511719 17.902344 11.511719 17.957031 11.511719 C 18.015625 11.578125 18.042969 11.609375 18.042969 11.609375 C 18.097656 11.609375 18.128906 11.609375 18.128906 11.609375 C 18.128906 11.609375 18.128906 11.578125 18.128906 11.511719 C 18.183594 11.511719 18.210938 11.511719 18.210938 11.511719 C 18.269531 11.511719 18.296875 11.511719 18.296875 11.511719 C 18.296875 11.511719 18.296875 11.480469 18.296875 11.414062 C 18.296875 11.414062 18.328125 11.414062 18.382812 11.414062 C 18.636719 10.925781 19.148438 10.632812 19.320312 10.632812 C 19.433594 10.699219 19.519531 10.796875 19.574219 10.925781 C 19.660156 11.21875 19.660156 11.902344 19.488281 12.488281 C 19.320312 13.074219 19.0625 13.5625 18.722656 13.660156 C 18.609375 13.722656 18.523438 13.757812 18.46875 13.757812 C 18.410156 13.757812 18.355469 13.722656 18.296875 13.660156 C 18.242188 13.59375 18.183594 13.5625 18.128906 13.5625 C 17.957031 13.5625 17.871094 13.5625 17.789062 13.757812 C 17.730469 13.820312 17.703125 13.886719 17.703125 13.953125 L 17.703125 14.144531 C 17.703125 15.707031 17.191406 17.074219 16.253906 18.144531 C 15.402344 19.21875 14.128906 19.804688 12.851562 19.804688 C 11.574219 19.804688 10.296875 19.21875 9.363281 18.144531 C 8.425781 17.074219 7.914062 15.707031 7.914062 14.144531 Z M 7.914062 14.144531 "/>
<path style=" stroke:none;fill-rule:nonzero;fill:rgb(100%,100%,100%);fill-opacity:1;" d="M 12.851562 20.585938 C 13.957031 20.585938 15.0625 20.195312 15.914062 19.511719 C 15.972656 19.902344 16.058594 20.226562 16.171875 20.488281 L 13.105469 23.316406 L 9.53125 20.488281 C 9.644531 20.164062 9.730469 19.835938 9.789062 19.511719 C 10.636719 20.195312 11.746094 20.585938 12.851562 20.585938 Z M 12.851562 20.585938 "/>
<path style=" stroke:none;fill-rule:nonzero;fill:rgb(100%,100%,100%);fill-opacity:1;" d="M 12.339844 28.097656 L 13.789062 28.097656 L 14.46875 34.144531 L 13.105469 37.367188 L 11.828125 34.144531 Z M 12.339844 28.097656 "/>
<path style=" stroke:none;fill-rule:nonzero;fill:rgb(100%,100%,100%);fill-opacity:1;" d="M 13.789062 27.316406 L 12.339844 27.316406 L 12.339844 24.78125 L 12.425781 24.78125 C 12.425781 24.714844 12.425781 24.683594 12.425781 24.683594 L 13.105469 24.195312 L 13.789062 24.683594 C 13.789062 24.746094 13.789062 24.78125 13.789062 24.78125 Z M 13.789062 27.316406 "/>
<g clip-path="url(#clip2)" clip-rule="nonzero">
<path style=" stroke:none;fill-rule:nonzero;fill:rgb(100%,100%,100%);fill-opacity:1;" d="M 4 23.707031 C 4.597656 23.414062 5.191406 23.316406 5.789062 23.121094 C 6.722656 22.925781 7.746094 22.730469 8.511719 22.046875 C 8.792969 21.789062 9.050781 21.496094 9.277344 21.171875 L 12.511719 23.804688 L 12.085938 24.097656 L 11.828125 24.292969 C 11.773438 24.292969 11.746094 24.324219 11.746094 24.390625 C 11.6875 24.390625 11.660156 24.421875 11.660156 24.488281 C 11.660156 24.488281 11.660156 24.519531 11.660156 24.585938 L 11.660156 27.707031 L 11.148438 34.242188 C 11.148438 34.308594 11.148438 34.339844 11.148438 34.339844 L 12.765625 38.339844 C 12.765625 38.535156 12.9375 38.632812 13.019531 38.632812 C 13.191406 38.632812 13.277344 38.535156 13.363281 38.4375 L 15.148438 34.4375 C 15.148438 34.375 15.148438 34.277344 15.148438 34.144531 L 14.46875 27.707031 L 14.46875 24.488281 C 14.46875 24.488281 14.441406 24.457031 14.382812 24.390625 C 14.382812 24.324219 14.355469 24.261719 14.296875 24.195312 L 14.128906 24.097656 L 13.617188 23.707031 L 16.511719 21.171875 C 16.679688 21.496094 16.90625 21.789062 17.191406 22.046875 C 17.957031 22.730469 18.980469 22.925781 19.914062 23.121094 C 20.511719 23.316406 21.105469 23.414062 21.703125 23.707031 C 22.441406 24.097656 23.035156 24.714844 23.488281 25.5625 L 21.789062 26.925781 C 20.085938 27.511719 18.894531 29.367188 18.894531 31.21875 L 18.894531 39.21875 L 1.277344 39.21875 L 1.277344 34.242188 C 1.277344 33.722656 1.277344 33.171875 1.277344 32.585938 C 1.277344 29.269531 1.191406 25.074219 4 23.707031 Z M 4 23.707031 "/>
</g>
<path style=" stroke:none;fill-rule:nonzero;fill:rgb(100%,100%,100%);fill-opacity:1;" d="M 3.914062 29.5625 L 7.320312 29.5625 L 7.320312 30.925781 L 3.914062 30.925781 Z M 3.914062 29.5625 "/>
<path style=" stroke:none;fill-rule:nonzero;fill:rgb(100%,100%,100%);fill-opacity:1;" d="M 35.660156 36 L 32.253906 36 L 32.253906 34.632812 L 35.660156 34.632812 Z M 35.660156 36 "/>
<path style=" stroke:none;fill-rule:nonzero;fill:rgb(100%,87.058824%,78.823531%);fill-opacity:1;" d="M 8.511719 7.414062 L 11.320312 4.390625 C 11.828125 5.269531 11.914062 7.511719 12.597656 7.511719 C 13.191406 7.511719 13.617188 7.023438 13.871094 6.632812 C 14.46875 7.414062 19.320312 8.976562 19.320312 9.074219 L 20 11.21875 C 20 11.21875 19.320312 13.855469 19.320312 13.953125 L 18.210938 14.242188 C 18.210938 15.804688 16.171875 19.707031 14.46875 19.804688 C 13.105469 19.902344 11.402344 20 10.210938 17.367188 C 8.597656 13.953125 8.425781 7.707031 8.511719 7.414062 Z M 8.511719 7.414062 "/>
<g clip-path="url(#clip3)" clip-rule="nonzero">
<path style=" stroke:none;fill-rule:nonzero;fill:rgb(47.843137%,69.411767%,100%);fill-opacity:1;" d="M 39.148438 31.21875 L 39.234375 39.804688 L 21.019531 39.804688 L 21.105469 31.21875 C 21.105469 29.660156 22.296875 28.097656 23.746094 27.511719 L 25.105469 27.511719 L 29.191406 33.074219 C 29.277344 33.074219 33.363281 27.511719 33.363281 27.511719 L 36.765625 27.511719 C 38.128906 28.097656 39.148438 29.660156 39.148438 31.21875 Z M 39.148438 31.21875 "/>
</g>
<path style=" stroke:none;fill-rule:nonzero;fill:rgb(100%,87.058824%,78.823531%);fill-opacity:1;" d="M 26.980469 23.707031 C 27.660156 24.03125 28.367188 24.226562 29.105469 24.292969 C 29.957031 24.292969 30.808594 24 31.488281 23.609375 L 31.488281 25.855469 L 29.191406 31.902344 L 26.980469 25.855469 Z M 26.980469 23.707031 "/>
<path style=" stroke:none;fill-rule:nonzero;fill:rgb(47.843137%,69.411767%,100%);fill-opacity:1;" d="M 33.617188 26.828125 C 33.503906 26.828125 33.417969 26.894531 33.363281 27.023438 L 30.382812 30.828125 L 32.171875 26.046875 C 32.171875 26.046875 32.171875 26.015625 32.171875 25.953125 L 32.171875 24.195312 L 35.488281 26.828125 Z M 33.617188 26.828125 "/>
<path style=" stroke:none;fill-rule:nonzero;fill:rgb(29.019609%,58.431375%,100%);fill-opacity:1;" d="M 35.488281 26.828125 L 32.171875 24.195312 L 32.171875 25.074219 C 33.105469 25.855469 33.617188 26.339844 34.808594 27.121094 Z M 35.488281 26.828125 "/>
<path style=" stroke:none;fill-rule:nonzero;fill:rgb(100%,65.098041%,50.196081%);fill-opacity:1;" d="M 34.722656 14.535156 C 34.496094 14.667969 34.210938 14.765625 33.871094 14.828125 C 33.445312 14.925781 33.105469 14.925781 32.9375 14.925781 C 30.722656 14.535156 29.105469 13.269531 27.828125 11.804688 C 28.511719 10.828125 30.128906 8.195312 30.636719 5.464844 C 31.402344 5.757812 32.085938 6.242188 32.679688 6.925781 C 33.617188 8 34.210938 9.367188 34.46875 11.316406 C 34.554688 12.097656 34.636719 13.953125 34.722656 14.535156 Z M 34.722656 14.535156 "/>
<path style=" stroke:none;fill-rule:nonzero;fill:rgb(100%,65.098041%,50.196081%);fill-opacity:1;" d="M 30.46875 1.171875 C 31.660156 1.367188 32.9375 3.707031 32.9375 6.046875 C 32.9375 6.179688 32.9375 6.308594 32.9375 6.4375 C 32.253906 5.757812 31.574219 5.367188 30.722656 5.074219 C 30.296875 4.976562 26.808594 5.269531 26.808594 5.171875 C 26.808594 2.828125 28.425781 0.878906 30.46875 1.171875 Z M 30.46875 1.171875 "/>
<path style=" stroke:none;fill-rule:nonzero;fill:rgb(100%,65.098041%,50.196081%);fill-opacity:1;" d="M 25.617188 8.878906 C 25.84375 8.164062 26.210938 7.511719 26.722656 6.925781 C 27.746094 5.757812 29.105469 5.074219 30.46875 5.074219 C 30.582031 5.074219 30.667969 5.105469 30.722656 5.171875 C 31.007812 5.171875 31.289062 5.203125 31.574219 5.269531 C 31.0625 8 29.53125 10.4375 29.019531 11.21875 C 29.019531 11.21875 28.679688 11.609375 28.679688 11.609375 C 28.679688 11.609375 27.828125 11.414062 27.828125 11.414062 C 27.148438 12.390625 25.53125 14.144531 25.191406 14.535156 L 25.191406 11.316406 C 25.191406 10.472656 25.332031 9.660156 25.617188 8.878906 Z M 25.617188 8.878906 "/>
<path style=" stroke:none;fill-rule:nonzero;fill:rgb(100%,87.058824%,78.823531%);fill-opacity:1;" d="M 25.191406 14.4375 C 25.277344 14.339844 25.617188 13.855469 25.789062 13.757812 C 25.902344 13.625 26.042969 13.527344 26.210938 13.464844 C 26.980469 12.78125 26.808594 12.78125 27.488281 11.902344 C 28.851562 13.464844 31.402344 15.21875 33.871094 15.414062 C 33.957031 15.414062 35.234375 14.828125 35.234375 14.828125 C 35.488281 14.828125 35.828125 16.390625 35.746094 16.390625 C 35.746094 16.292969 35.402344 17.660156 35.320312 17.660156 C 35.320312 17.660156 34.722656 18.242188 34.128906 18.339844 C 34.128906 18.339844 33.617188 21.269531 32.765625 22.242188 C 32 23.21875 30.980469 23.707031 29.789062 23.707031 C 28.597656 23.707031 27.746094 22.925781 27.0625 22.046875 C 25.445312 20 25.105469 14.730469 25.191406 14.4375 Z M 25.191406 14.4375 "/>
<path style=" stroke:none;fill-rule:nonzero;fill:rgb(47.843137%,69.411767%,100%);fill-opacity:1;" d="M 28.511719 31.707031 C 28.511719 31.707031 26.128906 28.488281 26.042969 28.488281 L 24.597656 26.828125 L 26.46875 25.367188 Z M 28.511719 31.707031 "/>
<path style=" stroke:none;fill-rule:nonzero;fill:rgb(100%,65.098041%,50.196081%);fill-opacity:1;" d="M 14.46875 1.464844 C 17.871094 1.464844 19.148438 4.976562 19.148438 8.878906 L 19.148438 10.144531 C 18.894531 10.242188 18.554688 10.339844 18.382812 10.535156 L 18.382812 9.367188 C 18.382812 9.105469 18.355469 8.84375 18.296875 8.585938 C 18.296875 8.519531 18.269531 8.457031 18.210938 8.390625 C 18.097656 8.324219 17.984375 8.292969 17.871094 8.292969 C 15.746094 8.976562 14.128906 6.339844 14.128906 6.339844 C 14.070312 6.277344 13.984375 6.242188 13.871094 6.242188 C 13.757812 6.242188 13.644531 6.308594 13.53125 6.4375 C 13.445312 6.632812 13.105469 7.316406 12.679688 7.316406 C 12.425781 7.316406 11.402344 6.242188 10.722656 4.976562 C 10.667969 4.910156 10.582031 4.84375 10.46875 4.78125 C 10.355469 4.78125 10.269531 4.8125 10.210938 4.878906 L 8.597656 7.316406 C 8.765625 4 11.746094 1.464844 14.46875 1.464844 Z M 14.46875 1.464844 "/>
<path style=" stroke:none;fill-rule:nonzero;fill:rgb(100%,87.058824%,78.823531%);fill-opacity:1;" d="M 16.171875 20.488281 C 16.058594 20.226562 15.972656 19.902344 15.914062 19.511719 C 15.0625 20.195312 13.957031 20.585938 12.851562 20.585938 C 12.226562 20.585938 11.632812 20.457031 11.0625 20.195312 C 11.0625 20.714844 11.0625 21.203125 11.0625 21.660156 L 13.105469 23.316406 Z M 16.171875 20.488281 "/>
<path style=" stroke:none;fill-rule:nonzero;fill:rgb(47.843137%,69.411767%,100%);fill-opacity:1;" d="M 12.339844 28.097656 L 13.789062 28.097656 L 14.46875 34.144531 L 13.105469 37.367188 L 11.828125 34.144531 Z M 12.339844 28.097656 "/>
<path style=" stroke:none;fill-rule:nonzero;fill:rgb(47.843137%,69.411767%,100%);fill-opacity:1;" d="M 13.789062 27.316406 L 12.339844 27.316406 L 12.339844 24.78125 L 12.425781 24.78125 C 12.425781 24.714844 12.425781 24.683594 12.425781 24.683594 L 13.105469 24.195312 L 13.789062 24.683594 C 13.789062 24.746094 13.789062 24.78125 13.789062 24.78125 Z M 13.789062 27.316406 "/>
<g clip-path="url(#clip4)" clip-rule="nonzero">
<path style=" stroke:none;fill-rule:nonzero;fill:rgb(100%,100%,100%);fill-opacity:1;" d="M 4 23.707031 C 4.597656 23.414062 5.191406 23.316406 5.789062 23.121094 C 6.722656 22.925781 7.746094 22.730469 8.511719 22.046875 C 8.792969 21.789062 9.050781 21.496094 9.277344 21.171875 L 12.511719 23.804688 L 12.085938 24.097656 L 11.828125 24.292969 C 11.773438 24.292969 11.746094 24.324219 11.746094 24.390625 C 11.6875 24.390625 11.660156 24.421875 11.660156 24.488281 C 11.660156 24.488281 11.660156 24.519531 11.660156 24.585938 L 11.660156 27.707031 L 11.148438 34.242188 C 11.148438 34.308594 11.148438 34.339844 11.148438 34.339844 L 12.765625 38.339844 C 12.765625 38.535156 12.9375 38.632812 13.019531 38.632812 C 13.191406 38.632812 13.277344 38.535156 13.363281 38.4375 L 15.148438 34.4375 C 15.148438 34.375 15.148438 34.277344 15.148438 34.144531 L 14.46875 27.707031 L 14.46875 24.488281 C 14.46875 24.488281 14.441406 24.457031 14.382812 24.390625 C 14.382812 24.324219 14.355469 24.261719 14.296875 24.195312 L 14.128906 24.097656 L 13.617188 23.707031 L 16.511719 21.171875 C 16.679688 21.496094 16.90625 21.789062 17.191406 22.046875 C 17.957031 22.730469 18.980469 22.925781 19.914062 23.121094 C 20.511719 23.316406 21.105469 23.414062 21.703125 23.707031 C 22.441406 24.097656 23.035156 24.714844 23.488281 25.5625 L 21.789062 26.925781 C 20.085938 27.511719 18.894531 29.367188 18.894531 31.21875 L 18.980469 39.707031 L 1.191406 39.707031 L 1.277344 34.242188 C 1.277344 33.722656 1.277344 33.171875 1.277344 32.585938 C 1.277344 29.269531 1.191406 25.074219 4 23.707031 Z M 4 23.707031 "/>
</g>
<path style=" stroke:none;fill-rule:nonzero;fill:rgb(100%,89.803922%,38.039216%);fill-opacity:1;" d="M 3.914062 29.5625 L 7.320312 29.5625 L 7.320312 30.925781 L 3.914062 30.925781 Z M 3.914062 29.5625 "/>
<path style=" stroke:none;fill-rule:nonzero;fill:rgb(100%,89.803922%,38.039216%);fill-opacity:1;" d="M 35.660156 36 L 32.253906 36 L 32.253906 34.632812 L 35.660156 34.632812 Z M 35.660156 36 "/>
<g clip-path="url(#clip5)" clip-rule="nonzero">
<path style=" stroke:none;fill-rule:nonzero;fill:rgb(27.058825%,57.254905%,100%);fill-opacity:1;" d="M 39.148438 31.21875 C 39.148438 29.660156 38.128906 28.097656 36.765625 27.511719 C 36.765625 27.511719 34.808594 27.511719 34.808594 27.511719 C 34.808594 27.511719 36.171875 27.902344 36.171875 30.242188 C 36.171875 31.902344 36.339844 38.632812 36.339844 39.804688 L 39.234375 39.804688 Z M 39.148438 31.21875 "/>
</g>
<path style=" stroke:none;fill-rule:nonzero;fill:rgb(100%,50.588238%,30.19608%);fill-opacity:1;" d="M 34.722656 14.730469 C 34.46875 14.828125 33.105469 15.023438 32.9375 14.925781 C 32.9375 14.925781 32.851562 13.269531 32.679688 11.121094 C 32.511719 8.097656 30.636719 5.5625 30.636719 5.464844 C 30.808594 5.527344 30.980469 5.59375 31.148438 5.660156 C 31.714844 5.984375 32.226562 6.40625 32.679688 6.925781 C 33.617188 8 34.210938 9.367188 34.46875 11.316406 C 34.554688 12.097656 34.636719 14.144531 34.722656 14.730469 Z M 34.722656 14.730469 "/>
<path style=" stroke:none;fill-rule:nonzero;fill:rgb(100%,50.588238%,30.19608%);fill-opacity:1;" d="M 32.9375 6.046875 C 32.9375 6.179688 32.9375 6.308594 32.9375 6.4375 C 32.367188 5.917969 31.773438 5.527344 31.148438 5.269531 C 30.980469 3.511719 30.210938 1.953125 29.363281 1.269531 C 29.703125 1.203125 30.070312 1.171875 30.46875 1.171875 C 31.660156 1.367188 32.9375 3.707031 32.9375 6.046875 Z M 32.9375 6.046875 "/>
<path style=" stroke:none;fill-rule:nonzero;fill:rgb(100%,74.901962%,60.000002%);fill-opacity:1;" d="M 35.746094 16.390625 C 35.746094 16.292969 35.402344 17.660156 35.320312 17.660156 C 35.320312 17.660156 34.722656 18.242188 34.128906 18.339844 C 34.128906 18.339844 33.617188 21.269531 32.765625 22.242188 C 32 23.21875 30.980469 23.707031 29.789062 23.707031 C 29.332031 23.707031 28.9375 23.609375 28.597656 23.414062 C 29.53125 23.21875 30.382812 22.828125 31.0625 21.953125 C 32.511719 19.804688 31.914062 18.632812 32.425781 17.660156 C 33.277344 16 33.105469 15.804688 33.019531 15.414062 C 33.191406 15.316406 35.234375 14.828125 35.234375 14.828125 C 35.488281 14.828125 35.828125 16.390625 35.746094 16.390625 Z M 35.746094 16.390625 "/>
<g clip-path="url(#clip6)" clip-rule="nonzero">
<path style=" stroke:none;fill-rule:nonzero;fill:rgb(84.705883%,89.019608%,92.941177%);fill-opacity:1;" d="M 21.789062 23.804688 C 21.789062 23.804688 20.679688 24.78125 20.253906 24.976562 C 18.722656 25.855469 17.445312 27.511719 17.445312 29.367188 C 17.445312 29.367188 17.53125 38.339844 17.53125 39.707031 L 18.980469 39.707031 L 18.980469 36.292969 L 18.894531 31.21875 C 18.894531 29.367188 20.085938 27.511719 21.789062 26.925781 L 23.488281 25.5625 C 23.09375 24.78125 22.523438 24.195312 21.789062 23.804688 Z M 21.789062 23.804688 "/>
</g>
<path style=" stroke:none;fill-rule:nonzero;fill:rgb(100%,74.901962%,60.000002%);fill-opacity:1;" d="M 20 11.21875 C 20 11.21875 19.320312 13.855469 19.320312 13.953125 L 18.210938 14.242188 C 18.210938 15.804688 16.171875 19.707031 14.46875 19.804688 C 13.871094 19.902344 13.191406 19.804688 13.191406 19.804688 C 15.0625 19.21875 16.511719 16.292969 16.765625 13.953125 C 16.9375 12 17.019531 10.144531 17.277344 8.488281 C 17.277344 8.488281 18.554688 8.585938 19.402344 10.144531 Z M 20 11.21875 "/>
<path style=" stroke:none;fill-rule:nonzero;fill:rgb(100%,50.588238%,30.19608%);fill-opacity:1;" d="M 19.148438 8.878906 L 19.148438 10.144531 C 18.894531 10.242188 18.554688 10.339844 18.382812 10.535156 L 18.382812 9.367188 C 18.382812 9.171875 18.355469 8.941406 18.296875 8.683594 C 18.296875 8.683594 18.296875 8.652344 18.296875 8.585938 C 18.296875 8.519531 18.269531 8.457031 18.210938 8.390625 C 18.097656 8.324219 17.984375 8.292969 17.871094 8.292969 C 17.757812 8.359375 17.644531 8.390625 17.53125 8.390625 C 17.417969 8.390625 17.332031 8.390625 17.277344 8.390625 C 17.277344 8.390625 17.277344 8.359375 17.277344 8.292969 C 17.191406 5.074219 16.253906 2.339844 14.042969 1.464844 C 14.15625 1.464844 14.296875 1.464844 14.46875 1.464844 C 17.871094 1.464844 19.148438 4.976562 19.148438 8.878906 Z M 19.148438 8.878906 "/>
<path style=" stroke:none;fill-rule:nonzero;fill:rgb(20%,20%,20%);fill-opacity:1;" d="M 12.851562 20.585938 C 11.402344 20.585938 9.957031 19.902344 8.9375 18.730469 C 8 17.660156 7.402344 16.195312 7.320312 14.632812 C 6.636719 14.730469 5.871094 13.953125 5.53125 12.78125 C 5.363281 12 5.363281 11.21875 5.53125 10.730469 C 5.703125 10.40625 5.902344 10.179688 6.128906 10.046875 C 6.128906 10.046875 6.15625 10.046875 6.210938 10.046875 C 6.722656 9.855469 7.488281 10.339844 7.914062 11.023438 C 8 11.21875 7.914062 11.511719 7.828125 11.609375 C 7.660156 11.707031 7.402344 11.609375 7.320312 11.511719 C 7.0625 10.925781 6.554688 10.730469 6.382812 10.828125 C 6.269531 10.828125 6.183594 10.894531 6.128906 11.023438 C 6.042969 11.414062 6.042969 12 6.210938 12.585938 C 6.46875 13.464844 6.980469 13.953125 7.234375 13.855469 C 7.289062 13.855469 7.347656 13.820312 7.402344 13.757812 C 7.460938 13.691406 7.546875 13.660156 7.660156 13.660156 C 7.828125 13.660156 7.914062 13.855469 7.914062 14.046875 L 7.914062 14.144531 C 7.914062 15.707031 8.425781 17.074219 9.363281 18.144531 C 10.296875 19.21875 11.574219 19.804688 12.851562 19.804688 C 14.128906 19.804688 15.402344 19.21875 16.253906 18.144531 C 17.191406 17.074219 17.703125 15.707031 17.703125 14.144531 L 17.703125 13.953125 C 17.703125 13.886719 17.730469 13.820312 17.789062 13.757812 C 17.871094 13.5625 17.957031 13.5625 18.128906 13.5625 C 18.183594 13.5625 18.242188 13.59375 18.296875 13.660156 C 18.355469 13.722656 18.410156 13.757812 18.46875 13.757812 C 18.523438 13.757812 18.609375 13.722656 18.722656 13.660156 C 19.0625 13.5625 19.320312 13.074219 19.488281 12.488281 C 19.660156 11.902344 19.660156 11.21875 19.574219 10.925781 C 19.519531 10.796875 19.433594 10.699219 19.320312 10.632812 C 19.148438 10.632812 18.636719 10.925781 18.382812 11.414062 C 18.210938 11.609375 18.042969 11.609375 17.871094 11.511719 C 17.703125 11.414062 17.703125 11.121094 17.789062 11.023438 C 18.210938 10.339844 18.980469 9.757812 19.488281 9.953125 C 19.488281 9.953125 19.519531 9.953125 19.574219 9.953125 C 19.800781 10.015625 19.972656 10.210938 20.085938 10.535156 C 20.339844 11.121094 20.339844 11.902344 20.171875 12.683594 C 19.914062 13.464844 19.488281 14.144531 19.0625 14.339844 C 18.835938 14.472656 18.609375 14.535156 18.382812 14.535156 C 18.296875 16.097656 17.789062 17.5625 16.765625 18.730469 C 15.746094 19.902344 14.296875 20.585938 12.851562 20.585938 Z M 12.851562 20.585938 "/>
<path style=" stroke:none;fill-rule:nonzero;fill:rgb(20%,20%,20%);fill-opacity:1;" d="M 7.660156 11.609375 C 7.402344 11.609375 7.320312 11.511719 7.320312 11.21875 L 7.320312 9.074219 C 7.320312 8.683594 7.347656 8.324219 7.402344 8 C 7.402344 7.933594 7.433594 7.871094 7.488281 7.804688 L 10.296875 4.683594 C 10.355469 4.554688 10.441406 4.488281 10.554688 4.488281 C 10.609375 4.554688 10.695312 4.617188 10.808594 4.683594 C 11.488281 5.953125 12.339844 7.023438 12.597656 7.023438 C 13.019531 7.023438 13.445312 6.339844 13.53125 6.144531 C 13.589844 6.015625 13.671875 5.953125 13.789062 5.953125 C 13.902344 5.953125 14.015625 5.984375 14.128906 6.046875 C 14.128906 6.144531 15.828125 8.683594 17.957031 8 C 18.070312 8 18.15625 8.03125 18.210938 8.097656 C 18.328125 8.164062 18.382812 8.226562 18.382812 8.292969 C 18.382812 8.554688 18.382812 8.8125 18.382812 9.074219 L 18.382812 11.21875 C 18.382812 11.414062 18.296875 11.609375 18.042969 11.609375 C 17.871094 11.609375 17.703125 11.414062 17.703125 11.21875 L 17.703125 9.074219 C 17.703125 9.007812 17.703125 8.941406 17.703125 8.878906 C 15.914062 9.171875 14.46875 7.707031 13.871094 6.925781 C 13.617188 7.316406 13.191406 7.804688 12.597656 7.804688 C 12 7.804688 10.980469 6.4375 10.46875 5.464844 L 8 8.195312 C 7.941406 8.519531 7.914062 8.8125 7.914062 9.074219 L 7.914062 11.21875 C 7.914062 11.511719 7.828125 11.609375 7.660156 11.609375 Z M 7.660156 11.609375 "/>
<g clip-path="url(#clip7)" clip-rule="nonzero">
<path style=" stroke:none;fill-rule:nonzero;fill:rgb(20%,20%,20%);fill-opacity:1;" d="M 6.296875 10.828125 C 6.128906 10.828125 5.957031 10.632812 5.957031 10.4375 L 5.957031 8.683594 C 5.957031 4.292969 9.019531 0.683594 12.851562 0.683594 C 16.679688 0.683594 19.746094 4.292969 19.746094 8.683594 L 19.746094 10.339844 C 19.746094 10.535156 19.574219 10.632812 19.402344 10.632812 C 19.234375 10.632812 19.0625 10.535156 19.0625 10.339844 L 19.0625 8.683594 C 19.0625 4.683594 16.253906 1.464844 12.851562 1.464844 C 9.445312 1.464844 6.636719 4.683594 6.636719 8.683594 L 6.636719 10.4375 C 6.636719 10.632812 6.46875 10.828125 6.296875 10.828125 Z M 6.296875 10.828125 "/>
</g>
<path style=" stroke:none;fill-rule:nonzero;fill:rgb(20%,20%,20%);fill-opacity:1;" d="M 14.128906 28.097656 L 12 28.097656 C 11.828125 28.097656 11.660156 27.902344 11.660156 27.707031 L 11.660156 24.585938 C 11.660156 24.390625 11.828125 24.195312 12 24.195312 C 12.171875 24.195312 12.339844 24.390625 12.339844 24.585938 L 12.339844 27.316406 L 13.789062 27.316406 L 13.789062 24.488281 C 13.789062 24.292969 13.957031 24.097656 14.128906 24.097656 C 14.296875 24.097656 14.46875 24.292969 14.46875 24.488281 L 14.46875 27.707031 C 14.46875 27.902344 14.296875 28.097656 14.128906 28.097656 Z M 14.128906 28.097656 "/>
<path style=" stroke:none;fill-rule:nonzero;fill:rgb(20%,20%,20%);fill-opacity:1;" d="M 13.019531 38.632812 C 12.9375 38.632812 12.765625 38.535156 12.765625 38.339844 L 11.148438 34.339844 C 11.148438 34.339844 11.148438 34.308594 11.148438 34.242188 L 11.660156 27.707031 C 11.660156 27.511719 11.828125 27.316406 12 27.316406 C 12.253906 27.414062 12.339844 27.609375 12.339844 27.804688 L 11.828125 34.144531 L 13.105469 37.367188 L 14.46875 34.144531 L 13.789062 27.804688 C 13.789062 27.609375 13.871094 27.414062 14.042969 27.316406 C 14.210938 27.316406 14.382812 27.511719 14.46875 27.707031 L 15.148438 34.144531 C 15.148438 34.277344 15.148438 34.375 15.148438 34.4375 L 13.363281 38.4375 C 13.277344 38.535156 13.191406 38.632812 13.019531 38.632812 Z M 13.019531 38.632812 "/>
<path style=" stroke:none;fill-rule:nonzero;fill:rgb(20%,20%,20%);fill-opacity:1;" d="M 14.128906 24.878906 C 14.070312 24.878906 14.015625 24.878906 13.957031 24.878906 L 13.789062 24.78125 C 13.789062 24.78125 13.789062 24.746094 13.789062 24.683594 L 12.9375 24.097656 L 8.9375 20.878906 C 8.765625 20.78125 8.765625 20.585938 8.851562 20.390625 C 8.9375 20.195312 9.191406 20.195312 9.277344 20.292969 L 13.277344 23.414062 L 14.128906 24.097656 L 14.296875 24.195312 C 14.410156 24.261719 14.46875 24.359375 14.46875 24.488281 C 14.46875 24.78125 14.296875 24.878906 14.128906 24.878906 Z M 14.128906 24.878906 "/>
<path style=" stroke:none;fill-rule:nonzero;fill:rgb(20%,20%,20%);fill-opacity:1;" d="M 12 24.976562 C 11.886719 24.976562 11.800781 24.910156 11.746094 24.78125 C 11.660156 24.585938 11.660156 24.390625 11.828125 24.292969 L 12.085938 24.097656 L 12.9375 23.414062 L 16.339844 20.292969 C 16.511719 20.195312 16.765625 20.195312 16.851562 20.390625 C 16.9375 20.585938 16.9375 20.78125 16.765625 20.976562 L 13.277344 24.097656 L 12.425781 24.683594 C 12.425781 24.683594 12.425781 24.714844 12.425781 24.78125 L 12.171875 24.878906 C 12.113281 24.941406 12.058594 24.976562 12 24.976562 Z M 12 24.976562 "/>
<g clip-path="url(#clip8)" clip-rule="nonzero">
<path style=" stroke:none;fill-rule:nonzero;fill:rgb(20%,20%,20%);fill-opacity:1;" d="M 0.9375 39.902344 C 0.765625 39.902344 0.597656 39.804688 0.597656 39.609375 L 0.597656 34.242188 C 0.597656 33.722656 0.597656 33.203125 0.597656 32.683594 C 0.597656 29.269531 0.511719 24.585938 3.746094 23.023438 C 4.425781 22.730469 5.019531 22.535156 5.703125 22.4375 C 6.554688 22.242188 7.402344 22.046875 8.085938 21.464844 C 8.425781 21.136719 8.679688 20.78125 8.851562 20.390625 C 9.019531 20 9.105469 19.414062 9.191406 18.730469 C 9.191406 18.535156 9.363281 18.4375 9.53125 18.4375 C 9.703125 18.4375 9.789062 18.535156 9.789062 18.828125 C 9.789062 19.609375 9.703125 20.195312 9.445312 20.78125 C 9.21875 21.300781 8.90625 21.722656 8.511719 22.046875 C 7.746094 22.730469 6.722656 22.925781 5.789062 23.121094 C 5.191406 23.316406 4.597656 23.414062 4 23.707031 C 1.191406 25.074219 1.277344 29.269531 1.277344 32.585938 C 1.277344 33.171875 1.277344 33.722656 1.277344 34.242188 L 1.277344 39.609375 C 1.277344 39.804688 1.105469 39.902344 0.9375 39.902344 Z M 0.9375 39.902344 "/>
</g>
<path style=" stroke:none;fill-rule:nonzero;fill:rgb(20%,20%,20%);fill-opacity:1;" d="M 23.914062 26.046875 C 23.828125 26.046875 23.660156 25.953125 23.574219 25.855469 C 23.175781 24.8125 22.554688 24.097656 21.703125 23.707031 C 21.105469 23.414062 20.511719 23.316406 19.914062 23.121094 C 18.980469 22.925781 17.957031 22.730469 17.191406 22.046875 C 16.792969 21.722656 16.480469 21.300781 16.253906 20.78125 C 16 20.292969 15.914062 19.609375 15.914062 18.828125 C 15.828125 18.632812 16 18.4375 16.171875 18.4375 C 16.339844 18.339844 16.511719 18.535156 16.511719 18.730469 C 16.597656 19.511719 16.679688 20 16.851562 20.488281 C 17.019531 20.878906 17.277344 21.203125 17.617188 21.464844 C 18.210938 22.046875 19.148438 22.242188 20 22.4375 C 20.679688 22.535156 21.277344 22.730469 21.957031 23.023438 C 22.921875 23.480469 23.660156 24.292969 24.171875 25.464844 C 24.253906 25.660156 24.253906 25.855469 24.085938 25.953125 C 24.027344 26.015625 23.972656 26.046875 23.914062 26.046875 Z M 23.914062 26.046875 "/>
<path style=" stroke:none;fill-rule:evenodd;fill:rgb(20%,20%,20%);fill-opacity:1;" d="M 7.660156 31.707031 L 3.660156 31.707031 C 3.402344 31.707031 3.320312 31.511719 3.320312 31.316406 L 3.320312 29.171875 C 3.320312 28.976562 3.402344 28.78125 3.660156 28.78125 L 7.660156 28.78125 C 7.828125 28.78125 8 28.976562 8 29.171875 L 8 31.316406 C 8 31.511719 7.828125 31.707031 7.660156 31.707031 Z M 3.914062 30.925781 L 7.320312 30.925781 L 7.320312 29.5625 L 3.914062 29.5625 Z M 3.914062 30.925781 "/>
<g clip-path="url(#clip9)" clip-rule="nonzero">
<path style=" stroke:none;fill-rule:nonzero;fill:rgb(20%,20%,20%);fill-opacity:1;" d="M 19.234375 39.902344 C 19.0625 39.902344 18.894531 39.804688 18.894531 39.609375 L 18.894531 31.21875 C 18.894531 29.367188 20.171875 27.511719 21.789062 26.925781 C 21.957031 26.828125 22.210938 26.925781 22.210938 27.121094 C 22.296875 27.316406 22.210938 27.511719 22.042969 27.609375 C 20.597656 28.097656 19.574219 29.660156 19.574219 31.21875 L 19.574219 39.609375 C 19.574219 39.804688 19.402344 39.902344 19.234375 39.902344 Z M 19.234375 39.902344 "/>
</g>
<g clip-path="url(#clip10)" clip-rule="nonzero">
<path style=" stroke:none;fill-rule:nonzero;fill:rgb(20%,20%,20%);fill-opacity:1;" d="M 39.234375 39.902344 C 39.0625 39.902344 38.894531 39.804688 38.894531 39.609375 L 38.894531 31.21875 C 38.894531 29.660156 37.789062 28.097656 36.425781 27.609375 C 36.253906 27.511719 36.171875 27.316406 36.171875 27.121094 C 36.253906 26.925781 36.425781 26.828125 36.597656 26.925781 C 38.296875 27.511719 39.574219 29.367188 39.574219 31.21875 L 39.574219 39.609375 C 39.574219 39.804688 39.402344 39.902344 39.234375 39.902344 Z M 39.234375 39.902344 "/>
</g>
<path style=" stroke:none;fill-rule:evenodd;fill:rgb(20%,20%,20%);fill-opacity:1;" d="M 29.191406 33.171875 C 29.078125 33.171875 28.992188 33.136719 28.9375 33.074219 L 24.679688 27.609375 L 21.871094 27.609375 C 21.789062 27.609375 21.617188 27.511719 21.617188 27.316406 C 21.53125 27.21875 21.617188 27.023438 21.703125 26.925781 L 26.382812 23.21875 C 26.554688 23.121094 26.636719 23.121094 26.722656 23.121094 C 26.894531 23.21875 26.980469 23.316406 26.980469 23.511719 L 26.980469 25.855469 L 29.53125 32.683594 C 29.617188 32.78125 29.53125 32.976562 29.363281 33.171875 C 29.304688 33.171875 29.25 33.171875 29.191406 33.171875 Z M 22.980469 26.828125 L 24.851562 26.828125 C 24.964844 26.828125 25.050781 26.894531 25.105469 27.023438 L 28.085938 30.828125 L 26.296875 26.046875 C 26.296875 26.046875 26.296875 26.015625 26.296875 25.953125 L 26.296875 24.195312 Z M 22.980469 26.828125 "/>
<path style=" stroke:none;fill-rule:evenodd;fill:rgb(20%,20%,20%);fill-opacity:1;" d="M 29.191406 33.171875 C 29.132812 33.171875 29.078125 33.171875 29.019531 33.171875 C 28.9375 32.976562 28.851562 32.78125 28.9375 32.683594 L 31.488281 25.855469 L 31.488281 23.511719 C 31.488281 23.316406 31.546875 23.1875 31.660156 23.121094 C 31.746094 23.023438 31.914062 23.121094 32 23.121094 L 36.679688 26.925781 C 36.851562 27.023438 36.851562 27.21875 36.851562 27.316406 C 36.765625 27.511719 36.679688 27.609375 36.511719 27.609375 L 33.703125 27.609375 L 29.445312 33.074219 C 29.390625 33.136719 29.304688 33.171875 29.191406 33.171875 Z M 32.171875 24.195312 L 32.171875 25.953125 C 32.171875 26.015625 32.171875 26.046875 32.171875 26.046875 L 30.382812 30.828125 L 33.363281 27.023438 C 33.417969 26.894531 33.503906 26.828125 33.617188 26.828125 L 35.488281 26.828125 Z M 32.171875 24.195312 "/>
<path style=" stroke:none;fill-rule:nonzero;fill:rgb(20%,20%,20%);fill-opacity:1;" d="M 33.191406 15.707031 C 33.078125 15.707031 32.964844 15.675781 32.851562 15.609375 C 30.296875 15.316406 28.597656 13.757812 27.148438 12.195312 C 26.980469 12 26.980469 11.804688 27.0625 11.609375 C 27.234375 11.414062 27.402344 11.414062 27.574219 11.609375 C 28.9375 13.074219 30.554688 14.535156 32.9375 14.925781 C 33.105469 14.925781 33.445312 14.925781 33.871094 14.828125 C 34.210938 14.765625 34.496094 14.667969 34.722656 14.535156 C 34.636719 13.953125 34.554688 12.097656 34.46875 11.316406 C 34.210938 9.367188 33.617188 8 32.679688 6.925781 C 32 6.144531 31.234375 5.5625 30.296875 5.367188 C 29.957031 5.234375 29.589844 5.136719 29.191406 5.074219 C 29.078125 5.074219 28.992188 5.074219 28.9375 5.074219 C 27.488281 5.074219 26.128906 5.757812 25.105469 6.925781 C 24.597656 7.511719 24.226562 8.164062 24 8.878906 C 23.714844 9.660156 23.574219 10.472656 23.574219 11.316406 L 23.574219 14.730469 C 23.574219 14.925781 23.402344 15.121094 23.234375 15.121094 C 23.0625 15.121094 22.894531 14.925781 22.894531 14.730469 L 22.894531 11.316406 C 22.894531 10.339844 23.0625 9.429688 23.402344 8.585938 C 23.6875 7.804688 24.085938 7.089844 24.597656 6.4375 C 24.597656 6.4375 24.625 6.4375 24.679688 6.4375 C 25.789062 5.074219 27.320312 4.390625 28.9375 4.390625 C 28.992188 4.390625 29.078125 4.390625 29.191406 4.390625 C 29.644531 4.390625 30.070312 4.457031 30.46875 4.585938 C 31.488281 4.878906 32.425781 5.5625 33.191406 6.4375 C 34.210938 7.609375 34.808594 9.074219 35.148438 11.21875 C 35.234375 12.097656 35.402344 14.4375 35.402344 14.730469 C 35.402344 14.863281 35.347656 14.960938 35.234375 15.023438 C 34.894531 15.414062 34.382812 15.511719 33.957031 15.609375 C 33.730469 15.675781 33.476562 15.707031 33.191406 15.707031 Z M 33.191406 15.707031 "/>
<path style=" stroke:none;fill-rule:nonzero;fill:rgb(20%,20%,20%);fill-opacity:1;" d="M 23.914062 15.414062 C 23.828125 15.414062 23.660156 15.414062 23.660156 15.21875 C 23.574219 15.023438 23.574219 14.828125 23.746094 14.730469 C 23.859375 14.667969 23.972656 14.601562 24.085938 14.535156 C 24.199219 14.535156 24.3125 14.472656 24.425781 14.339844 C 24.539062 14.277344 24.679688 14.179688 24.851562 14.046875 C 25.703125 13.332031 26.46875 12.519531 27.148438 11.609375 C 27.746094 10.730469 29.703125 7.804688 30.042969 4.878906 C 30.128906 4.683594 30.296875 4.585938 30.46875 4.585938 C 30.636719 4.585938 30.722656 4.78125 30.722656 4.976562 C 30.296875 8.097656 28.253906 11.21875 27.660156 12.097656 C 26.921875 13.074219 26.097656 13.953125 25.191406 14.730469 C 25.078125 14.796875 24.9375 14.894531 24.765625 15.023438 C 24.597656 15.15625 24.453125 15.253906 24.339844 15.316406 C 24.226562 15.316406 24.140625 15.347656 24.085938 15.414062 C 24.027344 15.414062 23.972656 15.414062 23.914062 15.414062 Z M 23.914062 15.414062 "/>
<g clip-path="url(#clip11)" clip-rule="nonzero">
<path style=" stroke:none;fill-rule:nonzero;fill:rgb(20%,20%,20%);fill-opacity:1;" d="M 32.9375 7.023438 C 32.9375 7.023438 32.90625 7.023438 32.851562 7.023438 C 32.679688 7.023438 32.597656 6.828125 32.597656 6.535156 C 32.652344 6.277344 32.679688 5.953125 32.679688 5.5625 C 32.679688 3.21875 30.980469 1.171875 28.9375 1.171875 C 26.808594 1.171875 25.105469 3.21875 25.105469 5.5625 C 25.105469 5.953125 25.132812 6.277344 25.191406 6.535156 C 25.277344 6.828125 25.105469 7.023438 24.9375 7.023438 C 24.765625 7.121094 24.597656 6.925781 24.511719 6.730469 C 24.453125 6.339844 24.425781 5.953125 24.425781 5.5625 C 24.425781 2.730469 26.46875 0.488281 28.9375 0.488281 C 31.402344 0.488281 33.363281 2.730469 33.363281 5.5625 C 33.363281 5.953125 33.332031 6.339844 33.277344 6.730469 C 33.191406 6.925781 33.105469 7.023438 32.9375 7.023438 Z M 32.9375 7.023438 "/>
</g>
<path style=" stroke:none;fill-rule:nonzero;fill:rgb(20%,20%,20%);fill-opacity:1;" d="M 34.382812 18.730469 C 34.269531 18.730469 34.15625 18.699219 34.042969 18.632812 C 33.929688 18.570312 33.816406 18.472656 33.703125 18.339844 C 33.617188 18.242188 33.617188 17.953125 33.703125 17.855469 C 33.871094 17.660156 34.042969 17.660156 34.210938 17.855469 C 34.210938 17.855469 34.242188 17.886719 34.296875 17.953125 C 34.554688 18.046875 34.980469 17.5625 35.234375 16.78125 C 35.402344 16.195312 35.402344 15.707031 35.234375 15.316406 C 35.175781 15.253906 35.121094 15.1875 35.0625 15.121094 C 34.894531 15.121094 34.722656 14.925781 34.722656 14.730469 C 34.722656 14.535156 34.894531 14.339844 35.0625 14.339844 C 35.121094 14.339844 35.207031 14.375 35.320312 14.4375 C 35.546875 14.503906 35.714844 14.699219 35.828125 15.023438 C 36.085938 15.511719 36.085938 16.292969 35.914062 16.976562 C 35.574219 18.046875 34.980469 18.730469 34.382812 18.730469 Z M 34.382812 18.730469 "/>
<path style=" stroke:none;fill-rule:nonzero;fill:rgb(20%,20%,20%);fill-opacity:1;" d="M 29.105469 24.292969 C 27.746094 24.292969 26.46875 23.609375 25.53125 22.535156 C 24.679688 21.5625 24.171875 20.195312 24 18.828125 C 23.402344 18.925781 22.722656 18.242188 22.382812 17.074219 C 22.210938 16.390625 22.210938 15.609375 22.46875 15.121094 C 22.582031 14.796875 22.75 14.601562 22.980469 14.535156 C 23.488281 14.339844 24.253906 14.730469 24.597656 15.511719 C 24.765625 15.609375 24.679688 15.902344 24.511719 16 C 24.339844 16.097656 24.171875 16.097656 24.085938 15.902344 C 23.828125 15.414062 23.402344 15.21875 23.234375 15.21875 C 23.121094 15.285156 23.0625 15.382812 23.0625 15.511719 C 22.894531 15.804688 22.894531 16.390625 23.0625 16.878906 C 23.320312 17.660156 23.746094 18.144531 24 18.046875 C 24.058594 18.046875 24.085938 18.015625 24.085938 17.953125 C 24.171875 17.855469 24.339844 17.855469 24.511719 17.855469 C 24.597656 17.953125 24.679688 18.046875 24.679688 18.242188 L 24.679688 18.339844 C 24.679688 19.707031 25.105469 20.976562 25.957031 21.953125 C 26.808594 22.925781 27.914062 23.511719 29.105469 23.511719 C 30.296875 23.511719 31.488281 22.925781 32.253906 21.953125 C 33.105469 20.976562 33.617188 19.707031 33.617188 18.339844 L 33.617188 18.144531 C 33.617188 17.855469 33.789062 17.757812 33.957031 17.757812 C 34.128906 17.757812 34.296875 17.855469 34.296875 18.144531 L 34.296875 18.339844 C 34.296875 19.902344 33.703125 21.367188 32.765625 22.535156 C 31.828125 23.609375 30.554688 24.292969 29.105469 24.292969 Z M 29.105469 24.292969 "/>
<path style=" stroke:none;fill-rule:nonzero;fill:rgb(20%,20%,20%);fill-opacity:1;" d="M 33.957031 16.292969 C 33.789062 16.292969 33.617188 16.097656 33.617188 15.902344 L 33.617188 15.21875 C 33.617188 15.023438 33.789062 14.828125 33.957031 14.828125 C 34.128906 14.828125 34.296875 15.023438 34.296875 15.21875 L 34.296875 15.902344 C 34.296875 16.097656 34.128906 16.292969 33.957031 16.292969 Z M 33.957031 16.292969 "/>
<path style=" stroke:none;fill-rule:evenodd;fill:rgb(20%,20%,20%);fill-opacity:1;" d="M 35.914062 36.78125 L 31.914062 36.78125 C 31.746094 36.78125 31.574219 36.585938 31.574219 36.390625 L 31.574219 34.242188 C 31.574219 34.046875 31.746094 33.855469 31.914062 33.855469 L 35.914062 33.855469 C 36.171875 33.855469 36.253906 34.046875 36.253906 34.242188 L 36.253906 36.390625 C 36.253906 36.585938 36.171875 36.78125 35.914062 36.78125 Z M 32.253906 36 L 35.660156 36 L 35.660156 34.632812 L 32.253906 34.632812 Z M 32.253906 36 "/>
<path style=" stroke:none;fill-rule:nonzero;fill:rgb(20%,20%,20%);fill-opacity:1;" d="M 31.828125 23.804688 C 31.660156 23.804688 31.488281 23.707031 31.488281 23.511719 L 31.488281 22.925781 C 31.488281 22.730469 31.660156 22.535156 31.828125 22.535156 C 32 22.535156 32.171875 22.730469 32.171875 22.925781 L 32.171875 23.511719 C 32.171875 23.707031 32 23.804688 31.828125 23.804688 Z M 31.828125 23.804688 "/>
<path style=" stroke:none;fill-rule:nonzero;fill:rgb(20%,20%,20%);fill-opacity:1;" d="M 26.636719 23.902344 C 26.46875 23.902344 26.296875 23.707031 26.296875 23.511719 L 26.296875 23.023438 C 26.296875 22.828125 26.46875 22.632812 26.636719 22.632812 C 26.808594 22.632812 26.980469 22.828125 26.980469 23.023438 L 26.980469 23.511719 C 26.980469 23.707031 26.808594 23.902344 26.636719 23.902344 Z M 26.636719 23.902344 "/>
</g>
</svg>
