<svg xmlns="http://www.w3.org/2000/svg" xmlns:xlink="http://www.w3.org/1999/xlink" width="500" zoomAndPan="magnify" viewBox="0 0 375 374.999991" height="500" preserveAspectRatio="xMidYMid meet" version="1.0"><defs><clipPath id="86f495c0c0"><path d="M 76.121094 85 L 304 85 L 304 119 L 76.121094 119 Z M 76.121094 85 " clip-rule="nonzero"/></clipPath></defs><path fill="#dccfbf" d="M 260.363281 375 L 119.875 375 L 96.410156 118.449219 L 283.828125 118.449219 Z M 260.363281 375 " fill-opacity="1" fill-rule="nonzero"/><path fill="#69a376" d="M 226.070312 85.316406 L 246.453125 16.113281 L 293.382812 0 L 300.449219 20.558594 L 264.425781 32.980469 L 248.480469 85.316406 Z M 226.070312 85.316406 " fill-opacity="1" fill-rule="nonzero"/><g clip-path="url(#86f495c0c0)"><path fill="#ba8d4c" d="M 298.195312 118.449219 L 82.046875 118.449219 L 76.328125 85.316406 L 303.910156 85.316406 Z M 298.195312 118.449219 " fill-opacity="1" fill-rule="nonzero"/></g><path fill="#946d47" d="M 280.820312 151.28125 L 260.363281 375 L 119.875 375 L 99.417969 151.28125 Z M 280.820312 151.28125 " fill-opacity="1" fill-rule="nonzero"/><path fill="#f4efea" d="M 205.988281 297.214844 L 186.285156 280.875 C 185.988281 280.628906 185.71875 280.359375 185.476562 280.0625 C 185.238281 279.765625 185.027344 279.449219 184.847656 279.109375 C 184.667969 278.769531 184.523438 278.417969 184.414062 278.050781 C 184.304688 277.683594 184.234375 277.308594 184.199219 276.925781 C 184.164062 276.546875 184.167969 276.164062 184.207031 275.78125 C 184.246094 275.402344 184.324219 275.027344 184.4375 274.664062 C 184.554688 274.296875 184.703125 273.945312 184.886719 273.609375 C 185.070312 273.273438 185.285156 272.957031 185.53125 272.664062 L 199.898438 255.269531 C 200.140625 254.976562 200.410156 254.707031 200.707031 254.464844 C 201.003906 254.222656 201.320312 254.011719 201.660156 253.832031 C 201.996094 253.652344 202.351562 253.507812 202.71875 253.398438 C 203.085938 253.289062 203.457031 253.21875 203.839844 253.183594 C 204.21875 253.148438 204.601562 253.148438 204.980469 253.191406 C 205.363281 253.230469 205.734375 253.308594 206.101562 253.421875 C 206.464844 253.539062 206.816406 253.6875 207.152344 253.871094 C 207.488281 254.054688 207.800781 254.269531 208.09375 254.519531 L 227.800781 270.859375 C 228.09375 271.101562 228.363281 271.371094 228.605469 271.667969 C 228.847656 271.964844 229.058594 272.285156 229.238281 272.621094 C 229.417969 272.960938 229.5625 273.316406 229.667969 273.683594 C 229.777344 274.050781 229.851562 274.421875 229.886719 274.804688 C 229.921875 275.1875 229.917969 275.566406 229.878906 275.949219 C 229.835938 276.332031 229.757812 276.703125 229.644531 277.070312 C 229.53125 277.433594 229.382812 277.785156 229.199219 278.121094 C 229.011719 278.457031 228.796875 278.773438 228.550781 279.066406 L 214.1875 296.460938 C 213.941406 296.753906 213.667969 297.019531 213.371094 297.257812 C 213.074219 297.496094 212.753906 297.703125 212.417969 297.878906 C 212.078125 298.054688 211.726562 298.195312 211.359375 298.304688 C 210.996094 298.414062 210.621094 298.484375 210.242188 298.519531 C 209.863281 298.554688 209.484375 298.550781 209.101562 298.511719 C 208.722656 298.472656 208.351562 298.398438 207.988281 298.285156 C 207.621094 298.171875 207.273438 298.027344 206.9375 297.847656 C 206.601562 297.667969 206.285156 297.457031 205.988281 297.214844 Z M 143.414062 318.074219 L 160.941406 328.164062 C 161.214844 328.324219 161.503906 328.460938 161.808594 328.566406 C 162.113281 328.671875 162.421875 328.746094 162.738281 328.792969 C 163.058594 328.835938 163.378906 328.851562 163.699219 328.832031 C 164.019531 328.8125 164.332031 328.765625 164.644531 328.683594 C 164.957031 328.605469 165.253906 328.496094 165.542969 328.355469 C 165.832031 328.214844 166.105469 328.046875 166.363281 327.855469 C 166.617188 327.660156 166.855469 327.445312 167.066406 327.207031 C 167.28125 326.964844 167.46875 326.707031 167.632812 326.429688 L 177.710938 308.886719 C 177.871094 308.609375 178.003906 308.320312 178.105469 308.015625 C 178.210938 307.714844 178.28125 307.40625 178.324219 307.089844 C 178.363281 306.769531 178.375 306.453125 178.351562 306.132812 C 178.332031 305.816406 178.277344 305.503906 178.195312 305.195312 C 178.109375 304.886719 177.996094 304.589844 177.855469 304.300781 C 177.710938 304.015625 177.542969 303.75 177.34375 303.496094 C 177.148438 303.246094 176.929688 303.015625 176.6875 302.804688 C 176.445312 302.597656 176.183594 302.414062 175.90625 302.257812 L 158.457031 292.167969 C 158.179688 292.003906 157.890625 291.871094 157.589844 291.765625 C 157.285156 291.660156 156.976562 291.582031 156.65625 291.539062 C 156.339844 291.492188 156.019531 291.480469 155.699219 291.5 C 155.378906 291.515625 155.0625 291.566406 154.753906 291.648438 C 154.441406 291.726562 154.140625 291.835938 153.851562 291.976562 C 153.5625 292.117188 153.289062 292.28125 153.035156 292.476562 C 152.777344 292.667969 152.542969 292.886719 152.328125 293.125 C 152.117188 293.367188 151.925781 293.625 151.765625 293.902344 L 141.6875 311.371094 C 141.523438 311.648438 141.390625 311.9375 141.28125 312.242188 C 141.175781 312.542969 141.101562 312.855469 141.058594 313.171875 C 141.011719 313.492188 141 313.8125 141.015625 314.132812 C 141.035156 314.453125 141.085938 314.769531 141.164062 315.078125 C 141.246094 315.390625 141.355469 315.691406 141.496094 315.980469 C 141.632812 316.269531 141.800781 316.542969 141.992188 316.800781 C 142.1875 317.058594 142.402344 317.292969 142.640625 317.507812 C 142.882812 317.71875 143.140625 317.910156 143.414062 318.070312 Z M 138.375 229.066406 L 145.824219 250.453125 C 145.953125 250.8125 146.117188 251.15625 146.316406 251.480469 C 146.511719 251.808594 146.738281 252.113281 146.996094 252.398438 C 147.253906 252.679688 147.535156 252.9375 147.84375 253.164062 C 148.148438 253.390625 148.476562 253.585938 148.820312 253.75 C 149.164062 253.914062 149.523438 254.042969 149.894531 254.136719 C 150.261719 254.230469 150.640625 254.289062 151.019531 254.308594 C 151.402344 254.332031 151.78125 254.3125 152.160156 254.261719 C 152.539062 254.207031 152.90625 254.117188 153.269531 253.992188 L 177.410156 245.558594 C 177.769531 245.425781 178.113281 245.261719 178.4375 245.066406 C 178.765625 244.867188 179.070312 244.640625 179.351562 244.382812 C 179.636719 244.125 179.890625 243.84375 180.117188 243.535156 C 180.347656 243.226562 180.542969 242.902344 180.707031 242.554688 C 180.871094 242.210938 181 241.851562 181.09375 241.480469 C 181.1875 241.109375 181.242188 240.734375 181.265625 240.351562 C 181.285156 239.972656 181.269531 239.589844 181.214844 239.210938 C 181.160156 238.832031 181.070312 238.464844 180.945312 238.101562 L 173.5 216.792969 C 173.375 216.429688 173.21875 216.085938 173.027344 215.753906 C 172.835938 215.425781 172.617188 215.117188 172.363281 214.828125 C 172.113281 214.542969 171.835938 214.285156 171.53125 214.050781 C 171.230469 213.820312 170.90625 213.621094 170.5625 213.453125 C 170.222656 213.285156 169.867188 213.152344 169.496094 213.054688 C 169.128906 212.957031 168.753906 212.894531 168.375 212.871094 C 167.992188 212.847656 167.613281 212.863281 167.234375 212.914062 C 166.859375 212.964844 166.488281 213.054688 166.128906 213.175781 L 141.988281 221.6875 C 141.625 221.808594 141.28125 221.964844 140.949219 222.15625 C 140.621094 222.347656 140.3125 222.570312 140.027344 222.824219 C 139.738281 223.074219 139.480469 223.351562 139.25 223.65625 C 139.019531 223.960938 138.820312 224.28125 138.652344 224.625 C 138.484375 224.96875 138.351562 225.324219 138.253906 225.695312 C 138.15625 226.0625 138.09375 226.4375 138.070312 226.820312 C 138.046875 227.199219 138.0625 227.578125 138.113281 227.957031 C 138.164062 228.335938 138.253906 228.707031 138.375 229.066406 Z M 222.988281 238.480469 L 232.539062 254.96875 C 232.699219 255.25 232.882812 255.511719 233.09375 255.753906 C 233.304688 256 233.539062 256.21875 233.792969 256.414062 C 234.050781 256.613281 234.320312 256.78125 234.609375 256.925781 C 234.898438 257.070312 235.199219 257.183594 235.507812 257.265625 C 235.820312 257.351562 236.136719 257.402344 236.457031 257.425781 C 236.78125 257.445312 237.101562 257.4375 237.417969 257.394531 C 237.738281 257.351562 238.050781 257.277344 238.355469 257.175781 C 238.660156 257.070312 238.953125 256.9375 239.230469 256.777344 L 257.882812 245.933594 C 258.164062 245.773438 258.425781 245.585938 258.667969 245.375 C 258.910156 245.164062 259.128906 244.929688 259.328125 244.675781 C 259.523438 244.421875 259.695312 244.148438 259.835938 243.859375 C 259.980469 243.570312 260.09375 243.269531 260.175781 242.957031 C 260.261719 242.648438 260.3125 242.332031 260.335938 242.007812 C 260.355469 241.6875 260.347656 241.367188 260.304688 241.046875 C 260.261719 240.726562 260.1875 240.414062 260.085938 240.109375 C 259.980469 239.804688 259.847656 239.511719 259.6875 239.230469 L 250.210938 222.742188 C 250.046875 222.460938 249.859375 222.195312 249.644531 221.953125 C 249.429688 221.707031 249.191406 221.488281 248.933594 221.289062 C 248.675781 221.09375 248.402344 220.921875 248.109375 220.777344 C 247.816406 220.636719 247.515625 220.523438 247.199219 220.4375 C 246.886719 220.355469 246.566406 220.300781 246.242188 220.28125 C 245.917969 220.257812 245.59375 220.269531 245.273438 220.3125 C 244.949219 220.355469 244.636719 220.429688 244.328125 220.535156 C 244.019531 220.636719 243.726562 220.769531 243.441406 220.933594 L 224.792969 231.703125 C 224.511719 231.867188 224.25 232.054688 224.003906 232.269531 C 223.761719 232.484375 223.539062 232.722656 223.34375 232.980469 C 223.144531 233.238281 222.976562 233.515625 222.832031 233.808594 C 222.6875 234.097656 222.574219 234.402344 222.492188 234.71875 C 222.40625 235.03125 222.355469 235.351562 222.332031 235.675781 C 222.3125 236 222.324219 236.324219 222.367188 236.648438 C 222.410156 236.96875 222.480469 237.285156 222.585938 237.59375 C 222.691406 237.902344 222.824219 238.195312 222.988281 238.480469 Z M 184.105469 182.078125 L 181.847656 200.980469 C 181.816406 201.300781 181.816406 201.625 181.84375 201.949219 C 181.875 202.269531 181.9375 202.589844 182.027344 202.898438 C 182.121094 203.210938 182.242188 203.511719 182.390625 203.796875 C 182.539062 204.085938 182.714844 204.359375 182.917969 204.613281 C 183.117188 204.867188 183.34375 205.097656 183.589844 205.308594 C 183.835938 205.519531 184.101562 205.707031 184.382812 205.863281 C 184.664062 206.023438 184.957031 206.15625 185.265625 206.257812 C 185.574219 206.363281 185.886719 206.433594 186.210938 206.476562 L 207.644531 208.960938 C 207.964844 209.003906 208.285156 209.011719 208.605469 208.988281 C 208.925781 208.96875 209.242188 208.914062 209.550781 208.828125 C 209.863281 208.742188 210.160156 208.625 210.449219 208.480469 C 210.734375 208.335938 211.003906 208.160156 211.257812 207.960938 C 211.511719 207.761719 211.742188 207.539062 211.949219 207.292969 C 212.15625 207.046875 212.335938 206.78125 212.492188 206.496094 C 212.644531 206.214844 212.769531 205.917969 212.867188 205.613281 C 212.960938 205.304688 213.027344 204.988281 213.058594 204.667969 L 215.316406 185.769531 C 215.351562 185.445312 215.359375 185.125 215.332031 184.804688 C 215.304688 184.480469 215.25 184.164062 215.164062 183.855469 C 215.074219 183.542969 214.957031 183.242188 214.8125 182.953125 C 214.667969 182.667969 214.496094 182.394531 214.296875 182.140625 C 214.097656 181.886719 213.875 181.652344 213.632812 181.441406 C 213.386719 181.230469 213.125 181.042969 212.847656 180.882812 C 212.566406 180.722656 212.273438 180.589844 211.96875 180.488281 C 211.660156 180.386719 211.347656 180.3125 211.027344 180.269531 L 189.59375 177.785156 C 189.273438 177.742188 188.949219 177.734375 188.625 177.757812 C 188.304688 177.777344 187.984375 177.832031 187.671875 177.917969 C 187.359375 178.003906 187.058594 178.117188 186.769531 178.265625 C 186.480469 178.410156 186.207031 178.582031 185.953125 178.78125 C 185.695312 178.980469 185.460938 179.203125 185.25 179.449219 C 185.039062 179.695312 184.855469 179.960938 184.695312 180.242188 C 184.539062 180.527344 184.410156 180.824219 184.308594 181.132812 C 184.210938 181.441406 184.140625 181.757812 184.105469 182.078125 Z M 118.746094 190.4375 L 132.210938 203.914062 C 132.4375 204.140625 132.6875 204.339844 132.957031 204.511719 C 133.222656 204.6875 133.507812 204.835938 133.800781 204.957031 C 134.097656 205.078125 134.40625 205.167969 134.71875 205.230469 C 135.03125 205.289062 135.347656 205.320312 135.667969 205.320312 C 135.988281 205.320312 136.304688 205.289062 136.621094 205.230469 C 136.933594 205.167969 137.238281 205.078125 137.535156 204.957031 C 137.832031 204.835938 138.113281 204.6875 138.382812 204.511719 C 138.652344 204.339844 138.898438 204.140625 139.128906 203.914062 L 154.394531 188.628906 C 154.621094 188.398438 154.820312 188.144531 154.996094 187.871094 C 155.171875 187.601562 155.320312 187.316406 155.441406 187.015625 C 155.5625 186.714844 155.652344 186.40625 155.714844 186.089844 C 155.777344 185.773438 155.808594 185.453125 155.808594 185.128906 C 155.808594 184.804688 155.777344 184.484375 155.714844 184.167969 C 155.652344 183.847656 155.5625 183.539062 155.441406 183.238281 C 155.320312 182.941406 155.171875 182.65625 154.996094 182.382812 C 154.820312 182.113281 154.621094 181.859375 154.394531 181.625 L 140.933594 168.148438 C 140.703125 167.925781 140.457031 167.726562 140.1875 167.550781 C 139.921875 167.375 139.636719 167.226562 139.339844 167.105469 C 139.042969 166.984375 138.738281 166.894531 138.425781 166.832031 C 138.113281 166.773438 137.792969 166.742188 137.472656 166.742188 C 137.15625 166.742188 136.835938 166.773438 136.523438 166.832031 C 136.210938 166.894531 135.902344 166.984375 135.609375 167.105469 C 135.3125 167.226562 135.027344 167.375 134.761719 167.550781 C 134.492188 167.726562 134.246094 167.925781 134.015625 168.148438 L 118.746094 183.433594 C 118.515625 183.660156 118.304688 183.910156 118.121094 184.179688 C 117.9375 184.449219 117.785156 184.734375 117.65625 185.035156 C 117.53125 185.335938 117.4375 185.644531 117.371094 185.964844 C 117.308594 186.285156 117.273438 186.609375 117.273438 186.933594 C 117.273438 187.261719 117.308594 187.585938 117.371094 187.902344 C 117.4375 188.222656 117.53125 188.535156 117.65625 188.835938 C 117.785156 189.136719 117.9375 189.421875 118.121094 189.691406 C 118.304688 189.960938 118.515625 190.207031 118.746094 190.4375 Z M 236.148438 171.308594 L 229.078125 189.007812 C 228.957031 189.304688 228.863281 189.613281 228.800781 189.929688 C 228.742188 190.246094 228.710938 190.566406 228.714844 190.890625 C 228.714844 191.214844 228.75 191.535156 228.8125 191.851562 C 228.878906 192.167969 228.972656 192.472656 229.101562 192.769531 C 229.226562 193.070312 229.378906 193.351562 229.5625 193.617188 C 229.742188 193.886719 229.949219 194.132812 230.179688 194.359375 C 230.410156 194.582031 230.660156 194.785156 230.929688 194.960938 C 231.203125 195.136719 231.484375 195.285156 231.785156 195.40625 L 251.792969 203.464844 C 252.089844 203.582031 252.398438 203.667969 252.714844 203.726562 C 253.03125 203.785156 253.347656 203.8125 253.671875 203.804688 C 253.992188 203.800781 254.308594 203.765625 254.625 203.699219 C 254.9375 203.636719 255.242188 203.539062 255.539062 203.414062 C 255.835938 203.289062 256.117188 203.136719 256.382812 202.957031 C 256.648438 202.773438 256.894531 202.570312 257.121094 202.34375 C 257.347656 202.113281 257.550781 201.867188 257.730469 201.597656 C 257.910156 201.332031 258.058594 201.050781 258.183594 200.753906 L 265.328125 183.058594 C 265.449219 182.757812 265.539062 182.445312 265.601562 182.125 C 265.660156 181.808594 265.6875 181.484375 265.683594 181.160156 C 265.679688 180.835938 265.640625 180.515625 265.574219 180.195312 C 265.503906 179.878906 265.40625 179.570312 265.277344 179.273438 C 265.148438 178.976562 264.992188 178.691406 264.804688 178.425781 C 264.617188 178.160156 264.410156 177.914062 264.175781 177.691406 C 263.941406 177.464844 263.6875 177.265625 263.410156 177.09375 C 263.136719 176.917969 262.847656 176.773438 262.546875 176.65625 L 242.539062 168.597656 C 242.242188 168.480469 241.933594 168.394531 241.617188 168.335938 C 241.300781 168.277344 240.984375 168.253906 240.660156 168.257812 C 240.339844 168.261719 240.023438 168.296875 239.707031 168.363281 C 239.394531 168.429688 239.089844 168.523438 238.792969 168.648438 C 238.496094 168.773438 238.214844 168.929688 237.949219 169.109375 C 237.683594 169.289062 237.4375 169.492188 237.210938 169.71875 C 236.984375 169.949219 236.78125 170.195312 236.601562 170.464844 C 236.421875 170.730469 236.273438 171.011719 236.148438 171.308594 Z M 229.90625 318.824219 L 211.929688 325.074219 C 211.625 325.183594 211.332031 325.324219 211.054688 325.492188 C 210.777344 325.65625 210.515625 325.851562 210.277344 326.066406 C 210.035156 326.285156 209.816406 326.523438 209.625 326.785156 C 209.429688 327.046875 209.265625 327.324219 209.125 327.617188 C 208.984375 327.910156 208.875 328.214844 208.792969 328.53125 C 208.714844 328.84375 208.667969 329.164062 208.648438 329.488281 C 208.632812 329.8125 208.644531 330.136719 208.691406 330.457031 C 208.738281 330.78125 208.816406 331.09375 208.921875 331.402344 L 216.066406 351.730469 C 216.171875 352.035156 216.308594 352.328125 216.46875 352.609375 C 216.632812 352.886719 216.820312 353.148438 217.035156 353.390625 C 217.25 353.632812 217.484375 353.851562 217.738281 354.046875 C 217.996094 354.242188 218.269531 354.414062 218.558594 354.554688 C 218.847656 354.699219 219.148438 354.8125 219.457031 354.894531 C 219.769531 354.980469 220.085938 355.035156 220.40625 355.058594 C 220.730469 355.078125 221.050781 355.070312 221.371094 355.03125 C 221.691406 354.992188 222.003906 354.921875 222.308594 354.820312 L 240.285156 348.492188 C 240.589844 348.386719 240.878906 348.253906 241.15625 348.089844 C 241.433594 347.925781 241.695312 347.738281 241.933594 347.523438 C 242.175781 347.308594 242.390625 347.074219 242.585938 346.816406 C 242.777344 346.558594 242.945312 346.285156 243.085938 345.996094 C 243.226562 345.703125 243.335938 345.402344 243.414062 345.089844 C 243.496094 344.777344 243.546875 344.460938 243.5625 344.140625 C 243.582031 343.816406 243.566406 343.496094 243.519531 343.179688 C 243.476562 342.859375 243.398438 342.546875 243.292969 342.242188 L 236.148438 321.835938 C 236.042969 321.53125 235.90625 321.242188 235.746094 320.964844 C 235.582031 320.6875 235.394531 320.425781 235.179688 320.1875 C 234.964844 319.945312 234.730469 319.726562 234.472656 319.535156 C 234.214844 319.339844 233.941406 319.171875 233.652344 319.03125 C 233.363281 318.894531 233.0625 318.78125 232.75 318.703125 C 232.4375 318.621094 232.121094 318.574219 231.800781 318.554688 C 231.476562 318.535156 231.15625 318.550781 230.839844 318.597656 C 230.519531 318.640625 230.210938 318.71875 229.90625 318.824219 Z M 229.90625 318.824219 " fill-opacity="1" fill-rule="nonzero"/></svg>