<?xml version="1.0" encoding="UTF-8"?>
<svg xmlns="http://www.w3.org/2000/svg" xmlns:xlink="http://www.w3.org/1999/xlink" width="100px" height="100px" viewBox="0 0 100 100" version="1.1">
<g id="surface1">
<path style=" stroke:none;fill-rule:evenodd;fill:rgb(96.078432%,94.901961%,97.647059%);fill-opacity:1;" d="M 0.0234375 20.527344 C 0.0234375 20.527344 12.207031 16.710938 19.734375 15.035156 C 27.261719 13.355469 59.566406 6.640625 63.195312 4.078125 C 66.820312 1.511719 68.527344 0.871094 68.527344 0.871094 C 68.527344 0.871094 81.335938 22.023438 85.390625 35.480469 C 89.445312 48.941406 99.179688 73.507812 99.179688 73.507812 C 99.179688 73.507812 95.300781 76.769531 79.28125 80.65625 C 63.265625 84.546875 51.457031 89.742188 41.425781 92.949219 C 31.394531 96.152344 20.9375 99.996094 20.9375 99.996094 C 20.9375 99.996094 18.375 81.839844 11.972656 68.378906 C 5.570312 54.921875 5.144531 29.5 0.0234375 20.527344 Z M 0.0234375 20.527344 "/>
<path style=" stroke:none;fill-rule:evenodd;fill:rgb(92.54902%,91.37255%,95.686275%);fill-opacity:1;" d="M 20.878906 99.609375 C 20.683594 98.335938 19.992188 94.046875 18.699219 88.574219 L 20.75 90.570312 C 21.285156 90.570312 24.433594 91.640625 29.660156 89.398438 C 34.890625 87.152344 39.820312 85.382812 39.820312 85.382812 L 46.734375 87.582031 C 46.734375 87.582031 42.839844 87.367188 37.824219 88.917969 C 32.808594 90.464844 30.089844 91.746094 28.328125 92.28125 C 26.566406 92.816406 23.792969 95.804688 23.792969 95.804688 Z M 20.878906 99.609375 "/>
<path style=" stroke:none;fill-rule:evenodd;fill:rgb(92.54902%,91.37255%,95.686275%);fill-opacity:1;" d="M 61.074219 5.042969 C 62.070312 4.679688 62.800781 4.355469 63.195312 4.078125 C 63.550781 3.824219 63.886719 3.59375 64.207031 3.378906 L 64.957031 4.71875 C 64.957031 4.71875 65.96875 6.910156 69.277344 11.714844 C 72.585938 16.523438 72.210938 21.597656 74.933594 26.882812 C 77.652344 32.171875 78.988281 34.359375 78.988281 34.359375 C 78.988281 34.359375 75.039062 30.035156 73.386719 26.296875 C 71.730469 22.558594 71.039062 17.695312 69.703125 15.398438 C 68.371094 13.101562 62.820312 6.910156 62.234375 6.375 C 61.980469 6.144531 61.519531 5.59375 61.074219 5.042969 Z M 61.074219 5.042969 "/>
<path style=" stroke:none;fill-rule:evenodd;fill:rgb(89.411765%,88.627452%,94.117647%);fill-opacity:1;" d="M 20.453125 14.875 C 25.984375 13.65625 40.445312 10.605469 51.09375 7.910156 C 53.734375 11.289062 59.101562 18.386719 62.234375 24.105469 C 66.503906 31.902344 71.835938 43.757812 75.253906 47.390625 C 78.667969 51.023438 86.5625 60.421875 89.445312 62.558594 C 92.316406 64.6875 98.933594 74.101562 95.167969 75.652344 L 95.128906 75.671875 C 91.28125 77.171875 85.175781 78.367188 85.175781 78.367188 C 85.175781 78.367188 84.183594 78.929688 82.621094 79.808594 C 81.570312 80.085938 80.460938 80.371094 79.28125 80.65625 C 67.667969 83.476562 58.265625 86.984375 50.152344 89.921875 C 48.671875 89.472656 47.050781 88.871094 45.265625 88.089844 C 34.808594 83.496094 33.421875 80.183594 30.753906 77.941406 C 28.085938 75.699219 22.113281 76.445312 15.601562 65.441406 C 9.09375 54.441406 7.917969 41.730469 9.199219 36.710938 C 10.480469 31.691406 19.089844 19.207031 20.453125 14.875 Z M 20.453125 14.875 "/>
<path style=" stroke:none;fill-rule:evenodd;fill:rgb(90.980393%,76.078433%,43.137255%);fill-opacity:1;" d="M 27.308594 1.601562 C 27.308594 1.601562 53.125 28.621094 60.589844 36.886719 C 68.054688 45.15625 95.976562 69.160156 93.632812 71.726562 C 91.285156 74.289062 92.671875 76.175781 79.386719 78.328125 C 66.101562 80.484375 44.332031 83.6875 27.683594 74.074219 C 11.039062 64.460938 8.476562 37.542969 12.316406 30.496094 C 16.160156 23.445312 19.359375 17.035156 20 12.550781 C 20.640625 8.0625 22.828125 0 27.308594 1.601562 Z M 27.308594 1.601562 "/>
<path style=" stroke:none;fill-rule:evenodd;fill:rgb(60.000002%,45.09804%,16.862746%);fill-opacity:1;" d="M 35.789062 10.5 L 37.261719 12.050781 L 44.777344 79.816406 C 38.851562 78.910156 33.007812 77.148438 27.6875 74.078125 C 25.25 68.871094 23.195312 62.925781 21.46875 60.535156 C 18.695312 56.691406 18.910156 48.144531 18.910156 42.058594 C 18.910156 35.96875 20.292969 28.277344 26.378906 21.335938 C 30.621094 16.492188 34.082031 12.484375 35.789062 10.5 Z M 35.789062 10.5 "/>
<path style=" stroke:none;fill-rule:evenodd;fill:rgb(97.647059%,85.882354%,60.000002%);fill-opacity:1;" d="M 76 51.871094 C 85.46875 60.851562 95.042969 70.179688 93.632812 71.726562 C 92.164062 73.328125 92.15625 74.667969 89.105469 75.972656 C 88.300781 75.765625 87.675781 75.613281 87.414062 75.703125 C 86.667969 75.972656 87.523438 74.421875 87.523438 74.421875 C 89.015625 73.355469 90.242188 71.914062 89.601562 70.84375 C 88.960938 69.777344 83.894531 65.398438 83.789062 64.488281 C 83.679688 63.582031 81.707031 63.582031 81.121094 62.191406 C 80.53125 60.804688 80.960938 61.125 79.414062 58.238281 C 77.863281 55.355469 76.792969 53.980469 76.425781 52.953125 C 76.304688 52.621094 76.152344 52.238281 76 51.871094 Z M 76 51.871094 "/>
<path style=" stroke:none;fill-rule:evenodd;fill:rgb(81.960785%,67.450982%,35.294119%);fill-opacity:1;" d="M 26.5625 2.617188 C 26.5625 2.617188 29.230469 7.207031 25.070312 14.042969 C 20.910156 20.882812 16.746094 28.679688 15.039062 33.484375 C 13.332031 38.292969 13.652344 43.3125 14.398438 48.441406 C 15.144531 53.566406 17.171875 59.335938 18.988281 62.433594 C 20.800781 65.53125 22.292969 67.878906 24.429688 70.015625 C 25.132812 70.722656 25.945312 71.359375 26.714844 71.894531 L 26.171875 70.632812 C 25.164062 69.707031 24.183594 68.738281 23.628906 68.011719 C 22.136719 66.066406 19.199219 62.003906 18.375 59.441406 C 17.546875 56.878906 15.8125 48.414062 15.652344 44.355469 C 15.492188 40.292969 15.597656 37.839844 15.597656 37.839844 C 15.597656 37.839844 17.894531 29.238281 21.199219 23.683594 C 24.507812 18.132812 26.910156 11.667969 28.351562 9.90625 C 29.792969 8.144531 28.191406 1.414062 26.5625 2.617188 Z M 26.5625 2.617188 "/>
<path style=" stroke:none;fill-rule:evenodd;fill:rgb(97.647059%,85.882354%,60.000002%);fill-opacity:1;" d="M 45.730469 5.699219 C 45.648438 5.457031 44.984375 3.882812 44.371094 4.015625 C 43.757812 4.148438 40.875 5.964844 38.660156 8.367188 C 36.445312 10.773438 30.84375 14.457031 27.855469 21.398438 C 24.867188 28.34375 22.519531 34.539062 21.667969 38.0625 C 20.8125 41.589844 22.308594 66.902344 31.910156 74.699219 C 41.515625 82.496094 43.007812 87.730469 61.898438 89.65625 C 80.785156 91.578125 87.398438 86.648438 87.472656 84.546875 C 87.546875 82.441406 75.449219 68.078125 75.449219 68.078125 Z M 45.730469 5.699219 "/>
<path style=" stroke:none;fill-rule:evenodd;fill:rgb(70.588237%,52.941179%,17.647059%);fill-opacity:1;" d="M 31.265625 15.753906 C 29.996094 17.355469 28.796875 19.214844 27.855469 21.398438 C 24.867188 28.34375 22.519531 34.539062 21.667969 38.0625 C 20.8125 41.589844 22.308594 66.902344 31.910156 74.699219 C 41.515625 82.5 43.007812 87.730469 61.898438 89.65625 C 63.238281 89.792969 64.519531 89.894531 65.738281 89.964844 C 63.109375 88.890625 60.042969 87.851562 57.628906 87.277344 C 51.761719 85.890625 47.757812 86.613281 43.542969 81.617188 C 39.332031 76.621094 34.046875 72.859375 32.339844 70.617188 C 30.632812 68.371094 31.804688 67.304688 29.03125 64.097656 C 26.257812 60.894531 27.644531 61.109375 24.871094 52.351562 C 22.09375 43.589844 23.480469 43.804688 23.695312 37.183594 C 23.910156 30.558594 26.898438 27.140625 29.136719 20.945312 C 29.789062 19.148438 30.519531 17.378906 31.265625 15.753906 Z M 31.265625 15.753906 "/>
<path style=" stroke:none;fill-rule:evenodd;fill:rgb(81.960785%,67.450982%,35.294119%);fill-opacity:1;" d="M 45.730469 5.699219 C 45.648438 5.457031 44.984375 3.882812 44.371094 4.015625 C 44.058594 4.082031 43.167969 4.582031 42.078125 5.367188 C 39.523438 9.273438 35.917969 15.035156 35.113281 17.660156 C 33.832031 21.828125 32.019531 22.683594 30.523438 27.167969 C 29.03125 31.652344 28.390625 33.578125 28.816406 39.558594 C 29.242188 45.539062 31.058594 46.074219 32.230469 52.484375 C 33.40625 58.890625 36.605469 66.15625 41.195312 70.535156 C 45.785156 74.914062 47.492188 78.277344 50.210938 80.09375 C 52.933594 81.910156 63.125 84.152344 68.671875 86.398438 C 71.367188 87.488281 73.257812 88.851562 75.476562 89.824219 C 84.097656 88.933594 87.417969 86.035156 87.472656 84.546875 C 87.546875 82.441406 75.449219 68.078125 75.449219 68.078125 Z M 45.730469 5.699219 "/>
<path style=" stroke:none;fill-rule:evenodd;fill:rgb(70.588237%,52.941179%,17.647059%);fill-opacity:1;" d="M 45.730469 5.699219 C 45.648438 5.457031 44.984375 3.882812 44.371094 4.015625 C 44.175781 4.058594 43.746094 4.273438 43.183594 4.621094 C 40.855469 7.761719 36.710938 16.703125 36.125 18.679688 C 35.539062 20.652344 31.054688 30.855469 30.070312 35.496094 C 29.085938 40.140625 34.3125 47.945312 34.203125 50.296875 C 34.09375 52.648438 32.898438 53.925781 36.445312 57.238281 C 39.988281 60.550781 38.042969 62.472656 40.925781 66.316406 C 43.808594 70.164062 45.46875 74.71875 54.476562 80.523438 C 63.488281 86.332031 70.699219 83.300781 75.394531 86.613281 C 77.171875 87.871094 78.570312 88.617188 79.828125 89.121094 C 85.238281 87.882812 87.429688 85.75 87.472656 84.546875 C 87.546875 82.441406 75.449219 68.078125 75.449219 68.078125 Z M 45.730469 5.699219 "/>
<path style=" stroke:none;fill-rule:evenodd;fill:rgb(97.647059%,85.882354%,60.000002%);fill-opacity:1;" d="M 44.875 4.097656 C 44.875 4.097656 47.011719 4.203125 52.773438 12.746094 C 58.535156 21.292969 59.921875 25.566406 64.296875 31.441406 C 68.671875 37.316406 74.007812 49.386719 74.433594 50.773438 C 74.863281 52.164062 85.320312 76.730469 86.601562 79.453125 C 87.878906 82.179688 87.988281 84.902344 86.8125 85.277344 C 85.640625 85.648438 78.167969 83.300781 70.699219 83.300781 C 63.230469 83.300781 60.027344 82.980469 50.636719 75.929688 C 41.25 68.878906 37.941406 57.984375 34.3125 47.945312 C 30.683594 37.902344 31.21875 35.980469 32.925781 29.355469 C 34.632812 22.734375 43.597656 4.148438 44.875 4.097656 Z M 44.875 4.097656 "/>
<path style=" stroke:none;fill-rule:evenodd;fill:rgb(85.882354%,72.549021%,43.921569%);fill-opacity:1;" d="M 46.582031 11.628906 C 46.582031 11.628906 45.515625 15.152344 44.128906 18.890625 C 42.742188 22.628906 43.167969 24.550781 39.863281 27.222656 C 36.554688 29.890625 35.378906 31.707031 35.058594 36.085938 C 34.738281 40.464844 34.847656 43.457031 35.273438 42.816406 C 35.699219 42.175781 36.234375 36.726562 38.472656 36.40625 C 40.714844 36.085938 38.792969 41.320312 40.289062 39.613281 C 41.78125 37.902344 39.648438 34.914062 39.648438 32.457031 C 39.648438 30 40.929688 29.570312 42.101562 28.398438 C 43.277344 27.222656 44.128906 25.621094 44.238281 24.015625 C 44.34375 22.414062 43.808594 20.8125 45.625 18.460938 C 47.4375 16.113281 50.746094 14.9375 50.960938 13.441406 C 51.171875 11.945312 50.320312 8.6875 50.105469 10.503906 C 49.890625 12.320312 50.644531 12.6875 49.46875 13.542969 C 48.292969 14.402344 46.53125 16.21875 46.742188 14.617188 C 46.957031 13.015625 48.289062 11.070312 47.867188 10.183594 C 47.445312 9.296875 46.582031 11.625 46.582031 11.625 Z M 61.578125 72.511719 C 66.699219 71.871094 68.15625 74.96875 75.023438 75.503906 C 81.886719 76.035156 87.558594 76.023438 83.316406 77.898438 C 79.078125 79.773438 69.582031 75.503906 67.445312 76.144531 C 65.3125 76.785156 64.457031 77.53125 64.136719 78.707031 C 63.816406 79.882812 62.964844 76.785156 62.535156 75.289062 C 62.109375 73.792969 56.773438 75.179688 57.734375 73.578125 C 58.695312 71.976562 61.578125 72.511719 61.578125 72.511719 Z M 40.875 56.273438 C 40.875 56.273438 45.785156 65.035156 51.757812 61.1875 C 57.734375 57.34375 61.148438 55.632812 61.148438 55.632812 L 68.832031 57.984375 C 68.832031 57.984375 63.496094 56.914062 60.296875 60.121094 C 57.09375 63.324219 50.265625 64.605469 51.332031 67.382812 C 52.398438 70.160156 43.621094 68.621094 40.875 56.273438 Z M 44.074219 32.347656 C 45.785156 32.136719 48.238281 32.242188 49.625 28.074219 C 51.011719 23.910156 53.464844 22.308594 53.148438 23.589844 C 52.824219 24.871094 50.265625 28.714844 51.546875 29.039062 C 52.824219 29.355469 57.167969 26.097656 56.277344 27.835938 C 55.386719 29.570312 54.425781 32.347656 51.226562 32.347656 C 48.023438 32.347656 49.410156 32.5625 46.210938 33.097656 C 43.007812 33.628906 41.941406 32.5625 44.074219 32.347656 Z M 44.074219 32.347656 "/>
<path style=" stroke:none;fill-rule:evenodd;fill:rgb(58.039218%,19.607843%,12.156863%);fill-opacity:1;" d="M 52.453125 68.238281 C 52.453125 68.238281 50.105469 68.558594 50.691406 70.054688 C 51.28125 71.550781 51.652344 70.375 52.507812 70.480469 C 53.359375 70.589844 54.160156 68.34375 52.453125 68.238281 Z M 78.128906 63.753906 C 78.703125 64.394531 79.515625 64.863281 78.78125 65.089844 C 78.050781 65.316406 78.222656 64.914062 77.941406 64.582031 C 77.664062 64.25 77.753906 63.554688 78.128906 63.753906 Z M 75.316406 62.03125 C 75.316406 62.03125 76.433594 62.621094 76.792969 63.660156 C 77.15625 64.703125 76.570312 63.886719 76.113281 64.476562 C 75.660156 65.0625 74.609375 64.96875 74.875 63.996094 C 75.140625 63.019531 74.316406 61.898438 75.316406 62.03125 Z M 72.484375 68.363281 C 71.921875 68.683594 73.683594 69.964844 71.417969 70.3125 C 69.148438 70.660156 68.214844 71.726562 68.109375 70.097656 C 68.003906 68.46875 71.230469 65.160156 72.484375 68.363281 Z M 78.859375 68.308594 C 78.488281 67.882812 75.632812 65.988281 75.710938 67.507812 C 75.792969 69.03125 75.152344 69.058594 74.351562 69.21875 C 73.550781 69.378906 72.644531 69.804688 73.871094 70.472656 C 75.097656 71.140625 75.496094 71.328125 76.9375 71.300781 C 78.378906 71.273438 80.433594 70.179688 78.859375 68.308594 Z M 45.785156 19.101562 C 46.691406 20.277344 48.082031 21.988281 46.160156 23.003906 C 44.238281 24.015625 43.265625 23.316406 43.8125 22.199219 C 44.359375 21.085938 42.394531 20.273438 43.914062 19.492188 C 45.433594 18.714844 45.785156 19.101562 45.785156 19.101562 Z M 66.058594 46.476562 C 66.058594 46.476562 68.941406 51.707031 66.273438 52.242188 C 63.605469 52.777344 62.859375 49.894531 61.683594 50.960938 C 60.511719 52.027344 54.855469 50 58.480469 48.929688 C 62.109375 47.863281 64.136719 50.214844 64.136719 48.398438 C 64.136719 46.582031 64.160156 44.378906 66.058594 46.476562 Z M 41.890625 49.894531 C 42.050781 51.550781 43.332031 49.625 46.53125 52.351562 C 49.730469 55.074219 48.71875 55.820312 49.730469 55.714844 C 50.746094 55.605469 50.585938 56.515625 51.386719 54.753906 C 52.1875 52.992188 51.441406 53.417969 52.347656 52.242188 C 53.253906 51.066406 53.949219 50.265625 50.480469 50.425781 C 47.011719 50.585938 47.332031 50.105469 46.53125 49.359375 C 45.730469 48.613281 41.78125 46.582031 41.890625 49.894531 Z M 39.648438 41.800781 C 39.648438 41.320312 40.480469 38.03125 39.238281 36.605469 C 37.992188 35.179688 37.085938 36.199219 36.28125 39.222656 C 35.476562 42.242188 35.804688 43.777344 36.019531 43.296875 C 36.234375 42.816406 37.085938 38.167969 37.886719 38.382812 C 38.6875 38.597656 37.832031 38.917969 38.367188 39.558594 C 38.902344 40.199219 39.167969 39.132812 39.007812 40.304688 C 38.847656 41.480469 38.3125 41.800781 38.742188 42.070312 C 39.167969 42.335938 39.648438 41.800781 39.648438 41.800781 Z M 59.71875 26.636719 C 59.71875 26.636719 60.796875 31.25 61.863281 32.210938 C 62.929688 33.175781 58.289062 37.675781 58.15625 33.984375 C 58.023438 30.289062 57.914062 26.019531 59.71875 26.636719 Z M 63.070312 61.429688 C 60.402344 61.910156 61.308594 63.457031 63.179688 63.457031 C 65.046875 63.457031 64.351562 64.257812 66.539062 64.472656 C 68.726562 64.6875 66.539062 61.054688 63.070312 61.429688 Z M 58.480469 66.851562 C 59.230469 67.382812 59.46875 68.292969 58.644531 68.53125 C 57.816406 68.773438 57.121094 68.371094 56.773438 68.691406 C 56.429688 69.011719 55.65625 67.4375 58.480469 66.851562 Z M 61.632812 68.078125 C 62.832031 68.078125 64.058594 68.425781 63.578125 68.933594 C 63.097656 69.441406 61.976562 68.664062 61.097656 69.601562 C 60.214844 70.535156 59.738281 68.265625 61.632812 68.078125 Z M 61.632812 68.078125 "/>
<path style=" stroke:none;fill-rule:evenodd;fill:rgb(81.960785%,67.450982%,35.294119%);fill-opacity:1;" d="M 46.53125 75.636719 C 45.945312 74.78125 43.4375 73.339844 40.128906 72.804688 C 36.820312 72.269531 34.742188 70.589844 35.113281 70.132812 C 35.488281 69.679688 34.6875 70.882812 37.195312 70.988281 C 39.703125 71.097656 41.355469 70.402344 42.691406 71.203125 C 44.023438 72.003906 46.53125 75.636719 46.53125 75.636719 Z M 46.53125 75.636719 "/>
<path style=" stroke:none;fill-rule:evenodd;fill:rgb(81.960785%,67.450982%,35.294119%);fill-opacity:1;" d="M 29.699219 33.097656 C 29.699219 33.097656 28.257812 36.085938 27.882812 37.476562 C 27.511719 38.863281 27.777344 40.144531 28.257812 41.640625 C 28.738281 43.136719 27.242188 43.296875 27.722656 45.859375 C 28.203125 48.425781 28.738281 47.835938 28.683594 49.597656 C 28.632812 51.363281 26.816406 52.375 27.191406 52.804688 C 27.566406 53.230469 27.777344 51.683594 29.378906 51.683594 C 30.980469 51.683594 31.777344 53.390625 31.886719 54.351562 C 31.992188 55.3125 30.605469 57.238281 31.886719 57.449219 C 33.167969 57.664062 32.847656 56.007812 32.898438 53.925781 C 32.953125 51.84375 34.027344 52.398438 31.621094 49.796875 C 29.21875 47.195312 29.113281 47.621094 29.324219 44.363281 C 29.539062 41.105469 30.660156 36.085938 29.699219 33.097656 Z M 29.699219 33.097656 "/>
<path style=" stroke:none;fill-rule:evenodd;fill:rgb(98.039216%,92.54902%,79.607844%);fill-opacity:1;" d="M 45.199219 7.488281 C 45.199219 7.488281 47.230469 8.394531 46.878906 10.105469 C 46.527344 11.8125 43.890625 13.386719 43.464844 15.847656 C 43.035156 18.304688 41.5625 24.066406 39.757812 25.511719 C 37.886719 27.007812 36.714844 27.328125 36.128906 28.503906 C 35.539062 29.679688 35.382812 25.832031 37.300781 24.335938 C 39.222656 22.839844 41.515625 20.066406 41.570312 18.675781 C 41.625 17.289062 42.636719 13.550781 43.222656 12.375 C 43.8125 11.199219 43.542969 10.824219 43.222656 10.183594 C 42.902344 9.542969 44.238281 6.980469 45.199219 7.488281 Z M 84.09375 80.523438 C 83.027344 81.910156 80.574219 83.085938 76.679688 82.445312 C 72.785156 81.804688 70.757812 82.925781 68.941406 82.339844 C 67.128906 81.75 67.929688 79.667969 71.714844 79.988281 C 75.503906 80.308594 78.546875 81.378906 79.71875 80.414062 C 80.894531 79.453125 83.800781 76.289062 84.09375 80.523438 Z M 81.800781 73.257812 C 81.695312 73.578125 80.945312 76.011719 77.089844 75.652344 C 73.234375 75.292969 71.664062 75.371094 68.304688 73.835938 C 64.941406 72.296875 61.472656 72.726562 60.617188 72.882812 C 59.765625 73.042969 58.269531 72.351562 59.660156 71.601562 C 61.042969 70.855469 63.5 70.535156 67.128906 71.441406 C 70.753906 72.351562 71.875 73.738281 74.0625 73.3125 C 76.25 72.882812 78.171875 72.242188 79.453125 72.082031 C 80.734375 71.925781 82.652344 71.976562 81.800781 73.257812 Z M 67.980469 57.074219 C 67.394531 56.410156 62.566406 54.351562 60.566406 55.261719 C 58.5625 56.167969 55.203125 59.132812 52.292969 59.988281 C 49.386719 60.839844 45.519531 58.707031 47.066406 58.25 C 48.613281 57.796875 51.921875 59.210938 53.816406 57.101562 C 55.710938 54.992188 56.9375 53.660156 58.539062 53.125 C 60.136719 52.589844 60.726562 52.136719 62.914062 53.042969 C 65.101562 53.953125 70.574219 52.679688 70.140625 54.351562 C 69.707031 56.027344 69.316406 57.261719 67.980469 57.074219 Z M 55.816406 24.230469 C 54.800781 25.617188 52.453125 26.101562 52.882812 26.792969 C 53.308594 27.488281 56.082031 27.488281 57.308594 25.886719 C 58.539062 24.285156 57.097656 22.734375 55.816406 24.230469 Z M 55.816406 24.230469 "/>
<path style=" stroke:none;fill-rule:evenodd;fill:rgb(41.176471%,53.333336%,22.745098%);fill-opacity:1;" d="M 49.503906 36.597656 C 49.503906 36.597656 49.679688 36.398438 49.46875 37.347656 C 49.261719 38.292969 48.609375 38.75 48.292969 38.726562 C 47.972656 38.699219 47.453125 38.847656 46.304688 38.488281 C 45.152344 38.132812 43.796875 38.371094 43.796875 38.371094 C 43.796875 38.371094 45.472656 37.136719 46.519531 36.765625 C 47.566406 36.394531 48.679688 35.488281 48.679688 35.488281 L 48.496094 36.4375 Z M 49.503906 36.597656 "/>
<path style=" stroke:none;fill-rule:evenodd;fill:rgb(41.176471%,53.333336%,22.745098%);fill-opacity:1;" d="M 40.664062 38.394531 C 41.011719 39.089844 41.617188 41.226562 41.472656 41.027344 C 41.328125 40.832031 39.964844 39.785156 39.910156 40.476562 C 39.855469 41.171875 39.40625 41.804688 39.40625 41.804688 C 39.40625 41.804688 38.511719 42.269531 38.660156 42.09375 C 38.808594 41.917969 38.753906 40.898438 38.753906 40.898438 L 38.21875 41.257812 C 38.21875 41.257812 39.261719 38.550781 39.230469 38.226562 C 39.203125 37.90625 40.664062 38.394531 40.664062 38.394531 Z M 40.664062 38.394531 "/>
<path style=" stroke:none;fill-rule:evenodd;fill:rgb(41.176471%,53.333336%,22.745098%);fill-opacity:1;" d="M 47.027344 32.976562 L 45.195312 33.5 L 45.527344 32.667969 C 45.527344 32.667969 45.011719 32.617188 44.835938 32.640625 C 44.660156 32.667969 45.042969 31.882812 45.277344 31.792969 C 45.511719 31.703125 46.273438 31.683594 46.246094 31.535156 C 46.21875 31.382812 45.949219 30.519531 46.191406 30.859375 C 46.433594 31.199219 46.542969 32.027344 46.9375 32.257812 C 47.335938 32.492188 47.027344 32.976562 47.027344 32.976562 Z M 47.027344 32.976562 "/>
<path style=" stroke:none;fill-rule:evenodd;fill:rgb(41.176471%,53.333336%,22.745098%);fill-opacity:1;" d="M 54.148438 43.753906 C 54.1875 43.917969 54.089844 44.277344 54.042969 44.234375 C 53.992188 44.191406 53.621094 43.992188 53.742188 44.285156 C 53.859375 44.574219 53.835938 44.789062 53.964844 44.929688 C 54.097656 45.074219 54.550781 44.816406 54.085938 45.089844 C 53.625 45.359375 53.476562 45.636719 53.128906 46.132812 C 52.773438 46.625 52.136719 46.601562 52.050781 46.550781 C 51.964844 46.496094 51.382812 46.039062 51.382812 46.039062 C 51.382812 46.039062 51.789062 45.699219 52.339844 45.78125 C 52.644531 45.847656 51.277344 44.734375 51.277344 44.734375 L 51.386719 44.609375 C 51.386719 44.609375 50.910156 43.960938 50.882812 43.8125 C 50.855469 43.664062 51.683594 43.914062 51.683594 43.914062 C 51.683594 43.914062 51.515625 43.488281 51.664062 43.570312 C 51.808594 43.65625 52.460938 44.152344 52.484375 44.09375 C 52.511719 44.035156 52.585938 43.230469 52.582031 43.277344 C 52.578125 43.324219 52.082031 44.046875 52.175781 43.523438 C 52.269531 43.003906 52.246094 42.019531 52.535156 42.101562 C 52.824219 42.183594 54.148438 43.753906 54.148438 43.753906 Z M 54.148438 43.753906 "/>
<path style=" stroke:none;fill-rule:evenodd;fill:rgb(41.176471%,53.333336%,22.745098%);fill-opacity:1;" d="M 55.261719 57.496094 C 55.261719 57.496094 55.914062 56.339844 56.457031 55.875 C 57.003906 55.410156 57.050781 54.984375 57.050781 54.984375 L 56.679688 55.101562 L 56.835938 54.324219 L 55.964844 54.644531 L 56.019531 53.992188 L 55.304688 54.886719 C 55.304688 54.886719 55.242188 53.652344 55.152344 53.5625 C 55.066406 53.476562 54.308594 54.449219 54.667969 55.839844 C 55.027344 57.238281 55.261719 57.496094 55.261719 57.496094 Z M 55.261719 57.496094 "/>
<path style=" stroke:none;fill-rule:evenodd;fill:rgb(41.176471%,53.333336%,22.745098%);fill-opacity:1;" d="M 61.308594 54.929688 C 61.308594 54.929688 60.546875 54.9375 59.964844 54.304688 C 59.386719 53.667969 59.441406 53.671875 59.441406 53.671875 L 58.957031 55.296875 C 58.957031 55.296875 58.503906 55.59375 58.144531 54.195312 C 57.789062 52.792969 57.933594 52.871094 57.933594 52.871094 L 60.066406 52.496094 C 60.066406 52.496094 60.160156 53.152344 60.765625 53.628906 C 61.371094 54.105469 61.722656 54.242188 61.722656 54.242188 L 60.953125 54.410156 Z M 61.308594 54.929688 "/>
<path style=" stroke:none;fill-rule:evenodd;fill:rgb(41.176471%,53.333336%,22.745098%);fill-opacity:1;" d="M 60.601562 63.394531 L 60.128906 63.644531 C 60.128906 63.644531 59.394531 61.960938 58.601562 61.160156 C 57.808594 60.363281 57.710938 60.347656 57.710938 60.347656 L 58.054688 60.027344 C 58.054688 60.027344 59.691406 60.242188 60.601562 63.394531 Z M 60.601562 63.394531 "/>
<path style=" stroke:none;fill-rule:evenodd;fill:rgb(41.176471%,53.333336%,22.745098%);fill-opacity:1;" d="M 63.941406 68.128906 C 63.941406 68.128906 63.472656 67.410156 63.527344 66.53125 C 63.582031 65.652344 63.671875 65.605469 63.671875 65.605469 C 63.671875 65.605469 62.867188 65.378906 61.863281 65.917969 C 60.855469 66.453125 60.652344 66.757812 60.746094 66.734375 C 60.84375 66.707031 61.617188 66.660156 61.617188 66.660156 C 61.617188 66.660156 60.867188 67.253906 60.953125 67.257812 C 61.039062 67.265625 63.199219 67.128906 63.199219 67.128906 C 63.199219 67.128906 61.265625 68.320312 61.863281 68.355469 C 62.464844 68.386719 63.519531 68.050781 63.523438 68.125 C 63.523438 68.199219 63.503906 68.625 63.503906 68.625 C 63.503906 68.625 63.796875 68.632812 63.941406 68.128906 Z M 63.941406 68.128906 "/>
<path style=" stroke:none;fill-rule:evenodd;fill:rgb(41.176471%,53.333336%,22.745098%);fill-opacity:1;" d="M 56.410156 32.507812 C 56.355469 32.664062 55.101562 33.316406 55.101562 33.316406 C 55.101562 33.316406 52.015625 32.042969 52.535156 32.058594 C 53.058594 32.070312 53.285156 32.0625 53.285156 32.0625 C 53.285156 32.0625 52.261719 31.472656 52.582031 31.285156 C 52.90625 31.09375 53.339844 30.996094 53.339844 30.996094 L 52.546875 30.0625 L 53.722656 29.914062 L 53.90625 28.574219 C 53.90625 28.574219 54.6875 31.769531 56.410156 32.507812 Z M 56.410156 32.507812 "/>
<path style=" stroke:none;fill-rule:evenodd;fill:rgb(41.176471%,53.333336%,22.745098%);fill-opacity:1;" d="M 73.0625 62.339844 C 73.0625 62.339844 72.300781 62.347656 71.71875 61.710938 C 71.140625 61.078125 71.195312 61.082031 71.195312 61.082031 L 70.710938 62.703125 C 70.710938 62.703125 70.257812 63.003906 69.898438 61.601562 C 69.539062 60.199219 69.6875 60.28125 69.6875 60.28125 L 71.820312 59.90625 C 71.820312 59.90625 71.914062 60.5625 72.519531 61.039062 C 73.125 61.515625 73.472656 61.648438 73.472656 61.648438 L 72.707031 61.816406 Z M 73.0625 62.339844 "/>
<path style=" stroke:none;fill-rule:evenodd;fill:rgb(41.176471%,53.333336%,22.745098%);fill-opacity:1;" d="M 42.039062 43.761719 L 42.226562 44.265625 C 42.226562 44.265625 40.460938 44.765625 39.5625 45.449219 C 38.667969 46.128906 38.640625 46.226562 38.640625 46.226562 L 38.367188 45.839844 C 38.367188 45.839844 38.800781 44.246094 42.039062 43.761719 Z M 42.039062 43.761719 "/>
<path style=" stroke:none;fill-rule:evenodd;fill:rgb(41.176471%,53.333336%,22.745098%);fill-opacity:1;" d="M 52.714844 63.691406 C 52.839844 63.800781 52.925781 65.214844 52.925781 65.214844 C 52.925781 65.214844 50.511719 67.519531 50.734375 67.050781 C 50.960938 66.578125 51.042969 66.367188 51.042969 66.367188 C 51.042969 66.367188 50.089844 67.0625 50.046875 66.691406 C 50.007812 66.320312 50.089844 65.882812 50.089844 65.882812 L 48.917969 66.230469 L 49.257812 65.097656 L 48.109375 64.382812 C 48.109375 64.382812 51.34375 64.964844 52.714844 63.6875 Z M 52.714844 63.691406 "/>
<path style=" stroke:none;fill-rule:evenodd;fill:rgb(85.882354%,72.549021%,43.921569%);fill-opacity:1;" d="M 65.015625 37.238281 C 65.015625 37.238281 62.828125 38.625 65.683594 41.375 C 68.539062 44.128906 70.859375 46.769531 71.257812 47.8125 C 71.660156 48.851562 71.152344 50.054688 70.644531 49.46875 C 70.136719 48.878906 70.804688 47.332031 68.566406 45.621094 C 66.324219 43.914062 68.03125 41.589844 64.082031 42.203125 C 60.132812 42.820312 58.214844 43.351562 59.789062 42.496094 C 61.363281 41.644531 64.375 41.9375 63.710938 40.496094 C 63.042969 39.054688 63.230469 38.226562 63.308594 37.585938 C 63.390625 36.945312 63.253906 36.195312 62.695312 35.503906 C 62.136719 34.808594 61.894531 32.324219 63.203125 34.460938 C 64.507812 36.597656 65.84375 34.96875 66.296875 36.808594 C 66.75 38.652344 67.949219 40.496094 65.015625 37.238281 Z M 65.015625 37.238281 "/>
<path style=" stroke:none;fill-rule:evenodd;fill:rgb(71.372551%,30.980393%,19.215687%);fill-opacity:1;" d="M 44.890625 76.050781 C 45.371094 76.265625 46.066406 77.121094 46.039062 77.359375 C 46.011719 77.601562 45.238281 78 44.835938 77.734375 C 44.4375 77.464844 43.664062 76.132812 44.890625 76.050781 Z M 26.910156 41.738281 C 26.351562 41.738281 25.042969 40.910156 25.921875 42.085938 C 26.804688 43.257812 26.457031 44.328125 26.964844 43.417969 C 27.46875 42.511719 26.910156 41.738281 26.910156 41.738281 Z M 26.402344 44.300781 C 25.628906 44.648438 25.097656 44.140625 25.070312 45.449219 C 25.042969 46.757812 23.816406 45.609375 24.75 46.945312 C 25.683594 48.277344 27.523438 46.515625 26.402344 44.300781 Z M 33.765625 61.738281 C 33.953125 62.21875 35.632812 63.847656 34.886719 64.726562 C 34.140625 65.609375 34.058594 66.332031 33.710938 65.128906 C 33.367188 63.929688 32.753906 64.113281 32.484375 63.632812 C 32.21875 63.152344 33.019531 61.070312 33.765625 61.738281 Z M 33.765625 61.738281 "/>
<path style=" stroke:none;fill-rule:evenodd;fill:rgb(97.647059%,85.882354%,60.000002%);fill-opacity:1;" d="M 30.140625 6.140625 C 30.140625 6.140625 34.914062 10.167969 35.152344 10.789062 C 35.394531 11.402344 33.019531 10.894531 31.632812 12.523438 C 30.246094 14.152344 29.820312 14.605469 28.859375 15.433594 C 27.898438 16.261719 28.566406 15.21875 26.882812 17.328125 C 25.203125 19.4375 25.285156 19.8125 24.511719 20.425781 C 23.738281 21.042969 23.285156 19.652344 24.671875 18.15625 C 26.058594 16.660156 26.003906 16.316406 26.722656 14.445312 C 27.445312 12.574219 27.738281 12.601562 28.832031 10.464844 C 29.925781 8.332031 30.085938 7.929688 29.632812 7.183594 C 29.179688 6.433594 30.140625 6.140625 30.140625 6.140625 Z M 25.203125 3.308594 C 25.417969 3.738281 26.589844 4.859375 24.617188 6.914062 C 22.644531 8.972656 21.976562 9.476562 20.988281 12.921875 C 20.003906 16.367188 19.65625 18.476562 18.910156 19.144531 C 18.160156 19.8125 19.199219 16.742188 19.734375 15.035156 C 20.269531 13.324219 20.054688 10.921875 21.148438 8.945312 C 22.242188 6.96875 22.644531 6.539062 22.855469 5.394531 C 23.070312 4.246094 24.378906 2.988281 25.203125 3.308594 Z M 25.203125 3.308594 "/>
<path style=" stroke:none;fill-rule:evenodd;fill:rgb(49.019608%,15.294118%,9.411765%);fill-opacity:1;" d="M 29.5 11.535156 C 29.820312 12.496094 30.351562 13.109375 29.367188 13.9375 C 28.378906 14.765625 29.046875 15.746094 28.300781 16.128906 C 27.550781 16.507812 24.730469 15.886719 25.699219 14.898438 C 26.671875 13.910156 28.324219 12.28125 28.914062 11.910156 C 29.5 11.535156 29.394531 11.367188 29.5 11.535156 Z M 13.226562 47.726562 C 13.386719 47.726562 13.414062 47.832031 13.867188 48.578125 C 14.320312 49.328125 15.082031 48.78125 14.667969 49.621094 C 14.253906 50.460938 12.691406 50.410156 12.652344 49.792969 C 12.613281 49.179688 12.613281 47.058594 13.226562 47.726562 Z M 18.703125 55.617188 C 19.046875 55.9375 19.582031 58.394531 18.933594 58.925781 C 18.082031 59.460938 18.703125 55.617188 18.703125 55.617188 Z M 12.824219 31.835938 C 13.679688 32.425781 14.265625 31.890625 14.265625 31.890625 C 14.265625 31.890625 14.371094 36.535156 13.039062 35.628906 C 11.707031 34.71875 11.8125 31.636719 12.824219 31.835938 Z M 19.65625 29.324219 C 19.476562 31.621094 19.398438 33.492188 18.109375 33.867188 C 17.09375 34.238281 18.214844 28.792969 19.65625 29.324219 Z M 21.394531 16.015625 C 21.449219 17.296875 21.609375 17.667969 20.433594 19.324219 C 19.261719 20.980469 19.367188 18.472656 20.167969 17.082031 C 20.96875 15.695312 21.394531 16.015625 21.394531 16.015625 Z M 21.730469 14.878906 C 22.070312 14.941406 22.664062 15.007812 22.484375 15.359375 C 22.304688 15.714844 21.910156 15.695312 21.808594 15.566406 C 21.710938 15.441406 20.703125 14.824219 21.730469 14.878906 Z M 21.730469 14.878906 "/>
<path style=" stroke:none;fill-rule:evenodd;fill:rgb(49.019608%,15.294118%,9.411765%);fill-opacity:1;" d="M 85.175781 65.015625 C 85.175781 65.015625 87.949219 65.441406 88.003906 67.847656 C 88.058594 70.25 88.484375 69.554688 86.511719 69.234375 C 84.535156 68.914062 83.898438 64.757812 85.175781 65.015625 Z M 88.378906 71.050781 C 89.125 71.425781 89.605469 72.707031 88.058594 72.917969 C 86.511719 73.132812 83.414062 70.195312 88.378906 71.050781 Z M 88.378906 71.050781 "/>
<path style=" stroke:none;fill-rule:evenodd;fill:rgb(92.54902%,91.37255%,95.686275%);fill-opacity:1;" d="M 85.605469 40.714844 C 85.605469 40.714844 83.738281 42.425781 81.496094 43.277344 C 79.253906 44.132812 77.066406 45.308594 76.320312 45.574219 C 75.574219 45.84375 74.078125 46.804688 74.078125 46.804688 L 74.878906 48.140625 C 74.878906 48.140625 75.628906 46.695312 77.492188 46.003906 C 79.363281 45.308594 82.027344 44.1875 83.417969 43.171875 C 84.804688 42.15625 85.605469 40.714844 85.605469 40.714844 Z M 85.605469 40.714844 "/>
<path style=" stroke:none;fill-rule:evenodd;fill:rgb(92.54902%,91.37255%,95.686275%);fill-opacity:1;" d="M 21.683594 71.371094 C 21.683594 71.371094 20.296875 72.546875 18.164062 72.652344 C 16.027344 72.761719 14.378906 74.078125 14.378906 74.078125 L 15.066406 75.972656 C 15.066406 75.972656 16.828125 74.257812 17.683594 74.015625 C 18.535156 73.773438 19.070312 74.121094 19.976562 73.746094 C 20.882812 73.375 21.683594 71.371094 21.683594 71.371094 Z M 21.683594 71.371094 "/>
<path style=" stroke:none;fill-rule:evenodd;fill:rgb(92.54902%,91.37255%,95.686275%);fill-opacity:1;" d="M 16.429688 17.882812 C 16.429688 17.882812 15.414062 21.25 11.628906 24.132812 C 7.839844 27.015625 6.292969 29.792969 6.292969 30.433594 C 6.292969 31.074219 5.597656 26.324219 5.066406 24.878906 C 4.53125 23.4375 2.558594 21.140625 2.558594 21.140625 C 2.558594 21.140625 5.757812 23.011719 9.8125 21.195312 C 13.867188 19.378906 16.429688 17.882812 16.429688 17.882812 Z M 16.429688 17.882812 "/>
<path style=" stroke:none;fill-rule:evenodd;fill:rgb(87.450981%,85.490197%,92.941177%);fill-opacity:1;" d="M 25.1875 98.464844 C 22.582031 99.394531 20.9375 99.996094 20.9375 99.996094 C 20.9375 99.996094 20.445312 96.523438 19.359375 91.484375 C 21.191406 93.683594 23.195312 96.085938 25.1875 98.464844 Z M 25.1875 98.464844 "/>
<path style=" stroke:none;fill-rule:evenodd;fill:rgb(85.490197%,82.745099%,91.37255%);fill-opacity:1;" d="M 20.878906 99.609375 C 20.722656 98.574219 20.234375 95.535156 19.359375 91.484375 C 20.640625 93.023438 22.007812 94.664062 23.394531 96.324219 Z M 20.878906 99.609375 "/>
<path style=" stroke:none;fill-rule:evenodd;fill:rgb(31.37255%,10.196079%,7.450981%);fill-opacity:1;" d="M 67.007812 50.214844 C 67.007812 50.214844 68.292969 50.183594 67.628906 51.519531 C 66.964844 52.855469 65.945312 52.679688 65.335938 52.535156 C 64.726562 52.390625 64.878906 52.082031 63.726562 52.308594 C 62.574219 52.535156 61.878906 50.90625 63.242188 51.023438 C 64.609375 51.140625 66.613281 48.230469 67.007812 50.214844 Z M 67.007812 50.214844 "/>
<path style=" stroke:none;fill-rule:evenodd;fill:rgb(31.37255%,10.196079%,7.450981%);fill-opacity:1;" d="M 72.871094 67.648438 C 72.871094 67.648438 73.214844 68.523438 72.871094 69.308594 C 72.527344 70.089844 71.894531 69.921875 70.496094 70.503906 C 69.835938 71.082031 69.195312 68.144531 72.871094 67.648438 Z M 46.078125 19.667969 C 46.25 19.714844 47.445312 20.464844 47.109375 21.867188 C 46.777344 23.273438 45.601562 23.769531 44.785156 23.480469 C 43.972656 23.1875 44.625 22.53125 45.105469 21.527344 C 45.585938 20.523438 44.539062 19.210938 46.078125 19.667969 Z M 50.683594 49.933594 C 50.308594 49.933594 47.800781 50.5 46.863281 49.710938 C 45.925781 48.925781 44.4375 49.0625 45.367188 49.875 C 46.296875 50.691406 47.605469 50.953125 49.175781 52.378906 C 50.742188 53.804688 50.917969 53.191406 51.46875 51.941406 C 52.023438 50.691406 53.824219 49.527344 50.683594 49.933594 Z M 68.09375 64.214844 C 68.035156 64.710938 66.640625 65.378906 66.085938 65.089844 C 65.535156 64.800781 64.574219 65.058594 64.429688 64.449219 C 64.285156 63.839844 62.917969 63.429688 64.167969 63.257812 C 65.417969 63.082031 65.765625 63.539062 65.882812 62.820312 C 66.003906 62.101562 67.773438 62.179688 68.09375 64.214844 Z M 68.09375 64.214844 "/>
</g>
</svg>
