<svg xmlns="http://www.w3.org/2000/svg" xmlns:xlink="http://www.w3.org/1999/xlink" width="500" zoomAndPan="magnify" viewBox="0 0 375 374.999991" height="500" preserveAspectRatio="xMidYMid meet" version="1.0"><path fill="#f5f2f9" d="M 0.0820312 76.976562 C 0.0820312 76.976562 45.78125 62.667969 74.007812 56.375 C 102.230469 50.078125 223.371094 24.90625 236.976562 15.289062 C 250.582031 5.675781 256.984375 3.273438 256.984375 3.273438 C 256.984375 3.273438 305.003906 82.585938 320.210938 133.054688 C 335.417969 183.523438 371.917969 275.652344 371.917969 275.652344 C 371.917969 275.652344 357.371094 287.878906 297.308594 302.464844 C 237.242188 317.050781 192.960938 336.539062 155.34375 348.554688 C 117.730469 360.570312 78.515625 374.992188 78.515625 374.992188 C 78.515625 374.992188 68.910156 306.898438 44.902344 256.425781 C 20.890625 205.957031 19.289062 110.625 0.0820312 76.976562 Z M 0.0820312 76.976562 " fill-opacity="1" fill-rule="evenodd"/><path fill="#ece9f4" d="M 78.296875 373.535156 C 77.570312 368.765625 74.976562 352.675781 70.128906 332.15625 L 77.816406 339.644531 C 79.816406 339.644531 91.625 343.648438 111.230469 335.238281 C 130.839844 326.828125 149.324219 320.183594 149.324219 320.183594 L 175.257812 328.429688 C 175.257812 328.429688 160.652344 327.628906 141.84375 333.4375 C 123.035156 339.246094 112.832031 344.050781 106.230469 346.054688 C 99.625 348.058594 89.222656 359.273438 89.222656 359.273438 Z M 78.296875 373.535156 " fill-opacity="1" fill-rule="evenodd"/><path fill="#ece9f4" d="M 229.03125 18.917969 C 232.769531 17.554688 235.503906 16.332031 236.976562 15.289062 C 238.3125 14.347656 239.574219 13.476562 240.769531 12.667969 L 243.582031 17.695312 C 243.582031 17.695312 247.382812 25.90625 259.789062 43.933594 C 272.191406 61.957031 270.792969 80.984375 280.996094 100.8125 C 291.199219 120.640625 296.203125 128.851562 296.203125 128.851562 C 296.203125 128.851562 281.394531 112.628906 275.195312 98.609375 C 268.992188 84.589844 266.390625 66.363281 261.390625 57.75 C 256.386719 49.136719 235.578125 25.90625 233.378906 23.902344 C 232.425781 23.039062 230.695312 20.980469 229.03125 18.917969 Z M 229.03125 18.917969 " fill-opacity="1" fill-rule="evenodd"/><path fill="#e4e2f0" d="M 76.699219 55.777344 C 97.441406 51.210938 151.671875 39.769531 191.605469 29.667969 C 201.503906 42.332031 221.636719 68.949219 233.378906 90.394531 C 249.382812 119.636719 269.390625 164.097656 282.195312 177.71875 C 295 191.335938 324.613281 226.585938 335.417969 234.597656 C 346.1875 242.582031 371 277.886719 356.886719 283.695312 L 356.726562 283.765625 C 342.308594 289.394531 319.410156 293.878906 319.410156 293.878906 C 319.410156 293.878906 315.6875 295.992188 309.832031 299.285156 C 305.894531 300.328125 301.726562 301.390625 297.308594 302.464844 C 253.753906 313.039062 218.5 326.191406 188.070312 337.207031 C 182.519531 335.515625 176.441406 333.265625 169.75 330.332031 C 130.535156 313.105469 125.335938 300.6875 115.332031 292.277344 C 105.328125 283.867188 82.917969 286.667969 58.507812 245.410156 C 34.097656 204.15625 29.695312 156.488281 34.496094 137.664062 C 39.300781 118.835938 71.59375 72.03125 76.699219 55.777344 Z M 76.699219 55.777344 " fill-opacity="1" fill-rule="evenodd"/><path fill="#e8c26e" d="M 102.414062 6.003906 C 102.414062 6.003906 199.21875 107.328125 227.210938 138.332031 C 255.207031 169.335938 359.917969 259.355469 351.117188 268.96875 C 342.3125 278.585938 347.515625 285.652344 297.695312 293.734375 C 247.875 301.816406 166.242188 313.832031 103.816406 277.78125 C 41.390625 241.730469 31.785156 140.792969 46.191406 114.355469 C 60.597656 87.917969 72.601562 63.882812 75.003906 47.0625 C 77.402344 30.238281 85.609375 -0.00390625 102.414062 6.003906 Z M 102.414062 6.003906 " fill-opacity="1" fill-rule="evenodd"/><path fill="#99732b" d="M 134.210938 39.375 L 139.734375 45.183594 L 167.910156 299.3125 C 145.695312 295.914062 123.78125 289.308594 103.824219 277.789062 C 94.6875 258.265625 86.980469 235.976562 80.507812 227.011719 C 70.105469 212.589844 70.90625 180.546875 70.90625 157.714844 C 70.90625 134.882812 76.105469 106.042969 98.917969 80.007812 C 114.824219 61.851562 127.804688 46.8125 134.210938 39.375 Z M 134.210938 39.375 " fill-opacity="1" fill-rule="evenodd"/><path fill="#f9db99" d="M 285.003906 194.511719 C 320.507812 228.191406 356.417969 263.179688 351.117188 268.96875 C 345.609375 274.984375 345.582031 280 334.148438 284.890625 C 331.128906 284.117188 328.785156 283.542969 327.808594 283.890625 C 325.007812 284.890625 328.207031 279.085938 328.207031 279.085938 C 333.808594 275.078125 338.410156 269.671875 336.011719 265.664062 C 333.609375 261.660156 314.601562 245.238281 314.203125 241.832031 C 313.800781 238.425781 306.398438 238.425781 304.199219 233.21875 C 301.996094 228.011719 303.597656 229.214844 297.796875 218.398438 C 291.992188 207.585938 287.96875 202.433594 286.589844 198.570312 C 286.148438 197.328125 285.574219 195.890625 285.003906 194.511719 Z M 285.003906 194.511719 " fill-opacity="1" fill-rule="evenodd"/><path fill="#d1ac5a" d="M 99.613281 9.808594 C 99.613281 9.808594 109.617188 27.03125 94.011719 52.667969 C 78.40625 78.304688 62.796875 107.546875 56.394531 125.570312 C 49.992188 143.59375 51.195312 162.421875 53.996094 181.648438 C 56.796875 200.875 64.398438 222.503906 71.203125 234.121094 C 78.003906 245.738281 83.605469 254.550781 91.609375 262.5625 C 94.253906 265.210938 97.292969 267.59375 100.179688 269.601562 L 98.148438 264.878906 C 94.367188 261.402344 90.695312 257.773438 88.609375 255.050781 C 83.007812 247.742188 72 232.519531 68.902344 222.90625 C 65.800781 213.292969 59.296875 181.546875 58.695312 166.328125 C 58.097656 151.105469 58.496094 141.894531 58.496094 141.894531 C 58.496094 141.894531 67.101562 109.648438 79.503906 88.820312 C 91.910156 67.992188 100.914062 43.757812 106.316406 37.148438 C 111.71875 30.539062 105.714844 5.304688 99.613281 9.808594 Z M 99.613281 9.808594 " fill-opacity="1" fill-rule="evenodd"/><path fill="#f9db99" d="M 171.488281 21.367188 C 171.1875 20.46875 168.6875 14.558594 166.386719 15.058594 C 164.085938 15.558594 153.28125 22.371094 144.976562 31.382812 C 136.675781 40.394531 115.667969 54.214844 104.460938 80.25 C 93.257812 106.285156 84.453125 129.519531 81.253906 142.738281 C 78.050781 155.957031 83.652344 250.886719 119.667969 280.128906 C 155.683594 309.367188 161.285156 328.996094 232.113281 336.207031 C 302.941406 343.417969 327.738281 324.9375 328.019531 317.046875 C 328.300781 309.160156 282.933594 255.292969 282.933594 255.292969 Z M 171.488281 21.367188 " fill-opacity="1" fill-rule="evenodd"/><path fill="#b4872d" d="M 117.242188 59.082031 C 112.480469 65.082031 107.984375 72.0625 104.460938 80.25 C 93.257812 106.285156 84.453125 129.519531 81.253906 142.738281 C 78.050781 155.957031 83.652344 250.886719 119.667969 280.128906 C 155.683594 309.371094 161.285156 328.996094 232.113281 336.207031 C 237.148438 336.71875 241.945312 337.097656 246.523438 337.363281 C 236.660156 333.34375 225.167969 329.4375 216.109375 327.292969 C 194.101562 322.085938 179.085938 324.800781 163.289062 306.0625 C 147.492188 287.328125 127.675781 273.21875 121.273438 264.808594 C 114.871094 256.394531 119.269531 252.390625 108.867188 240.371094 C 98.460938 228.355469 103.664062 229.15625 93.261719 196.3125 C 82.855469 163.464844 88.058594 164.265625 88.859375 139.433594 C 89.660156 114.597656 100.863281 101.78125 109.265625 78.546875 C 111.703125 71.8125 114.445312 65.175781 117.242188 59.082031 Z M 117.242188 59.082031 " fill-opacity="1" fill-rule="evenodd"/><path fill="#d1ac5a" d="M 171.488281 21.367188 C 171.1875 20.46875 168.6875 14.558594 166.386719 15.058594 C 165.222656 15.3125 161.882812 17.179688 157.792969 20.128906 C 148.210938 34.769531 134.699219 56.386719 131.671875 66.230469 C 126.871094 81.851562 120.066406 85.058594 114.464844 101.878906 C 108.863281 118.703125 106.460938 125.914062 108.0625 148.34375 C 109.664062 170.777344 116.464844 172.777344 120.867188 196.8125 C 125.269531 220.84375 137.273438 248.085938 154.480469 264.507812 C 171.6875 280.929688 178.089844 293.546875 188.292969 300.355469 C 198.5 307.164062 236.714844 315.578125 257.523438 323.988281 C 267.628906 328.074219 274.714844 333.199219 283.042969 336.839844 C 315.359375 333.496094 327.820312 322.625 328.019531 317.046875 C 328.300781 309.160156 282.933594 255.292969 282.933594 255.292969 Z M 171.488281 21.367188 " fill-opacity="1" fill-rule="evenodd"/><path fill="#b4872d" d="M 171.488281 21.367188 C 171.1875 20.46875 168.6875 14.558594 166.386719 15.058594 C 165.652344 15.21875 164.050781 16.019531 161.941406 17.332031 C 153.207031 29.113281 137.667969 62.632812 135.464844 70.042969 C 133.265625 77.453125 116.457031 115.707031 112.761719 133.117188 C 109.066406 150.53125 128.671875 179.789062 128.261719 188.609375 C 127.855469 197.429688 123.375 202.21875 136.664062 214.644531 C 149.957031 227.070312 142.667969 234.273438 153.472656 248.691406 C 164.277344 263.113281 170.507812 280.195312 204.292969 301.96875 C 238.078125 323.742188 265.128906 312.375 282.722656 324.796875 C 289.398438 329.511719 294.636719 332.320312 299.355469 334.207031 C 319.648438 329.558594 327.859375 321.566406 328.019531 317.046875 C 328.300781 309.160156 282.933594 255.292969 282.933594 255.292969 Z M 171.488281 21.367188 " fill-opacity="1" fill-rule="evenodd"/><path fill="#f9db99" d="M 168.285156 15.359375 C 168.285156 15.359375 176.289062 15.761719 197.898438 47.804688 C 219.507812 79.847656 224.710938 95.871094 241.117188 117.902344 C 257.523438 139.933594 277.53125 185.195312 279.132812 190.402344 C 280.730469 195.609375 319.949219 287.738281 324.75 297.953125 C 329.550781 308.167969 329.953125 318.382812 325.550781 319.785156 C 321.148438 321.183594 293.136719 312.375 265.125 312.375 C 237.117188 312.375 225.109375 311.171875 189.894531 284.734375 C 154.683594 258.296875 142.277344 217.441406 128.671875 179.789062 C 115.066406 142.136719 117.066406 134.925781 123.46875 110.089844 C 129.871094 85.257812 163.484375 15.558594 168.285156 15.359375 Z M 168.285156 15.359375 " fill-opacity="1" fill-rule="evenodd"/><path fill="#dbb970" d="M 174.6875 43.601562 C 174.6875 43.601562 170.6875 56.816406 165.484375 70.835938 C 160.28125 84.855469 161.882812 92.066406 149.480469 102.082031 C 137.074219 112.09375 132.671875 118.90625 131.472656 135.328125 C 130.269531 151.75 130.671875 162.964844 132.273438 160.5625 C 133.871094 158.160156 135.875 137.730469 144.277344 136.527344 C 152.679688 135.328125 145.476562 154.953125 151.078125 148.546875 C 156.683594 142.136719 148.679688 130.921875 148.679688 121.707031 C 148.679688 112.496094 153.480469 110.890625 157.882812 106.488281 C 162.285156 102.082031 165.484375 96.074219 165.886719 90.0625 C 166.285156 84.054688 164.285156 78.046875 171.089844 69.234375 C 177.890625 60.421875 190.296875 56.015625 191.097656 50.40625 C 191.894531 44.800781 188.695312 32.582031 187.894531 39.394531 C 187.09375 46.203125 189.921875 47.574219 185.507812 50.792969 C 181.09375 54.011719 174.488281 60.824219 175.289062 54.8125 C 176.089844 48.804688 181.089844 41.519531 179.503906 38.195312 C 177.921875 34.867188 174.6875 43.597656 174.6875 43.597656 Z M 230.914062 271.917969 C 250.121094 269.511719 255.585938 281.132812 281.332031 283.132812 C 307.078125 285.132812 328.339844 285.089844 312.4375 292.125 C 296.539062 299.15625 260.925781 283.132812 252.921875 285.535156 C 244.917969 287.9375 241.714844 290.742188 240.515625 295.148438 C 239.316406 299.554688 236.113281 287.9375 234.511719 282.332031 C 232.914062 276.722656 212.90625 281.929688 216.507812 275.921875 C 220.109375 269.914062 230.914062 271.917969 230.914062 271.917969 Z M 153.28125 211.03125 C 153.28125 211.03125 171.6875 243.878906 194.097656 229.457031 C 216.507812 215.039062 229.3125 208.628906 229.3125 208.628906 L 258.125 217.441406 C 258.125 217.441406 238.113281 213.433594 226.109375 225.453125 C 214.105469 237.46875 188.496094 242.273438 192.496094 252.691406 C 196.5 263.105469 163.578125 257.335938 153.28125 211.03125 Z M 165.285156 121.308594 C 171.6875 120.507812 180.890625 120.90625 186.09375 105.285156 C 191.296875 89.664062 200.5 83.65625 199.300781 88.460938 C 198.097656 93.269531 188.496094 107.6875 193.296875 108.890625 C 198.097656 110.089844 214.375 97.871094 211.039062 104.382812 C 207.703125 110.890625 204.101562 121.308594 192.097656 121.308594 C 180.089844 121.308594 185.292969 122.109375 173.289062 124.109375 C 161.285156 126.113281 157.28125 122.109375 165.285156 121.308594 Z M 165.285156 121.308594 " fill-opacity="1" fill-rule="evenodd"/><path fill="#94321f" d="M 196.703125 255.894531 C 196.703125 255.894531 187.898438 257.09375 190.097656 262.703125 C 192.300781 268.308594 193.699219 263.90625 196.902344 264.304688 C 200.101562 264.707031 203.105469 256.292969 196.703125 255.894531 Z M 292.984375 239.078125 C 295.136719 241.480469 298.1875 243.234375 295.433594 244.085938 C 292.683594 244.9375 293.335938 243.433594 292.285156 242.183594 C 291.234375 240.933594 291.582031 238.328125 292.984375 239.078125 Z M 282.429688 232.621094 C 282.429688 232.621094 286.632812 234.824219 287.980469 238.730469 C 289.332031 242.632812 287.132812 239.578125 285.429688 241.78125 C 283.730469 243.984375 279.78125 243.636719 280.78125 239.980469 C 281.78125 236.324219 278.679688 232.117188 282.429688 232.621094 Z M 271.8125 256.359375 C 269.710938 257.5625 276.316406 262.371094 267.8125 263.671875 C 259.308594 264.972656 255.808594 268.980469 255.40625 262.871094 C 255.007812 256.761719 267.113281 244.34375 271.8125 256.359375 Z M 295.722656 256.160156 C 294.324219 254.558594 283.617188 247.449219 283.917969 253.15625 C 284.21875 258.867188 281.820312 258.964844 278.816406 259.566406 C 275.816406 260.167969 272.414062 261.769531 277.015625 264.273438 C 281.617188 266.777344 283.117188 267.476562 288.519531 267.375 C 293.921875 267.277344 301.625 263.171875 295.722656 256.160156 Z M 171.699219 71.636719 C 175.097656 76.042969 180.3125 82.453125 173.097656 86.257812 C 165.886719 90.0625 162.246094 87.4375 164.296875 83.253906 C 166.34375 79.070312 158.980469 76.023438 164.679688 73.101562 C 170.382812 70.183594 171.699219 71.636719 171.699219 71.636719 Z M 247.722656 174.28125 C 247.722656 174.28125 258.527344 193.90625 248.523438 195.910156 C 238.519531 197.914062 235.71875 187.097656 231.316406 191.105469 C 226.914062 195.109375 205.707031 187.5 219.308594 183.492188 C 232.914062 179.488281 240.519531 188.300781 240.519531 181.492188 C 240.519531 174.679688 240.59375 166.425781 247.722656 174.28125 Z M 157.085938 187.097656 C 157.6875 193.308594 162.488281 186.097656 174.492188 196.3125 C 186.496094 206.523438 182.695312 209.328125 186.496094 208.929688 C 190.296875 208.527344 189.699219 211.933594 192.699219 205.324219 C 195.699219 198.714844 192.898438 200.316406 196.300781 195.910156 C 199.703125 191.503906 202.304688 188.5 189.296875 189.101562 C 176.292969 189.703125 177.496094 187.898438 174.492188 185.09375 C 171.492188 182.292969 156.683594 174.679688 157.085938 187.097656 Z M 148.679688 156.757812 C 148.679688 154.953125 151.796875 142.617188 147.136719 137.269531 C 142.476562 131.921875 139.074219 135.753906 136.054688 147.078125 C 133.035156 158.402344 134.273438 164.167969 135.074219 162.363281 C 135.875 160.5625 139.074219 143.136719 142.078125 143.9375 C 145.078125 144.738281 141.875 145.941406 143.878906 148.34375 C 145.878906 150.75 146.878906 146.742188 146.277344 151.148438 C 145.679688 155.554688 143.675781 156.757812 145.277344 157.757812 C 146.878906 158.757812 148.679688 156.757812 148.679688 156.757812 Z M 223.941406 99.894531 C 223.941406 99.894531 227.992188 117.191406 231.992188 120.796875 C 235.992188 124.402344 218.578125 141.289062 218.082031 127.4375 C 217.585938 113.585938 217.183594 97.566406 223.941406 99.894531 Z M 236.515625 230.359375 C 226.515625 232.160156 229.914062 237.96875 236.917969 237.96875 C 243.921875 237.96875 241.320312 240.972656 249.523438 241.773438 C 257.726562 242.574219 249.523438 228.957031 236.515625 230.359375 Z M 219.308594 250.6875 C 222.113281 252.6875 223.011719 256.09375 219.910156 256.996094 C 216.808594 257.898438 214.210938 256.394531 212.90625 257.597656 C 211.605469 258.796875 208.707031 252.890625 219.308594 250.6875 Z M 231.117188 255.292969 C 235.617188 255.292969 240.21875 256.59375 238.417969 258.496094 C 236.617188 260.398438 232.414062 257.496094 229.113281 261 C 225.8125 264.503906 224.011719 255.996094 231.117188 255.292969 Z M 231.117188 255.292969 " fill-opacity="1" fill-rule="evenodd"/><path fill="#d1ac5a" d="M 174.492188 283.632812 C 172.292969 280.429688 162.890625 275.019531 150.484375 273.019531 C 138.078125 271.015625 130.277344 264.707031 131.675781 263.003906 C 133.078125 261.300781 130.078125 265.808594 139.480469 266.207031 C 148.882812 266.609375 155.085938 264.003906 160.089844 267.011719 C 165.089844 270.011719 174.492188 283.632812 174.492188 283.632812 Z M 174.492188 283.632812 " fill-opacity="1" fill-rule="evenodd"/><path fill="#d1ac5a" d="M 111.371094 124.109375 C 111.371094 124.109375 105.964844 135.328125 104.566406 140.535156 C 103.164062 145.742188 104.164062 150.546875 105.964844 156.15625 C 107.769531 161.761719 102.164062 162.363281 103.964844 171.976562 C 105.765625 181.589844 107.765625 179.386719 107.566406 185.996094 C 107.367188 192.605469 100.566406 196.410156 101.964844 198.015625 C 103.367188 199.617188 104.167969 193.808594 110.167969 193.808594 C 116.171875 193.808594 119.171875 200.21875 119.570312 203.820312 C 119.972656 207.425781 114.769531 214.636719 119.570312 215.4375 C 124.375 216.238281 123.175781 210.03125 123.375 202.21875 C 123.574219 194.410156 127.601562 196.492188 118.585938 186.738281 C 109.566406 176.984375 109.167969 178.585938 109.96875 166.367188 C 110.769531 154.152344 114.96875 135.328125 111.367188 124.109375 Z M 111.371094 124.109375 " fill-opacity="1" fill-rule="evenodd"/><path fill="#faeccb" d="M 169.492188 28.078125 C 169.492188 28.078125 177.117188 31.480469 175.796875 37.890625 C 174.476562 44.300781 164.589844 50.207031 162.988281 59.421875 C 161.386719 68.644531 155.863281 90.242188 149.085938 95.671875 C 142.082031 101.277344 137.679688 102.480469 135.480469 106.886719 C 133.277344 111.292969 132.679688 96.871094 139.882812 91.265625 C 147.085938 85.65625 155.6875 75.242188 155.886719 70.035156 C 156.089844 64.828125 159.890625 50.808594 162.089844 46.402344 C 164.292969 41.996094 163.292969 40.59375 162.089844 38.191406 C 160.890625 35.789062 165.890625 26.171875 169.492188 28.078125 Z M 315.355469 301.957031 C 311.351562 307.164062 302.148438 311.570312 287.542969 309.167969 C 272.9375 306.765625 265.335938 310.96875 258.53125 308.769531 C 251.726562 306.566406 254.730469 298.753906 268.933594 299.957031 C 283.140625 301.15625 294.546875 305.164062 298.949219 301.558594 C 303.351562 297.953125 314.253906 286.085938 315.355469 301.957031 Z M 306.75 274.71875 C 306.351562 275.921875 303.550781 285.046875 289.089844 283.695312 C 274.632812 282.34375 268.746094 282.648438 256.136719 276.882812 C 243.523438 271.117188 230.519531 272.71875 227.320312 273.316406 C 224.117188 273.917969 218.515625 271.316406 223.71875 268.511719 C 228.917969 265.707031 238.121094 264.503906 251.730469 267.910156 C 265.332031 271.316406 269.535156 276.523438 277.738281 274.921875 C 285.941406 273.316406 293.144531 270.914062 297.949219 270.3125 C 302.75 269.714844 309.953125 269.914062 306.75 274.71875 Z M 254.929688 214.035156 C 252.726562 211.53125 234.621094 203.820312 227.117188 207.226562 C 219.613281 210.628906 207.007812 221.746094 196.105469 224.953125 C 185.199219 228.15625 170.695312 220.144531 176.496094 218.441406 C 182.300781 216.738281 194.703125 222.046875 201.808594 214.136719 C 208.910156 206.226562 213.511719 201.21875 219.515625 199.214844 C 225.515625 197.210938 227.71875 195.511719 235.921875 198.914062 C 244.125 202.320312 264.660156 197.542969 263.03125 203.820312 C 261.402344 210.101562 259.929688 214.738281 254.929688 214.035156 Z M 209.308594 90.863281 C 205.507812 96.070312 196.703125 97.875 198.304688 100.476562 C 199.90625 103.082031 210.3125 103.082031 214.914062 97.074219 C 219.515625 91.0625 214.113281 85.257812 209.308594 90.863281 Z M 209.308594 90.863281 " fill-opacity="1" fill-rule="evenodd"/><path fill="#69883a" d="M 185.632812 137.242188 C 185.632812 137.242188 186.292969 136.492188 185.511719 140.046875 C 184.730469 143.601562 182.289062 145.316406 181.09375 145.222656 C 179.894531 145.128906 177.945312 145.679688 173.636719 144.335938 C 169.324219 142.992188 164.238281 143.898438 164.238281 143.898438 C 164.238281 143.898438 170.519531 139.269531 174.445312 137.871094 C 178.367188 136.472656 182.546875 133.082031 182.546875 133.082031 L 181.863281 136.644531 Z M 185.632812 137.242188 " fill-opacity="1" fill-rule="evenodd"/><path fill="#69883a" d="M 152.488281 143.980469 C 153.789062 146.59375 156.070312 154.605469 155.527344 153.859375 C 154.984375 153.117188 149.871094 149.199219 149.667969 151.792969 C 149.464844 154.390625 147.773438 156.765625 147.773438 156.765625 C 147.773438 156.765625 144.425781 158.511719 144.980469 157.855469 C 145.53125 157.195312 145.332031 153.363281 145.332031 153.363281 L 143.320312 154.710938 C 143.320312 154.710938 147.226562 144.570312 147.121094 143.355469 C 147.015625 142.144531 152.488281 143.980469 152.488281 143.980469 Z M 152.488281 143.980469 " fill-opacity="1" fill-rule="evenodd"/><path fill="#69883a" d="M 176.359375 123.65625 L 169.484375 125.628906 L 170.730469 122.511719 C 170.730469 122.511719 168.789062 122.308594 168.128906 122.40625 C 167.46875 122.503906 168.90625 119.554688 169.785156 119.222656 C 170.664062 118.890625 173.527344 118.8125 173.421875 118.253906 C 173.316406 117.691406 172.316406 114.449219 173.21875 115.726562 C 174.121094 117 174.53125 120.097656 176.019531 120.96875 C 177.507812 121.839844 176.359375 123.65625 176.359375 123.65625 Z M 176.359375 123.65625 " fill-opacity="1" fill-rule="evenodd"/><path fill="#69883a" d="M 203.054688 164.078125 C 203.199219 164.691406 202.84375 166.042969 202.660156 165.878906 C 202.476562 165.714844 201.082031 164.976562 201.527344 166.066406 C 201.972656 167.15625 201.882812 167.953125 202.371094 168.492188 C 202.859375 169.035156 204.558594 168.0625 202.828125 169.082031 C 201.097656 170.101562 200.542969 171.136719 199.226562 172.992188 C 197.90625 174.847656 195.511719 174.757812 195.191406 174.558594 C 194.871094 174.355469 192.6875 172.652344 192.6875 172.652344 C 192.6875 172.652344 194.210938 171.367188 196.273438 171.679688 C 197.410156 171.921875 192.292969 167.753906 192.292969 167.753906 L 192.707031 167.28125 C 192.707031 167.28125 190.914062 164.855469 190.808594 164.296875 C 190.703125 163.734375 193.8125 164.683594 193.8125 164.683594 C 193.8125 164.683594 193.1875 163.078125 193.738281 163.394531 C 194.289062 163.714844 196.730469 165.566406 196.820312 165.347656 C 196.914062 165.128906 197.203125 162.109375 197.1875 162.285156 C 197.171875 162.460938 195.304688 165.175781 195.660156 163.21875 C 196.011719 161.265625 195.925781 157.566406 197.007812 157.878906 C 198.085938 158.1875 203.054688 164.078125 203.054688 164.078125 Z M 203.054688 164.078125 " fill-opacity="1" fill-rule="evenodd"/><path fill="#69883a" d="M 207.230469 215.609375 C 207.230469 215.609375 209.675781 211.28125 211.71875 209.535156 C 213.761719 207.785156 213.9375 206.191406 213.9375 206.191406 L 212.546875 206.636719 L 213.128906 203.71875 L 209.875 204.917969 L 210.066406 202.472656 L 207.394531 205.828125 C 207.394531 205.828125 207.15625 201.191406 206.828125 200.863281 C 206.503906 200.535156 203.660156 204.179688 205.003906 209.40625 C 206.351562 214.636719 207.226562 215.609375 207.226562 215.609375 Z M 207.230469 215.609375 " fill-opacity="1" fill-rule="evenodd"/><path fill="#69883a" d="M 229.910156 205.992188 C 229.910156 205.992188 227.046875 206.019531 224.875 203.636719 C 222.703125 201.257812 222.902344 201.273438 222.902344 201.273438 L 221.085938 207.359375 C 221.085938 207.359375 219.390625 208.480469 218.046875 203.230469 C 216.703125 197.976562 217.257812 198.269531 217.257812 198.269531 L 225.246094 196.863281 C 225.246094 196.863281 225.601562 199.328125 227.871094 201.113281 C 230.140625 202.898438 231.453125 203.402344 231.453125 203.402344 L 228.570312 204.03125 Z M 229.910156 205.992188 " fill-opacity="1" fill-rule="evenodd"/><path fill="#69883a" d="M 227.253906 237.730469 L 225.476562 238.667969 C 225.476562 238.667969 222.734375 232.351562 219.757812 229.355469 C 216.78125 226.359375 216.410156 226.304688 216.410156 226.304688 L 217.710938 225.101562 C 217.710938 225.101562 223.84375 225.910156 227.253906 237.730469 Z M 227.253906 237.730469 " fill-opacity="1" fill-rule="evenodd"/><path fill="#69883a" d="M 239.785156 255.488281 C 239.785156 255.488281 238.015625 252.789062 238.226562 249.488281 C 238.433594 246.191406 238.773438 246.015625 238.773438 246.015625 C 238.773438 246.015625 235.753906 245.175781 231.980469 247.191406 C 228.210938 249.203125 227.445312 250.347656 227.804688 250.253906 C 228.164062 250.15625 231.0625 249.980469 231.0625 249.980469 C 231.0625 249.980469 228.253906 252.195312 228.578125 252.222656 C 228.902344 252.246094 236.996094 251.726562 236.996094 251.726562 C 236.996094 251.726562 229.742188 256.207031 231.992188 256.332031 C 234.242188 256.457031 238.203125 255.1875 238.207031 255.464844 C 238.210938 255.742188 238.136719 257.34375 238.136719 257.34375 C 238.136719 257.34375 239.234375 257.378906 239.785156 255.488281 Z M 239.785156 255.488281 " fill-opacity="1" fill-rule="evenodd"/><path fill="#69883a" d="M 211.53125 121.90625 C 211.332031 122.496094 206.625 124.9375 206.625 124.9375 C 206.625 124.9375 195.058594 120.160156 197.011719 120.214844 C 198.964844 120.265625 199.820312 120.234375 199.820312 120.234375 C 199.820312 120.234375 195.980469 118.023438 197.1875 117.316406 C 198.398438 116.605469 200.03125 116.234375 200.03125 116.234375 L 197.046875 112.734375 L 201.457031 112.175781 L 202.148438 107.15625 C 202.148438 107.15625 205.074219 119.140625 211.53125 121.90625 Z M 211.53125 121.90625 " fill-opacity="1" fill-rule="evenodd"/><path fill="#69883a" d="M 273.984375 233.773438 C 273.984375 233.773438 271.121094 233.800781 268.949219 231.417969 C 266.78125 229.039062 266.980469 229.054688 266.980469 229.054688 L 265.160156 235.140625 C 265.160156 235.140625 263.464844 236.261719 262.121094 231.007812 C 260.777344 225.753906 261.332031 226.050781 261.332031 226.050781 L 269.320312 224.644531 C 269.320312 224.644531 269.675781 227.105469 271.945312 228.890625 C 274.214844 230.679688 275.527344 231.183594 275.527344 231.183594 L 272.644531 231.808594 Z M 273.984375 233.773438 " fill-opacity="1" fill-rule="evenodd"/><path fill="#69883a" d="M 157.652344 164.105469 L 158.347656 165.996094 C 158.347656 165.996094 151.726562 167.875 148.363281 170.429688 C 145 172.980469 144.898438 173.34375 144.898438 173.34375 L 143.878906 171.894531 C 143.878906 171.894531 145.496094 165.917969 157.652344 164.105469 Z M 157.652344 164.105469 " fill-opacity="1" fill-rule="evenodd"/><path fill="#69883a" d="M 197.6875 238.835938 C 198.144531 239.25 198.464844 244.550781 198.464844 244.550781 C 198.464844 244.550781 189.417969 253.195312 190.257812 251.433594 C 191.097656 249.667969 191.414062 248.871094 191.414062 248.871094 C 191.414062 248.871094 187.835938 251.488281 187.679688 250.09375 C 187.523438 248.699219 187.84375 247.054688 187.84375 247.054688 L 183.4375 248.367188 L 184.71875 244.109375 L 180.414062 241.4375 C 180.414062 241.4375 192.542969 243.621094 197.6875 238.832031 Z M 197.6875 238.835938 " fill-opacity="1" fill-rule="evenodd"/><path fill="#dbb970" d="M 243.8125 139.640625 C 243.8125 139.640625 235.609375 144.847656 246.3125 155.160156 C 257.015625 165.476562 265.71875 175.390625 267.222656 179.296875 C 268.722656 183.199219 266.820312 187.707031 264.921875 185.503906 C 263.019531 183.300781 265.519531 177.492188 257.117188 171.082031 C 248.714844 164.675781 255.117188 155.960938 240.308594 158.265625 C 225.503906 160.570312 218.300781 162.570312 224.203125 159.367188 C 230.105469 156.164062 241.410156 157.265625 238.910156 151.855469 C 236.410156 146.449219 237.109375 143.34375 237.410156 140.941406 C 237.710938 138.539062 237.207031 135.734375 235.109375 133.132812 C 233.007812 130.527344 232.105469 121.214844 237.007812 129.226562 C 241.910156 137.238281 246.914062 131.128906 248.613281 138.039062 C 250.3125 144.949219 254.816406 151.855469 243.8125 139.640625 Z M 243.8125 139.640625 " fill-opacity="1" fill-rule="evenodd"/><path fill="#b64f31" d="M 168.339844 285.191406 C 170.140625 285.992188 172.742188 289.199219 172.640625 290.097656 C 172.539062 291 169.640625 292.5 168.136719 291.5 C 166.636719 290.5 163.738281 285.492188 168.339844 285.191406 Z M 100.910156 156.511719 C 98.8125 156.511719 93.910156 153.410156 97.210938 157.816406 C 100.511719 162.222656 99.210938 166.226562 101.113281 162.820312 C 103.011719 159.417969 100.910156 156.511719 100.910156 156.511719 Z M 99.011719 166.125 C 96.109375 167.429688 94.109375 165.527344 94.007812 170.433594 C 93.910156 175.339844 89.308594 171.035156 92.808594 176.039062 C 96.308594 181.046875 103.210938 174.4375 99.011719 166.125 Z M 126.621094 231.515625 C 127.324219 233.320312 133.625 239.429688 130.824219 242.730469 C 128.023438 246.035156 127.722656 248.742188 126.421875 244.234375 C 125.121094 239.730469 122.820312 240.429688 121.820312 238.625 C 120.820312 236.824219 123.820312 229.011719 126.621094 231.515625 Z M 126.621094 231.515625 " fill-opacity="1" fill-rule="evenodd"/><path fill="#f9db99" d="M 113.023438 23.027344 C 113.023438 23.027344 130.925781 38.136719 131.828125 40.453125 C 132.734375 42.765625 123.828125 40.851562 118.625 46.960938 C 113.421875 53.070312 111.820312 54.769531 108.21875 57.875 C 104.617188 60.980469 107.121094 57.074219 100.816406 64.984375 C 94.515625 72.894531 94.816406 74.296875 91.914062 76.601562 C 89.011719 78.90625 87.3125 73.699219 92.515625 68.089844 C 97.714844 62.480469 97.515625 61.179688 100.214844 54.171875 C 102.917969 47.160156 104.019531 47.261719 108.121094 39.25 C 112.222656 31.238281 112.820312 29.734375 111.121094 26.933594 C 109.421875 24.128906 113.023438 23.027344 113.023438 23.027344 Z M 94.515625 12.414062 C 95.316406 14.015625 99.714844 18.21875 92.3125 25.929688 C 84.910156 33.640625 82.410156 35.542969 78.707031 48.460938 C 75.007812 61.378906 73.707031 69.292969 70.90625 71.796875 C 68.105469 74.296875 72.003906 62.78125 74.007812 56.375 C 76.007812 49.964844 75.207031 40.953125 79.308594 33.542969 C 83.410156 26.132812 84.910156 24.527344 85.710938 20.222656 C 86.511719 15.917969 91.414062 11.210938 94.515625 12.414062 Z M 94.515625 12.414062 " fill-opacity="1" fill-rule="evenodd"/><path fill="#7d2718" d="M 110.621094 43.253906 C 111.824219 46.859375 113.824219 49.164062 110.121094 52.269531 C 106.421875 55.371094 108.921875 59.046875 106.121094 60.480469 C 103.316406 61.910156 92.734375 59.578125 96.375 55.871094 C 100.015625 52.167969 106.21875 46.058594 108.421875 44.65625 C 110.621094 43.253906 110.222656 42.628906 110.621094 43.253906 Z M 49.597656 178.96875 C 50.199219 178.96875 50.296875 179.367188 52 182.171875 C 53.699219 184.976562 56.550781 182.925781 55 186.078125 C 53.449219 189.234375 47.597656 189.03125 47.445312 186.730469 C 47.296875 184.425781 47.296875 176.464844 49.597656 178.96875 Z M 70.136719 208.5625 C 71.429688 209.761719 73.429688 218.972656 71.007812 220.976562 C 67.804688 222.980469 70.136719 208.5625 70.136719 208.5625 Z M 48.097656 119.386719 C 51.296875 121.589844 53.5 119.585938 53.5 119.585938 C 53.5 119.585938 53.898438 137.011719 48.898438 133.605469 C 43.894531 130.199219 44.296875 118.640625 48.097656 119.386719 Z M 73.707031 109.972656 C 73.03125 118.585938 72.742188 125.59375 67.90625 126.996094 C 64.105469 128.398438 68.304688 107.96875 73.707031 109.972656 Z M 80.234375 60.054688 C 80.4375 64.859375 81.035156 66.261719 76.632812 72.46875 C 72.234375 78.679688 72.632812 69.265625 75.632812 64.058594 C 78.632812 58.851562 80.234375 60.054688 80.234375 60.054688 Z M 81.484375 55.796875 C 82.761719 56.023438 84.988281 56.273438 84.3125 57.597656 C 83.636719 58.925781 82.160156 58.851562 81.785156 58.375 C 81.410156 57.898438 77.632812 55.597656 81.484375 55.796875 Z M 81.484375 55.796875 " fill-opacity="1" fill-rule="evenodd"/><path fill="#7d2718" d="M 319.410156 243.808594 C 319.410156 243.808594 329.816406 245.410156 330.015625 254.425781 C 330.214844 263.4375 331.816406 260.832031 324.414062 259.632812 C 317.007812 258.429688 314.617188 242.847656 319.410156 243.808594 Z M 331.414062 266.441406 C 334.214844 267.84375 336.015625 272.648438 330.214844 273.449219 C 324.414062 274.25 312.808594 263.238281 331.414062 266.441406 Z M 331.414062 266.441406 " fill-opacity="1" fill-rule="evenodd"/><path fill="#ece9f4" d="M 321.015625 152.683594 C 321.015625 152.683594 314.011719 159.09375 305.609375 162.296875 C 297.203125 165.5 289.003906 169.90625 286.199219 170.910156 C 283.398438 171.910156 277.796875 175.515625 277.796875 175.515625 L 280.796875 180.523438 C 280.796875 180.523438 283.601562 175.113281 290.601562 172.511719 C 297.605469 169.90625 307.609375 165.703125 312.8125 161.894531 C 318.011719 158.089844 321.015625 152.683594 321.015625 152.683594 Z M 321.015625 152.683594 " fill-opacity="1" fill-rule="evenodd"/><path fill="#ece9f4" d="M 81.316406 267.644531 C 81.316406 267.644531 76.117188 272.050781 68.113281 272.449219 C 60.109375 272.851562 53.914062 277.796875 53.914062 277.796875 L 56.496094 284.902344 C 56.496094 284.902344 63.109375 278.460938 66.3125 277.558594 C 69.511719 276.65625 71.515625 277.957031 74.914062 276.554688 C 78.316406 275.15625 81.316406 267.644531 81.316406 267.644531 Z M 81.316406 267.644531 " fill-opacity="1" fill-rule="evenodd"/><path fill="#ece9f4" d="M 61.609375 67.066406 C 61.609375 67.066406 57.808594 79.683594 43.601562 90.496094 C 29.398438 101.3125 23.59375 111.726562 23.59375 114.132812 C 23.59375 116.535156 20.992188 98.710938 18.992188 93.300781 C 16.992188 87.894531 9.589844 79.28125 9.589844 79.28125 C 9.589844 79.28125 21.59375 86.292969 36.800781 79.480469 C 52.007812 72.671875 61.609375 67.066406 61.609375 67.066406 Z M 61.609375 67.066406 " fill-opacity="1" fill-rule="evenodd"/><path fill="#dfdaed" d="M 94.453125 369.246094 C 84.675781 372.726562 78.515625 374.992188 78.515625 374.992188 C 78.515625 374.992188 76.675781 361.957031 72.597656 343.066406 C 79.464844 351.308594 86.980469 360.320312 94.453125 369.246094 Z M 94.453125 369.246094 " fill-opacity="1" fill-rule="evenodd"/><path fill="#dad3e9" d="M 78.296875 373.535156 C 77.707031 369.652344 75.875 358.25 72.597656 343.066406 C 77.402344 348.835938 82.527344 354.984375 87.734375 361.214844 Z M 78.296875 373.535156 " fill-opacity="1" fill-rule="evenodd"/><path fill="#501a13" d="M 251.273438 188.304688 C 251.273438 188.304688 256.101562 188.191406 253.605469 193.199219 C 251.113281 198.210938 247.296875 197.554688 245.007812 197.007812 C 242.71875 196.464844 243.296875 195.300781 238.976562 196.15625 C 234.65625 197.007812 232.039062 190.902344 237.164062 191.335938 C 242.285156 191.773438 249.804688 180.863281 251.273438 188.304688 Z M 251.273438 188.304688 " fill-opacity="1" fill-rule="evenodd"/><path fill="#501a13" d="M 273.265625 253.683594 C 273.265625 253.683594 274.554688 256.964844 273.265625 259.902344 C 271.972656 262.84375 269.601562 262.210938 264.367188 264.382812 C 261.882812 266.558594 259.488281 255.539062 273.265625 253.683594 Z M 172.796875 73.75 C 173.441406 73.925781 177.917969 76.738281 176.664062 82.007812 C 175.410156 87.277344 171 89.140625 167.949219 88.046875 C 164.894531 86.949219 167.347656 84.496094 169.144531 80.734375 C 170.945312 76.96875 167.015625 72.042969 172.796875 73.75 Z M 190.070312 187.253906 C 188.652344 187.253906 179.25 189.371094 175.738281 186.417969 C 172.222656 183.464844 166.640625 183.980469 170.128906 187.035156 C 173.613281 190.089844 178.519531 191.070312 184.402344 196.417969 C 190.285156 201.761719 190.941406 199.46875 193.011719 194.78125 C 195.082031 190.089844 201.839844 185.726562 190.070312 187.253906 Z M 255.347656 240.8125 C 255.128906 242.667969 249.898438 245.175781 247.828125 244.085938 C 245.757812 242.996094 242.160156 243.976562 241.617188 241.6875 C 241.070312 239.394531 235.949219 237.867188 240.632812 237.214844 C 245.320312 236.558594 246.621094 238.273438 247.0625 235.578125 C 247.507812 232.882812 254.148438 233.179688 255.347656 240.8125 Z M 255.347656 240.8125 " fill-opacity="1" fill-rule="evenodd"/></svg>