<svg xmlns="http://www.w3.org/2000/svg" xmlns:xlink="http://www.w3.org/1999/xlink" width="500" zoomAndPan="magnify" viewBox="0 0 375 374.999991" height="500" preserveAspectRatio="xMidYMid meet" version="1.0"><defs><clipPath id="e2086357bc"><path d="M 39 225 L 374.699219 225 L 374.699219 348.75 L 39 348.75 Z M 39 225 " clip-rule="nonzero"/></clipPath><clipPath id="8bd793bdda"><path d="M 0 26.25 L 350 26.25 L 350 215 L 0 215 Z M 0 26.25 " clip-rule="nonzero"/></clipPath></defs><g clip-path="url(#e2086357bc)"><path fill="#100f0d" d="M 292.066406 308.214844 L 328.382812 267 L 334.183594 260.421875 L 334.429688 260.136719 C 335.195312 259.273438 336.257812 258.835938 337.328125 258.835938 C 338.050781 258.835938 338.78125 259.039062 339.414062 259.453125 C 339.574219 259.546875 339.734375 259.667969 339.875 259.796875 L 342.84375 262.40625 L 344.71875 264.054688 C 345.421875 264.675781 345.859375 265.5 345.988281 266.414062 C 346.003906 266.507812 346.011719 266.613281 346.019531 266.707031 C 346.082031 267.738281 345.742188 268.730469 345.066406 269.507812 L 344.949219 269.644531 L 339.144531 276.226562 L 303.09375 317.144531 L 299.5625 321.144531 C 298.878906 321.921875 297.933594 322.378906 296.910156 322.445312 C 296.804688 322.453125 296.714844 322.453125 296.609375 322.453125 C 296.226562 322.453125 295.855469 322.390625 295.496094 322.277344 L 292.292969 319.683594 L 289.511719 317.433594 L 289.273438 317.222656 C 289.121094 317.089844 288.988281 316.953125 288.867188 316.804688 C 287.664062 315.363281 287.65625 313.222656 288.925781 311.777344 Z M 314.015625 339.027344 L 303.132812 329.4375 C 303.371094 329.3125 303.59375 329.160156 303.816406 329.011719 C 304.664062 328.429688 305.445312 327.730469 306.140625 326.945312 L 351.609375 275.351562 L 351.644531 275.304688 C 352.53125 274.304688 353.234375 273.191406 353.75 272.011719 L 364.625 281.597656 C 366.222656 283.003906 366.371094 285.449219 364.964844 287.042969 L 319.460938 338.6875 C 318.054688 340.28125 315.609375 340.433594 314.015625 339.027344 Z M 370.421875 275.019531 L 354.28125 260.792969 C 353.640625 260.230469 352.957031 259.738281 352.242188 259.328125 C 351.734375 258.660156 351.15625 258.039062 350.519531 257.476562 L 345.675781 253.214844 C 340.457031 248.613281 332.453125 249.109375 327.851562 254.339844 L 327.527344 254.714844 L 294.210938 226.164062 L 240.132812 226.164062 L 158.464844 234.210938 L 157.558594 234.808594 C 156.78125 235.324219 149.902344 240.054688 149.871094 247.253906 C 149.855469 251.769531 152.433594 255.792969 157.527344 259.214844 C 159.777344 260.714844 166.617188 265.300781 201.765625 266.519531 C 218.65625 267.097656 234.179688 266.605469 234.339844 266.605469 L 234.054688 257.832031 C 210.875 258.582031 170.933594 257.632812 162.417969 251.929688 C 161.011719 250.984375 158.648438 249.125 158.648438 247.300781 C 158.636719 245.667969 160.347656 243.785156 161.625 242.714844 L 240.355469 234.933594 L 290.964844 234.933594 L 321.722656 261.296875 L 285.242188 302.6875 L 263.167969 284.8125 L 192.738281 294.253906 L 83.726562 258.859375 L 49.210938 238.675781 C 49.917969 237.171875 51.023438 235.53125 52.59375 234.648438 C 54.394531 233.625 56.707031 233.640625 59.65625 234.6875 C 73.820312 239.714844 107.332031 251.832031 107.671875 251.949219 L 108.441406 252.230469 L 142.238281 251.5 L 142.050781 242.730469 L 109.886719 243.425781 C 104.769531 241.578125 75.582031 231.027344 62.59375 226.417969 C 55.800781 224.003906 51.015625 225.433594 48.1875 227.058594 C 41.46875 230.917969 39.773438 238.945312 39.609375 239.847656 L 39.035156 242.886719 L 80.113281 266.914062 L 191.921875 303.214844 L 260.582031 294.011719 L 280.042969 309.769531 C 278.191406 314.5625 279.398438 320.214844 283.472656 323.804688 L 288.3125 328.074219 C 288.949219 328.628906 289.632812 329.121094 290.347656 329.535156 C 290.851562 330.199219 291.433594 330.820312 292.078125 331.390625 L 308.214844 345.605469 C 310.609375 347.71875 313.59375 348.757812 316.5625 348.757812 C 320.0625 348.757812 323.546875 347.3125 326.042969 344.488281 L 371.546875 292.847656 C 376.148438 287.613281 375.652344 279.625 370.421875 275.019531 " fill-opacity="1" fill-rule="nonzero"/></g><path fill="#100f0d" d="M 297.582031 129.402344 C 296.414062 127.28125 293.742188 126.511719 291.621094 127.683594 C 289.5 128.851562 288.730469 131.523438 289.902344 133.640625 C 291.125 135.863281 292.207031 138.199219 293.109375 140.585938 C 293.773438 142.34375 295.441406 143.425781 297.210938 143.425781 C 297.730469 143.425781 298.253906 143.332031 298.765625 143.140625 C 301.03125 142.28125 302.171875 139.75 301.3125 137.484375 C 300.261719 134.707031 299.007812 131.988281 297.582031 129.402344 " fill-opacity="1" fill-rule="nonzero"/><path fill="#100f0d" d="M 288.34375 116.746094 C 271.074219 98.398438 243.890625 90.976562 217.402344 97.375 C 215.050781 97.945312 213.601562 100.3125 214.167969 102.667969 C 214.738281 105.023438 217.109375 106.472656 219.464844 105.902344 C 242.894531 100.238281 266.84375 106.699219 281.957031 122.757812 C 282.820312 123.675781 283.984375 124.136719 285.152344 124.136719 C 286.230469 124.136719 287.3125 123.738281 288.15625 122.941406 C 289.921875 121.285156 290.003906 118.503906 288.34375 116.746094 " fill-opacity="1" fill-rule="nonzero"/><g clip-path="url(#8bd793bdda)"><path fill="#100f0d" d="M 9.660156 195.246094 C 9.351562 194.214844 9.152344 193.136719 9.089844 192.015625 L 340.367188 192.015625 C 339.933594 199.558594 333.660156 205.550781 326.011719 205.550781 L 23.445312 205.550781 C 16.933594 205.550781 11.421875 201.199219 9.660156 195.246094 Z M 173.03125 66.589844 C 174.195312 66.5625 175.355469 66.554688 176.515625 66.554688 C 219.160156 66.554688 259.269531 78.765625 289.789062 101.101562 C 319.667969 122.96875 336.859375 152.019531 338.492188 183.246094 L 11.519531 183.246094 C 16.398438 119.492188 86.597656 67.929688 173.03125 66.589844 Z M 169.304688 38.609375 C 171.398438 36.445312 174.214844 35.230469 177.226562 35.183594 C 177.285156 35.183594 177.347656 35.179688 177.40625 35.179688 C 183.542969 35.179688 188.585938 40.125 188.683594 46.285156 C 188.730469 49.300781 187.601562 52.148438 185.5 54.3125 C 183.40625 56.476562 180.589844 57.695312 177.578125 57.738281 C 174.558594 57.78125 171.714844 56.65625 169.550781 54.5625 C 167.386719 52.464844 166.167969 49.652344 166.121094 46.636719 C 166.078125 43.625 167.203125 40.773438 169.304688 38.609375 Z M 349.164062 191.167969 L 349.164062 183.246094 L 347.273438 183.246094 C 346.480469 166.515625 341.632812 150.371094 332.820312 135.183594 C 323.808594 119.660156 311.078125 105.808594 294.964844 94.019531 C 267.0625 73.597656 231.609375 61.257812 193.496094 58.417969 C 196.128906 54.890625 197.523438 50.621094 197.453125 46.148438 C 197.28125 35.09375 188.132812 26.234375 177.089844 26.410156 C 171.734375 26.496094 166.734375 28.660156 163.003906 32.503906 C 159.277344 36.347656 157.269531 41.417969 157.351562 46.773438 C 157.417969 50.980469 158.769531 54.96875 161.214844 58.296875 C 119.800781 61.039062 81.378906 74.867188 52 97.800781 C 36.265625 110.085938 23.972656 124.324219 15.445312 140.121094 C 8.007812 153.90625 3.738281 168.378906 2.714844 183.246094 L 0.292969 183.246094 L 0.292969 191.167969 C 0.292969 203.9375 10.683594 214.320312 23.445312 214.320312 L 326.011719 214.320312 C 338.78125 214.320312 349.164062 203.9375 349.164062 191.167969 " fill-opacity="1" fill-rule="nonzero"/></g></svg>