<?xml version="1.0" encoding="UTF-8"?>
<svg xmlns="http://www.w3.org/2000/svg" xmlns:xlink="http://www.w3.org/1999/xlink" width="100px" height="100px" viewBox="0 0 100 100" version="1.1">
<defs>
<clipPath id="clip1">
  <path d="M 0.273438 0 L 100 0 L 100 100 L 0.273438 100 Z M 0.273438 0 "/>
</clipPath>
</defs>
<g id="surface1">
<g clip-path="url(#clip1)" clip-rule="nonzero">
<path style=" stroke:none;fill-rule:nonzero;fill:rgb(92.941177%,2.745098%,2.745098%);fill-opacity:1;" d="M 0.273438 0.0546875 L 0.273438 100.144531 L 100.074219 100.144531 L 100.074219 0.0546875 Z M 89.347656 89.21875 L 10.996094 89.21875 L 10.996094 10.980469 L 89.347656 10.980469 Z M 89.347656 89.21875 "/>
</g>
<path style=" stroke:none;fill-rule:nonzero;fill:rgb(92.941177%,2.745098%,2.745098%);fill-opacity:1;" d="M 69.433594 50.101562 C 69.433594 50.414062 69.425781 50.730469 69.410156 51.042969 C 69.394531 51.359375 69.371094 51.671875 69.339844 51.984375 C 69.308594 52.296875 69.269531 52.609375 69.222656 52.921875 C 69.179688 53.234375 69.125 53.542969 69.0625 53.851562 C 69 54.160156 68.929688 54.46875 68.855469 54.773438 C 68.777344 55.078125 68.695312 55.382812 68.601562 55.683594 C 68.511719 55.984375 68.414062 56.28125 68.304688 56.578125 C 68.199219 56.875 68.085938 57.167969 67.964844 57.460938 C 67.847656 57.75 67.71875 58.039062 67.582031 58.324219 C 67.449219 58.605469 67.308594 58.886719 67.160156 59.164062 C 67.007812 59.441406 66.855469 59.714844 66.691406 59.988281 C 66.53125 60.257812 66.363281 60.523438 66.1875 60.785156 C 66.011719 61.046875 65.832031 61.304688 65.644531 61.554688 C 65.453125 61.808594 65.261719 62.058594 65.058594 62.300781 C 64.859375 62.542969 64.65625 62.78125 64.441406 63.015625 C 64.230469 63.246094 64.015625 63.476562 63.792969 63.699219 C 63.570312 63.921875 63.339844 64.136719 63.105469 64.351562 C 62.871094 64.558594 62.632812 64.765625 62.390625 64.964844 C 62.148438 65.164062 61.898438 65.359375 61.644531 65.546875 C 61.394531 65.734375 61.132812 65.914062 60.871094 66.089844 C 60.609375 66.265625 60.34375 66.433594 60.074219 66.597656 C 59.804688 66.757812 59.527344 66.914062 59.253906 67.058594 C 58.972656 67.210938 58.691406 67.351562 58.40625 67.484375 C 58.121094 67.621094 57.835938 67.746094 57.542969 67.867188 C 57.253906 67.988281 56.957031 68.101562 56.660156 68.207031 C 56.363281 68.3125 56.066406 68.410156 55.761719 68.503906 C 55.460938 68.59375 55.160156 68.679688 54.851562 68.753906 C 54.546875 68.832031 54.238281 68.898438 53.929688 68.960938 C 53.621094 69.023438 53.308594 69.078125 53 69.121094 C 52.6875 69.167969 52.375 69.207031 52.058594 69.238281 C 51.746094 69.269531 51.433594 69.292969 51.117188 69.308594 C 50.804688 69.324219 50.488281 69.332031 50.171875 69.332031 C 49.855469 69.332031 49.542969 69.324219 49.226562 69.308594 C 48.914062 69.292969 48.597656 69.269531 48.285156 69.238281 C 47.972656 69.207031 47.660156 69.167969 47.347656 69.121094 C 47.035156 69.078125 46.726562 69.023438 46.414062 68.960938 C 46.105469 68.898438 45.800781 68.832031 45.492188 68.753906 C 45.1875 68.679688 44.882812 68.59375 44.582031 68.503906 C 44.28125 68.410156 43.980469 68.3125 43.683594 68.207031 C 43.386719 68.101562 43.09375 67.988281 42.800781 67.867188 C 42.511719 67.746094 42.222656 67.621094 41.9375 67.484375 C 41.652344 67.351562 41.371094 67.210938 41.09375 67.058594 C 40.816406 66.914062 40.542969 66.757812 40.269531 66.597656 C 40 66.433594 39.734375 66.265625 39.472656 66.089844 C 39.210938 65.914062 38.953125 65.734375 38.699219 65.546875 C 38.445312 65.359375 38.199219 65.164062 37.953125 64.964844 C 37.710938 64.765625 37.472656 64.558594 37.238281 64.351562 C 37.003906 64.136719 36.777344 63.921875 36.554688 63.699219 C 36.332031 63.476562 36.113281 63.246094 35.902344 63.015625 C 35.691406 62.78125 35.484375 62.542969 35.285156 62.300781 C 35.085938 62.058594 34.890625 61.808594 34.703125 61.554688 C 34.515625 61.304688 34.335938 61.046875 34.160156 60.785156 C 33.984375 60.523438 33.816406 60.257812 33.652344 59.988281 C 33.492188 59.714844 33.335938 59.441406 33.1875 59.164062 C 33.039062 58.886719 32.898438 58.605469 32.761719 58.324219 C 32.628906 58.039062 32.5 57.75 32.378906 57.460938 C 32.257812 57.167969 32.144531 56.875 32.039062 56.578125 C 31.933594 56.28125 31.835938 55.984375 31.742188 55.683594 C 31.652344 55.382812 31.566406 55.078125 31.492188 54.773438 C 31.414062 54.46875 31.34375 54.160156 31.285156 53.851562 C 31.222656 53.542969 31.167969 53.234375 31.121094 52.921875 C 31.074219 52.609375 31.035156 52.296875 31.007812 51.984375 C 30.976562 51.671875 30.953125 51.359375 30.9375 51.042969 C 30.921875 50.730469 30.914062 50.414062 30.914062 50.101562 C 30.914062 49.785156 30.921875 49.472656 30.9375 49.15625 C 30.953125 48.839844 30.976562 48.527344 31.007812 48.214844 C 31.035156 47.902344 31.074219 47.589844 31.121094 47.277344 C 31.167969 46.964844 31.222656 46.65625 31.285156 46.347656 C 31.34375 46.039062 31.414062 45.730469 31.492188 45.425781 C 31.566406 45.121094 31.652344 44.820312 31.742188 44.519531 C 31.835938 44.214844 31.933594 43.917969 32.039062 43.621094 C 32.144531 43.324219 32.257812 43.03125 32.378906 42.742188 C 32.5 42.449219 32.628906 42.164062 32.761719 41.878906 C 32.898438 41.59375 33.039062 41.3125 33.1875 41.035156 C 33.335938 40.757812 33.492188 40.484375 33.652344 40.214844 C 33.816406 39.941406 33.984375 39.675781 34.160156 39.414062 C 34.335938 39.152344 34.515625 38.898438 34.703125 38.644531 C 34.890625 38.390625 35.085938 38.144531 35.285156 37.898438 C 35.484375 37.65625 35.691406 37.417969 35.902344 37.183594 C 36.113281 36.953125 36.332031 36.722656 36.554688 36.5 C 36.777344 36.277344 37.003906 36.0625 37.238281 35.851562 C 37.472656 35.640625 37.710938 35.433594 37.953125 35.234375 C 38.199219 35.035156 38.445312 34.839844 38.699219 34.652344 C 38.953125 34.464844 39.210938 34.285156 39.472656 34.109375 C 39.734375 33.933594 40 33.765625 40.269531 33.605469 C 40.542969 33.441406 40.816406 33.289062 41.09375 33.140625 C 41.371094 32.992188 41.652344 32.851562 41.9375 32.714844 C 42.222656 32.582031 42.511719 32.453125 42.800781 32.332031 C 43.09375 32.210938 43.386719 32.097656 43.683594 31.992188 C 43.980469 31.886719 44.28125 31.789062 44.582031 31.695312 C 44.882812 31.605469 45.1875 31.523438 45.492188 31.445312 C 45.800781 31.367188 46.105469 31.300781 46.414062 31.238281 C 46.726562 31.175781 47.035156 31.121094 47.347656 31.078125 C 47.660156 31.03125 47.972656 30.992188 48.285156 30.960938 C 48.597656 30.929688 48.914062 30.90625 49.226562 30.890625 C 49.542969 30.875 49.855469 30.867188 50.171875 30.867188 C 50.488281 30.867188 50.804688 30.875 51.117188 30.890625 C 51.433594 30.90625 51.746094 30.929688 52.058594 30.960938 C 52.375 30.992188 52.6875 31.03125 53 31.078125 C 53.308594 31.121094 53.621094 31.175781 53.929688 31.238281 C 54.238281 31.300781 54.546875 31.367188 54.851562 31.445312 C 55.160156 31.523438 55.460938 31.605469 55.761719 31.695312 C 56.066406 31.789062 56.363281 31.886719 56.660156 31.992188 C 56.957031 32.097656 57.253906 32.210938 57.542969 32.332031 C 57.835938 32.453125 58.121094 32.582031 58.40625 32.714844 C 58.691406 32.851562 58.972656 32.992188 59.253906 33.140625 C 59.527344 33.289062 59.804688 33.441406 60.074219 33.605469 C 60.34375 33.765625 60.609375 33.933594 60.871094 34.109375 C 61.132812 34.285156 61.394531 34.464844 61.644531 34.652344 C 61.898438 34.839844 62.148438 35.035156 62.390625 35.234375 C 62.632812 35.433594 62.871094 35.640625 63.105469 35.851562 C 63.339844 36.0625 63.570312 36.277344 63.792969 36.5 C 64.015625 36.722656 64.230469 36.953125 64.441406 37.183594 C 64.65625 37.417969 64.859375 37.65625 65.058594 37.898438 C 65.261719 38.144531 65.453125 38.390625 65.644531 38.644531 C 65.832031 38.898438 66.011719 39.152344 66.1875 39.414062 C 66.363281 39.675781 66.53125 39.941406 66.691406 40.214844 C 66.855469 40.484375 67.007812 40.757812 67.160156 41.035156 C 67.308594 41.3125 67.449219 41.59375 67.582031 41.878906 C 67.71875 42.164062 67.847656 42.449219 67.964844 42.742188 C 68.085938 43.03125 68.199219 43.324219 68.304688 43.621094 C 68.414062 43.917969 68.511719 44.214844 68.601562 44.519531 C 68.695312 44.820312 68.777344 45.121094 68.855469 45.425781 C 68.929688 45.730469 69 46.039062 69.0625 46.347656 C 69.125 46.65625 69.179688 46.964844 69.222656 47.277344 C 69.269531 47.589844 69.308594 47.902344 69.339844 48.214844 C 69.371094 48.527344 69.394531 48.839844 69.410156 49.15625 C 69.425781 49.472656 69.433594 49.785156 69.433594 50.101562 Z M 69.433594 50.101562 "/>
</g>
</svg>
