<svg xmlns="http://www.w3.org/2000/svg" xmlns:xlink="http://www.w3.org/1999/xlink" width="500" zoomAndPan="magnify" viewBox="0 0 375 374.999991" height="500" preserveAspectRatio="xMidYMid meet" version="1.0"><defs><clipPath id="023fb78d4d"><path d="M 1.023438 0 L 375 0 L 375 375 L 1.023438 375 Z M 1.023438 0 " clip-rule="nonzero"/></clipPath></defs><g clip-path="url(#023fb78d4d)"><path fill="#ed0707" d="M 1.023438 0.207031 L 1.023438 375.542969 L 375.273438 375.542969 L 375.273438 0.207031 Z M 335.058594 334.570312 L 41.238281 334.570312 L 41.238281 41.179688 L 335.058594 41.179688 Z M 335.058594 334.570312 " fill-opacity="1" fill-rule="nonzero"/></g><path fill="#ed0707" d="M 260.371094 187.875 C 260.371094 189.054688 260.34375 190.234375 260.285156 191.414062 C 260.226562 192.59375 260.140625 193.769531 260.023438 194.945312 C 259.90625 196.117188 259.761719 197.289062 259.589844 198.457031 C 259.417969 199.625 259.214844 200.785156 258.984375 201.945312 C 258.753906 203.101562 258.492188 204.253906 258.207031 205.398438 C 257.917969 206.542969 257.605469 207.679688 257.261719 208.808594 C 256.917969 209.9375 256.546875 211.058594 256.148438 212.171875 C 255.75 213.28125 255.324219 214.382812 254.875 215.472656 C 254.421875 216.5625 253.941406 217.640625 253.4375 218.710938 C 252.933594 219.777344 252.402344 220.832031 251.84375 221.871094 C 251.285156 222.910156 250.703125 223.9375 250.097656 224.949219 C 249.488281 225.964844 248.855469 226.960938 248.199219 227.941406 C 247.542969 228.921875 246.863281 229.886719 246.160156 230.835938 C 245.453125 231.785156 244.726562 232.714844 243.976562 233.625 C 243.226562 234.539062 242.457031 235.433594 241.660156 236.304688 C 240.867188 237.179688 240.054688 238.035156 239.21875 238.871094 C 238.382812 239.703125 237.527344 240.519531 236.648438 241.3125 C 235.773438 242.101562 234.878906 242.875 233.964844 243.621094 C 233.050781 244.371094 232.121094 245.097656 231.171875 245.800781 C 230.222656 246.503906 229.253906 247.183594 228.273438 247.839844 C 227.289062 248.496094 226.292969 249.125 225.277344 249.734375 C 224.265625 250.339844 223.234375 250.921875 222.195312 251.476562 C 221.152344 252.035156 220.097656 252.5625 219.027344 253.070312 C 217.957031 253.574219 216.878906 254.050781 215.785156 254.503906 C 214.695312 254.953125 213.59375 255.378906 212.480469 255.777344 C 211.367188 256.175781 210.246094 256.542969 209.113281 256.886719 C 207.980469 257.230469 206.84375 257.542969 205.695312 257.832031 C 204.550781 258.117188 203.398438 258.375 202.238281 258.605469 C 201.078125 258.835938 199.914062 259.039062 198.746094 259.210938 C 197.574219 259.386719 196.402344 259.53125 195.226562 259.644531 C 194.050781 259.761719 192.871094 259.847656 191.691406 259.90625 C 190.511719 259.964844 189.328125 259.992188 188.148438 259.992188 C 186.964844 259.992188 185.785156 259.964844 184.605469 259.90625 C 183.421875 259.847656 182.246094 259.761719 181.070312 259.644531 C 179.890625 259.53125 178.71875 259.386719 177.550781 259.210938 C 176.382812 259.039062 175.21875 258.835938 174.058594 258.605469 C 172.898438 258.375 171.746094 258.117188 170.597656 257.832031 C 169.453125 257.542969 168.3125 257.230469 167.183594 256.886719 C 166.050781 256.542969 164.929688 256.175781 163.816406 255.777344 C 162.703125 255.378906 161.601562 254.953125 160.507812 254.503906 C 159.417969 254.050781 158.335938 253.574219 157.269531 253.070312 C 156.199219 252.5625 155.144531 252.035156 154.101562 251.476562 C 153.058594 250.921875 152.03125 250.339844 151.015625 249.734375 C 150.003906 249.125 149.003906 248.496094 148.023438 247.839844 C 147.039062 247.183594 146.074219 246.503906 145.125 245.800781 C 144.175781 245.097656 143.242188 244.371094 142.328125 243.621094 C 141.414062 242.875 140.519531 242.101562 139.644531 241.3125 C 138.769531 240.519531 137.914062 239.703125 137.078125 238.871094 C 136.242188 238.035156 135.425781 237.179688 134.632812 236.304688 C 133.839844 235.433594 133.066406 234.539062 132.316406 233.625 C 131.566406 232.714844 130.839844 231.785156 130.136719 230.835938 C 129.433594 229.886719 128.753906 228.921875 128.097656 227.941406 C 127.4375 226.960938 126.808594 225.964844 126.199219 224.949219 C 125.589844 223.9375 125.007812 222.910156 124.453125 221.871094 C 123.894531 220.832031 123.363281 219.777344 122.859375 218.710938 C 122.351562 217.640625 121.875 216.5625 121.421875 215.472656 C 120.96875 214.382812 120.542969 213.28125 120.144531 212.171875 C 119.746094 211.058594 119.378906 209.9375 119.035156 208.808594 C 118.691406 207.679688 118.375 206.542969 118.089844 205.398438 C 117.800781 204.253906 117.542969 203.101562 117.3125 201.945312 C 117.082031 200.785156 116.878906 199.625 116.707031 198.457031 C 116.53125 197.289062 116.386719 196.117188 116.273438 194.945312 C 116.15625 193.769531 116.070312 192.59375 116.011719 191.414062 C 115.953125 190.234375 115.925781 189.054688 115.925781 187.875 C 115.925781 186.695312 115.953125 185.515625 116.011719 184.335938 C 116.070312 183.15625 116.15625 181.980469 116.273438 180.804688 C 116.386719 179.632812 116.53125 178.460938 116.707031 177.292969 C 116.878906 176.125 117.082031 174.964844 117.3125 173.804688 C 117.542969 172.648438 117.800781 171.496094 118.089844 170.351562 C 118.375 169.207031 118.691406 168.070312 119.035156 166.941406 C 119.378906 165.8125 119.746094 164.691406 120.144531 163.578125 C 120.542969 162.46875 120.96875 161.367188 121.421875 160.277344 C 121.875 159.1875 122.351562 158.109375 122.859375 157.039062 C 123.363281 155.972656 123.894531 154.917969 124.453125 153.878906 C 125.007812 152.839844 125.589844 151.8125 126.199219 150.800781 C 126.808594 149.785156 127.4375 148.789062 128.097656 147.808594 C 128.753906 146.828125 129.433594 145.863281 130.136719 144.914062 C 130.839844 143.964844 131.566406 143.035156 132.316406 142.125 C 133.066406 141.210938 133.839844 140.316406 134.632812 139.445312 C 135.425781 138.570312 136.242188 137.714844 137.078125 136.878906 C 137.914062 136.046875 138.769531 135.230469 139.644531 134.4375 C 140.519531 133.648438 141.414062 132.875 142.328125 132.128906 C 143.242188 131.378906 144.175781 130.652344 145.125 129.949219 C 146.074219 129.246094 147.039062 128.566406 148.023438 127.910156 C 149.003906 127.253906 150.003906 126.625 151.015625 126.019531 C 152.03125 125.410156 153.058594 124.828125 154.101562 124.273438 C 155.144531 123.714844 156.199219 123.1875 157.269531 122.679688 C 158.335938 122.175781 159.417969 121.699219 160.507812 121.246094 C 161.601562 120.796875 162.703125 120.371094 163.816406 119.972656 C 164.929688 119.574219 166.050781 119.207031 167.183594 118.863281 C 168.3125 118.519531 169.453125 118.207031 170.597656 117.917969 C 171.746094 117.632812 172.898438 117.375 174.058594 117.144531 C 175.21875 116.914062 176.382812 116.710938 177.550781 116.539062 C 178.71875 116.363281 179.890625 116.21875 181.070312 116.105469 C 182.246094 115.988281 183.421875 115.902344 184.605469 115.84375 C 185.785156 115.785156 186.964844 115.757812 188.148438 115.757812 C 189.328125 115.757812 190.511719 115.785156 191.691406 115.84375 C 192.871094 115.902344 194.050781 115.988281 195.226562 116.105469 C 196.402344 116.21875 197.574219 116.363281 198.746094 116.539062 C 199.914062 116.710938 201.078125 116.914062 202.238281 117.144531 C 203.398438 117.375 204.550781 117.632812 205.695312 117.917969 C 206.84375 118.207031 207.980469 118.519531 209.113281 118.863281 C 210.246094 119.207031 211.367188 119.574219 212.480469 119.972656 C 213.59375 120.371094 214.695312 120.796875 215.785156 121.246094 C 216.878906 121.699219 217.957031 122.175781 219.027344 122.679688 C 220.097656 123.1875 221.152344 123.714844 222.195312 124.273438 C 223.234375 124.828125 224.265625 125.410156 225.277344 126.019531 C 226.292969 126.625 227.289062 127.253906 228.273438 127.910156 C 229.253906 128.566406 230.222656 129.246094 231.171875 129.949219 C 232.121094 130.652344 233.050781 131.378906 233.964844 132.128906 C 234.878906 132.875 235.773438 133.648438 236.648438 134.4375 C 237.527344 135.230469 238.382812 136.046875 239.21875 136.878906 C 240.054688 137.714844 240.867188 138.570312 241.660156 139.445312 C 242.457031 140.316406 243.226562 141.210938 243.976562 142.125 C 244.726562 143.035156 245.453125 143.964844 246.160156 144.914062 C 246.863281 145.863281 247.542969 146.828125 248.199219 147.808594 C 248.855469 148.789062 249.488281 149.785156 250.097656 150.800781 C 250.703125 151.8125 251.285156 152.839844 251.84375 153.878906 C 252.402344 154.917969 252.933594 155.972656 253.4375 157.039062 C 253.941406 158.109375 254.421875 159.1875 254.875 160.277344 C 255.324219 161.367188 255.75 162.46875 256.148438 163.578125 C 256.546875 164.691406 256.917969 165.8125 257.261719 166.941406 C 257.605469 168.070312 257.917969 169.207031 258.207031 170.351562 C 258.492188 171.496094 258.753906 172.648438 258.984375 173.804688 C 259.214844 174.964844 259.417969 176.125 259.589844 177.292969 C 259.761719 178.460938 259.90625 179.632812 260.023438 180.804688 C 260.140625 181.980469 260.226562 183.15625 260.285156 184.335938 C 260.34375 185.515625 260.371094 186.695312 260.371094 187.875 Z M 260.371094 187.875 " fill-opacity="1" fill-rule="nonzero"/></svg>