<svg xmlns="http://www.w3.org/2000/svg" xmlns:xlink="http://www.w3.org/1999/xlink" width="500" zoomAndPan="magnify" viewBox="0 0 375 374.999991" height="500" preserveAspectRatio="xMidYMid meet" version="1.0"><defs><clipPath id="0c9a04cdc7"><path d="M 170 70.398438 L 205 70.398438 L 205 102 L 170 102 Z M 170 70.398438 " clip-rule="nonzero"/></clipPath><clipPath id="409d3840b1"><path d="M 174 70.398438 L 205 70.398438 L 205 102 L 174 102 Z M 174 70.398438 " clip-rule="nonzero"/></clipPath><clipPath id="9d60048844"><path d="M 2.238281 261 L 372.738281 261 L 372.738281 293.898438 L 2.238281 293.898438 Z M 2.238281 261 " clip-rule="nonzero"/></clipPath></defs><g clip-path="url(#0c9a04cdc7)"><path fill="#f79219" d="M 197.851562 101.351562 L 177.121094 101.351562 L 171.214844 80.171875 C 169.839844 75.234375 173.554688 70.34375 178.6875 70.34375 L 196.285156 70.34375 C 201.417969 70.34375 205.132812 75.234375 203.757812 80.171875 Z M 197.851562 101.351562 " fill-opacity="1" fill-rule="nonzero"/></g><g clip-path="url(#409d3840b1)"><path fill="#ef7816" d="M 196.285156 70.34375 L 195.882812 70.34375 C 195.851562 70.902344 195.769531 71.46875 195.609375 72.035156 L 189.707031 93.210938 L 174.851562 93.210938 L 177.121094 101.351562 L 197.851562 101.351562 L 203.757812 80.171875 C 205.132812 75.234375 201.417969 70.34375 196.285156 70.34375 Z M 196.285156 70.34375 " fill-opacity="1" fill-rule="nonzero"/></g><path fill="#ffa91a" d="M 49.339844 235.699219 C 49.339844 159.464844 111.1875 97.664062 187.488281 97.664062 C 263.785156 97.664062 325.632812 159.464844 325.632812 235.699219 Z M 49.339844 235.699219 " fill-opacity="1" fill-rule="nonzero"/><path fill="#ffc91d" d="M 61.597656 213.808594 C 61.386719 213.808594 61.160156 213.792969 60.949219 213.742188 C 59.1875 213.402344 58.046875 211.675781 58.390625 209.917969 C 58.390625 209.902344 58.390625 209.902344 58.40625 209.902344 C 58.75 208.175781 60.492188 207.019531 62.21875 207.363281 C 63.980469 207.71875 65.136719 209.429688 64.792969 211.1875 C 64.484375 212.71875 63.132812 213.808594 61.597656 213.808594 Z M 64.792969 201.191406 C 64.46875 201.191406 64.140625 201.144531 63.832031 201.046875 C 63 200.785156 62.316406 200.214844 61.910156 199.449219 C 61.5 198.6875 61.417969 197.808594 61.679688 196.976562 C 65.539062 184.476562 71.242188 172.640625 78.65625 161.78125 C 85.953125 151.070312 94.785156 141.515625 104.871094 133.359375 C 125.6875 116.5625 150.746094 106.601562 177.332031 104.566406 C 179.09375 104.433594 180.707031 105.785156 180.835938 107.558594 C 180.902344 108.421875 180.625 109.269531 180.054688 109.9375 C 179.484375 110.589844 178.703125 110.996094 177.839844 111.058594 C 127.105469 114.933594 82.921875 150.226562 67.902344 198.898438 C 67.480469 200.265625 66.226562 201.191406 64.792969 201.191406 Z M 64.792969 201.191406 " fill-opacity="1" fill-rule="nonzero"/><path fill="#f79219" d="M 276.664062 130.3125 C 297.035156 154.363281 309.339844 185.445312 309.339844 219.417969 L 50.328125 219.417969 C 49.699219 224.761719 49.339844 230.1875 49.339844 235.699219 L 325.632812 235.699219 C 325.632812 193.4375 306.605469 155.632812 276.664062 130.3125 Z M 276.664062 130.3125 " fill-opacity="1" fill-rule="nonzero"/><path fill="#ef7816" d="M 281 134.121094 C 303.644531 158.707031 317.488281 191.511719 317.488281 227.558594 L 49.597656 227.558594 C 49.441406 230.253906 49.339844 232.960938 49.339844 235.699219 L 325.632812 235.699219 C 325.632812 195.511719 308.433594 159.347656 281 134.121094 Z M 281 134.121094 " fill-opacity="1" fill-rule="nonzero"/><path fill="#f79219" d="M 337.996094 261.945312 L 36.976562 261.945312 C 29.722656 261.945312 23.839844 256.070312 23.839844 248.820312 C 23.839844 241.574219 29.722656 235.695312 36.976562 235.695312 L 337.996094 235.695312 C 345.25 235.695312 351.132812 241.574219 351.132812 248.820312 C 351.132812 256.070312 345.25 261.945312 337.996094 261.945312 Z M 337.996094 261.945312 " fill-opacity="1" fill-rule="nonzero"/><path fill="#ef7816" d="M 342.265625 236.417969 C 342.726562 237.757812 342.984375 239.1875 342.984375 240.683594 C 342.984375 247.929688 337.105469 253.808594 329.851562 253.808594 L 28.828125 253.808594 C 27.335938 253.808594 25.902344 253.546875 24.5625 253.085938 C 26.335938 258.238281 31.214844 261.945312 36.976562 261.945312 L 337.996094 261.945312 C 345.25 261.945312 351.132812 256.070312 351.132812 248.820312 C 351.132812 243.066406 347.421875 238.191406 342.265625 236.417969 Z M 342.265625 236.417969 " fill-opacity="1" fill-rule="nonzero"/><g clip-path="url(#9d60048844)"><path fill="#8c3f0a" d="M 365.890625 293.785156 L 9.082031 293.785156 C 5.480469 293.785156 2.5625 290.871094 2.5625 287.273438 L 2.5625 268.457031 C 2.5625 264.863281 5.480469 261.945312 9.082031 261.945312 L 365.890625 261.945312 C 369.492188 261.945312 372.410156 264.863281 372.410156 268.457031 L 372.410156 287.273438 C 372.410156 290.871094 369.492188 293.785156 365.890625 293.785156 Z M 365.890625 293.785156 " fill-opacity="1" fill-rule="nonzero"/><path fill="#7c3108" d="M 365.890625 261.945312 L 364.261719 261.945312 L 364.261719 279.136719 C 364.261719 282.730469 361.34375 285.648438 357.746094 285.648438 L 2.5625 285.648438 L 2.5625 287.273438 C 2.5625 290.871094 5.480469 293.785156 9.082031 293.785156 L 365.890625 293.785156 C 369.492188 293.785156 372.410156 290.871094 372.410156 287.273438 L 372.410156 268.457031 C 372.410156 264.863281 369.492188 261.945312 365.890625 261.945312 Z M 365.890625 261.945312 " fill-opacity="1" fill-rule="nonzero"/></g><path fill="#ef7816" d="M 191.640625 122.644531 L 198.363281 143.316406 C 198.949219 145.113281 200.625 146.332031 202.515625 146.332031 L 224.269531 146.332031 C 228.5 146.332031 230.257812 151.738281 226.835938 154.222656 L 209.234375 167 C 207.707031 168.109375 207.066406 170.078125 207.648438 171.878906 L 214.371094 192.550781 C 215.679688 196.570312 211.074219 199.910156 207.652344 197.425781 L 190.050781 184.652344 C 188.523438 183.539062 186.449219 183.539062 184.921875 184.652344 L 167.320312 197.425781 C 163.898438 199.910156 159.292969 196.570312 160.601562 192.550781 L 167.324219 171.878906 C 167.910156 170.078125 167.269531 168.109375 165.738281 167 L 148.136719 154.222656 C 144.714844 151.738281 146.472656 146.332031 150.703125 146.332031 L 172.457031 146.332031 C 174.347656 146.332031 176.023438 145.113281 176.609375 143.316406 L 183.332031 122.644531 C 184.640625 118.625 190.332031 118.625 191.640625 122.644531 Z M 191.640625 122.644531 " fill-opacity="1" fill-rule="nonzero"/></svg>