<svg xmlns="http://www.w3.org/2000/svg" xmlns:xlink="http://www.w3.org/1999/xlink" width="500" zoomAndPan="magnify" viewBox="0 0 375 374.999991" height="500" preserveAspectRatio="xMidYMid meet" version="1.0"><path fill="#4c5c75" d="M 255.285156 333.921875 C 255.054688 335.070312 249.53125 362.699219 249.878906 360.941406 C 249.878906 377.671875 129.269531 377.671875 129.269531 360.941406 C 129.039062 359.792969 123.535156 332.164062 123.886719 333.921875 Z M 255.285156 333.921875 " fill-opacity="1" fill-rule="nonzero"/><path fill="#111d33" d="M 255.285156 333.921875 L 252.042969 350.195312 C 212.34375 365.632812 166.953125 366.070312 127.53125 352.261719 L 123.886719 333.921875 Z M 255.285156 333.921875 " fill-opacity="0.7" fill-rule="nonzero"/><path fill="#c9cee2" d="M 187.742188 357.109375 C 89.011719 357.109375 20.175781 282.226562 31.242188 205.890625 C 33.285156 203.234375 38.152344 200.71875 45.367188 198.414062 C 70.703125 190.300781 124.921875 184.65625 187.742188 184.65625 C 262.78125 184.65625 325.605469 192.699219 341.46875 203.421875 C 342.667969 204.222656 343.582031 205.046875 344.242188 205.890625 C 355.476562 283.402344 284.996094 357.109375 187.742188 357.109375 Z M 187.742188 357.109375 " fill-opacity="1" fill-rule="nonzero"/><path fill="#e3e7f0" d="M 220.195312 225.90625 C 220.195312 225.90625 215.308594 304.007812 58.152344 298.855469 C 34.890625 270.132812 26.839844 236.269531 31.242188 205.890625 C 33.285156 203.234375 38.152344 200.71875 45.367188 198.414062 Z M 220.195312 225.90625 " fill-opacity="1" fill-rule="nonzero"/><path fill="#b0b8cf" d="M 187.742188 357.109375 C 146.964844 357.109375 109.808594 343.84375 81.839844 322.019531 C 282.265625 355.0625 282.265625 214.59375 282.265625 214.59375 L 341.46875 203.421875 C 342.667969 204.222656 343.582031 205.046875 344.242188 205.890625 C 355.476562 283.402344 284.996094 357.109375 187.742188 357.109375 Z M 187.742188 357.109375 " fill-opacity="0.46" fill-rule="nonzero"/><path fill="#f1f6fa" d="M 344.796875 210.773438 C 338.167969 223.140625 270.367188 232.878906 187.734375 232.878906 C 105.078125 232.878906 37.296875 223.140625 30.671875 210.773438 C 29.753906 209.058594 30.046875 207.4375 31.234375 205.90625 C 40.46875 193.980469 107.003906 184.667969 187.734375 184.667969 C 268.4375 184.667969 334.996094 193.980469 344.234375 205.90625 C 345.421875 207.441406 345.714844 209.058594 344.796875 210.773438 Z M 344.796875 210.773438 " fill-opacity="1" fill-rule="nonzero"/><path fill="#b0b8cf" d="M 340.527344 208.761719 C 338.976562 211.042969 333.3125 213.582031 323.933594 216.050781 C 262.164062 232.410156 111.675781 231.96875 51.476562 216.074219 C 42.078125 213.582031 36.460938 211.042969 34.957031 208.761719 C 40.925781 201.09375 82.78125 192.933594 144.6875 190.277344 C 158.152344 189.6875 172.558594 189.359375 187.742188 189.359375 C 272.792969 189.359375 333.242188 199.425781 340.527344 208.761719 Z M 340.527344 208.761719 " fill-opacity="1" fill-rule="nonzero"/><path fill="#c9cee2" d="M 155.027344 227.644531 C 106.683594 226.09375 70.984375 221.226562 51.476562 216.074219 C 42.078125 213.582031 36.460938 211.042969 34.957031 208.761719 C 40.925781 201.09375 82.78125 192.933594 144.6875 190.277344 Z M 155.027344 227.644531 " fill-opacity="1" fill-rule="nonzero"/><path fill="#ffd475" d="M 323.933594 216.050781 C 260.226562 232.929688 109.914062 231.605469 51.476562 216.074219 C 126.074219 196.113281 247.53125 195.625 323.933594 216.050781 Z M 323.933594 216.050781 " fill-opacity="1" fill-rule="nonzero"/><path fill="#ffde9b" d="M 295.945312 221.507812 C 235.050781 230.421875 139.851562 230.386719 79.421875 221.484375 C 88.0625 204.8125 116.894531 224.3125 128.726562 216.640625 C 137.140625 211.183594 156.039062 202.953125 177.894531 210.148438 C 190.585938 214.3125 215.097656 219.886719 228.023438 216.121094 C 251.730469 209.292969 274.628906 208.523438 295.945312 221.507812 Z M 295.945312 221.507812 " fill-opacity="1" fill-rule="nonzero"/><path fill="#678aee" d="M 348.425781 145.078125 C 348.425781 150.203125 345.933594 155.238281 341.277344 158.269531 C 340.132812 159.019531 254.515625 214.8125 259.9375 211.277344 C 250.964844 211.109375 242.023438 212.40625 233.335938 214.664062 C 266.558594 184.296875 288.761719 164 322.125 133.507812 C 332.292969 124.257812 348.425781 131.601562 348.425781 145.078125 Z M 348.425781 145.078125 " fill-opacity="1" fill-rule="nonzero"/><path fill="#ffffff" d="M 50.019531 251.964844 C 45.289062 232.625 38.074219 237.402344 40.746094 248.828125 C 42.535156 256.449219 47.273438 262.289062 49.320312 261.824219 C 51.4375 261.402344 51.144531 256.964844 50.019531 251.964844 Z M 50.019531 251.964844 " fill-opacity="1" fill-rule="nonzero"/><path fill="#ffffff" d="M 61.675781 287.976562 C 70.882812 297.433594 78.726562 297.328125 77.617188 293.046875 C 76.628906 288.808594 70.722656 283.320312 65.382812 277.636719 C 59.902344 272.148438 54.6875 266.621094 52.058594 267.269531 C 49.402344 267.710938 52.449219 278.441406 61.675781 287.976562 Z M 61.675781 287.976562 " fill-opacity="1" fill-rule="nonzero"/><path fill="#ffffff" d="M 343.488281 133.671875 C 345.34375 139.511719 345.335938 148.96875 318.363281 166.3125 C 294.234375 181.832031 259.492188 203.304688 245.933594 212.148438 C 241.207031 212.78125 236.953125 213.722656 233.335938 214.664062 L 322.125 133.507812 C 328.304688 127.886719 337.636719 128.121094 343.488281 133.671875 Z M 343.488281 133.671875 " fill-opacity="0.21" fill-rule="nonzero"/><path fill="#111d33" d="M 265.085938 207.914062 L 259.9375 211.277344 C 250.964844 211.109375 242.023438 212.40625 233.335938 214.664062 L 236.320312 211.9375 C 242.972656 210.480469 256.226562 207.867188 265.085938 207.914062 Z M 265.085938 207.914062 " fill-opacity="0.23" fill-rule="nonzero"/><path fill="#e3e7f0" d="M 133.972656 159.058594 C 129.851562 172.328125 119.339844 181.445312 107.601562 189.273438 C 110.253906 186.519531 112.039062 182.332031 114.027344 179.09375 C 117.363281 173.53125 122.402344 166.308594 124.179688 157.148438 C 127.835938 138.847656 111.589844 130.839844 101.429688 119.761719 C 94.085938 111.492188 92.480469 98.835938 97.453125 89.039062 C 98.730469 86.34375 99.640625 85.1875 115.789062 63.316406 C 115.175781 64.949219 115.023438 66.324219 114.566406 68.136719 C 113.699219 71.734375 112.601562 75.613281 111.121094 79.492188 C 108.445312 86.484375 104.875 94.21875 106.074219 101.898438 C 108.058594 114.9375 125.429688 119.339844 133.078125 137.472656 C 136.046875 144.507812 136.113281 151.828125 133.972656 159.058594 Z M 133.972656 159.058594 " fill-opacity="1" fill-rule="nonzero"/><path fill="#c9cee2" d="M 133.972656 159.058594 C 129.890625 172.203125 119.816406 180.851562 108.929688 188.332031 C 122.519531 178.175781 128.640625 159.953125 128.640625 145.585938 C 128.640625 130.761719 109.667969 124.867188 102.808594 108.277344 C 98.953125 98.933594 103.015625 82.53125 115.789062 63.316406 C 115.175781 64.949219 115.023438 66.324219 114.566406 68.136719 C 113.699219 71.734375 112.601562 75.613281 111.121094 79.492188 C 108.445312 86.484375 104.875 94.21875 106.074219 101.898438 C 108.058594 114.9375 125.429688 119.339844 133.078125 137.472656 C 136.046875 144.507812 136.113281 151.828125 133.972656 159.058594 Z M 133.972656 159.058594 " fill-opacity="1" fill-rule="nonzero"/><path fill="#e3e7f0" d="M 272.652344 149.433594 C 268.53125 162.699219 258.019531 171.816406 246.28125 179.648438 C 248.933594 176.890625 250.71875 172.707031 252.707031 169.464844 C 256.042969 163.902344 261.082031 156.683594 262.859375 147.519531 C 266.523438 129.175781 250.328125 121.277344 240.109375 110.132812 C 232.765625 101.867188 231.160156 89.207031 236.132812 79.410156 C 238.027344 75.414062 248.800781 61.585938 254.316406 53.917969 C 254.417969 53.761719 254.46875 53.6875 254.46875 53.6875 C 253.855469 55.320312 253.703125 56.699219 253.242188 58.507812 C 252.375 62.109375 251.28125 65.988281 249.800781 69.867188 C 247.125 76.859375 243.554688 84.589844 244.75 92.269531 C 246.359375 102.816406 258.328125 108.125 266.453125 118.707031 C 274.089844 128.800781 275.78125 138.851562 272.652344 149.433594 Z M 272.652344 149.433594 " fill-opacity="1" fill-rule="nonzero"/><path fill="#c9cee2" d="M 272.652344 149.433594 C 268.570312 162.574219 258.496094 171.226562 247.609375 178.703125 C 261.199219 168.546875 267.320312 150.324219 267.320312 135.957031 C 267.320312 121.132812 248.347656 115.238281 241.488281 98.652344 C 237.628906 89.304688 241.691406 72.902344 254.46875 53.6875 C 253.855469 55.320312 253.703125 56.699219 253.242188 58.507812 C 252.375 62.109375 251.28125 65.988281 249.800781 69.867188 C 247.125 76.859375 243.554688 84.589844 244.75 92.269531 C 246.359375 102.816406 258.328125 108.125 266.453125 118.707031 C 274.089844 128.800781 275.78125 138.851562 272.652344 149.433594 Z M 272.652344 149.433594 " fill-opacity="1" fill-rule="nonzero"/><path fill="#e3e7f0" d="M 205.144531 117.378906 C 200.304688 132.976562 187.949219 143.691406 174.152344 152.894531 C 177.269531 149.65625 179.367188 144.734375 181.703125 140.925781 C 185.625 134.386719 191.546875 125.902344 193.636719 115.128906 C 197.945312 93.570312 178.90625 84.285156 166.898438 71.1875 C 158.261719 61.46875 156.375 46.589844 162.21875 35.070312 C 164.449219 30.371094 177.082031 14.160156 183.59375 5.105469 C 183.714844 4.925781 183.773438 4.835938 183.773438 4.835938 C 183.054688 6.757812 182.875 8.375 182.335938 10.503906 C 181.316406 14.734375 180.027344 19.292969 178.289062 23.855469 C 175.140625 32.074219 170.941406 41.160156 172.351562 50.191406 C 174.242188 62.585938 188.308594 68.824219 197.863281 81.265625 C 206.839844 93.128906 208.824219 104.941406 205.144531 117.378906 Z M 205.144531 117.378906 " fill-opacity="1" fill-rule="nonzero"/><path fill="#c9cee2" d="M 205.144531 117.378906 C 200.351562 132.828125 188.507812 142.996094 175.710938 151.785156 C 191.6875 139.847656 198.882812 118.429688 198.882812 101.542969 C 198.882812 84.113281 176.578125 77.1875 168.515625 57.6875 C 162.269531 42.554688 174.695312 18.492188 183.773438 4.835938 C 183.054688 6.757812 182.875 8.375 182.335938 10.503906 C 181.316406 14.734375 180.027344 19.292969 178.289062 23.855469 C 175.140625 32.074219 170.941406 41.160156 172.351562 50.191406 C 174.242188 62.585938 188.308594 68.824219 197.863281 81.265625 C 206.839844 93.128906 208.824219 104.941406 205.144531 117.378906 Z M 205.144531 117.378906 " fill-opacity="1" fill-rule="nonzero"/><path fill="#111d33" d="M 313.988281 194.425781 L 259.914062 211.324219 L 291.613281 190.65625 C 299.378906 191.648438 306.890625 192.855469 313.988281 194.425781 Z M 313.988281 194.425781 " fill-opacity="0.3" fill-rule="nonzero"/></svg>