<?xml version="1.0" encoding="UTF-8"?>
<svg xmlns="http://www.w3.org/2000/svg" xmlns:xlink="http://www.w3.org/1999/xlink" width="100px" height="100px" viewBox="0 0 100 100" version="1.1">
<g id="surface1">
<path style=" stroke:none;fill-rule:nonzero;fill:rgb(10.588235%,61.56863%,15.686275%);fill-opacity:1;" d="M 61.683594 9.367188 C 62 9.261719 62.105469 9.054688 62.210938 8.738281 C 62.316406 8.421875 62.210938 8.105469 62 7.894531 C 61.789062 7.683594 61.472656 7.472656 60.945312 7.367188 C 60.839844 7.367188 60.738281 7.261719 60.632812 7.261719 C 60.527344 7.261719 60.421875 7.261719 60.421875 7.261719 L 59.894531 9.054688 L 60.316406 9.160156 C 60.945312 9.472656 61.367188 9.472656 61.683594 9.367188 Z M 61.683594 9.367188 "/>
<path style=" stroke:none;fill-rule:nonzero;fill:rgb(10.588235%,61.56863%,15.686275%);fill-opacity:1;" d="M 53.789062 90.738281 C 53.683594 90.527344 53.578125 90.316406 53.472656 90.105469 C 53.367188 89.894531 53.367188 89.789062 53.261719 89.683594 C 53.261719 89.789062 53.160156 89.894531 53.160156 90.105469 C 53.160156 90.316406 53.054688 90.527344 52.945312 90.738281 C 52.839844 90.945312 52.839844 91.261719 52.738281 91.472656 C 52.632812 91.789062 52.527344 92 52.527344 92.316406 L 54.527344 92.105469 C 54.421875 91.789062 54.316406 91.578125 54.105469 91.261719 C 54 91.160156 53.894531 90.945312 53.789062 90.738281 Z M 53.789062 90.738281 "/>
<path style=" stroke:none;fill-rule:nonzero;fill:rgb(10.588235%,61.56863%,15.686275%);fill-opacity:1;" d="M 54.316406 8.421875 C 54.210938 8.105469 54.210938 7.894531 54.105469 7.683594 C 54 7.472656 54 7.261719 53.894531 7.054688 C 53.894531 6.839844 53.789062 6.738281 53.789062 6.632812 C 53.789062 6.738281 53.683594 6.839844 53.578125 7.054688 C 53.472656 7.261719 53.367188 7.367188 53.261719 7.683594 C 53.160156 7.894531 53.054688 8.105469 52.945312 8.421875 C 52.839844 8.738281 52.738281 8.945312 52.527344 9.261719 L 54.527344 9.472656 C 54.527344 8.945312 54.421875 8.632812 54.316406 8.421875 Z M 54.316406 8.421875 "/>
<path style=" stroke:none;fill-rule:nonzero;fill:rgb(10.588235%,61.56863%,15.686275%);fill-opacity:1;" d="M 60.738281 88.316406 C 60.421875 88.210938 60.105469 88.316406 59.578125 88.421875 C 59.472656 88.421875 59.367188 88.527344 59.261719 88.527344 C 59.160156 88.527344 59.054688 88.632812 59.054688 88.632812 L 59.472656 90.421875 L 59.894531 90.316406 C 60.421875 90.210938 60.839844 90 61.054688 89.789062 C 61.261719 89.578125 61.367188 89.261719 61.261719 88.945312 C 61.160156 88.632812 60.945312 88.421875 60.738281 88.316406 Z M 60.738281 88.316406 "/>
<path style=" stroke:none;fill-rule:nonzero;fill:rgb(10.588235%,61.56863%,15.686275%);fill-opacity:1;" d="M 50 0 C 22.421875 0 0 22.421875 0 50 C 0 77.578125 22.421875 100 50 100 C 77.578125 100 100 77.578125 100 50 C 100 22.421875 77.578125 0 50 0 Z M 77.894531 14.421875 C 77.894531 14.738281 77.894531 15.054688 77.894531 15.472656 C 77.894531 15.894531 77.894531 16.316406 77.894531 16.738281 C 77.894531 17.160156 77.789062 17.683594 77.789062 18.105469 C 77.789062 18.632812 77.683594 19.054688 77.683594 19.472656 L 80.316406 16.316406 L 81.472656 17.367188 L 76.945312 22.632812 L 75.894531 21.789062 C 76.105469 20.839844 76.210938 20 76.316406 19.054688 C 76.421875 18.105469 76.421875 17.160156 76.421875 16.316406 L 73.472656 19.789062 L 72.316406 18.839844 L 76.839844 13.578125 Z M 83.261719 50 C 83.261719 68.316406 68.316406 83.261719 50 83.261719 C 31.683594 83.261719 16.738281 68.316406 16.738281 50 C 16.738281 31.683594 31.683594 16.738281 50 16.738281 C 68.316406 16.738281 83.261719 31.683594 83.261719 50 Z M 70.421875 11.367188 C 70.839844 11.054688 71.261719 10.738281 71.789062 10.421875 L 73.054688 11.160156 C 73.054688 11.683594 72.945312 12.210938 72.945312 12.738281 C 72.839844 13.261719 72.839844 13.894531 72.738281 14.421875 C 72.632812 15.054688 72.527344 15.683594 72.421875 16.316406 C 72.316406 16.945312 72.210938 17.683594 72 18.527344 L 70.527344 17.683594 C 70.527344 17.472656 70.632812 17.160156 70.632812 16.945312 C 70.632812 16.632812 70.738281 16.421875 70.738281 16.105469 L 68.421875 14.738281 C 68.210938 14.945312 68 15.054688 67.789062 15.261719 C 67.578125 15.472656 67.367188 15.578125 67.160156 15.789062 L 65.789062 14.945312 C 66.421875 14.421875 66.945312 14 67.472656 13.472656 C 68 13.054688 68.527344 12.632812 68.945312 12.210938 C 69.472656 12 69.894531 11.683594 70.421875 11.367188 Z M 67.789062 8.421875 L 65.160156 14.839844 L 63.683594 14.316406 L 66.316406 7.894531 Z M 59.261719 5.789062 C 59.578125 5.789062 60 5.894531 60.316406 5.894531 C 60.632812 6 60.945312 6 61.261719 6.105469 C 62.316406 6.421875 62.945312 6.738281 63.472656 7.261719 C 63.894531 7.789062 64 8.421875 63.789062 9.160156 C 63.683594 9.578125 63.472656 10 63.160156 10.210938 C 62.839844 10.421875 62.527344 10.632812 62 10.632812 C 62.105469 10.839844 62.210938 11.054688 62.316406 11.367188 C 62.421875 11.578125 62.527344 11.894531 62.527344 12.210938 C 62.632812 12.527344 62.632812 12.738281 62.738281 13.054688 C 62.839844 13.367188 62.839844 13.578125 62.945312 13.894531 L 61.261719 13.472656 C 61.160156 13.261719 61.160156 12.945312 61.054688 12.738281 C 60.945312 12.527344 60.945312 12.210938 60.839844 12 C 60.738281 11.789062 60.738281 11.472656 60.632812 11.261719 C 60.527344 11.054688 60.421875 10.839844 60.421875 10.632812 L 59.683594 10.421875 L 59.054688 12.839844 L 57.578125 12.421875 Z M 51.683594 7.894531 C 52 7.367188 52.210938 6.839844 52.527344 6.316406 C 52.738281 5.789062 53.054688 5.367188 53.367188 4.945312 L 54.839844 5.054688 C 55.054688 5.578125 55.160156 6.105469 55.367188 6.632812 C 55.578125 7.160156 55.683594 7.683594 55.894531 8.316406 C 56.105469 8.839844 56.210938 9.472656 56.421875 10.210938 C 56.632812 10.839844 56.738281 11.578125 56.945312 12.316406 L 55.261719 12.105469 C 55.160156 11.894531 55.160156 11.578125 55.054688 11.367188 C 54.945312 11.160156 54.945312 10.839844 54.839844 10.632812 L 52.105469 10.316406 C 52 10.527344 51.894531 10.839844 51.789062 11.054688 C 51.683594 11.261719 51.578125 11.578125 51.472656 11.789062 L 49.894531 11.683594 C 50.210938 10.945312 50.527344 10.316406 50.839844 9.683594 C 51.160156 9.054688 51.367188 8.421875 51.683594 7.894531 Z M 50.316406 4.738281 L 50.421875 6.105469 L 48.316406 6.210938 L 48.632812 11.789062 L 47.054688 11.894531 L 46.738281 6.316406 L 44.632812 6.421875 L 44.527344 5.054688 Z M 42.945312 5.367188 L 43.261719 6.632812 L 40.210938 7.261719 L 40.527344 8.632812 L 43.261719 8.105469 L 43.578125 9.367188 L 40.839844 9.894531 L 41.160156 11.578125 L 44.421875 10.839844 L 44.738281 12.105469 L 39.894531 13.160156 L 38.421875 6.316406 Z M 31.894531 9.472656 C 32.105469 9.054688 32.316406 8.738281 32.632812 8.421875 C 32.945312 8.105469 33.367188 7.894531 33.789062 7.683594 C 34.105469 7.578125 34.421875 7.472656 34.632812 7.367188 C 34.839844 7.261719 35.160156 7.261719 35.367188 7.261719 C 35.578125 7.261719 35.683594 7.261719 35.894531 7.261719 C 36 7.261719 36.105469 7.261719 36.210938 7.261719 L 36.210938 8.632812 C 36 8.632812 35.683594 8.632812 35.367188 8.632812 C 35.054688 8.632812 34.738281 8.738281 34.527344 8.839844 C 33.894531 9.160156 33.472656 9.472656 33.261719 10 C 33.160156 10.527344 33.160156 11.054688 33.367188 11.683594 C 33.472656 12 33.683594 12.316406 33.789062 12.527344 C 34 12.738281 34.210938 12.945312 34.421875 13.054688 C 34.632812 13.160156 34.839844 13.261719 35.160156 13.261719 C 35.472656 13.261719 35.683594 13.261719 36 13.160156 C 36.210938 13.054688 36.316406 13.054688 36.421875 12.945312 C 36.527344 12.945312 36.632812 12.839844 36.738281 12.839844 L 35.894531 10.632812 L 37.367188 10.105469 L 38.632812 13.261719 C 38.527344 13.367188 38.210938 13.578125 37.894531 13.789062 C 37.578125 14 37.054688 14.210938 36.527344 14.421875 C 36 14.632812 35.578125 14.738281 35.160156 14.738281 C 34.738281 14.738281 34.316406 14.632812 33.894531 14.527344 C 33.472656 14.316406 33.160156 14.105469 32.839844 13.683594 C 32.527344 13.367188 32.210938 12.839844 32 12.316406 C 31.789062 11.789062 31.683594 11.261719 31.683594 10.738281 C 31.578125 10.316406 31.683594 9.894531 31.894531 9.472656 Z M 28.945312 10 L 29.578125 11.160156 L 26.945312 12.738281 L 27.683594 13.894531 L 30.105469 12.421875 L 30.738281 13.472656 L 28.316406 14.945312 L 29.160156 16.421875 L 32 14.738281 L 32.632812 15.894531 L 28.421875 18.421875 L 24.839844 12.421875 Z M 19.367188 16.839844 C 19.683594 17.054688 20.105469 17.261719 20.527344 17.578125 C 20.945312 17.789062 21.367188 18.105469 21.789062 18.316406 C 22.210938 18.527344 22.632812 18.839844 23.054688 19.054688 C 23.472656 19.261719 23.789062 19.472656 24.105469 19.578125 C 24 19.261719 23.894531 18.839844 23.683594 18.421875 C 23.578125 18 23.367188 17.578125 23.160156 17.054688 C 22.945312 16.632812 22.839844 16.105469 22.632812 15.683594 C 22.421875 15.261719 22.316406 14.839844 22.105469 14.421875 L 23.367188 13.367188 C 23.578125 13.789062 23.683594 14.316406 23.894531 14.839844 C 24.105469 15.367188 24.316406 16 24.527344 16.632812 C 24.738281 17.261719 24.945312 17.894531 25.160156 18.527344 C 25.367188 19.160156 25.578125 19.789062 25.683594 20.421875 L 24.527344 21.367188 C 23.894531 21.054688 23.367188 20.839844 22.738281 20.527344 C 22.105469 20.210938 21.578125 19.894531 20.945312 19.578125 C 20.316406 19.261719 19.789062 18.945312 19.261719 18.632812 C 18.738281 18.316406 18.316406 18.105469 17.894531 17.789062 Z M 18.421875 76.945312 C 18.210938 77.054688 18 77.160156 17.789062 77.160156 C 17.472656 77.160156 17.160156 77.054688 16.945312 76.738281 C 10.839844 69.160156 7.472656 59.683594 7.472656 49.894531 C 7.472656 40.316406 10.527344 31.261719 16.421875 23.789062 C 16.738281 23.367188 17.472656 23.261719 17.894531 23.578125 C 18.316406 23.894531 18.421875 24.632812 18.105469 25.054688 C 12.527344 32.210938 9.578125 40.738281 9.578125 49.894531 C 9.578125 59.160156 12.839844 68.210938 18.632812 75.367188 C 18.945312 75.894531 18.839844 76.632812 18.421875 76.945312 Z M 21.789062 85.472656 L 20.632812 84.527344 C 20.738281 83.894531 20.945312 83.261719 21.160156 82.632812 C 21.367188 82 21.578125 81.367188 21.789062 80.738281 C 22 80.105469 22.210938 79.472656 22.421875 78.945312 C 22.632812 78.421875 22.839844 77.894531 22.945312 77.472656 L 24.316406 78.527344 C 24.210938 78.945312 24 79.367188 23.789062 79.789062 C 23.578125 80.210938 23.472656 80.738281 23.261719 81.160156 C 23.054688 81.578125 22.945312 82.105469 22.738281 82.527344 C 22.632812 82.945312 22.421875 83.367188 22.421875 83.683594 C 22.738281 83.578125 23.054688 83.367188 23.472656 83.160156 C 23.894531 82.945312 24.316406 82.738281 24.738281 82.421875 C 25.160156 82.210938 25.578125 81.894531 26 81.683594 C 26.421875 81.472656 26.839844 81.160156 27.160156 80.945312 L 28.421875 82 C 28 82.210938 27.578125 82.527344 27.054688 82.839844 C 26.527344 83.160156 26 83.472656 25.367188 83.789062 C 24.839844 84.105469 24.210938 84.421875 23.578125 84.738281 C 22.945312 84.839844 22.421875 85.160156 21.789062 85.472656 Z M 30.527344 87.578125 L 28.105469 86.210938 L 27.261719 87.683594 L 30.210938 89.367188 L 29.578125 90.527344 L 25.367188 88.105469 L 28.839844 82.105469 L 32.839844 84.421875 L 32.210938 85.578125 L 29.472656 84 L 28.738281 85.160156 L 31.160156 86.527344 Z M 33.578125 90.210938 C 33.683594 90.421875 33.789062 90.632812 34 90.839844 C 34.210938 91.054688 34.421875 91.160156 34.738281 91.261719 C 34.945312 91.367188 35.054688 91.367188 35.160156 91.367188 C 35.261719 91.367188 35.367188 91.472656 35.472656 91.472656 L 36.316406 89.261719 L 37.789062 89.789062 L 36.527344 92.945312 C 36.316406 92.945312 36 92.945312 35.578125 92.839844 C 35.160156 92.738281 34.632812 92.632812 34.105469 92.421875 C 33.578125 92.210938 33.160156 92 32.839844 91.683594 C 32.527344 91.367188 32.210938 91.054688 32.105469 90.632812 C 32 90.210938 31.894531 89.789062 31.894531 89.367188 C 31.894531 88.839844 32 88.421875 32.210938 87.894531 C 32.421875 87.367188 32.738281 86.945312 33.054688 86.527344 C 33.367188 86.210938 33.789062 85.894531 34.105469 85.683594 C 34.527344 85.472656 34.945312 85.367188 35.367188 85.472656 C 35.789062 85.578125 36.316406 85.578125 36.738281 85.683594 C 37.054688 85.789062 37.261719 85.894531 37.578125 86.105469 C 37.789062 86.210938 38 86.421875 38.210938 86.527344 C 38.316406 86.632812 38.527344 86.738281 38.632812 86.839844 C 38.738281 86.945312 38.839844 87.054688 38.839844 87.054688 L 38 88.105469 C 37.789062 87.894531 37.683594 87.789062 37.367188 87.578125 C 37.160156 87.367188 36.839844 87.261719 36.527344 87.160156 C 35.894531 86.945312 35.261719 86.945312 34.839844 87.160156 C 34.421875 87.367188 34 87.894531 33.789062 88.527344 C 33.683594 88.839844 33.578125 89.160156 33.578125 89.472656 C 33.472656 89.683594 33.472656 90 33.578125 90.210938 Z M 44.210938 89.261719 L 41.160156 88.632812 L 40.945312 90 L 43.683594 90.527344 L 43.472656 91.789062 L 40.738281 91.261719 L 40.421875 92.945312 L 43.683594 93.683594 L 43.367188 94.945312 L 38.527344 93.894531 L 39.894531 87.054688 L 44.527344 88 Z M 48.527344 89.683594 L 48.210938 95.261719 L 46.632812 95.160156 L 46.945312 89.578125 L 44.839844 89.472656 L 44.945312 88.105469 L 50.738281 88.421875 L 50.632812 89.789062 Z M 55.683594 94.945312 C 55.578125 94.738281 55.472656 94.527344 55.367188 94.210938 C 55.261719 94 55.160156 93.683594 55.054688 93.472656 L 52.316406 93.683594 C 52.210938 93.894531 52.210938 94.210938 52.105469 94.421875 C 52 94.632812 52 94.945312 51.894531 95.160156 L 50.316406 95.261719 C 50.527344 94.527344 50.738281 93.789062 50.839844 93.160156 C 51.054688 92.527344 51.160156 91.894531 51.367188 91.261719 C 51.578125 90.738281 51.683594 90.105469 51.894531 89.578125 C 52.105469 89.054688 52.210938 88.527344 52.421875 88 L 53.894531 87.894531 C 54.210938 88.316406 54.421875 88.839844 54.738281 89.261719 C 54.945312 89.789062 55.261719 90.210938 55.578125 90.839844 C 55.894531 91.367188 56.105469 92 56.421875 92.527344 C 56.738281 93.160156 57.054688 93.789062 57.367188 94.527344 Z M 62.738281 93.472656 C 62.527344 93.261719 62.421875 93.054688 62.210938 92.945312 C 62 92.738281 61.789062 92.527344 61.683594 92.421875 C 61.472656 92.210938 61.261719 92.105469 61.160156 91.894531 C 60.945312 91.789062 60.839844 91.578125 60.632812 91.472656 L 59.894531 91.683594 L 60.527344 94.105469 L 59.054688 94.527344 L 57.367188 87.894531 C 57.683594 87.789062 58 87.578125 58.316406 87.472656 C 58.632812 87.367188 58.945312 87.261719 59.261719 87.160156 C 60.316406 86.945312 61.054688 86.839844 61.683594 87.054688 C 62.316406 87.261719 62.738281 87.789062 62.945312 88.527344 C 63.054688 88.945312 63.054688 89.367188 62.945312 89.789062 C 62.839844 90.105469 62.527344 90.421875 62.210938 90.738281 C 62.421875 90.839844 62.632812 91.054688 62.738281 91.160156 C 62.945312 91.367188 63.160156 91.472656 63.367188 91.683594 C 63.578125 91.894531 63.789062 92.105469 64 92.316406 C 64.210938 92.527344 64.421875 92.738281 64.527344 92.945312 Z M 65.789062 92.421875 L 63.261719 86 L 64.738281 85.472656 L 67.261719 91.894531 Z M 73.367188 88.839844 C 73.160156 88.632812 72.945312 88.527344 72.839844 88.316406 C 72.632812 88.105469 72.421875 88 72.210938 87.789062 L 69.789062 89.054688 C 69.789062 89.367188 69.894531 89.578125 69.894531 89.894531 C 69.894531 90.210938 70 90.421875 70 90.632812 L 68.527344 91.367188 C 68.421875 90.632812 68.316406 89.894531 68.210938 89.160156 C 68.105469 88.527344 68 87.894531 68 87.261719 C 67.894531 86.632812 67.894531 86.105469 67.789062 85.578125 C 67.789062 85.054688 67.683594 84.527344 67.683594 84 L 68.945312 83.261719 C 69.367188 83.578125 69.789062 83.894531 70.210938 84.210938 C 70.632812 84.527344 71.054688 84.945312 71.578125 85.261719 C 72 85.683594 72.527344 86.105469 73.054688 86.527344 C 73.578125 86.945312 74.105469 87.472656 74.738281 88 Z M 79.789062 84.105469 C 78.945312 83.789062 78.105469 83.472656 77.160156 83.160156 C 76.316406 82.839844 75.367188 82.632812 74.527344 82.527344 L 77.367188 86.105469 L 76.210938 87.054688 L 71.789062 81.683594 L 72.738281 80.839844 C 73.054688 80.839844 73.367188 80.945312 73.789062 81.054688 C 74.210938 81.160156 74.632812 81.261719 75.054688 81.367188 C 75.472656 81.472656 76 81.578125 76.421875 81.683594 C 76.839844 81.789062 77.367188 81.894531 77.683594 82.105469 L 75.160156 78.945312 L 76.316406 78 L 80.738281 83.367188 Z M 83.054688 76.839844 C 82.839844 77.054688 82.527344 77.261719 82.210938 77.261719 C 82 77.261719 81.789062 77.160156 81.578125 77.054688 C 81.160156 76.738281 81.054688 76 81.472656 75.578125 C 87.261719 68.421875 90.527344 59.367188 90.527344 50.105469 C 90.527344 41.054688 87.578125 32.421875 82 25.261719 C 81.578125 24.738281 81.683594 24.105469 82.105469 23.683594 C 82.527344 23.367188 83.261719 23.367188 83.578125 23.894531 C 89.472656 31.367188 92.527344 40.421875 92.527344 50 C 92.527344 59.789062 89.160156 69.261719 83.054688 76.839844 Z M 83.054688 76.839844 "/>
<path style=" stroke:none;fill-rule:nonzero;fill:rgb(10.588235%,61.56863%,15.686275%);fill-opacity:1;" d="M 70 85.683594 C 69.789062 85.578125 69.683594 85.367188 69.472656 85.261719 C 69.367188 85.160156 69.261719 85.054688 69.160156 84.945312 C 69.160156 85.054688 69.160156 85.160156 69.261719 85.367188 C 69.261719 85.578125 69.367188 85.789062 69.367188 86 C 69.367188 86.210938 69.472656 86.527344 69.472656 86.839844 C 69.472656 87.160156 69.578125 87.472656 69.578125 87.789062 L 71.367188 86.839844 C 71.160156 86.632812 70.945312 86.421875 70.632812 86.210938 C 70.316406 86.105469 70.105469 85.894531 70 85.683594 Z M 70 85.683594 "/>
<path style=" stroke:none;fill-rule:nonzero;fill:rgb(10.588235%,61.56863%,15.686275%);fill-opacity:1;" d="M 71.261719 14 C 71.261719 13.683594 71.367188 13.472656 71.367188 13.160156 C 71.367188 12.945312 71.472656 12.738281 71.472656 12.527344 C 71.472656 12.316406 71.472656 12.210938 71.578125 12.105469 C 71.472656 12.210938 71.367188 12.316406 71.261719 12.421875 C 71.160156 12.527344 70.945312 12.632812 70.738281 12.839844 C 70.527344 12.945312 70.316406 13.160156 70.105469 13.367188 C 69.894531 13.578125 69.683594 13.789062 69.367188 14 L 71.054688 14.945312 C 71.160156 14.527344 71.160156 14.210938 71.261719 14 Z M 71.261719 14 "/>
<path style=" stroke:none;fill-rule:nonzero;fill:rgb(10.588235%,61.56863%,15.686275%);fill-opacity:1;" d="M 59.054688 44.421875 C 59.054688 45.578125 58.945312 46.632812 58.839844 47.683594 C 56.945312 49.261719 55.054688 51.160156 53.367188 53.472656 C 52 55.367188 50.945312 57.261719 50 59.160156 C 49.683594 58.421875 49.367188 57.789062 48.945312 57.054688 C 48.210938 47.261719 49.578125 38.738281 49.472656 35.261719 C 47.683594 41.578125 46.839844 47.894531 46.738281 53.578125 C 45.054688 51.261719 43.160156 49.261719 41.160156 47.683594 C 41.054688 46.738281 41.054688 45.894531 41.054688 44.945312 C 41.160156 33.894531 46.839844 26.421875 49.472656 23.578125 C 50 23.054688 50.839844 23.054688 51.261719 23.578125 C 53.683594 26.316406 59.160156 33.683594 59.054688 44.421875 Z M 59.054688 44.421875 "/>
<path style=" stroke:none;fill-rule:nonzero;fill:rgb(10.588235%,61.56863%,15.686275%);fill-opacity:1;" d="M 69.683594 64.839844 C 64.421875 71.894531 57.472656 74.839844 53.160156 76 L 53.160156 73.054688 C 53.160156 72.632812 53.160156 72.105469 53.054688 71.578125 C 58.316406 62.210938 65.261719 55.261719 67.367188 52.210938 C 61.261719 56.945312 56.316406 62.738281 52.632812 67.894531 C 52.316406 66.105469 51.894531 64.210938 51.261719 62.316406 C 52.105469 59.894531 53.472656 57.367188 55.261719 54.945312 C 61.683594 46.105469 70.738281 43.578125 74.210938 42.839844 C 74.839844 42.738281 75.367188 43.160156 75.472656 43.789062 C 75.683594 47.160156 76 56.316406 69.683594 64.839844 Z M 69.683594 64.839844 "/>
<path style=" stroke:none;fill-rule:nonzero;fill:rgb(10.588235%,61.56863%,15.686275%);fill-opacity:1;" d="M 50.738281 73.054688 C 46.945312 66.945312 40.945312 58.632812 32.632812 52.210938 C 35.054688 55.789062 44.105469 64.632812 49.472656 76.632812 C 46 76 36.839844 73.683594 30.316406 64.839844 C 24 56.316406 24.210938 47.160156 24.527344 43.683594 C 24.632812 43.054688 25.160156 42.632812 25.789062 42.738281 C 29.261719 43.472656 38.316406 46.105469 44.738281 54.839844 C 49.683594 61.683594 50.738281 68.738281 50.738281 73.054688 Z M 50.738281 73.054688 "/>
</g>
</svg>
