<svg xmlns="http://www.w3.org/2000/svg" xmlns:xlink="http://www.w3.org/1999/xlink" width="500" zoomAndPan="magnify" viewBox="0 0 375 374.999991" height="500" preserveAspectRatio="xMidYMid meet" version="1.0"><path fill="#1b9d28" d="M 231.316406 35.132812 C 232.5 34.738281 232.894531 33.949219 233.289062 32.761719 C 233.683594 31.578125 233.289062 30.394531 232.5 29.605469 C 231.710938 28.816406 230.527344 28.027344 228.550781 27.632812 C 228.15625 27.632812 227.761719 27.238281 227.367188 27.238281 C 226.972656 27.238281 226.578125 27.238281 226.578125 27.238281 L 224.605469 33.949219 L 226.183594 34.34375 C 228.550781 35.527344 230.132812 35.527344 231.316406 35.132812 Z M 231.316406 35.132812 " fill-opacity="1" fill-rule="nonzero"/><path fill="#1b9d28" d="M 201.710938 340.261719 C 201.316406 339.472656 200.921875 338.683594 200.527344 337.894531 C 200.132812 337.105469 200.132812 336.710938 199.738281 336.316406 C 199.738281 336.710938 199.34375 337.105469 199.34375 337.894531 C 199.34375 338.683594 198.949219 339.472656 198.550781 340.261719 C 198.15625 341.050781 198.15625 342.238281 197.761719 343.027344 C 197.367188 344.210938 196.972656 345 196.972656 346.183594 L 204.472656 345.394531 C 204.078125 344.210938 203.683594 343.421875 202.894531 342.238281 C 202.5 341.84375 202.105469 341.050781 201.710938 340.261719 Z M 201.710938 340.261719 " fill-opacity="1" fill-rule="nonzero"/><path fill="#1b9d28" d="M 203.683594 31.578125 C 203.289062 30.394531 203.289062 29.605469 202.894531 28.816406 C 202.5 28.027344 202.5 27.238281 202.105469 26.449219 C 202.105469 25.65625 201.710938 25.261719 201.710938 24.867188 C 201.710938 25.261719 201.316406 25.65625 200.921875 26.449219 C 200.527344 27.238281 200.132812 27.632812 199.738281 28.816406 C 199.34375 29.605469 198.949219 30.394531 198.550781 31.578125 C 198.15625 32.761719 197.761719 33.550781 196.972656 34.738281 L 204.472656 35.527344 C 204.472656 33.550781 204.078125 32.367188 203.683594 31.578125 Z M 203.683594 31.578125 " fill-opacity="1" fill-rule="nonzero"/><path fill="#1b9d28" d="M 227.761719 331.183594 C 226.578125 330.789062 225.394531 331.183594 223.421875 331.578125 C 223.027344 331.578125 222.632812 331.972656 222.238281 331.972656 C 221.84375 331.972656 221.449219 332.367188 221.449219 332.367188 L 223.027344 339.078125 L 224.605469 338.683594 C 226.578125 338.289062 228.15625 337.5 228.949219 336.710938 C 229.738281 335.921875 230.132812 334.738281 229.738281 333.550781 C 229.34375 332.367188 228.550781 331.578125 227.761719 331.183594 Z M 227.761719 331.183594 " fill-opacity="1" fill-rule="nonzero"/><path fill="#1b9d28" d="M 187.5 0 C 84.078125 0 0 84.078125 0 187.5 C 0 290.921875 84.078125 375 187.5 375 C 290.921875 375 375 290.921875 375 187.5 C 375 84.078125 290.921875 0 187.5 0 Z M 292.105469 54.078125 C 292.105469 55.261719 292.105469 56.449219 292.105469 58.027344 C 292.105469 59.605469 292.105469 61.183594 292.105469 62.761719 C 292.105469 64.34375 291.710938 66.316406 291.710938 67.894531 C 291.710938 69.867188 291.316406 71.449219 291.316406 73.027344 L 301.183594 61.183594 L 305.527344 65.132812 L 288.550781 84.867188 L 284.605469 81.710938 C 285.394531 78.15625 285.789062 75 286.183594 71.449219 C 286.578125 67.894531 286.578125 64.34375 286.578125 61.183594 L 275.527344 74.210938 L 271.183594 70.65625 L 288.15625 50.921875 Z M 312.238281 187.5 C 312.238281 256.183594 256.183594 312.238281 187.5 312.238281 C 118.816406 312.238281 62.761719 256.183594 62.761719 187.5 C 62.761719 118.816406 118.816406 62.761719 187.5 62.761719 C 256.183594 62.761719 312.238281 118.816406 312.238281 187.5 Z M 264.078125 42.632812 C 265.65625 41.449219 267.238281 40.261719 269.210938 39.078125 L 273.949219 41.84375 C 273.949219 43.816406 273.550781 45.789062 273.550781 47.761719 C 273.15625 49.738281 273.15625 52.105469 272.761719 54.078125 C 272.367188 56.449219 271.972656 58.816406 271.578125 61.183594 C 271.183594 63.550781 270.789062 66.316406 270 69.472656 L 264.472656 66.316406 C 264.472656 65.527344 264.867188 64.34375 264.867188 63.550781 C 264.867188 62.367188 265.261719 61.578125 265.261719 60.394531 L 256.578125 55.261719 C 255.789062 56.050781 255 56.449219 254.210938 57.238281 C 253.421875 58.027344 252.632812 58.421875 251.84375 59.210938 L 246.710938 56.050781 C 249.078125 54.078125 251.050781 52.5 253.027344 50.527344 C 255 48.949219 256.972656 47.367188 258.550781 45.789062 C 260.527344 45 262.105469 43.816406 264.078125 42.632812 Z M 254.210938 31.578125 L 244.34375 55.65625 L 238.816406 53.683594 L 248.683594 29.605469 Z M 222.238281 21.710938 C 223.421875 21.710938 225 22.105469 226.183594 22.105469 C 227.367188 22.5 228.550781 22.5 229.738281 22.894531 C 233.683594 24.078125 236.050781 25.261719 238.027344 27.238281 C 239.605469 29.210938 240 31.578125 239.210938 34.34375 C 238.816406 35.921875 238.027344 37.5 236.84375 38.289062 C 235.65625 39.078125 234.472656 39.867188 232.5 39.867188 C 232.894531 40.65625 233.289062 41.449219 233.683594 42.632812 C 234.078125 43.421875 234.472656 44.605469 234.472656 45.789062 C 234.867188 46.972656 234.867188 47.761719 235.261719 48.949219 C 235.65625 50.132812 235.65625 50.921875 236.050781 52.105469 L 229.738281 50.527344 C 229.34375 49.738281 229.34375 48.550781 228.949219 47.761719 C 228.550781 46.972656 228.550781 45.789062 228.15625 45 C 227.761719 44.210938 227.761719 43.027344 227.367188 42.238281 C 226.972656 41.449219 226.578125 40.65625 226.578125 39.867188 L 223.816406 39.078125 L 221.449219 48.15625 L 215.921875 46.578125 Z M 193.816406 29.605469 C 195 27.632812 195.789062 25.65625 196.972656 23.683594 C 197.761719 21.710938 198.949219 20.132812 200.132812 18.550781 L 205.65625 18.949219 C 206.449219 20.921875 206.84375 22.894531 207.632812 24.867188 C 208.421875 26.84375 208.816406 28.816406 209.605469 31.183594 C 210.394531 33.15625 210.789062 35.527344 211.578125 38.289062 C 212.367188 40.65625 212.761719 43.421875 213.550781 46.183594 L 207.238281 45.394531 C 206.84375 44.605469 206.84375 43.421875 206.449219 42.632812 C 206.050781 41.84375 206.050781 40.65625 205.65625 39.867188 L 195.394531 38.683594 C 195 39.472656 194.605469 40.65625 194.210938 41.449219 C 193.816406 42.238281 193.421875 43.421875 193.027344 44.210938 L 187.105469 43.816406 C 188.289062 41.050781 189.472656 38.683594 190.65625 36.316406 C 191.84375 33.949219 192.632812 31.578125 193.816406 29.605469 Z M 188.683594 17.761719 L 189.078125 22.894531 L 181.183594 23.289062 L 182.367188 44.210938 L 176.449219 44.605469 L 175.261719 23.683594 L 167.367188 24.078125 L 166.972656 18.949219 Z M 161.050781 20.132812 L 162.238281 24.867188 L 150.789062 27.238281 L 151.972656 32.367188 L 162.238281 30.394531 L 163.421875 35.132812 L 153.15625 37.105469 L 154.34375 43.421875 L 166.578125 40.65625 L 167.761719 45.394531 L 149.605469 49.34375 L 144.078125 23.683594 Z M 119.605469 35.527344 C 120.394531 33.949219 121.183594 32.761719 122.367188 31.578125 C 123.550781 30.394531 125.132812 29.605469 126.710938 28.816406 C 127.894531 28.421875 129.078125 28.027344 129.867188 27.632812 C 130.65625 27.238281 131.84375 27.238281 132.632812 27.238281 C 133.421875 27.238281 133.816406 27.238281 134.605469 27.238281 C 135 27.238281 135.394531 27.238281 135.789062 27.238281 L 135.789062 32.367188 C 135 32.367188 133.816406 32.367188 132.632812 32.367188 C 131.449219 32.367188 130.261719 32.761719 129.472656 33.15625 C 127.105469 34.34375 125.527344 35.527344 124.738281 37.5 C 124.34375 39.472656 124.34375 41.449219 125.132812 43.816406 C 125.527344 45 126.316406 46.183594 126.710938 46.972656 C 127.5 47.761719 128.289062 48.550781 129.078125 48.949219 C 129.867188 49.34375 130.65625 49.738281 131.84375 49.738281 C 133.027344 49.738281 133.816406 49.738281 135 49.34375 C 135.789062 48.949219 136.183594 48.949219 136.578125 48.550781 C 136.972656 48.550781 137.367188 48.15625 137.761719 48.15625 L 134.605469 39.867188 L 140.132812 37.894531 L 144.867188 49.738281 C 144.472656 50.132812 143.289062 50.921875 142.105469 51.710938 C 140.921875 52.5 138.949219 53.289062 136.972656 54.078125 C 135 54.867188 133.421875 55.261719 131.84375 55.261719 C 130.261719 55.261719 128.683594 54.867188 127.105469 54.472656 C 125.527344 53.683594 124.34375 52.894531 123.15625 51.316406 C 121.972656 50.132812 120.789062 48.15625 120 46.183594 C 119.210938 44.210938 118.816406 42.238281 118.816406 40.261719 C 118.421875 38.683594 118.816406 37.105469 119.605469 35.527344 Z M 108.550781 37.5 L 110.921875 41.84375 L 101.050781 47.761719 L 103.816406 52.105469 L 112.894531 46.578125 L 115.261719 50.527344 L 106.183594 56.050781 L 109.34375 61.578125 L 120 55.261719 L 122.367188 59.605469 L 106.578125 69.078125 L 93.15625 46.578125 Z M 72.632812 63.15625 C 73.816406 63.949219 75.394531 64.738281 76.972656 65.921875 C 78.550781 66.710938 80.132812 67.894531 81.710938 68.683594 C 83.289062 69.472656 84.867188 70.65625 86.449219 71.449219 C 88.027344 72.238281 89.210938 73.027344 90.394531 73.421875 C 90 72.238281 89.605469 70.65625 88.816406 69.078125 C 88.421875 67.5 87.632812 65.921875 86.84375 63.949219 C 86.050781 62.367188 85.65625 60.394531 84.867188 58.816406 C 84.078125 57.238281 83.683594 55.65625 82.894531 54.078125 L 87.632812 50.132812 C 88.421875 51.710938 88.816406 53.683594 89.605469 55.65625 C 90.394531 57.632812 91.183594 60 91.972656 62.367188 C 92.761719 64.738281 93.550781 67.105469 94.34375 69.472656 C 95.132812 71.84375 95.921875 74.210938 96.316406 76.578125 L 91.972656 80.132812 C 89.605469 78.949219 87.632812 78.15625 85.261719 76.972656 C 82.894531 75.789062 80.921875 74.605469 78.550781 73.421875 C 76.183594 72.238281 74.210938 71.050781 72.238281 69.867188 C 70.261719 68.683594 68.683594 67.894531 67.105469 66.710938 Z M 69.078125 288.550781 C 68.289062 288.949219 67.5 289.34375 66.710938 289.34375 C 65.527344 289.34375 64.34375 288.949219 63.550781 287.761719 C 40.65625 259.34375 28.027344 223.816406 28.027344 187.105469 C 28.027344 151.183594 39.472656 117.238281 61.578125 89.210938 C 62.761719 87.632812 65.527344 87.238281 67.105469 88.421875 C 68.683594 89.605469 69.078125 92.367188 67.894531 93.949219 C 46.972656 120.789062 35.921875 152.761719 35.921875 187.105469 C 35.921875 221.84375 48.15625 255.789062 69.867188 282.632812 C 71.050781 284.605469 70.65625 287.367188 69.078125 288.550781 Z M 81.710938 320.527344 L 77.367188 316.972656 C 77.761719 314.605469 78.550781 312.238281 79.34375 309.867188 C 80.132812 307.5 80.921875 305.132812 81.710938 302.761719 C 82.5 300.394531 83.289062 298.027344 84.078125 296.050781 C 84.867188 294.078125 85.65625 292.105469 86.050781 290.527344 L 91.183594 294.472656 C 90.789062 296.050781 90 297.632812 89.210938 299.210938 C 88.421875 300.789062 88.027344 302.761719 87.238281 304.34375 C 86.449219 305.921875 86.050781 307.894531 85.261719 309.472656 C 84.867188 311.050781 84.078125 312.632812 84.078125 313.816406 C 85.261719 313.421875 86.449219 312.632812 88.027344 311.84375 C 89.605469 311.050781 91.183594 310.261719 92.761719 309.078125 C 94.34375 308.289062 95.921875 307.105469 97.5 306.316406 C 99.078125 305.527344 100.65625 304.34375 101.84375 303.550781 L 106.578125 307.5 C 105 308.289062 103.421875 309.472656 101.449219 310.65625 C 99.472656 311.84375 97.5 313.027344 95.132812 314.210938 C 93.15625 315.394531 90.789062 316.578125 88.421875 317.761719 C 86.050781 318.15625 84.078125 319.34375 81.710938 320.527344 Z M 114.472656 328.421875 L 105.394531 323.289062 L 102.238281 328.816406 L 113.289062 335.132812 L 110.921875 339.472656 L 95.132812 330.394531 L 108.15625 307.894531 L 123.15625 316.578125 L 120.789062 320.921875 L 110.527344 315 L 107.761719 319.34375 L 116.84375 324.472656 Z M 125.921875 338.289062 C 126.316406 339.078125 126.710938 339.867188 127.5 340.65625 C 128.289062 341.449219 129.078125 341.84375 130.261719 342.238281 C 131.050781 342.632812 131.449219 342.632812 131.84375 342.632812 C 132.238281 342.632812 132.632812 343.027344 133.027344 343.027344 L 136.183594 334.738281 L 141.710938 336.710938 L 136.972656 348.550781 C 136.183594 348.550781 135 348.550781 133.421875 348.15625 C 131.84375 347.761719 129.867188 347.367188 127.894531 346.578125 C 125.921875 345.789062 124.34375 345 123.15625 343.816406 C 121.972656 342.632812 120.789062 341.449219 120.394531 339.867188 C 120 338.289062 119.605469 336.710938 119.605469 335.132812 C 119.605469 333.15625 120 331.578125 120.789062 329.605469 C 121.578125 327.632812 122.761719 326.050781 123.949219 324.472656 C 125.132812 323.289062 126.710938 322.105469 127.894531 321.316406 C 129.472656 320.527344 131.050781 320.132812 132.632812 320.527344 C 134.210938 320.921875 136.183594 320.921875 137.761719 321.316406 C 138.949219 321.710938 139.738281 322.105469 140.921875 322.894531 C 141.710938 323.289062 142.5 324.078125 143.289062 324.472656 C 143.683594 324.867188 144.472656 325.261719 144.867188 325.65625 C 145.261719 326.050781 145.65625 326.449219 145.65625 326.449219 L 142.5 330.394531 C 141.710938 329.605469 141.316406 329.210938 140.132812 328.421875 C 139.34375 327.632812 138.15625 327.238281 136.972656 326.84375 C 134.605469 326.050781 132.238281 326.050781 130.65625 326.84375 C 129.078125 327.632812 127.5 329.605469 126.710938 331.972656 C 126.316406 333.15625 125.921875 334.34375 125.921875 335.527344 C 125.527344 336.316406 125.527344 337.5 125.921875 338.289062 Z M 165.789062 334.738281 L 154.34375 332.367188 L 153.550781 337.5 L 163.816406 339.472656 L 163.027344 344.210938 L 152.761719 342.238281 L 151.578125 348.550781 L 163.816406 351.316406 L 162.632812 356.050781 L 144.472656 352.105469 L 149.605469 326.449219 L 166.972656 330 Z M 181.972656 336.316406 L 180.789062 357.238281 L 174.867188 356.84375 L 176.050781 335.921875 L 168.15625 335.527344 L 168.550781 330.394531 L 190.261719 331.578125 L 189.867188 336.710938 Z M 208.816406 356.050781 C 208.421875 355.261719 208.027344 354.472656 207.632812 353.289062 C 207.238281 352.5 206.84375 351.316406 206.449219 350.527344 L 196.183594 351.316406 C 195.789062 352.105469 195.789062 353.289062 195.394531 354.078125 C 195 354.867188 195 356.050781 194.605469 356.84375 L 188.683594 357.238281 C 189.472656 354.472656 190.261719 351.710938 190.65625 349.34375 C 191.449219 346.972656 191.84375 344.605469 192.632812 342.238281 C 193.421875 340.261719 193.816406 337.894531 194.605469 335.921875 C 195.394531 333.949219 195.789062 331.972656 196.578125 330 L 202.105469 329.605469 C 203.289062 331.183594 204.078125 333.15625 205.261719 334.738281 C 206.050781 336.710938 207.238281 338.289062 208.421875 340.65625 C 209.605469 342.632812 210.394531 345 211.578125 346.972656 C 212.761719 349.34375 213.949219 351.710938 215.132812 354.472656 Z M 235.261719 350.527344 C 234.472656 349.738281 234.078125 348.949219 233.289062 348.550781 C 232.5 347.761719 231.710938 346.972656 231.316406 346.578125 C 230.527344 345.789062 229.738281 345.394531 229.34375 344.605469 C 228.550781 344.210938 228.15625 343.421875 227.367188 343.027344 L 224.605469 343.816406 L 226.972656 352.894531 L 221.449219 354.472656 L 215.132812 329.605469 C 216.316406 329.210938 217.5 328.421875 218.683594 328.027344 C 219.867188 327.632812 221.050781 327.238281 222.238281 326.84375 C 226.183594 326.050781 228.949219 325.65625 231.316406 326.449219 C 233.683594 327.238281 235.261719 329.210938 236.050781 331.972656 C 236.449219 333.550781 236.449219 335.132812 236.050781 336.710938 C 235.65625 337.894531 234.472656 339.078125 233.289062 340.261719 C 234.078125 340.65625 234.867188 341.449219 235.261719 341.84375 C 236.050781 342.632812 236.84375 343.027344 237.632812 343.816406 C 238.421875 344.605469 239.210938 345.394531 240 346.183594 C 240.789062 346.972656 241.578125 347.761719 241.972656 348.550781 Z M 246.710938 346.578125 L 237.238281 322.5 L 242.761719 320.527344 L 252.238281 344.605469 Z M 275.132812 333.15625 C 274.34375 332.367188 273.550781 331.972656 273.15625 331.183594 C 272.367188 330.394531 271.578125 330 270.789062 329.210938 L 261.710938 333.949219 C 261.710938 335.132812 262.105469 335.921875 262.105469 337.105469 C 262.105469 338.289062 262.5 339.078125 262.5 339.867188 L 256.972656 342.632812 C 256.578125 339.867188 256.183594 337.105469 255.789062 334.34375 C 255.394531 331.972656 255 329.605469 255 327.238281 C 254.605469 324.867188 254.605469 322.894531 254.210938 320.921875 C 254.210938 318.949219 253.816406 316.972656 253.816406 315 L 258.550781 312.238281 C 260.132812 313.421875 261.710938 314.605469 263.289062 315.789062 C 264.867188 316.972656 266.449219 318.550781 268.421875 319.738281 C 270 321.316406 271.972656 322.894531 273.949219 324.472656 C 275.921875 326.050781 277.894531 328.027344 280.261719 330 Z M 299.210938 315.394531 C 296.050781 314.210938 292.894531 313.027344 289.34375 311.84375 C 286.183594 310.65625 282.632812 309.867188 279.472656 309.472656 L 290.132812 322.894531 L 285.789062 326.449219 L 269.210938 306.316406 L 272.761719 303.15625 C 273.949219 303.15625 275.132812 303.550781 276.710938 303.949219 C 278.289062 304.34375 279.867188 304.738281 281.449219 305.132812 C 283.027344 305.527344 285 305.921875 286.578125 306.316406 C 288.15625 306.710938 290.132812 307.105469 291.316406 307.894531 L 281.84375 296.050781 L 286.183594 292.5 L 302.761719 312.632812 Z M 311.449219 288.15625 C 310.65625 288.949219 309.472656 289.738281 308.289062 289.738281 C 307.5 289.738281 306.710938 289.34375 305.921875 288.949219 C 304.34375 287.761719 303.949219 285 305.527344 283.421875 C 327.238281 256.578125 339.472656 222.632812 339.472656 187.894531 C 339.472656 153.949219 328.421875 121.578125 307.5 94.738281 C 305.921875 92.761719 306.316406 90.394531 307.894531 88.816406 C 309.472656 87.632812 312.238281 87.632812 313.421875 89.605469 C 335.527344 117.632812 346.972656 151.578125 346.972656 187.5 C 346.972656 224.210938 334.34375 259.738281 311.449219 288.15625 Z M 311.449219 288.15625 " fill-opacity="1" fill-rule="nonzero"/><path fill="#1b9d28" d="M 262.5 321.316406 C 261.710938 320.921875 261.316406 320.132812 260.527344 319.738281 C 260.132812 319.34375 259.738281 318.949219 259.34375 318.550781 C 259.34375 318.949219 259.34375 319.34375 259.738281 320.132812 C 259.738281 320.921875 260.132812 321.710938 260.132812 322.5 C 260.132812 323.289062 260.527344 324.472656 260.527344 325.65625 C 260.527344 326.84375 260.921875 328.027344 260.921875 329.210938 L 267.632812 325.65625 C 266.84375 324.867188 266.050781 324.078125 264.867188 323.289062 C 263.683594 322.894531 262.894531 322.105469 262.5 321.316406 Z M 262.5 321.316406 " fill-opacity="1" fill-rule="nonzero"/><path fill="#1b9d28" d="M 267.238281 52.5 C 267.238281 51.316406 267.632812 50.527344 267.632812 49.34375 C 267.632812 48.550781 268.027344 47.761719 268.027344 46.972656 C 268.027344 46.183594 268.027344 45.789062 268.421875 45.394531 C 268.027344 45.789062 267.632812 46.183594 267.238281 46.578125 C 266.84375 46.972656 266.050781 47.367188 265.261719 48.15625 C 264.472656 48.550781 263.683594 49.34375 262.894531 50.132812 C 262.105469 50.921875 261.316406 51.710938 260.132812 52.5 L 266.449219 56.050781 C 266.84375 54.472656 266.84375 53.289062 267.238281 52.5 Z M 267.238281 52.5 " fill-opacity="1" fill-rule="nonzero"/><path fill="#1b9d28" d="M 221.449219 166.578125 C 221.449219 170.921875 221.050781 174.867188 220.65625 178.816406 C 213.550781 184.738281 206.449219 191.84375 200.132812 200.527344 C 195 207.632812 191.050781 214.738281 187.5 221.84375 C 186.316406 219.078125 185.132812 216.710938 183.550781 213.949219 C 180.789062 177.238281 185.921875 145.261719 185.527344 132.238281 C 178.816406 155.921875 175.65625 179.605469 175.261719 200.921875 C 168.949219 192.238281 161.84375 184.738281 154.34375 178.816406 C 153.949219 175.261719 153.949219 172.105469 153.949219 168.550781 C 154.34375 127.105469 175.65625 99.078125 185.527344 88.421875 C 187.5 86.449219 190.65625 86.449219 192.238281 88.421875 C 201.316406 98.683594 221.84375 126.316406 221.449219 166.578125 Z M 221.449219 166.578125 " fill-opacity="1" fill-rule="nonzero"/><path fill="#1b9d28" d="M 261.316406 243.15625 C 241.578125 269.605469 215.527344 280.65625 199.34375 285 L 199.34375 273.949219 C 199.34375 272.367188 199.34375 270.394531 198.949219 268.421875 C 218.683594 233.289062 244.738281 207.238281 252.632812 195.789062 C 229.738281 213.550781 211.183594 235.261719 197.367188 254.605469 C 196.183594 247.894531 194.605469 240.789062 192.238281 233.683594 C 195.394531 224.605469 200.527344 215.132812 207.238281 206.050781 C 231.316406 172.894531 265.261719 163.421875 278.289062 160.65625 C 280.65625 160.261719 282.632812 161.84375 283.027344 164.210938 C 283.816406 176.84375 285 211.183594 261.316406 243.15625 Z M 261.316406 243.15625 " fill-opacity="1" fill-rule="nonzero"/><path fill="#1b9d28" d="M 190.261719 273.949219 C 176.050781 251.050781 153.550781 219.867188 122.367188 195.789062 C 131.449219 209.210938 165.394531 242.367188 185.527344 287.367188 C 172.5 285 138.15625 276.316406 113.683594 243.15625 C 90 211.183594 90.789062 176.84375 91.972656 163.816406 C 92.367188 161.449219 94.34375 159.867188 96.710938 160.261719 C 109.738281 163.027344 143.683594 172.894531 167.761719 205.65625 C 186.316406 231.316406 190.261719 257.761719 190.261719 273.949219 Z M 190.261719 273.949219 " fill-opacity="1" fill-rule="nonzero"/></svg>