<svg xmlns="http://www.w3.org/2000/svg" xmlns:xlink="http://www.w3.org/1999/xlink" width="500" zoomAndPan="magnify" viewBox="0 0 375 374.999991" height="500" preserveAspectRatio="xMidYMid meet" version="1.0"><defs><clipPath id="5d0ff903ff"><path d="M 81 1.527344 L 268 1.527344 L 268 188 L 81 188 Z M 81 1.527344 " clip-rule="nonzero"/></clipPath><clipPath id="439aef8c8f"><path d="M 210 172 L 373.527344 172 L 373.527344 336 L 210 336 Z M 210 172 " clip-rule="nonzero"/></clipPath><clipPath id="d26a3f1872"><path d="M 1.527344 201 L 347 201 L 347 373.527344 L 1.527344 373.527344 Z M 1.527344 201 " clip-rule="nonzero"/></clipPath></defs><g clip-path="url(#5d0ff903ff)"><path fill="#000000" d="M 267.238281 94.527344 C 267.238281 96.046875 267.203125 97.570312 267.128906 99.089844 C 267.054688 100.609375 266.941406 102.125 266.792969 103.640625 C 266.644531 105.15625 266.457031 106.667969 266.234375 108.171875 C 266.011719 109.675781 265.75 111.175781 265.453125 112.667969 C 265.15625 114.160156 264.824219 115.644531 264.453125 117.121094 C 264.082031 118.597656 263.675781 120.066406 263.234375 121.523438 C 262.792969 122.980469 262.316406 124.421875 261.804688 125.855469 C 261.289062 127.289062 260.742188 128.710938 260.160156 130.117188 C 259.578125 131.519531 258.960938 132.914062 258.3125 134.289062 C 257.660156 135.664062 256.976562 137.023438 256.257812 138.367188 C 255.542969 139.707031 254.792969 141.03125 254.007812 142.335938 C 253.226562 143.644531 252.414062 144.929688 251.566406 146.195312 C 250.722656 147.460938 249.84375 148.703125 248.9375 149.925781 C 248.03125 151.148438 247.09375 152.347656 246.128906 153.523438 C 245.164062 154.699219 244.171875 155.851562 243.148438 156.980469 C 242.125 158.109375 241.078125 159.210938 240 160.285156 C 238.925781 161.363281 237.824219 162.410156 236.695312 163.433594 C 235.566406 164.457031 234.414062 165.449219 233.238281 166.414062 C 232.0625 167.382812 230.863281 168.316406 229.640625 169.222656 C 228.417969 170.128906 227.171875 171.007812 225.90625 171.851562 C 224.640625 172.699219 223.355469 173.511719 222.050781 174.292969 C 220.746094 175.078125 219.421875 175.828125 218.078125 176.542969 C 216.738281 177.261719 215.378906 177.945312 214.003906 178.597656 C 212.625 179.246094 211.234375 179.863281 209.828125 180.445312 C 208.421875 181.027344 207.003906 181.578125 205.570312 182.089844 C 204.136719 182.601562 202.691406 183.078125 201.238281 183.519531 C 199.78125 183.964844 198.3125 184.367188 196.835938 184.738281 C 195.359375 185.109375 193.875 185.441406 192.382812 185.738281 C 190.890625 186.035156 189.390625 186.296875 187.886719 186.519531 C 186.378906 186.742188 184.871094 186.929688 183.355469 187.078125 C 181.839844 187.226562 180.324219 187.339844 178.804688 187.414062 C 177.285156 187.488281 175.761719 187.527344 174.238281 187.527344 C 172.71875 187.527344 171.195312 187.488281 169.675781 187.414062 C 168.15625 187.339844 166.640625 187.226562 165.125 187.078125 C 163.609375 186.929688 162.101562 186.742188 160.59375 186.519531 C 159.089844 186.296875 157.589844 186.035156 156.097656 185.738281 C 154.605469 185.441406 153.121094 185.109375 151.644531 184.738281 C 150.167969 184.367188 148.699219 183.964844 147.242188 183.519531 C 145.789062 183.078125 144.34375 182.601562 142.910156 182.089844 C 141.476562 181.578125 140.054688 181.027344 138.652344 180.445312 C 137.246094 179.863281 135.851562 179.246094 134.476562 178.597656 C 133.101562 177.945312 131.742188 177.261719 130.398438 176.542969 C 129.058594 175.828125 127.734375 175.078125 126.429688 174.292969 C 125.121094 173.511719 123.835938 172.699219 122.570312 171.851562 C 121.304688 171.007812 120.0625 170.128906 118.839844 169.222656 C 117.617188 168.316406 116.417969 167.382812 115.242188 166.414062 C 114.066406 165.449219 112.914062 164.457031 111.785156 163.433594 C 110.65625 162.410156 109.554688 161.363281 108.480469 160.285156 C 107.402344 159.210938 106.355469 158.109375 105.332031 156.980469 C 104.308594 155.851562 103.316406 154.699219 102.351562 153.523438 C 101.382812 152.347656 100.449219 151.148438 99.542969 149.925781 C 98.636719 148.703125 97.757812 147.460938 96.914062 146.195312 C 96.066406 144.929688 95.253906 143.644531 94.472656 142.335938 C 93.6875 141.03125 92.9375 139.707031 92.222656 138.367188 C 91.503906 137.023438 90.820312 135.664062 90.167969 134.289062 C 89.519531 132.914062 88.902344 131.519531 88.320312 130.117188 C 87.738281 128.710938 87.1875 127.289062 86.675781 125.855469 C 86.164062 124.421875 85.6875 122.980469 85.246094 121.523438 C 84.804688 120.066406 84.398438 118.597656 84.027344 117.121094 C 83.65625 115.644531 83.324219 114.160156 83.027344 112.667969 C 82.730469 111.175781 82.46875 109.675781 82.246094 108.171875 C 82.023438 106.667969 81.835938 105.15625 81.6875 103.640625 C 81.539062 102.125 81.425781 100.609375 81.351562 99.089844 C 81.277344 97.570312 81.238281 96.046875 81.238281 94.527344 C 81.238281 93.003906 81.277344 91.484375 81.351562 89.960938 C 81.425781 88.441406 81.539062 86.925781 81.6875 85.410156 C 81.835938 83.894531 82.023438 82.386719 82.246094 80.878906 C 82.46875 79.375 82.730469 77.875 83.027344 76.382812 C 83.324219 74.890625 83.65625 73.40625 84.027344 71.929688 C 84.398438 70.453125 84.804688 68.984375 85.246094 67.527344 C 85.6875 66.074219 86.164062 64.628906 86.675781 63.195312 C 87.1875 61.761719 87.738281 60.34375 88.320312 58.9375 C 88.902344 57.53125 89.519531 56.140625 90.167969 54.761719 C 90.820312 53.386719 91.503906 52.027344 92.222656 50.6875 C 92.9375 49.34375 93.6875 48.019531 94.472656 46.714844 C 95.253906 45.410156 96.066406 44.125 96.914062 42.859375 C 97.757812 41.59375 98.636719 40.347656 99.542969 39.125 C 100.449219 37.902344 101.382812 36.703125 102.351562 35.527344 C 103.316406 34.351562 104.308594 33.199219 105.332031 32.070312 C 106.355469 30.941406 107.402344 29.839844 108.480469 28.765625 C 109.554688 27.6875 110.65625 26.640625 111.785156 25.617188 C 112.914062 24.59375 114.066406 23.601562 115.242188 22.636719 C 116.417969 21.671875 117.617188 20.734375 118.839844 19.828125 C 120.0625 18.921875 121.304688 18.042969 122.570312 17.199219 C 123.835938 16.351562 125.121094 15.539062 126.429688 14.757812 C 127.734375 13.972656 129.058594 13.222656 130.398438 12.507812 C 131.742188 11.789062 133.101562 11.105469 134.476562 10.453125 C 135.851562 9.804688 137.246094 9.1875 138.652344 8.605469 C 140.054688 8.023438 141.476562 7.476562 142.910156 6.960938 C 144.34375 6.449219 145.789062 5.972656 147.242188 5.53125 C 148.699219 5.089844 150.167969 4.683594 151.644531 4.3125 C 153.121094 3.941406 154.605469 3.609375 156.097656 3.3125 C 157.589844 3.015625 159.089844 2.753906 160.59375 2.53125 C 162.101562 2.308594 163.609375 2.121094 165.125 1.972656 C 166.640625 1.824219 168.15625 1.710938 169.675781 1.636719 C 171.195312 1.5625 172.71875 1.527344 174.238281 1.527344 C 175.761719 1.527344 177.285156 1.5625 178.804688 1.636719 C 180.324219 1.710938 181.839844 1.824219 183.355469 1.972656 C 184.871094 2.121094 186.378906 2.308594 187.886719 2.53125 C 189.390625 2.753906 190.890625 3.015625 192.382812 3.3125 C 193.875 3.609375 195.359375 3.941406 196.835938 4.3125 C 198.3125 4.683594 199.78125 5.089844 201.238281 5.53125 C 202.691406 5.972656 204.136719 6.449219 205.570312 6.960938 C 207.003906 7.476562 208.421875 8.023438 209.828125 8.605469 C 211.234375 9.1875 212.625 9.804688 214.003906 10.453125 C 215.378906 11.105469 216.738281 11.789062 218.078125 12.507812 C 219.421875 13.222656 220.746094 13.972656 222.050781 14.757812 C 223.355469 15.539062 224.640625 16.351562 225.90625 17.199219 C 227.171875 18.042969 228.417969 18.921875 229.640625 19.828125 C 230.863281 20.734375 232.0625 21.671875 233.238281 22.636719 C 234.414062 23.601562 235.566406 24.59375 236.695312 25.617188 C 237.824219 26.640625 238.925781 27.6875 240 28.765625 C 241.078125 29.839844 242.125 30.941406 243.148438 32.070312 C 244.171875 33.199219 245.164062 34.351562 246.128906 35.527344 C 247.09375 36.703125 248.03125 37.902344 248.9375 39.125 C 249.84375 40.347656 250.722656 41.59375 251.566406 42.859375 C 252.414062 44.125 253.226562 45.410156 254.007812 46.714844 C 254.792969 48.019531 255.542969 49.34375 256.257812 50.6875 C 256.976562 52.027344 257.660156 53.386719 258.3125 54.761719 C 258.960938 56.140625 259.578125 57.53125 260.160156 58.9375 C 260.742188 60.34375 261.289062 61.761719 261.804688 63.195312 C 262.316406 64.628906 262.792969 66.074219 263.234375 67.527344 C 263.675781 68.984375 264.082031 70.453125 264.453125 71.929688 C 264.824219 73.40625 265.15625 74.890625 265.453125 76.382812 C 265.75 77.875 266.011719 79.375 266.234375 80.878906 C 266.457031 82.386719 266.644531 83.894531 266.792969 85.410156 C 266.941406 86.925781 267.054688 88.441406 267.128906 89.960938 C 267.203125 91.484375 267.238281 93.003906 267.238281 94.527344 Z M 267.238281 94.527344 " fill-opacity="1" fill-rule="nonzero"/></g><g clip-path="url(#439aef8c8f)"><path fill="#000000" d="M 292.550781 172.445312 L 292.019531 172.445312 C 247.03125 172.445312 210.511719 208.96875 210.511719 253.953125 C 210.511719 298.941406 247.03125 335.460938 292.019531 335.460938 L 292.550781 335.460938 C 337.28125 335.167969 373.527344 298.765625 373.527344 253.953125 C 373.527344 209.140625 337.28125 172.738281 292.550781 172.445312 Z M 267.238281 267.238281 L 320.382812 267.238281 C 327.714844 267.238281 333.667969 261.289062 333.667969 253.953125 C 333.667969 246.621094 327.714844 240.667969 320.382812 240.667969 L 267.238281 240.667969 C 259.90625 240.667969 253.953125 246.621094 253.953125 253.953125 C 253.953125 261.289062 259.90625 267.238281 267.238281 267.238281 Z M 267.238281 267.238281 " fill-opacity="1" fill-rule="evenodd"/></g><g clip-path="url(#d26a3f1872)"><path fill="#000000" d="M 346.953125 331.199219 C 331.449219 342.238281 312.492188 348.746094 292.019531 348.746094 C 239.699219 348.746094 197.222656 306.273438 197.222656 253.953125 C 197.222656 235.9375 202.257812 219.078125 211 204.730469 C 146.40625 193.183594 81.707031 211.945312 17.125 261.699219 C 7.386719 269.207031 1.660156 280.792969 1.632812 293.082031 C 1.527344 303.960938 1.527344 319.996094 1.527344 333.667969 C 1.527344 344.242188 5.722656 354.382812 13.203125 361.847656 C 20.671875 369.328125 30.808594 373.527344 41.382812 373.527344 C 101.433594 373.527344 247.046875 373.527344 307.097656 373.527344 C 317.671875 373.527344 327.808594 369.328125 335.277344 361.847656 C 342.757812 354.382812 346.953125 344.242188 346.953125 333.667969 Z M 346.953125 331.199219 " fill-opacity="1" fill-rule="evenodd"/></g></svg>