<svg xmlns="http://www.w3.org/2000/svg" xmlns:xlink="http://www.w3.org/1999/xlink" width="500" zoomAndPan="magnify" viewBox="0 0 375 374.999991" height="500" preserveAspectRatio="xMidYMid meet" version="1.0"><defs><clipPath id="5391036afe"><path d="M 0 210 L 309 210 L 309 351.390625 L 0 351.390625 Z M 0 210 " clip-rule="nonzero"/></clipPath><clipPath id="763ed5493d"><path d="M 55 13.140625 L 252 13.140625 L 252 210 L 55 210 Z M 55 13.140625 " clip-rule="nonzero"/></clipPath><clipPath id="1e878bc2b3"><path d="M 278 165 L 374.664062 165 L 374.664062 262 L 278 262 Z M 278 165 " clip-rule="nonzero"/></clipPath></defs><g clip-path="url(#5391036afe)"><path fill="#000000" d="M 205.5 210.839844 C 189.730469 219.054688 172.113281 223.425781 153.828125 223.425781 C 135.542969 223.425781 117.925781 219.054688 102.160156 210.839844 C 43.746094 231.550781 1.289062 286.367188 -1.085938 351.253906 L 308.699219 351.253906 C 306.324219 286.367188 263.914062 231.550781 205.5 210.839844 Z M 205.5 210.839844 " fill-opacity="1" fill-rule="nonzero"/></g><g clip-path="url(#763ed5493d)"><path fill="#000000" d="M 103.582031 195.875 C 106.386719 197.539062 109.328125 199.105469 112.320312 200.53125 C 115.980469 202.242188 119.730469 203.714844 123.578125 204.996094 C 133.121094 208.082031 143.238281 209.746094 153.78125 209.746094 C 164.324219 209.746094 174.488281 208.082031 183.984375 204.996094 C 187.832031 203.761719 191.632812 202.242188 195.242188 200.53125 C 198.234375 199.105469 201.128906 197.585938 203.980469 195.875 C 232.710938 178.726562 251.945312 147.328125 251.945312 111.511719 C 251.992188 57.363281 207.96875 13.28125 153.828125 13.28125 C 99.6875 13.28125 55.617188 57.363281 55.617188 111.511719 C 55.617188 147.328125 74.898438 178.726562 103.582031 195.875 Z M 103.582031 195.875 " fill-opacity="1" fill-rule="nonzero"/></g><g clip-path="url(#1e878bc2b3)"><path fill="#000000" d="M 339.425781 200.339844 L 339.425781 165.09375 L 313.398438 165.09375 L 313.398438 200.339844 L 278.160156 200.339844 L 278.160156 226.371094 L 313.398438 226.371094 L 313.398438 261.617188 L 339.425781 261.617188 L 339.425781 226.371094 L 374.664062 226.371094 L 374.664062 200.339844 Z M 339.425781 200.339844 " fill-opacity="1" fill-rule="nonzero"/></g></svg>