<svg xmlns="http://www.w3.org/2000/svg" xmlns:xlink="http://www.w3.org/1999/xlink" width="500" zoomAndPan="magnify" viewBox="0 0 375 374.999991" height="500" preserveAspectRatio="xMidYMid meet" version="1.0"><defs><clipPath id="769a8da6ac"><path d="M 3 64 L 372 64 L 372 322.394531 L 3 322.394531 Z M 3 64 " clip-rule="nonzero"/></clipPath><clipPath id="70c3643f04"><path d="M 141 267 L 234 267 L 234 322.394531 L 141 322.394531 Z M 141 267 " clip-rule="nonzero"/></clipPath></defs><g clip-path="url(#769a8da6ac)"><path fill="#000000" d="M 356.054688 322.394531 L 19.042969 322.394531 L 16.742188 316.609375 C 15.359375 313.140625 14.085938 309.636719 12.917969 306.089844 C 11.75 302.546875 10.6875 298.96875 9.738281 295.359375 C 8.789062 291.753906 7.949219 288.117188 7.21875 284.457031 C 6.492188 280.796875 5.875 277.117188 5.371094 273.421875 C 4.867188 269.722656 4.476562 266.011719 4.199219 262.292969 C 3.921875 258.570312 3.757812 254.84375 3.707031 251.113281 C 3.65625 247.382812 3.71875 243.652344 3.894531 239.925781 C 4.074219 236.195312 4.363281 232.476562 4.769531 228.769531 C 5.171875 225.058594 5.6875 221.363281 6.316406 217.683594 C 6.949219 214.007812 7.6875 210.351562 8.542969 206.71875 C 9.394531 203.085938 10.355469 199.480469 11.429688 195.90625 C 12.5 192.332031 13.679688 188.792969 14.96875 185.289062 C 16.257812 181.785156 17.652344 178.324219 19.152344 174.90625 C 20.652344 171.488281 22.253906 168.121094 23.957031 164.800781 C 25.664062 161.480469 27.46875 158.214844 29.371094 155.003906 C 31.277344 151.792969 33.277344 148.644531 35.375 145.554688 C 37.46875 142.464844 39.660156 139.445312 41.941406 136.488281 C 44.21875 133.535156 46.589844 130.648438 49.046875 127.839844 C 51.503906 125.027344 54.042969 122.292969 56.667969 119.636719 C 59.289062 116.980469 61.992188 114.40625 64.773438 111.914062 C 67.554688 109.421875 70.40625 107.015625 73.335938 104.699219 C 76.261719 102.378906 79.257812 100.152344 82.320312 98.019531 C 85.382812 95.882812 88.507812 93.839844 91.699219 91.894531 C 94.886719 89.949219 98.128906 88.105469 101.429688 86.355469 C 104.730469 84.609375 108.082031 82.960938 111.480469 81.417969 C 114.882812 79.875 118.328125 78.433594 121.816406 77.101562 C 125.304688 75.765625 128.832031 74.539062 132.394531 73.421875 C 135.957031 72.300781 139.550781 71.289062 143.175781 70.390625 C 146.804688 69.488281 150.453125 68.699219 154.125 68.023438 C 157.796875 67.34375 161.488281 66.777344 165.195312 66.324219 C 168.90625 65.871094 172.625 65.53125 176.351562 65.300781 C 180.082031 65.074219 183.8125 64.960938 187.546875 64.960938 C 191.285156 64.960938 195.015625 65.074219 198.746094 65.300781 C 202.472656 65.53125 206.191406 65.871094 209.898438 66.324219 C 213.605469 66.777344 217.296875 67.34375 220.972656 68.023438 C 224.644531 68.699219 228.292969 69.488281 231.917969 70.390625 C 235.542969 71.289062 239.136719 72.300781 242.703125 73.421875 C 246.265625 74.539062 249.792969 75.765625 253.28125 77.101562 C 256.769531 78.433594 260.214844 79.875 263.613281 81.417969 C 267.015625 82.960938 270.367188 84.609375 273.667969 86.355469 C 276.96875 88.105469 280.210938 89.949219 283.398438 91.894531 C 286.585938 93.839844 289.710938 95.882812 292.777344 98.019531 C 295.839844 100.152344 298.835938 102.378906 301.761719 104.699219 C 304.6875 107.015625 307.542969 109.421875 310.324219 111.914062 C 313.105469 114.40625 315.808594 116.980469 318.429688 119.636719 C 321.054688 122.292969 323.59375 125.027344 326.050781 127.839844 C 328.507812 130.648438 330.875 133.535156 333.15625 136.488281 C 335.4375 139.445312 337.625 142.464844 339.722656 145.554688 C 341.820312 148.644531 343.820312 151.792969 345.722656 155.003906 C 347.628906 158.214844 349.433594 161.480469 351.136719 164.800781 C 352.84375 168.121094 354.445312 171.488281 355.945312 174.90625 C 357.445312 178.324219 358.839844 181.785156 360.125 185.289062 C 361.414062 188.792969 362.59375 192.332031 363.667969 195.90625 C 364.742188 199.480469 365.703125 203.085938 366.554688 206.71875 C 367.40625 210.351562 368.148438 214.007812 368.777344 217.683594 C 369.40625 221.363281 369.925781 225.058594 370.328125 228.769531 C 370.734375 232.476562 371.023438 236.195312 371.199219 239.925781 C 371.378906 243.652344 371.441406 247.382812 371.390625 251.113281 C 371.339844 254.84375 371.175781 258.570312 370.898438 262.292969 C 370.621094 266.011719 370.230469 269.722656 369.726562 273.421875 C 369.222656 277.117188 368.605469 280.796875 367.875 284.457031 C 367.148438 288.117188 366.308594 291.753906 365.359375 295.359375 C 364.40625 298.96875 363.347656 302.546875 362.179688 306.089844 C 361.011719 309.636719 359.734375 313.140625 358.351562 316.609375 Z M 31.269531 304.027344 L 343.828125 304.027344 C 344.8125 301.203125 345.71875 298.355469 346.546875 295.480469 C 347.375 292.609375 348.125 289.714844 348.796875 286.800781 C 349.46875 283.890625 350.0625 280.960938 350.574219 278.015625 C 351.085938 275.066406 351.519531 272.109375 351.871094 269.140625 C 352.222656 266.171875 352.496094 263.195312 352.683594 260.210938 C 352.875 257.230469 352.984375 254.242188 353.011719 251.253906 C 353.039062 248.261719 352.988281 245.273438 352.851562 242.289062 C 352.71875 239.300781 352.503906 236.320312 352.207031 233.34375 C 351.910156 230.371094 351.535156 227.40625 351.078125 224.449219 C 350.621094 221.496094 350.082031 218.554688 349.464844 215.628906 C 348.851562 212.703125 348.152344 209.796875 347.378906 206.910156 C 346.605469 204.019531 345.753906 201.15625 344.820312 198.316406 C 343.890625 195.472656 342.882812 192.660156 341.800781 189.871094 C 340.71875 187.085938 339.558594 184.328125 338.328125 181.605469 C 337.09375 178.878906 335.789062 176.191406 334.410156 173.539062 C 333.03125 170.882812 331.582031 168.269531 330.058594 165.695312 C 328.539062 163.121094 326.949219 160.585938 325.289062 158.097656 C 323.632812 155.609375 321.90625 153.167969 320.117188 150.773438 C 318.324219 148.378906 316.46875 146.03125 314.550781 143.738281 C 312.632812 141.441406 310.65625 139.203125 308.613281 137.015625 C 306.574219 134.828125 304.476562 132.695312 302.320312 130.621094 C 300.164062 128.546875 297.953125 126.535156 295.6875 124.582031 C 293.421875 122.628906 291.105469 120.734375 288.738281 118.90625 C 286.371094 117.078125 283.953125 115.316406 281.492188 113.617188 C 279.027344 111.921875 276.519531 110.292969 273.96875 108.730469 C 271.414062 107.167969 268.820312 105.679688 266.1875 104.257812 C 263.554688 102.835938 260.886719 101.488281 258.179688 100.210938 C 255.472656 98.933594 252.734375 97.734375 249.960938 96.605469 C 247.191406 95.476562 244.390625 94.425781 241.5625 93.449219 C 238.730469 92.472656 235.878906 91.574219 233 90.753906 C 230.125 89.933594 227.226562 89.191406 224.308594 88.527344 C 221.390625 87.863281 218.457031 87.277344 215.503906 86.773438 C 212.554688 86.265625 209.59375 85.839844 206.621094 85.496094 C 203.648438 85.152344 200.667969 84.886719 197.679688 84.707031 C 194.695312 84.523438 191.703125 84.421875 188.710938 84.398438 C 185.71875 84.378906 182.726562 84.4375 179.738281 84.578125 C 176.75 84.71875 173.765625 84.941406 170.789062 85.246094 C 167.808594 85.546875 164.84375 85.929688 161.886719 86.394531 C 158.929688 86.859375 155.988281 87.402344 153.0625 88.023438 C 150.132812 88.648438 147.226562 89.351562 144.335938 90.128906 C 141.449219 90.910156 138.582031 91.769531 135.738281 92.707031 C 132.898438 93.640625 130.082031 94.652344 127.296875 95.742188 C 124.507812 96.832031 121.75 97.996094 119.027344 99.234375 C 116.304688 100.46875 113.613281 101.78125 110.960938 103.164062 C 108.308594 104.550781 105.695312 106.003906 103.121094 107.527344 C 100.546875 109.054688 98.015625 110.648438 95.527344 112.3125 C 93.042969 113.972656 90.601562 115.703125 88.207031 117.496094 C 85.8125 119.292969 83.472656 121.152344 81.179688 123.074219 C 78.886719 124.996094 76.648438 126.976562 74.460938 129.019531 C 72.277344 131.0625 70.148438 133.164062 68.078125 135.324219 C 66.007812 137.480469 63.996094 139.695312 62.046875 141.960938 C 60.097656 144.230469 58.207031 146.546875 56.382812 148.917969 C 54.558594 151.289062 52.800781 153.707031 51.105469 156.171875 C 49.414062 158.636719 47.789062 161.144531 46.230469 163.699219 C 44.675781 166.253906 43.1875 168.84375 41.769531 171.480469 C 40.355469 174.113281 39.011719 176.785156 37.742188 179.492188 C 36.46875 182.195312 35.273438 184.9375 34.148438 187.707031 C 33.027344 190.480469 31.980469 193.28125 31.011719 196.109375 C 30.039062 198.9375 29.148438 201.789062 28.332031 204.664062 C 27.515625 207.542969 26.78125 210.4375 26.121094 213.355469 C 25.464844 216.273438 24.886719 219.203125 24.386719 222.152344 C 23.886719 225.101562 23.46875 228.058594 23.132812 231.03125 C 22.792969 234 22.535156 236.980469 22.359375 239.964844 C 22.183594 242.949219 22.089844 245.933594 22.074219 248.925781 C 22.019531 258.304688 22.765625 267.617188 24.308594 276.871094 C 25.851562 286.121094 28.171875 295.171875 31.269531 304.027344 Z M 31.269531 304.027344 " fill-opacity="1" fill-rule="nonzero"/></g><path fill="#000000" d="M 325.441406 258.109375 C 324.839844 258.109375 324.242188 258.050781 323.648438 257.933594 C 323.058594 257.816406 322.480469 257.640625 321.925781 257.410156 C 321.367188 257.179688 320.835938 256.894531 320.335938 256.5625 C 319.832031 256.226562 319.367188 255.84375 318.941406 255.417969 C 318.515625 254.992188 318.132812 254.527344 317.800781 254.027344 C 317.464844 253.527344 317.179688 252.996094 316.949219 252.4375 C 316.71875 251.882812 316.542969 251.308594 316.425781 250.714844 C 316.308594 250.125 316.25 249.527344 316.25 248.925781 C 316.25 247.097656 316.210938 245.269531 316.132812 243.441406 C 316.054688 241.617188 315.9375 239.792969 315.78125 237.972656 C 315.625 236.148438 315.429688 234.332031 315.195312 232.519531 C 314.960938 230.707031 314.6875 228.898438 314.378906 227.097656 C 314.066406 225.296875 313.714844 223.5 313.328125 221.714844 C 312.941406 219.929688 312.515625 218.148438 312.050781 216.382812 C 311.589844 214.613281 311.085938 212.855469 310.546875 211.109375 C 310.011719 209.359375 309.433594 207.625 308.820312 205.902344 C 308.207031 204.179688 307.558594 202.472656 306.875 200.777344 C 306.1875 199.082031 305.46875 197.402344 304.710938 195.738281 C 303.953125 194.074219 303.160156 192.425781 302.332031 190.796875 C 301.503906 189.164062 300.640625 187.554688 299.746094 185.960938 C 298.847656 184.367188 297.917969 182.792969 296.953125 181.238281 C 295.992188 179.683594 294.996094 178.152344 293.964844 176.640625 C 292.9375 175.128906 291.875 173.636719 290.78125 172.171875 C 289.6875 170.707031 288.566406 169.261719 287.410156 167.84375 C 286.257812 166.425781 285.074219 165.03125 283.859375 163.664062 C 282.644531 162.296875 281.402344 160.957031 280.132812 159.640625 C 278.859375 158.324219 277.5625 157.039062 276.234375 155.777344 C 274.910156 154.519531 273.554688 153.285156 272.175781 152.085938 C 270.796875 150.882812 269.394531 149.710938 267.964844 148.566406 C 266.539062 147.425781 265.085938 146.3125 263.609375 145.234375 C 262.132812 144.152344 260.632812 143.105469 259.113281 142.089844 C 257.589844 141.070312 256.050781 140.089844 254.488281 139.136719 C 252.921875 138.1875 251.339844 137.269531 249.738281 136.386719 C 248.136719 135.503906 246.515625 134.652344 244.878906 133.839844 C 243.238281 133.023438 241.585938 132.246094 239.914062 131.503906 C 238.242188 130.757812 236.554688 130.050781 234.851562 129.378906 C 233.148438 128.707031 231.433594 128.070312 229.707031 127.472656 C 227.976562 126.875 226.234375 126.3125 224.484375 125.785156 C 222.730469 125.261719 220.964844 124.773438 219.191406 124.324219 C 217.417969 123.875 215.636719 123.464844 213.84375 123.089844 C 212.054688 122.71875 210.253906 122.382812 208.449219 122.085938 C 206.644531 121.789062 204.832031 121.53125 203.015625 121.3125 C 201.199219 121.089844 199.378906 120.910156 197.554688 120.769531 C 195.730469 120.625 193.902344 120.523438 192.074219 120.457031 C 190.242188 120.394531 188.414062 120.367188 186.585938 120.382812 C 184.753906 120.394531 182.925781 120.449219 181.097656 120.539062 C 179.269531 120.632812 177.445312 120.761719 175.625 120.933594 C 173.800781 121.101562 171.984375 121.308594 170.171875 121.554688 C 168.355469 121.804688 166.550781 122.089844 164.75 122.414062 C 162.949219 122.738281 161.15625 123.097656 159.367188 123.5 C 157.582031 123.898438 155.808594 124.335938 154.039062 124.8125 C 152.273438 125.289062 150.515625 125.800781 148.773438 126.351562 C 147.027344 126.902344 145.292969 127.492188 143.574219 128.117188 C 141.855469 128.742188 140.148438 129.402344 138.457031 130.097656 C 136.765625 130.796875 135.089844 131.53125 133.429688 132.296875 C 131.769531 133.066406 130.125 133.871094 128.5 134.710938 C 126.875 135.546875 125.265625 136.421875 123.675781 137.328125 C 122.089844 138.234375 120.519531 139.175781 118.972656 140.152344 C 117.421875 141.125 115.894531 142.132812 114.390625 143.171875 C 112.882812 144.210938 111.402344 145.28125 109.941406 146.382812 C 108.480469 147.484375 107.046875 148.617188 105.636719 149.78125 C 104.222656 150.945312 102.835938 152.140625 101.476562 153.363281 C 100.117188 154.585938 98.78125 155.835938 97.476562 157.113281 C 96.167969 158.394531 94.890625 159.699219 93.636719 161.035156 C 92.386719 162.367188 91.164062 163.730469 89.96875 165.113281 C 88.777344 166.5 87.613281 167.910156 86.480469 169.347656 C 85.347656 170.785156 84.246094 172.242188 83.175781 173.726562 C 82.105469 175.207031 81.066406 176.710938 80.058594 178.238281 C 79.054688 179.765625 78.078125 181.3125 77.140625 182.882812 C 76.199219 184.449219 75.292969 186.039062 74.417969 187.644531 C 73.546875 189.25 72.710938 190.875 71.90625 192.519531 C 71.101562 194.160156 70.335938 195.820312 69.601562 197.496094 C 66.027344 205.597656 63.335938 213.980469 61.523438 222.648438 C 59.710938 231.3125 58.820312 240.070312 58.847656 248.925781 C 58.847656 249.527344 58.789062 250.125 58.671875 250.714844 C 58.550781 251.308594 58.378906 251.882812 58.148438 252.4375 C 57.917969 252.996094 57.632812 253.527344 57.296875 254.027344 C 56.960938 254.527344 56.582031 254.992188 56.15625 255.417969 C 55.726562 255.84375 55.261719 256.226562 54.761719 256.5625 C 54.257812 256.894531 53.730469 257.179688 53.171875 257.410156 C 52.613281 257.640625 52.039062 257.816406 51.449219 257.933594 C 50.855469 258.050781 50.257812 258.109375 49.652344 258.109375 C 49.050781 258.109375 48.453125 258.050781 47.859375 257.933594 C 47.269531 257.816406 46.695312 257.640625 46.136719 257.410156 C 45.578125 257.179688 45.046875 256.894531 44.546875 256.5625 C 44.042969 256.226562 43.582031 255.84375 43.152344 255.417969 C 42.726562 254.992188 42.347656 254.527344 42.011719 254.027344 C 41.675781 253.527344 41.390625 252.996094 41.160156 252.4375 C 40.929688 251.882812 40.753906 251.308594 40.636719 250.714844 C 40.519531 250.125 40.460938 249.527344 40.460938 248.925781 C 40.441406 238.808594 41.46875 228.796875 43.542969 218.894531 C 45.617188 208.992188 48.699219 199.410156 52.78125 190.148438 C 53.617188 188.234375 54.496094 186.339844 55.414062 184.464844 C 56.332031 182.589844 57.289062 180.730469 58.289062 178.898438 C 59.285156 177.0625 60.320312 175.246094 61.398438 173.457031 C 62.472656 171.664062 63.585938 169.898438 64.734375 168.152344 C 65.886719 166.410156 67.074219 164.691406 68.296875 162.996094 C 69.523438 161.304688 70.78125 159.636719 72.078125 157.996094 C 73.371094 156.359375 74.699219 154.746094 76.066406 153.164062 C 77.429688 151.578125 78.824219 150.027344 80.253906 148.503906 C 81.6875 146.980469 83.148438 145.488281 84.640625 144.027344 C 86.136719 142.5625 87.660156 141.136719 89.214844 139.738281 C 90.769531 138.34375 92.355469 136.980469 93.96875 135.652344 C 95.578125 134.324219 97.21875 133.027344 98.890625 131.769531 C 100.558594 130.511719 102.25 129.289062 103.972656 128.101562 C 105.691406 126.914062 107.4375 125.765625 109.207031 124.652344 C 110.976562 123.539062 112.769531 122.464844 114.585938 121.429688 C 116.398438 120.394531 118.238281 119.394531 120.09375 118.4375 C 121.953125 117.480469 123.832031 116.5625 125.726562 115.683594 C 127.625 114.804688 129.539062 113.96875 131.472656 113.171875 C 133.40625 112.375 135.355469 111.621094 137.320312 110.910156 C 139.285156 110.195312 141.265625 109.523438 143.257812 108.894531 C 145.25 108.265625 147.257812 107.679688 149.277344 107.136719 C 151.296875 106.59375 153.324219 106.09375 155.363281 105.636719 C 157.40625 105.179688 159.453125 104.765625 161.511719 104.394531 C 163.570312 104.027344 165.632812 103.699219 167.707031 103.417969 C 169.777344 103.136719 171.855469 102.898438 173.9375 102.707031 C 176.019531 102.511719 178.101562 102.363281 180.191406 102.257812 C 182.28125 102.15625 184.367188 102.09375 186.460938 102.078125 C 188.550781 102.0625 190.640625 102.09375 192.730469 102.167969 C 194.820312 102.238281 196.90625 102.359375 198.992188 102.519531 C 201.074219 102.683594 203.15625 102.890625 205.230469 103.140625 C 207.308594 103.390625 209.375 103.6875 211.4375 104.027344 C 213.503906 104.367188 215.558594 104.75 217.605469 105.175781 C 219.652344 105.601562 221.6875 106.074219 223.714844 106.585938 C 225.742188 107.101562 227.753906 107.65625 229.757812 108.253906 C 231.761719 108.855469 233.75 109.496094 235.726562 110.179688 C 237.699219 110.863281 239.660156 111.589844 241.605469 112.359375 C 243.550781 113.125 245.476562 113.933594 247.386719 114.785156 C 249.296875 115.632812 251.1875 116.523438 253.058594 117.453125 C 254.933594 118.386719 256.78125 119.355469 258.613281 120.363281 C 260.445312 121.371094 262.253906 122.421875 264.039062 123.507812 C 265.824219 124.59375 267.585938 125.714844 269.324219 126.878906 C 271.0625 128.039062 272.773438 129.238281 274.460938 130.472656 C 276.148438 131.707031 277.808594 132.976562 279.441406 134.28125 C 281.074219 135.585938 282.675781 136.921875 284.25 138.296875 C 285.828125 139.671875 287.371094 141.078125 288.886719 142.515625 C 290.402344 143.953125 291.886719 145.425781 293.339844 146.925781 C 294.792969 148.429688 296.210938 149.960938 297.597656 151.523438 C 298.988281 153.085938 300.339844 154.679688 301.660156 156.300781 C 302.976562 157.921875 304.261719 159.566406 305.511719 161.242188 C 306.761719 162.917969 307.972656 164.617188 309.148438 166.347656 C 310.324219 168.074219 311.464844 169.824219 312.566406 171.597656 C 313.667969 173.375 314.730469 175.171875 315.753906 176.992188 C 316.78125 178.8125 317.765625 180.65625 318.710938 182.515625 C 319.660156 184.378906 320.5625 186.261719 321.429688 188.164062 C 322.296875 190.0625 323.121094 191.984375 323.90625 193.917969 C 324.6875 195.855469 325.429688 197.808594 326.132812 199.777344 C 326.832031 201.742188 327.492188 203.726562 328.105469 205.722656 C 328.722656 207.71875 329.296875 209.726562 329.824219 211.746094 C 330.355469 213.765625 330.84375 215.796875 331.285156 217.839844 C 331.730469 219.878906 332.128906 221.929688 332.488281 223.988281 C 332.84375 226.046875 333.15625 228.109375 333.421875 230.179688 C 333.691406 232.253906 333.914062 234.328125 334.09375 236.410156 C 334.273438 238.492188 334.40625 240.574219 334.5 242.660156 C 334.589844 244.75 334.632812 246.835938 334.636719 248.925781 C 334.636719 249.527344 334.578125 250.125 334.457031 250.714844 C 334.339844 251.308594 334.167969 251.882812 333.9375 252.4375 C 333.703125 252.996094 333.421875 253.527344 333.085938 254.027344 C 332.75 254.527344 332.371094 254.992188 331.941406 255.417969 C 331.515625 255.84375 331.050781 256.226562 330.550781 256.5625 C 330.046875 256.894531 329.519531 257.179688 328.960938 257.410156 C 328.402344 257.640625 327.828125 257.816406 327.234375 257.933594 C 326.644531 258.050781 326.046875 258.109375 325.441406 258.109375 Z M 325.441406 258.109375 " fill-opacity="1" fill-rule="nonzero"/><g clip-path="url(#70c3643f04)"><path fill="#000000" d="M 224.320312 322.394531 C 223.714844 322.394531 223.117188 322.335938 222.527344 322.21875 C 221.933594 322.101562 221.359375 321.925781 220.800781 321.695312 C 220.246094 321.464844 219.714844 321.179688 219.210938 320.847656 C 218.710938 320.511719 218.246094 320.132812 217.820312 319.703125 C 217.394531 319.277344 217.011719 318.8125 216.675781 318.3125 C 216.339844 317.8125 216.058594 317.28125 215.828125 316.726562 C 215.597656 316.167969 215.421875 315.59375 215.304688 315.003906 C 215.1875 314.410156 215.128906 313.8125 215.128906 313.210938 C 215.128906 312.308594 215.082031 311.410156 214.996094 310.511719 C 214.90625 309.613281 214.773438 308.722656 214.597656 307.835938 C 214.421875 306.949219 214.203125 306.078125 213.941406 305.214844 C 213.675781 304.347656 213.375 303.5 213.027344 302.667969 C 212.683594 301.832031 212.296875 301.019531 211.871094 300.222656 C 211.445312 299.425781 210.980469 298.65625 210.480469 297.902344 C 209.976562 297.152344 209.441406 296.429688 208.867188 295.734375 C 208.292969 295.035156 207.6875 294.367188 207.050781 293.730469 C 206.410156 293.089844 205.742188 292.484375 205.042969 291.914062 C 204.347656 291.339844 203.621094 290.804688 202.871094 290.304688 C 202.121094 289.800781 201.34375 289.339844 200.550781 288.914062 C 199.753906 288.488281 198.9375 288.101562 198.101562 287.757812 C 197.269531 287.410156 196.417969 287.109375 195.554688 286.847656 C 194.691406 286.585938 193.816406 286.363281 192.929688 286.1875 C 192.042969 286.011719 191.152344 285.878906 190.25 285.792969 C 189.351562 285.703125 188.453125 285.660156 187.546875 285.660156 C 186.644531 285.660156 185.742188 285.703125 184.84375 285.792969 C 183.945312 285.878906 183.054688 286.011719 182.167969 286.1875 C 181.28125 286.363281 180.40625 286.585938 179.542969 286.847656 C 178.679688 287.109375 177.828125 287.410156 176.996094 287.757812 C 176.160156 288.101562 175.34375 288.488281 174.546875 288.914062 C 173.75 289.339844 172.976562 289.800781 172.226562 290.304688 C 171.476562 290.804688 170.75 291.339844 170.050781 291.914062 C 169.355469 292.484375 168.6875 293.089844 168.046875 293.730469 C 167.410156 294.367188 166.800781 295.035156 166.230469 295.734375 C 165.65625 296.429688 165.121094 297.152344 164.617188 297.902344 C 164.117188 298.65625 163.652344 299.425781 163.226562 300.222656 C 162.800781 301.019531 162.414062 301.832031 162.070312 302.667969 C 161.722656 303.5 161.417969 304.347656 161.15625 305.214844 C 160.894531 306.078125 160.675781 306.949219 160.5 307.835938 C 160.324219 308.722656 160.191406 309.613281 160.101562 310.511719 C 160.015625 311.410156 159.96875 312.308594 159.96875 313.210938 C 159.96875 313.8125 159.910156 314.410156 159.792969 315.003906 C 159.675781 315.59375 159.5 316.167969 159.269531 316.726562 C 159.039062 317.28125 158.753906 317.8125 158.421875 318.3125 C 158.085938 318.8125 157.703125 319.277344 157.277344 319.703125 C 156.851562 320.132812 156.386719 320.511719 155.882812 320.847656 C 155.382812 321.179688 154.851562 321.464844 154.292969 321.695312 C 153.738281 321.925781 153.160156 322.101562 152.570312 322.21875 C 151.976562 322.335938 151.378906 322.394531 150.777344 322.394531 C 150.171875 322.394531 149.574219 322.335938 148.984375 322.21875 C 148.390625 322.101562 147.816406 321.925781 147.257812 321.695312 C 146.699219 321.464844 146.171875 321.179688 145.667969 320.847656 C 145.167969 320.511719 144.703125 320.132812 144.277344 319.703125 C 143.847656 319.277344 143.46875 318.8125 143.132812 318.3125 C 142.796875 317.8125 142.515625 317.28125 142.285156 316.726562 C 142.050781 316.167969 141.878906 315.59375 141.761719 315.003906 C 141.640625 314.410156 141.582031 313.8125 141.582031 313.210938 C 141.582031 311.707031 141.65625 310.207031 141.804688 308.710938 C 141.953125 307.214844 142.171875 305.726562 142.464844 304.253906 C 142.761719 302.777344 143.125 301.320312 143.5625 299.882812 C 144 298.441406 144.507812 297.027344 145.082031 295.636719 C 145.660156 294.25 146.300781 292.890625 147.011719 291.566406 C 147.71875 290.238281 148.492188 288.949219 149.328125 287.699219 C 150.167969 286.449219 151.0625 285.242188 152.015625 284.082031 C 152.972656 282.917969 153.980469 281.804688 155.046875 280.742188 C 156.109375 279.679688 157.226562 278.667969 158.386719 277.714844 C 159.550781 276.761719 160.761719 275.867188 162.011719 275.03125 C 163.261719 274.195312 164.554688 273.421875 165.878906 272.714844 C 167.207031 272.003906 168.566406 271.363281 169.957031 270.789062 C 171.347656 270.210938 172.765625 269.707031 174.207031 269.269531 C 175.644531 268.832031 177.105469 268.46875 178.582031 268.175781 C 180.058594 267.882812 181.542969 267.660156 183.042969 267.511719 C 184.542969 267.367188 186.042969 267.292969 187.546875 267.292969 C 189.054688 267.292969 190.554688 267.367188 192.054688 267.511719 C 193.550781 267.660156 195.039062 267.882812 196.515625 268.175781 C 197.992188 268.46875 199.449219 268.832031 200.890625 269.269531 C 202.332031 269.707031 203.746094 270.210938 205.136719 270.789062 C 206.527344 271.363281 207.886719 272.003906 209.214844 272.714844 C 210.542969 273.421875 211.832031 274.195312 213.085938 275.03125 C 214.335938 275.867188 215.542969 276.761719 216.707031 277.714844 C 217.871094 278.667969 218.984375 279.679688 220.050781 280.742188 C 221.113281 281.804688 222.125 282.917969 223.078125 284.082031 C 224.035156 285.242188 224.929688 286.449219 225.765625 287.699219 C 226.601562 288.949219 227.375 290.238281 228.085938 291.566406 C 228.796875 292.890625 229.4375 294.25 230.015625 295.636719 C 230.589844 297.027344 231.097656 298.441406 231.535156 299.882812 C 231.972656 301.320312 232.335938 302.777344 232.628906 304.253906 C 232.921875 305.726562 233.144531 307.214844 233.292969 308.710938 C 233.4375 310.207031 233.511719 311.707031 233.511719 313.210938 C 233.511719 313.8125 233.453125 314.410156 233.335938 315.003906 C 233.21875 315.59375 233.042969 316.167969 232.8125 316.726562 C 232.582031 317.28125 232.300781 317.8125 231.964844 318.3125 C 231.628906 318.8125 231.246094 319.277344 230.820312 319.703125 C 230.394531 320.132812 229.929688 320.511719 229.425781 320.847656 C 228.925781 321.179688 228.394531 321.464844 227.839844 321.695312 C 227.28125 321.925781 226.707031 322.101562 226.113281 322.21875 C 225.523438 322.335938 224.921875 322.394531 224.320312 322.394531 Z M 224.320312 322.394531 " fill-opacity="1" fill-rule="nonzero"/></g><path fill="#000000" d="M 213.289062 285.660156 C 212.25 285.652344 211.246094 285.476562 210.269531 285.132812 C 209.289062 284.785156 208.398438 284.289062 207.589844 283.640625 C 207.121094 283.265625 206.691406 282.847656 206.304688 282.386719 C 205.917969 281.929688 205.578125 281.4375 205.289062 280.910156 C 204.996094 280.386719 204.761719 279.835938 204.578125 279.265625 C 204.394531 278.695312 204.269531 278.109375 204.203125 277.511719 C 204.132812 276.917969 204.125 276.320312 204.171875 275.722656 C 204.222656 275.125 204.328125 274.535156 204.492188 273.957031 C 204.65625 273.382812 204.875 272.824219 205.148438 272.289062 C 205.421875 271.757812 205.746094 271.253906 206.117188 270.78125 L 264.953125 197.3125 C 265.328125 196.835938 265.75 196.398438 266.214844 196.003906 C 266.675781 195.609375 267.171875 195.265625 267.703125 194.96875 C 268.234375 194.671875 268.789062 194.429688 269.371094 194.242188 C 269.949219 194.054688 270.539062 193.925781 271.144531 193.855469 C 271.75 193.785156 272.355469 193.773438 272.960938 193.820312 C 273.566406 193.871094 274.164062 193.976562 274.75 194.144531 C 275.335938 194.308594 275.898438 194.53125 276.441406 194.808594 C 276.980469 195.082031 277.492188 195.410156 277.96875 195.789062 C 278.445312 196.164062 278.882812 196.585938 279.277344 197.046875 C 279.671875 197.511719 280.015625 198.007812 280.3125 198.539062 C 280.609375 199.070312 280.847656 199.625 281.035156 200.203125 C 281.222656 200.78125 281.351562 201.375 281.421875 201.976562 C 281.492188 202.582031 281.503906 203.1875 281.453125 203.792969 C 281.402344 204.398438 281.296875 204.992188 281.128906 205.578125 C 280.960938 206.164062 280.738281 206.726562 280.460938 207.265625 C 280.183594 207.808594 279.855469 208.316406 279.476562 208.792969 L 220.644531 282.261719 C 219.746094 283.367188 218.652344 284.21875 217.359375 284.8125 C 216.070312 285.410156 214.710938 285.691406 213.289062 285.660156 Z M 213.289062 285.660156 " fill-opacity="1" fill-rule="nonzero"/></svg>