<svg xmlns="http://www.w3.org/2000/svg" xmlns:xlink="http://www.w3.org/1999/xlink" width="500" zoomAndPan="magnify" viewBox="0 0 375 374.999991" height="500" preserveAspectRatio="xMidYMid meet" version="1.0"><defs><clipPath id="1538698bd2"><path d="M 21.796875 48 L 269 48 L 269 375 L 21.796875 375 Z M 21.796875 48 " clip-rule="nonzero"/></clipPath></defs><path stroke-linecap="round" transform="matrix(0.21522, 0, 0, 0.21522, 3.443528, 7.683368)" fill="none" stroke-linejoin="round" d="M 428.856533 130.717363 L 548.374295 130.717363 C 548.374295 -15.027151 769.804316 -15.027151 769.804316 130.717363 C 944.752183 130.717363 921.701681 105.615911 921.701681 280.037427 C 921.701681 297.842579 907.145379 312.41703 889.340227 312.41703 L 428.874683 312.41703 C 382.011379 312.41703 396.51323 236.368523 396.51323 163.078816 C 396.51323 145.273664 411.069532 130.717363 428.874683 130.717363 Z M 428.856533 130.717363 " stroke="#000000" stroke-width="40" stroke-opacity="1" stroke-miterlimit="2.613"/><path fill="#3a322b" d="M 209.246094 317.863281 C 206.527344 317.863281 204.457031 315.347656 205.035156 312.648438 L 218.1875 252.605469 L 309.992188 93.59375 C 320.003906 76.253906 346.347656 79.425781 351.613281 99.082031 C 353.183594 104.964844 352.394531 111.089844 349.363281 116.328125 C 340.796875 131.15625 258.183594 275.039062 256.722656 276.375 L 212.136719 316.75 C 211.324219 317.484375 210.285156 317.863281 209.246094 317.863281 Z M 225.980469 256.324219 L 216.269531 301.386719 L 250.441406 270.441406 L 341.910156 112.019531 C 351.101562 96.117188 326.832031 81.644531 317.453125 97.894531 L 225.984375 256.324219 Z M 225.980469 256.324219 " fill-opacity="1" fill-rule="evenodd"/><path fill="#3a322b" d="M 253.828125 277.488281 C 251.273438 277.488281 224.15625 261.015625 219.761719 258.484375 C 214.851562 255.652344 219.164062 248.199219 224.066406 251.03125 L 255.984375 269.457031 C 259.796875 271.652344 258.191406 277.488281 253.828125 277.488281 Z M 253.828125 277.488281 " fill-opacity="1" fill-rule="evenodd"/><path fill="#3a322b" d="M 341.511719 125.621094 C 338.957031 125.621094 311.839844 109.152344 307.445312 106.617188 C 302.539062 103.785156 306.84375 96.328125 311.75 99.164062 L 343.667969 117.585938 C 347.480469 119.785156 345.878906 125.621094 341.511719 125.621094 Z M 341.511719 125.621094 " fill-opacity="1" fill-rule="evenodd"/><path fill="#3a322b" d="M 237.871094 268.277344 C 234.605469 268.277344 232.472656 264.714844 234.148438 261.820312 L 321.828125 109.949219 C 324.660156 105.050781 332.121094 109.339844 329.285156 114.25 L 241.601562 266.121094 C 240.804688 267.5 239.355469 268.277344 237.871094 268.277344 Z M 237.871094 268.277344 " fill-opacity="1" fill-rule="evenodd"/><g clip-path="url(#1538698bd2)"><path fill="#3a322b" d="M 244.125 374.992188 L 46.460938 374.992188 C 32.859375 374.992188 21.792969 363.925781 21.792969 350.324219 L 21.792969 72.832031 C 21.792969 59.226562 32.859375 48.160156 46.460938 48.160156 L 88.777344 48.160156 C 94.445312 48.160156 94.445312 56.769531 88.777344 56.769531 L 46.460938 56.769531 C 37.605469 56.769531 30.402344 63.972656 30.402344 72.832031 L 30.402344 350.324219 C 30.402344 359.179688 37.605469 366.378906 46.460938 366.378906 L 244.125 366.378906 C 252.980469 366.378906 260.183594 359.179688 260.183594 350.324219 L 260.183594 254.730469 C 260.183594 249.0625 268.789062 249.066406 268.789062 254.730469 L 268.789062 350.324219 C 268.789062 363.925781 257.726562 374.992188 244.125 374.992188 Z M 264.488281 185.324219 C 262.109375 185.324219 260.183594 183.394531 260.183594 181.019531 L 260.183594 72.828125 C 260.183594 63.96875 252.980469 56.765625 244.125 56.765625 L 201.804688 56.765625 C 196.140625 56.765625 196.140625 48.15625 201.804688 48.15625 L 244.121094 48.15625 C 257.722656 48.15625 268.789062 59.222656 268.789062 72.828125 L 268.789062 181.019531 C 268.789062 183.398438 266.859375 185.324219 264.484375 185.324219 Z M 264.488281 185.324219 " fill-opacity="1" fill-rule="evenodd"/></g><path fill="#3a322b" d="M 194.839844 79.230469 L 95.742188 79.230469 C 89.523438 79.230469 84.472656 74.175781 84.472656 67.957031 L 84.472656 42.785156 C 84.472656 36.570312 89.523438 31.515625 95.742188 31.515625 L 117.488281 31.515625 C 122.34375 -0.0078125 168.230469 -0.0078125 173.089844 31.515625 L 194.839844 31.515625 C 201.054688 31.515625 206.113281 36.570312 206.113281 42.785156 L 206.113281 67.957031 C 206.113281 74.171875 201.054688 79.230469 194.839844 79.230469 Z M 95.742188 40.125 C 94.300781 40.125 93.082031 41.34375 93.082031 42.785156 L 93.082031 67.957031 C 93.082031 69.402344 94.300781 70.621094 95.742188 70.621094 L 194.839844 70.621094 C 196.28125 70.621094 197.5 69.398438 197.5 67.957031 L 197.5 42.785156 C 197.5 41.34375 196.285156 40.125 194.839844 40.125 L 169.113281 40.125 C 166.738281 40.125 164.808594 38.195312 164.808594 35.820312 C 164.808594 10.125 125.765625 10.125 125.765625 35.824219 C 125.765625 38.199219 123.835938 40.128906 121.460938 40.128906 L 95.738281 40.125 Z M 95.742188 40.125 " fill-opacity="1" fill-rule="evenodd"/><path fill="#3a322b" d="M 145.289062 50.21875 C 127.621094 50.21875 127.625 23.375 145.289062 23.375 C 162.957031 23.375 162.960938 50.21875 145.289062 50.21875 Z M 145.289062 31.984375 C 138.953125 31.984375 138.953125 41.609375 145.289062 41.609375 C 151.628906 41.609375 151.628906 31.984375 145.289062 31.984375 Z M 145.289062 31.984375 " fill-opacity="1" fill-rule="evenodd"/><path fill="#3a322b" d="M 208.882812 132.613281 L 104.035156 132.613281 C 98.367188 132.613281 98.367188 124.003906 104.035156 124.003906 L 208.882812 124.003906 C 214.550781 124.003906 214.550781 132.613281 208.882812 132.613281 Z M 208.882812 132.613281 " fill-opacity="1" fill-rule="evenodd"/><path fill="#3a322b" d="M 67.816406 143.734375 C 64.472656 143.734375 58.09375 135.226562 54.0625 130.855469 C 50.222656 126.691406 56.550781 120.855469 60.394531 125.019531 L 67.945312 133.214844 L 87.019531 114.144531 C 91.027344 110.136719 97.113281 116.226562 93.105469 120.234375 L 70.867188 142.472656 C 70.054688 143.28125 68.957031 143.734375 67.820312 143.734375 Z M 67.816406 143.734375 " fill-opacity="1" fill-rule="evenodd"/><path fill="#3a322b" d="M 208.882812 195.613281 L 104.035156 195.613281 C 98.367188 195.613281 98.367188 187.003906 104.035156 187.003906 L 208.882812 187.003906 C 214.550781 187.003906 214.550781 195.613281 208.882812 195.613281 Z M 208.882812 195.613281 " fill-opacity="1" fill-rule="evenodd"/><path fill="#3a322b" d="M 67.816406 206.730469 C 64.488281 206.730469 58.050781 198.179688 54.058594 193.847656 C 50.21875 189.679688 56.550781 183.847656 60.390625 188.015625 L 67.941406 196.210938 L 87.011719 177.144531 C 91.023438 173.132812 97.105469 179.226562 93.101562 183.230469 L 70.859375 205.46875 C 70.054688 206.277344 68.957031 206.730469 67.816406 206.730469 Z M 67.816406 206.730469 " fill-opacity="1" fill-rule="evenodd"/><path fill="#3a322b" d="M 195.9375 258.605469 L 104.035156 258.605469 C 98.367188 258.605469 98.367188 249.996094 104.035156 249.996094 L 195.941406 249.996094 C 201.609375 249.996094 201.609375 258.605469 195.9375 258.605469 Z M 195.9375 258.605469 " fill-opacity="1" fill-rule="evenodd"/><path fill="#3a322b" d="M 67.816406 269.726562 C 64.488281 269.726562 58.058594 261.179688 54.0625 256.84375 C 50.222656 252.675781 56.558594 246.839844 60.394531 251.011719 L 67.945312 259.203125 L 87.019531 240.132812 C 91.03125 236.121094 97.109375 242.222656 93.105469 246.222656 L 70.867188 268.460938 C 70.054688 269.269531 68.957031 269.726562 67.820312 269.726562 Z M 67.816406 269.726562 " fill-opacity="1" fill-rule="evenodd"/><path fill="#3a322b" d="M 186.527344 321.605469 L 104.035156 321.605469 C 98.367188 321.605469 98.367188 312.996094 104.035156 312.996094 L 186.527344 312.996094 C 192.191406 312.996094 192.191406 321.605469 186.527344 321.605469 Z M 186.527344 321.605469 " fill-opacity="1" fill-rule="evenodd"/><path fill="#3a322b" d="M 67.816406 332.722656 C 64.488281 332.722656 58.058594 324.171875 54.0625 319.839844 C 50.222656 315.671875 56.558594 309.835938 60.394531 314.007812 L 67.945312 322.203125 L 87.019531 303.132812 C 91.03125 299.117188 97.109375 305.21875 93.105469 309.21875 L 70.867188 331.457031 C 70.054688 332.269531 68.957031 332.722656 67.820312 332.722656 Z M 67.816406 332.722656 " fill-opacity="1" fill-rule="evenodd"/></svg>