<svg version="1.2" xmlns="http://www.w3.org/2000/svg" viewBox="0 0 24 23" width="13" height="12">
	<title>18-svg</title>
	<defs>
		<clipPath clipPathUnits="userSpaceOnUse" id="cp1">
			<path d="m5 5h18.39v12h-18.39z"/>
		</clipPath>
		<clipPath clipPathUnits="userSpaceOnUse" id="cp2">
			<path d="m0.89-0.09h15.11v22.5h-15.11z"/>
		</clipPath>
	</defs>
	<style>
		.s0 { fill: #000000 } 
	</style>
	<g id="Clip-Path" clip-path="url(#cp1)">
		<g>
			<path class="s0" d="m22.9 10.3l-4.3-4.3q-0.2-0.2-0.4-0.3-0.2-0.1-0.4-0.1-0.3 0-0.5 0.1-0.2 0.1-0.4 0.3-0.1 0.1-0.2 0.3-0.1 0.2-0.1 0.5 0 0.2 0.1 0.4 0.1 0.2 0.2 0.4l2.4 2.4h-12.6q-0.2 0-0.5 0.1-0.2 0.1-0.3 0.2-0.2 0.2-0.3 0.4-0.1 0.2-0.1 0.5 0 0.2 0.1 0.4 0.1 0.2 0.3 0.4 0.1 0.1 0.3 0.2 0.3 0.1 0.5 0.1h12.6l-2.4 2.4q-0.1 0.2-0.2 0.4-0.1 0.2-0.1 0.4 0 0.3 0.1 0.5 0.1 0.2 0.2 0.4 0.2 0.1 0.4 0.2 0.2 0.1 0.5 0.1 0.2 0 0.4-0.1 0.2-0.1 0.4-0.2l4.3-4.4q0.2-0.2 0.3-0.4 0.1-0.2 0.1-0.4 0-0.3-0.1-0.5-0.1-0.2-0.3-0.4z"/>
		</g>
	</g>
	<g id="Clip-Path" clip-path="url(#cp2)">
		<g>
			<path class="s0" d="m14.4 17.8q-0.2 0-0.4 0-0.3 0.1-0.4 0.3-0.2 0.2-0.3 0.4-0.1 0.2-0.1 0.4v1.2h-10v-17.9h10v1.2q0 0.2 0.1 0.5 0.1 0.2 0.3 0.3 0.1 0.2 0.4 0.3 0.2 0.1 0.4 0.1 0.2 0 0.4-0.1 0.3-0.1 0.4-0.3 0.2-0.1 0.3-0.3 0.1-0.3 0.1-0.5v-1.5q0-0.4-0.2-0.8-0.1-0.3-0.4-0.6-0.3-0.3-0.6-0.4-0.4-0.2-0.8-0.2h-10.8q-0.4 0-0.7 0.2-0.4 0.1-0.6 0.4-0.3 0.3-0.5 0.6-0.1 0.4-0.1 0.8v18.6q0 0.4 0.1 0.7 0.2 0.4 0.5 0.6 0.2 0.3 0.6 0.5 0.3 0.1 0.7 0.1h10.8q0.4 0 0.8-0.1 0.3-0.2 0.6-0.5 0.3-0.2 0.4-0.6 0.2-0.3 0.2-0.7v-1.6q0-0.2-0.1-0.4-0.1-0.2-0.3-0.4-0.1-0.2-0.4-0.3-0.2 0-0.4 0z"/>
		</g>
	</g>
</svg>