<svg version="1.2" xmlns="http://www.w3.org/2000/svg" viewBox="0 0 23 21" width="23" height="21">
	<title>15-svg</title>
	<defs>
		<clipPath clipPathUnits="userSpaceOnUse" id="cp1">
			<path d="m0.21 0.69h22.32v16.31h-22.32z"/>
		</clipPath>
		<clipPath clipPathUnits="userSpaceOnUse" id="cp2">
			<path d="m17 16h5v4.19h-5z"/>
		</clipPath>
		<clipPath clipPathUnits="userSpaceOnUse" id="cp3">
			<path d="m7 16h4v4.19h-4z"/>
		</clipPath>
	</defs>
	<style>
		.s0 { fill: #000000 } 
	</style>
	<g id="Clip-Path" clip-path="url(#cp1)">
		<g>
			<path fill-rule="evenodd" class="s0" d="m0.7 0.7h2.8q0.1 0 0.1 0 0 0 0 0 0 0 0 0 0 0 0.1 0 0 0 0 0 0 0 0 0 0 0 0 0 0 0 0 0 0.1 0 0.1 0.1 0 0 0 0 0 0 0 0 0 0 0.1 0 0 0 0 0 0 0 0 0 0 0.1 0 0.1 0 0 0.1 0 0 0 0 0 0 0.1 0 0.1 0 0 0 0 0 0 0 0 0 0 0 0l1.3 3.2h16.9q0 0 0.1 0 0 0.1 0 0.1 0 0 0 0 0 0 0.1 0 0 0 0 0 0 0 0 0 0 0 0 0 0 0 0 0 0 0 0 0 0 0 0 0 0.1 0 0.1 0 0 0 0 0.1 0 0 0.1 0 0 0 0 0 0 0 0 0.1 0 0 0 0 0 0 0 0 0 0 0 0 0.1 0 0.1 0 0 0 0 0.1 0 0 0 0 0 0 0 0 0 0 0 0 0 0 0 0 0 0.1 0 0.1 0 0 0 0 0 0 0 0.1 0 0 0 0 0 0.1 0 0.1 0 0 0 0 0 0 0 0l-2.8 7.3q0 0 0 0 0 0 0 0 0 0 0 0 0 0 0 0 0 0-0.1 0.1 0 0 0 0 0 0 0 0 0 0 0 0 0 0 0 0 0 0 0 0 0 0.1 0 0.1-0.1 0-0.1 0 0 0 0 0 0 0 0 0 0 0 0 0-0.1 0-0.1 0 0 0 0 0 0 0.1 0 0.1 0 0 0 0 0 0-0.1 0 0 0 0 0 0 0 0 0 0 0 0 0 0 0-0.1 0 0 0 0 0h-11l1 2.5h9.9c0.3 0 0.5 0.3 0.5 0.5 0 0.3-0.2 0.5-0.5 0.5h-10.2q0 0 0 0-0.1 0-0.1 0 0 0 0 0 0 0 0 0 0 0-0.1 0 0 0 0 0 0 0 0 0 0 0 0 0 0 0-0.1 0 0 0 0-0.1 0 0 0 0 0 0 0 0 0 0-0.1 0 0 0 0 0 0 0 0 0 0 0 0 0 0-0.1 0-0.1 0 0 0 0 0 0-0.1 0 0 0 0 0 0 0 0-0.1 0 0 0 0 0 0 0 0 0 0 0 0 0 0 0 0l-1.3-3.4q-0.1-0.1-0.1-0.1l-2.8-7.3q0 0 0 0 0 0 0 0 0 0 0-0.1 0 0 0 0l-1.2-3.1h-2.5c-0.3 0-0.5-0.2-0.5-0.5 0-0.3 0.2-0.5 0.5-0.5zm12.4 7.2v-2.7h-4l0.6 2.7zm0 1h-3.1l0.6 2.6h2.5zm4.1 0h-3.1v2.6h2.5zm0.9-3.6h-4v2.7h3.4zm0.4 2.6h2l1.1-2.6h-2.5zm0.7 3.6l1-2.7h-1.9l-0.6 2.7zm-12.5-3.6h2.1l-0.6-2.7h-2.5zm2.9 3.6l-0.6-2.6h-1.9l1 2.6z"/>
		</g>
	</g>
	<g id="Clip-Path" clip-path="url(#cp2)">
		<g>
			<path fill-rule="evenodd" class="s0" d="m19.5 16.5c0.5 0.1 1 0.3 1.2 0.8 0.3 0.4 0.4 0.9 0.3 1.4-0.1 0.9-0.9 1.5-1.8 1.5q-0.2 0-0.4-0.1c-1-0.2-1.7-1.1-1.5-2.2 0.2-1 1.2-1.6 2.2-1.4zm-0.5 2.7c0.5 0.1 1-0.2 1.1-0.7q0-0.4-0.2-0.7-0.2-0.3-0.6-0.4 0 0-0.1 0c-0.4 0-0.8 0.3-0.9 0.7-0.1 0.5 0.2 1 0.7 1.1z"/>
		</g>
	</g>
	<g id="Clip-Path" clip-path="url(#cp3)">
		<g>
			<path fill-rule="evenodd" class="s0" d="m9.3 16.5c0.5 0.1 0.9 0.3 1.2 0.8 0.3 0.4 0.4 0.9 0.3 1.4-0.2 0.9-1 1.5-1.8 1.5q-0.2 0-0.4-0.1c-1-0.2-1.7-1.1-1.5-2.2 0.2-1 1.2-1.6 2.2-1.4zm-0.5 2.7c0.5 0.1 0.9-0.2 1-0.7q0.1-0.4-0.1-0.7-0.2-0.3-0.6-0.4-0.1 0-0.1 0c-0.5 0-0.8 0.3-0.9 0.7-0.1 0.5 0.2 1 0.7 1.1z"/>
		</g>
	</g>
</svg>