<svg version="1.2" xmlns="http://www.w3.org/2000/svg" viewBox="0 0 22 21" width="23" height="22">
	<title>14-svg</title>
	<defs>
		<clipPath clipPathUnits="userSpaceOnUse" id="cp1">
			<path d="m0 0.79h22v10.21h-22z"/>
		</clipPath>
		<clipPath clipPathUnits="userSpaceOnUse" id="cp2">
			<path d="m20 5v16.04h-18v-16.04z"/>
		</clipPath>
	</defs>
	<style>
		.s0 { fill: #000000 } 
	</style>
	<g id="Clip-Path" clip-path="url(#cp1)">
		<g>
			<path class="s0" d="m21.3 7.9l-3.4-2.5v-3c0-0.5-0.4-0.9-0.9-0.9h-1.4c-0.5 0-0.9 0.4-0.9 0.9v0.7l-2.6-1.9c-0.6-0.4-1.5-0.4-2.1 0l-9.2 6.7c-0.6 0.4-0.7 1.2-0.3 1.8l0.2 0.3c0.5 0.6 1.3 0.7 1.9 0.3l7.4-5.4c0.6-0.4 1.5-0.4 2.1 0l7.4 5.4c0.6 0.4 1.4 0.3 1.8-0.3l0.3-0.3c0.4-0.6 0.3-1.4-0.3-1.8z"/>
		</g>
	</g>
	<g id="Clip-Path" clip-path="url(#cp2)">
		<g>
			<path class="s0" d="m18.6 10.8l-6.5-4.8c-0.6-0.4-1.5-0.4-2.1 0l-6.5 4.8c-0.5 0.4-1 1-1 1.3v6.9c0 1.1 1 2 2.1 2h4v-6c0-0.5 0.4-0.9 0.9-0.9h3.1c0.5 0 0.9 0.4 0.9 0.9v6h3.9c1.2 0 2.2-0.9 2.2-2v-6.9c0-0.3-0.5-0.9-1-1.3z"/>
		</g>
	</g>
</svg>