<svg version="1.2" xmlns="http://www.w3.org/2000/svg" viewBox="0 0 23 27" width="23" height="27">
	<title>16-svg</title>
	<defs>
		<clipPath clipPathUnits="userSpaceOnUse" id="cp1">
			<path d="m0.3 0.59h22.5v26.25h-22.5z"/>
		</clipPath>
	</defs>
	<style>
		.s0 { fill: #000000 } 
	</style>
	<g id="Clip-Path" clip-path="url(#cp1)">
		<g>
			<path fill-rule="evenodd" class="s0" d="m22.8 0.9v21.9c0 1.1-0.5 2.1-1.2 2.9-0.8 0.7-1.7 1.1-2.8 1.1h-14.5c-1.1 0-2.1-0.4-2.8-1.1-0.8-0.8-1.2-1.8-1.2-2.9 0-0.2 0.2-0.3 0.3-0.3h3.3v-1.5c0-0.2 0.2-0.3 0.4-0.3 0.2 0 0.3 0.1 0.3 0.3v1.5h10.6q0.1 0 0.2 0.1 0.1 0.1 0.1 0.2c0 0.9 0.3 1.7 1 2.4 0.6 0.6 1.4 0.9 2.3 0.9 0.9 0 1.7-0.3 2.3-0.9 0.6-0.7 1-1.5 1-2.4v-21.5h-17.5v16c0 0.2-0.1 0.4-0.3 0.4-0.2 0-0.4-0.2-0.4-0.4v-16.4c0-0.2 0.2-0.3 0.4-0.3h18.1c0.2 0 0.4 0.1 0.4 0.3zm-6.2 25.2q-0.3-0.2-0.6-0.4c-0.7-0.7-1.1-1.6-1.2-2.5h-13.8c0.1 0.7 0.4 1.4 0.9 2 0.7 0.6 1.5 0.9 2.4 0.9zm-12.7-6.5v-0.9c0-0.2 0.2-0.3 0.4-0.3 0.2 0 0.3 0.1 0.3 0.3v0.9c0 0.2-0.1 0.4-0.3 0.4-0.2 0-0.4-0.2-0.4-0.4zm2.4-12.9c-0.2 0-0.3-0.1-0.3-0.3v-2.7c0-0.2 0.1-0.4 0.3-0.4 0.2 0 0.4 0.2 0.4 0.4v2.7c0 0.2-0.2 0.3-0.4 0.3zm1.4 0c-0.2 0-0.4-0.1-0.4-0.3v-2.7c0-0.2 0.1-0.3 0.3-0.4 0.2 0 0.3 0.1 0.4 0.2l0.7 1.4v-1.2c0-0.2 0.2-0.4 0.3-0.4 0.2 0 0.4 0.2 0.4 0.4v2.7c0 0.2-0.1 0.3-0.3 0.3q0 0-0.1 0-0.2 0-0.3-0.2l-0.7-1.4v1.3c0 0.2-0.1 0.3-0.3 0.3zm3-0.2l-0.6-2.8c-0.1-0.1 0-0.3 0.2-0.4 0.2 0 0.4 0.1 0.4 0.3l0.4 1.4 0.3-1.4c0.1-0.2 0.3-0.3 0.4-0.3 0.2 0.1 0.3 0.3 0.3 0.4l-0.7 2.8c0 0.1-0.2 0.2-0.3 0.2-0.2 0-0.3-0.1-0.4-0.2zm2.9 0.2c-0.6 0-1-0.4-1-1v-1.4c0-0.5 0.4-1 1-1 0.5 0 1 0.5 1 1v1.4c0 0.6-0.5 1-1 1zm0-0.6c0.2 0 0.3-0.2 0.3-0.4v-1.4c0-0.2-0.1-0.3-0.3-0.3-0.2 0-0.4 0.1-0.4 0.3v1.4c0 0.2 0.2 0.4 0.4 0.4zm1.8 0.6c-0.2 0-0.4-0.1-0.4-0.3v-2.7c0-0.2 0.2-0.4 0.4-0.4 0.2 0 0.3 0.2 0.3 0.4v2.7c0 0.2-0.1 0.3-0.3 0.3zm1.8-2.4c-0.2 0.2-0.3 0.5-0.3 0.7 0 0.3 0.1 0.6 0.3 0.7q0.3 0.3 0.7 0.4c0.2 0 0.3 0.1 0.3 0.3 0 0.2-0.1 0.3-0.3 0.3-0.5 0-0.9-0.1-1.2-0.5-0.3-0.3-0.5-0.7-0.5-1.2 0-0.4 0.2-0.9 0.5-1.2 0.3-0.3 0.7-0.5 1.2-0.5 0.2 0 0.3 0.2 0.3 0.4 0 0.1-0.1 0.3-0.3 0.3-0.3 0-0.5 0.1-0.7 0.3zm2.2-0.3v0.7h0.5c0.2 0 0.4 0.1 0.4 0.3 0 0.2-0.2 0.4-0.4 0.4h-0.5v0.7h1c0.2 0 0.3 0.1 0.3 0.3 0 0.2-0.1 0.3-0.3 0.3h-1.4c-0.2 0-0.3-0.1-0.3-0.3v-2.7c0-0.2 0.1-0.4 0.3-0.4h1.4c0.2 0 0.3 0.2 0.3 0.4 0 0.1-0.1 0.3-0.3 0.3zm-13.3 4.8h14.5c0.2 0 0.4 0.1 0.4 0.3v8.2c0 0.2-0.2 0.4-0.4 0.4h-14.5c-0.2 0-0.3-0.2-0.3-0.4v-8.2c0-0.2 0.1-0.3 0.3-0.3zm14.2 3.4h-10.2v2.1h10.2zm-10.9 0h-3v2h3zm-3 4.8h3v-2h-3zm13.9 0v-2.1h-10.2v2.1zm0-7.6h-10.2v2.1h10.2zm-13.9 2h3v-2h-3zm-0.6 9.5c0-0.2 0.1-0.4 0.3-0.4h4.5c0.2 0 0.4 0.2 0.4 0.4 0 0.1-0.2 0.3-0.4 0.3h-4.5c-0.2 0-0.3-0.2-0.3-0.3z"/>
		</g>
	</g>
</svg>