<svg version="1.2" xmlns="http://www.w3.org/2000/svg" viewBox="0 0 19 26" width="19" height="26">
	<title>13-svg</title>
	<defs>
		<clipPath clipPathUnits="userSpaceOnUse" id="cp1">
			<path d="m0.07 0.24h18v25.5h-18z"/>
		</clipPath>
	</defs>
	<style>
		.s0 { fill: #000000 } 
	</style>
	<g id="Clip-Path" clip-path="url(#cp1)">
		<g>
			<path fill-rule="evenodd" class="s0" d="m18.1 4.9v20.4c0 0.3-0.2 0.4-0.5 0.4h-17.1c-0.2 0-0.4-0.1-0.4-0.4v-20.4q0 0 0 0 0-0.1 0-0.1 0 0 0-0.1 0 0 0.1-0.1 0 0 0 0 0 0 0.1 0 0-0.1 0.1-0.1 0 0 0 0l14.5-4.2q0.1-0.1 0.2-0.1c0.2 0 0.4 0.2 0.4 0.5v3.8h2.1c0.3 0 0.5 0.2 0.5 0.4zm-14.6-0.4h11.1v-3.3zm13.8 0.9h-16.3v19.5h16.3z"/>
		</g>
	</g>
	<path class="s0" d="m6.1 7q-0.3 0-0.4 0.2l-0.9 1.6-0.9-1.6c-0.2-0.2-0.4-0.2-0.6-0.1q-0.2 0.1-0.2 0.4v3.4c0 0.2 0.2 0.4 0.4 0.4 0.2 0 0.4-0.2 0.4-0.4v-1.9l0.5 0.8c0.2 0.2 0.4 0.3 0.6 0.1q0.1 0 0.1-0.1l0.5-0.8v1.9c0 0.2 0.2 0.4 0.5 0.4 0.2 0 0.4-0.2 0.4-0.4v-3.4c0-0.3-0.2-0.5-0.4-0.5z"/>
	<path class="s0" d="m8.6 9.6c0.3 0 0.5-0.2 0.5-0.4 0-0.3-0.2-0.5-0.5-0.5h-0.8v-0.8h0.8c0.3 0 0.5-0.2 0.5-0.4 0-0.3-0.2-0.5-0.5-0.5h-1.2c-0.3 0-0.5 0.2-0.5 0.5v3.4c0 0.2 0.2 0.4 0.5 0.4h1.2c0.3 0 0.5-0.2 0.5-0.4 0-0.3-0.2-0.5-0.5-0.5h-0.8v-0.8z"/>
	<path class="s0" d="m11.6 7c-0.2 0-0.4 0.2-0.4 0.5v1.6l-0.9-1.8c-0.1-0.2-0.3-0.3-0.6-0.2-0.1 0-0.2 0.2-0.2 0.4v3.4c0 0.2 0.2 0.4 0.4 0.4 0.3 0 0.5-0.2 0.5-0.4v-1.6l0.9 1.8c0.1 0.2 0.3 0.3 0.5 0.2 0.2-0.1 0.3-0.3 0.3-0.4v-3.4c0-0.3-0.2-0.5-0.5-0.5z"/>
	<path class="s0" d="m14.6 7c-0.2 0-0.4 0.2-0.4 0.5v2.5c0 0.3-0.2 0.4-0.4 0.4-0.3 0-0.4-0.2-0.4-0.4v-2.5c0-0.3-0.2-0.5-0.5-0.5-0.2 0-0.4 0.2-0.4 0.5v2.5c0 0.7 0.6 1.3 1.3 1.3 0.7 0 1.3-0.6 1.3-1.3v-2.5c0-0.3-0.2-0.5-0.5-0.5z"/>
	<path class="s0" d="m15.9 15.1h-13.7c-0.2 0-0.4 0.2-0.4 0.4 0 0.3 0.2 0.5 0.4 0.5h13.7c0.3 0 0.5-0.2 0.5-0.5 0-0.2-0.2-0.4-0.5-0.4z"/>
	<path class="s0" d="m15.9 17.7h-13.7c-0.2 0-0.4 0.2-0.4 0.4 0 0.2 0.2 0.4 0.4 0.4h13.7c0.3 0 0.5-0.2 0.5-0.4 0-0.2-0.2-0.4-0.5-0.4z"/>
	<path class="s0" d="m15.9 20.2h-13.7c-0.2 0-0.4 0.2-0.4 0.4 0 0.3 0.2 0.5 0.4 0.5h13.7c0.3 0 0.5-0.2 0.5-0.5 0-0.2-0.2-0.4-0.5-0.4z"/>
</svg>