<svg xmlns="http://www.w3.org/2000/svg" xmlns:xlink="http://www.w3.org/1999/xlink" width="500" zoomAndPan="magnify" viewBox="0 0 375 374.999991" height="500" preserveAspectRatio="xMidYMid meet" version="1.0"><defs><clipPath id="09ef12e165"><path d="M 0 58 L 375 58 L 375 360 L 0 360 Z M 0 58 " clip-rule="nonzero"/></clipPath></defs><path fill="#000000" d="M 223.679688 124.773438 C 221.636719 119.894531 218.699219 115.558594 214.945312 111.886719 C 211.320312 108.34375 207.09375 105.566406 202.382812 103.636719 C 197.667969 101.707031 192.710938 100.71875 187.636719 100.699219 C 182.390625 100.679688 177.246094 101.703125 172.363281 103.742188 C 167.480469 105.785156 163.144531 108.722656 159.46875 112.476562 C 155.921875 116.097656 153.144531 120.320312 151.214844 125.03125 C 149.28125 129.738281 148.292969 134.695312 148.273438 139.761719 C 148.25 145.011719 149.277344 150.148438 151.320312 155.027344 C 153.363281 159.90625 156.300781 164.242188 160.054688 167.914062 C 163.679688 171.457031 167.90625 174.234375 172.617188 176.164062 C 177.332031 178.09375 182.289062 179.085938 187.363281 179.105469 C 187.414062 179.105469 187.464844 179.105469 187.515625 179.105469 C 192.714844 179.105469 197.800781 178.078125 202.636719 176.058594 C 207.519531 174.015625 211.859375 171.078125 215.53125 167.328125 C 219.078125 163.703125 221.855469 159.480469 223.789062 154.773438 C 225.71875 150.0625 226.710938 145.109375 226.730469 140.039062 C 226.75 134.789062 225.722656 129.652344 223.679688 124.773438 Z M 215.695312 151.457031 C 212.609375 158.984375 206.769531 164.859375 199.261719 167.996094 C 191.75 171.136719 183.46875 171.167969 175.9375 168.078125 C 168.40625 164.992188 162.527344 159.160156 159.386719 151.65625 C 156.242188 144.148438 156.214844 135.871094 159.304688 128.34375 C 162.390625 120.816406 168.230469 114.941406 175.738281 111.804688 C 179.527344 110.21875 183.511719 109.425781 187.5 109.425781 C 191.414062 109.425781 195.332031 110.191406 199.0625 111.722656 C 206.59375 114.808594 212.472656 120.640625 215.613281 128.144531 C 218.757812 135.652344 218.785156 143.929688 215.695312 151.457031 Z M 215.695312 151.457031 " fill-opacity="1" fill-rule="nonzero"/><path fill="#000000" d="M 214.890625 47.265625 L 221.492188 49.585938 L 222.695312 52.457031 L 219.710938 58.785156 C 218.964844 60.371094 219.296875 62.257812 220.542969 63.492188 L 226.664062 69.566406 C 227.910156 70.800781 229.796875 71.121094 231.378906 70.363281 L 237.691406 67.339844 L 240.570312 68.519531 L 242.941406 75.101562 C 243.53125 76.746094 245.09375 77.84375 246.839844 77.84375 C 246.84375 77.84375 246.851562 77.84375 246.855469 77.84375 L 255.484375 77.8125 C 257.238281 77.808594 258.796875 76.699219 259.378906 75.042969 L 261.703125 68.445312 L 264.574219 67.242188 L 270.910156 70.226562 C 272.496094 70.972656 274.382812 70.636719 275.621094 69.390625 L 281.695312 63.277344 C 282.933594 62.03125 283.25 60.144531 282.492188 58.566406 L 279.464844 52.257812 L 280.648438 49.378906 L 287.234375 47.011719 C 288.886719 46.417969 289.984375 44.851562 289.976562 43.101562 L 289.945312 34.476562 C 289.941406 32.726562 288.832031 31.164062 287.175781 30.585938 L 280.574219 28.265625 L 279.371094 25.390625 L 282.355469 19.0625 C 283.101562 17.476562 282.769531 15.59375 281.527344 14.359375 L 275.402344 8.28125 C 274.15625 7.046875 272.269531 6.730469 270.6875 7.488281 L 264.378906 10.511719 L 261.496094 9.328125 L 259.128906 2.746094 C 258.535156 1.101562 256.976562 0.00390625 255.226562 0.00390625 C 255.222656 0.00390625 255.214844 0.00390625 255.210938 0.00390625 L 246.582031 0.0351562 C 244.828125 0.0390625 243.269531 1.148438 242.6875 2.804688 L 240.367188 9.402344 L 237.492188 10.605469 L 231.160156 7.621094 C 229.574219 6.875 227.683594 7.210938 226.449219 8.457031 L 220.371094 14.570312 C 219.136719 15.816406 218.816406 17.703125 219.574219 19.28125 L 222.601562 25.589844 L 221.421875 28.46875 L 214.832031 30.835938 C 213.183594 31.429688 212.085938 32.996094 212.089844 34.746094 L 212.121094 43.371094 C 212.128906 45.125 213.234375 46.683594 214.890625 47.265625 Z M 225.960938 35.640625 C 227.0625 35.246094 227.945312 34.398438 228.390625 33.316406 L 230.972656 27.027344 C 231.417969 25.945312 231.382812 24.722656 230.875 23.667969 L 228.316406 18.335938 L 230.273438 16.363281 L 235.625 18.882812 C 236.6875 19.382812 237.910156 19.410156 238.992188 18.957031 L 245.265625 16.335938 C 246.347656 15.882812 247.1875 14.992188 247.574219 13.886719 L 249.539062 8.308594 L 252.320312 8.296875 L 254.320312 13.863281 C 254.71875 14.964844 255.5625 15.847656 256.648438 16.292969 L 262.9375 18.871094 C 264.023438 19.316406 265.246094 19.28125 266.304688 18.773438 L 271.640625 16.214844 L 273.613281 18.171875 L 271.089844 23.523438 C 270.589844 24.582031 270.5625 25.804688 271.015625 26.886719 L 273.640625 33.15625 C 274.09375 34.238281 274.980469 35.074219 276.089844 35.464844 L 281.671875 37.425781 L 281.679688 40.203125 L 276.113281 42.207031 C 275.007812 42.601562 274.125 43.445312 273.679688 44.53125 L 271.101562 50.816406 C 270.65625 51.902344 270.691406 53.125 271.199219 54.179688 L 273.757812 59.511719 L 271.796875 61.484375 L 266.445312 58.964844 C 265.386719 58.464844 264.160156 58.4375 263.078125 58.890625 L 256.808594 61.511719 C 255.726562 61.964844 254.886719 62.855469 254.496094 63.960938 L 252.535156 69.539062 L 249.753906 69.546875 L 247.75 63.984375 C 247.355469 62.882812 246.507812 62 245.421875 61.554688 L 239.132812 58.976562 C 238.628906 58.769531 238.09375 58.664062 237.5625 58.664062 C 236.945312 58.664062 236.332031 58.800781 235.765625 59.074219 L 230.433594 61.628906 L 228.460938 59.671875 L 230.980469 54.324219 C 231.480469 53.261719 231.507812 52.042969 231.054688 50.960938 L 228.433594 44.691406 C 227.980469 43.609375 227.089844 42.773438 225.984375 42.382812 L 220.402344 40.421875 L 220.390625 37.640625 Z M 225.960938 35.640625 " fill-opacity="1" fill-rule="nonzero"/><path fill="#000000" d="M 251.058594 57.019531 C 253.386719 57.019531 255.75 56.570312 258.023438 55.617188 C 262.488281 53.753906 265.953125 50.261719 267.789062 45.789062 C 269.625 41.316406 269.609375 36.398438 267.742188 31.9375 C 263.886719 22.730469 253.257812 18.375 244.046875 22.226562 C 234.835938 26.078125 230.472656 36.703125 234.328125 45.90625 C 237.230469 52.839844 243.972656 57.019531 251.058594 57.019531 Z M 247.246094 29.871094 C 248.480469 29.355469 249.761719 29.109375 251.023438 29.109375 C 254.863281 29.109375 258.519531 31.378906 260.09375 35.136719 C 262.183594 40.128906 259.820312 45.886719 254.824219 47.976562 C 253.589844 48.492188 252.308594 48.738281 251.046875 48.738281 C 247.207031 48.738281 243.550781 46.46875 241.976562 42.710938 C 239.886719 37.71875 242.25 31.957031 247.246094 29.871094 Z M 247.246094 29.871094 " fill-opacity="1" fill-rule="nonzero"/><g clip-path="url(#09ef12e165)"><path fill="#000000" d="M 371.1875 256.894531 C 368.757812 251.148438 365.277344 245.992188 360.84375 241.566406 C 356.414062 237.136719 351.253906 233.660156 345.507812 231.230469 C 345.007812 231.019531 344.511719 230.820312 344.011719 230.628906 C 345.3125 229.691406 346.550781 228.644531 347.707031 227.488281 C 353.3125 221.882812 356.398438 214.433594 356.398438 206.511719 C 356.398438 198.589844 353.3125 191.140625 347.707031 185.539062 C 343.203125 181.039062 337.503906 178.164062 331.328125 177.207031 L 331.328125 139.902344 C 331.328125 137.488281 329.371094 135.53125 326.957031 135.53125 L 268.671875 135.53125 L 268.65625 130.09375 C 268.648438 128.246094 267.476562 126.601562 265.734375 125.988281 L 249.144531 120.15625 L 244.847656 109.898438 L 252.34375 94 C 253.128906 92.328125 252.78125 90.339844 251.46875 89.039062 L 237.945312 75.617188 C 236.632812 74.316406 234.640625 73.980469 232.972656 74.777344 L 217.117188 82.378906 L 206.820312 78.160156 L 200.871094 61.621094 C 200.246094 59.886719 198.601562 58.730469 196.757812 58.730469 C 196.753906 58.730469 196.746094 58.730469 196.742188 58.730469 L 177.683594 58.800781 C 175.835938 58.804688 174.1875 59.976562 173.574219 61.71875 L 167.742188 78.296875 L 157.476562 82.589844 L 141.566406 75.101562 C 139.894531 74.3125 137.90625 74.664062 136.601562 75.972656 L 123.171875 89.488281 C 121.871094 90.800781 121.53125 92.789062 122.332031 94.457031 L 129.9375 110.300781 L 125.714844 120.589844 L 109.167969 126.539062 C 107.429688 127.164062 106.269531 128.816406 106.277344 130.664062 L 106.292969 135.53125 L 48.28125 135.53125 C 45.867188 135.53125 43.910156 137.488281 43.910156 139.902344 L 43.910156 177.167969 C 37.640625 178.085938 31.855469 180.976562 27.292969 185.539062 C 21.6875 191.140625 18.601562 198.589844 18.601562 206.511719 C 18.601562 214.433594 21.6875 221.886719 27.292969 227.488281 C 28.453125 228.644531 29.6875 229.691406 30.988281 230.628906 C 30.488281 230.820312 29.992188 231.019531 29.492188 231.230469 C 23.746094 233.660156 18.585938 237.136719 14.15625 241.566406 C 9.722656 245.992188 6.242188 251.152344 3.8125 256.894531 C 1.292969 262.84375 0.015625 269.160156 0.015625 275.671875 L 0.015625 289.5 C 0.015625 291.914062 1.976562 293.871094 4.390625 293.871094 L 92.175781 293.871094 C 94.589844 293.871094 96.546875 291.914062 96.546875 289.5 L 96.546875 275.671875 C 96.546875 269.160156 95.269531 262.84375 92.75 256.894531 C 90.320312 251.148438 86.839844 245.992188 82.410156 241.566406 C 77.976562 237.136719 72.816406 233.660156 67.070312 231.230469 C 66.574219 231.019531 66.074219 230.820312 65.574219 230.628906 C 66.875 229.691406 68.113281 228.644531 69.269531 227.488281 C 74.875 221.886719 77.964844 214.4375 77.964844 206.511719 C 77.964844 198.589844 74.875 191.140625 69.269531 185.539062 C 64.707031 180.980469 58.921875 178.085938 52.652344 177.167969 L 52.652344 144.269531 L 106.324219 144.269531 L 106.34375 149.710938 C 106.351562 151.558594 107.519531 153.203125 109.265625 153.816406 L 125.855469 159.644531 L 130.148438 169.90625 L 122.65625 185.804688 C 121.867188 187.476562 122.21875 189.464844 123.53125 190.765625 L 137.054688 204.1875 C 138.367188 205.488281 140.359375 205.824219 142.027344 205.023438 L 157.882812 197.425781 L 168.175781 201.644531 L 174.128906 218.179688 C 174.75 219.917969 176.398438 221.070312 178.242188 221.070312 C 178.246094 221.070312 178.25 221.070312 178.257812 221.070312 L 183.128906 221.054688 L 183.128906 242.261719 C 183.128906 242.617188 183.171875 242.960938 183.25 243.289062 C 176.933594 244.1875 171.101562 247.085938 166.511719 251.675781 C 160.90625 257.277344 157.816406 264.726562 157.816406 272.648438 C 157.816406 280.574219 160.90625 288.023438 166.511719 293.625 C 167.667969 294.78125 168.90625 295.828125 170.207031 296.765625 C 169.707031 296.957031 169.207031 297.15625 168.710938 297.367188 C 162.964844 299.796875 157.804688 303.273438 153.371094 307.699219 C 148.941406 312.128906 145.460938 317.289062 143.03125 323.03125 C 140.511719 328.980469 139.234375 335.296875 139.234375 341.808594 L 139.234375 355.636719 C 139.234375 358.050781 141.191406 360.007812 143.605469 360.007812 L 231.390625 360.007812 C 233.804688 360.007812 235.765625 358.050781 235.765625 355.636719 L 235.765625 341.808594 C 235.765625 335.296875 234.488281 328.980469 231.96875 323.03125 C 229.539062 317.285156 226.058594 312.128906 221.628906 307.699219 C 217.195312 303.273438 212.035156 299.796875 206.289062 297.367188 C 205.792969 297.15625 205.292969 296.957031 204.792969 296.765625 C 206.09375 295.828125 207.332031 294.78125 208.488281 293.625 C 214.09375 288.023438 217.179688 280.574219 217.179688 272.648438 C 217.179688 264.726562 214.09375 257.277344 208.488281 251.675781 C 203.894531 247.085938 198.0625 244.1875 191.75 243.289062 C 191.828125 242.960938 191.871094 242.617188 191.871094 242.261719 L 191.871094 221.023438 L 197.3125 221.003906 C 199.164062 220.996094 200.808594 219.828125 201.421875 218.085938 L 207.257812 201.507812 L 217.523438 197.214844 L 233.429688 204.703125 C 235.105469 205.492188 237.09375 205.140625 238.394531 203.828125 L 251.824219 190.316406 C 253.128906 189.003906 253.464844 187.011719 252.664062 185.347656 L 245.058594 169.5 L 249.28125 159.210938 L 265.828125 153.265625 C 267.570312 152.640625 268.726562 150.988281 268.722656 149.140625 L 268.703125 144.273438 L 322.582031 144.273438 L 322.582031 177.136719 C 316.222656 178.015625 310.347656 180.921875 305.726562 185.539062 C 300.121094 191.140625 297.035156 198.589844 297.035156 206.515625 C 297.035156 214.4375 300.121094 221.886719 305.726562 227.488281 C 306.886719 228.644531 308.121094 229.691406 309.421875 230.628906 C 308.921875 230.820312 308.425781 231.019531 307.929688 231.230469 C 302.179688 233.660156 297.019531 237.136719 292.589844 241.566406 C 288.15625 245.996094 284.675781 251.152344 282.246094 256.894531 C 279.730469 262.84375 278.449219 269.164062 278.449219 275.671875 L 278.449219 289.503906 C 278.449219 291.914062 280.410156 293.871094 282.824219 293.871094 L 370.609375 293.871094 C 373.023438 293.871094 374.980469 291.914062 374.980469 289.503906 L 374.980469 275.671875 C 374.984375 269.160156 373.707031 262.84375 371.1875 256.894531 Z M 76.226562 247.742188 C 83.691406 255.203125 87.804688 265.121094 87.804688 275.667969 L 87.804688 285.132812 L 8.761719 285.132812 L 8.761719 275.667969 C 8.761719 265.121094 12.875 255.203125 20.335938 247.742188 C 27.800781 240.285156 37.726562 236.175781 48.28125 236.175781 C 58.839844 236.175781 68.765625 240.285156 76.226562 247.742188 Z M 69.21875 206.511719 C 69.21875 218.050781 59.828125 227.4375 48.28125 227.4375 C 36.738281 227.4375 27.34375 218.050781 27.34375 206.511719 C 27.34375 194.972656 36.738281 185.589844 48.28125 185.589844 C 59.828125 185.589844 69.21875 194.972656 69.21875 206.511719 Z M 215.445312 313.878906 C 222.910156 321.339844 227.019531 331.257812 227.019531 341.804688 L 227.019531 351.265625 L 147.980469 351.265625 L 147.980469 341.804688 C 147.980469 331.257812 152.089844 321.339844 159.554688 313.878906 C 167.019531 306.417969 176.945312 302.3125 187.5 302.3125 C 198.054688 302.3125 207.980469 306.417969 215.445312 313.878906 Z M 208.4375 272.648438 C 208.4375 284.1875 199.046875 293.574219 187.5 293.574219 C 175.953125 293.574219 166.5625 284.1875 166.5625 272.648438 C 166.5625 261.109375 175.953125 251.722656 187.5 251.722656 C 199.046875 251.722656 208.4375 261.109375 208.4375 272.648438 Z M 244.496094 151.644531 C 243.332031 152.0625 242.398438 152.957031 241.929688 154.097656 L 236.234375 167.980469 C 235.765625 169.125 235.800781 170.414062 236.335938 171.53125 L 243.449219 186.34375 L 234.367188 195.484375 L 219.492188 188.480469 C 218.375 187.957031 217.082031 187.925781 215.941406 188.402344 L 202.089844 194.195312 C 200.949219 194.671875 200.0625 195.609375 199.652344 196.777344 L 194.199219 212.277344 L 181.3125 212.320312 L 175.75 196.859375 C 175.332031 195.695312 174.441406 194.765625 173.292969 194.296875 L 159.402344 188.601562 C 158.871094 188.386719 158.308594 188.277344 157.746094 188.277344 C 157.097656 188.277344 156.449219 188.421875 155.855469 188.707031 L 141.027344 195.8125 L 131.882812 186.738281 L 138.890625 171.875 C 139.417969 170.753906 139.445312 169.464844 138.96875 168.324219 L 133.175781 154.484375 C 132.699219 153.34375 131.757812 152.457031 130.589844 152.046875 L 115.082031 146.597656 L 115.035156 133.71875 L 130.507812 128.160156 C 131.671875 127.742188 132.605469 126.851562 133.074219 125.707031 L 138.769531 111.824219 C 139.238281 110.679688 139.199219 109.390625 138.664062 108.277344 L 131.554688 93.460938 L 140.636719 84.324219 L 155.511719 91.324219 C 156.628906 91.851562 157.917969 91.878906 159.058594 91.402344 L 172.910156 85.613281 C 174.050781 85.136719 174.9375 84.199219 175.347656 83.03125 L 180.800781 67.53125 L 193.6875 67.484375 L 199.253906 82.945312 C 199.671875 84.109375 200.5625 85.042969 201.707031 85.511719 L 215.597656 91.203125 C 216.742188 91.671875 218.03125 91.632812 219.148438 91.101562 L 233.972656 83.992188 L 243.117188 93.066406 L 236.113281 107.933594 C 235.585938 109.050781 235.554688 110.339844 236.03125 111.480469 L 241.828125 125.324219 C 242.304688 126.464844 243.242188 127.347656 244.410156 127.757812 L 259.921875 133.207031 L 259.96875 146.085938 Z M 305.78125 206.511719 C 305.78125 194.972656 315.171875 185.589844 326.71875 185.589844 C 338.261719 185.589844 347.65625 194.972656 347.65625 206.511719 C 347.65625 218.050781 338.261719 227.4375 326.71875 227.4375 C 315.171875 227.4375 305.78125 218.050781 305.78125 206.511719 Z M 366.238281 285.132812 L 287.199219 285.132812 L 287.199219 275.671875 C 287.199219 265.121094 291.308594 255.203125 298.773438 247.746094 C 306.238281 240.285156 316.160156 236.175781 326.71875 236.175781 C 337.273438 236.175781 347.199219 240.285156 354.664062 247.746094 C 362.125 255.203125 366.238281 265.121094 366.238281 275.671875 Z M 366.238281 285.132812 " fill-opacity="1" fill-rule="nonzero"/></g></svg>