<svg xmlns="http://www.w3.org/2000/svg" xmlns:xlink="http://www.w3.org/1999/xlink" width="1080" zoomAndPan="magnify" viewBox="0 0 810 809.999993" height="1080" preserveAspectRatio="xMidYMid meet" version="1.0"><defs><clipPath id="29c4a760be"><path d="M 387 51.75 L 423 51.75 L 423 238 L 387 238 Z M 387 51.75 " clip-rule="nonzero"/></clipPath><clipPath id="850a485bd0"><path d="M 0 706 L 810 706 L 810 778.5 L 0 778.5 Z M 0 706 " clip-rule="nonzero"/></clipPath></defs><path fill="#231f20" d="M 233.410156 294.832031 C 228.703125 294.832031 224.886719 291.023438 224.886719 286.308594 C 224.886719 269.886719 230.070312 261.34375 234.644531 253.8125 C 238.71875 247.101562 241.9375 241.800781 241.9375 230.144531 C 241.9375 218.492188 238.71875 213.191406 234.644531 206.480469 C 230.070312 198.949219 224.886719 190.410156 224.886719 173.980469 C 224.886719 157.550781 230.070312 149.011719 234.644531 141.476562 C 238.71875 134.773438 241.9375 129.46875 241.9375 117.820312 C 241.9375 113.105469 245.753906 109.296875 250.460938 109.296875 C 255.171875 109.296875 258.988281 113.105469 258.988281 117.820312 C 258.988281 134.242188 253.800781 142.785156 249.222656 150.316406 C 245.152344 157.027344 241.9375 162.328125 241.9375 173.980469 C 241.9375 185.636719 245.152344 190.9375 249.222656 197.636719 C 253.800781 205.179688 258.988281 213.71875 258.988281 230.144531 C 258.988281 246.578125 253.800781 255.117188 249.222656 262.652344 C 245.152344 269.359375 241.9375 274.660156 241.9375 286.308594 C 241.9375 291.023438 238.121094 294.832031 233.410156 294.832031 " fill-opacity="1" fill-rule="nonzero"/><g clip-path="url(#29c4a760be)"><path fill="#231f20" d="M 396.433594 237.316406 C 391.722656 237.316406 387.90625 233.507812 387.90625 228.796875 C 387.90625 212.371094 393.09375 203.832031 397.671875 196.296875 C 401.742188 189.589844 404.957031 184.289062 404.957031 172.628906 C 404.957031 160.980469 401.742188 155.679688 397.671875 148.972656 C 393.09375 141.433594 387.90625 132.894531 387.90625 116.464844 C 387.90625 100.042969 393.09375 91.5 397.671875 83.964844 C 401.742188 77.261719 404.957031 71.957031 404.957031 60.308594 C 404.957031 55.59375 408.777344 51.785156 413.484375 51.785156 C 418.1875 51.785156 422.007812 55.59375 422.007812 60.308594 C 422.007812 76.730469 416.828125 85.269531 412.246094 92.804688 C 408.171875 99.511719 404.957031 104.8125 404.957031 116.464844 C 404.957031 128.125 408.171875 133.425781 412.246094 140.125 C 416.828125 147.667969 422.007812 156.207031 422.007812 172.628906 C 422.007812 189.0625 416.828125 197.601562 412.246094 205.136719 C 408.171875 211.847656 404.957031 217.144531 404.957031 228.796875 C 404.957031 233.507812 401.140625 237.316406 396.433594 237.316406 " fill-opacity="1" fill-rule="nonzero"/></g><path fill="#231f20" d="M 559.457031 294.832031 C 554.742188 294.832031 550.929688 291.023438 550.929688 286.308594 C 550.929688 269.886719 556.117188 261.34375 560.695312 253.8125 C 564.761719 247.101562 567.980469 241.800781 567.980469 230.144531 C 567.980469 218.492188 564.761719 213.191406 560.695312 206.480469 C 556.117188 198.949219 550.929688 190.410156 550.929688 173.980469 C 550.929688 157.550781 556.117188 149.011719 560.695312 141.476562 C 564.761719 134.773438 567.980469 129.46875 567.980469 117.820312 C 567.980469 113.105469 571.792969 109.296875 576.507812 109.296875 C 581.210938 109.296875 585.03125 113.105469 585.03125 117.820312 C 585.03125 134.242188 579.839844 142.785156 575.265625 150.316406 C 571.195312 157.027344 567.980469 162.328125 567.980469 173.980469 C 567.980469 185.636719 571.195312 190.9375 575.265625 197.636719 C 579.839844 205.179688 585.03125 213.71875 585.03125 230.144531 C 585.03125 246.578125 579.839844 255.117188 575.265625 262.652344 C 571.195312 269.359375 567.980469 274.660156 567.980469 286.308594 C 567.980469 291.023438 564.160156 294.832031 559.457031 294.832031 " fill-opacity="1" fill-rule="nonzero"/><g clip-path="url(#850a485bd0)"><path fill="#231f20" d="M 36.390625 723.109375 C 25.804688 723.109375 17.1875 731.726562 17.1875 742.3125 C 17.1875 752.898438 25.804688 761.503906 36.390625 761.503906 L 773.523438 761.503906 C 784.113281 761.503906 792.722656 752.898438 792.722656 742.3125 C 792.722656 731.726562 784.113281 723.109375 773.523438 723.109375 Z M 773.523438 778.550781 L 36.390625 778.550781 C 16.402344 778.550781 0.136719 762.296875 0.136719 742.3125 C 0.136719 722.324219 16.402344 706.0625 36.390625 706.0625 L 773.523438 706.0625 C 793.507812 706.0625 809.773438 722.324219 809.773438 742.3125 C 809.773438 762.296875 793.507812 778.550781 773.523438 778.550781 " fill-opacity="1" fill-rule="nonzero"/></g><path fill="#231f20" d="M 58.46875 706.0625 L 751.445312 706.0625 C 750.65625 661.53125 741.53125 618.328125 724.273438 577.546875 C 706.820312 536.296875 681.835938 499.246094 650 467.429688 C 618.171875 435.605469 581.113281 410.625 539.847656 393.179688 C 497.125 375.121094 451.746094 365.957031 404.957031 365.957031 C 358.171875 365.957031 312.789062 375.121094 270.070312 393.179688 C 228.804688 410.625 191.742188 435.605469 159.914062 467.429688 C 128.082031 499.246094 103.097656 536.296875 85.644531 577.546875 C 68.390625 618.328125 59.261719 661.53125 58.46875 706.0625 Z M 760.011719 723.109375 L 49.902344 723.109375 C 45.214844 723.109375 41.410156 719.332031 41.375 714.644531 L 41.371094 713.9375 C 41.367188 713.421875 41.359375 712.90625 41.359375 712.394531 C 41.359375 663.332031 50.976562 615.730469 69.9375 570.90625 C 88.253906 527.625 114.464844 488.753906 147.855469 455.371094 C 181.246094 421.996094 220.128906 395.789062 263.425781 377.480469 C 308.257812 358.523438 355.875 348.910156 404.957031 348.910156 C 454.039062 348.910156 501.65625 358.523438 546.492188 377.480469 C 589.78125 395.789062 628.667969 421.996094 662.050781 455.371094 C 695.449219 488.753906 721.664062 527.625 739.976562 570.90625 C 758.9375 615.730469 768.554688 663.332031 768.554688 712.394531 C 768.554688 712.878906 768.542969 713.367188 768.542969 713.851562 L 768.539062 714.636719 C 768.511719 719.328125 764.703125 723.109375 760.011719 723.109375 " fill-opacity="1" fill-rule="nonzero"/><path fill="#231f20" d="M 404.957031 290.945312 C 389.183594 290.945312 376.34375 303.78125 376.34375 319.546875 C 376.34375 335.324219 389.183594 348.152344 404.957031 348.152344 C 420.738281 348.152344 433.566406 335.324219 433.566406 319.546875 C 433.566406 303.78125 420.738281 290.945312 404.957031 290.945312 Z M 404.957031 365.199219 C 379.777344 365.199219 359.292969 344.726562 359.292969 319.546875 C 359.292969 294.382812 379.777344 273.898438 404.957031 273.898438 C 430.132812 273.898438 450.617188 294.382812 450.617188 319.546875 C 450.617188 344.726562 430.132812 365.199219 404.957031 365.199219 " fill-opacity="1" fill-rule="nonzero"/></svg>