<svg xmlns="http://www.w3.org/2000/svg" xmlns:xlink="http://www.w3.org/1999/xlink" width="1080" zoomAndPan="magnify" viewBox="0 0 810 809.999993" height="1080" preserveAspectRatio="xMidYMid meet" version="1.0"><defs><clipPath id="a6e1a1a961"><path d="M 0 10.199219 L 810 10.199219 L 810 803.699219 L 0 803.699219 Z M 0 10.199219 " clip-rule="nonzero"/></clipPath></defs><g clip-path="url(#a6e1a1a961)"><path fill="#000000" d="M 710.132812 144.652344 C 695.292969 137.769531 681.910156 128.238281 670.652344 116.683594 C 659.539062 105.289062 650.449219 91.851562 643.949219 76.976562 C 642.089844 72.082031 637.351562 68.601562 631.785156 68.601562 L 178.4375 68.601562 C 173.398438 68.601562 168.601562 71.554688 166.496094 76.472656 C 159.996094 91.527344 150.804688 105.128906 139.570312 116.664062 C 128.496094 128.015625 115.394531 137.425781 100.859375 144.269531 C 95.980469 146.148438 92.519531 150.886719 92.519531 156.410156 L 92.558594 251.851562 C 92.558594 256.769531 95.355469 261.441406 100.109375 263.628906 C 114.949219 270.507812 128.332031 280.039062 139.589844 291.597656 C 150.703125 302.988281 159.792969 316.429688 166.292969 331.300781 C 168.15625 336.199219 172.890625 339.679688 178.460938 339.679688 L 631.804688 339.679688 C 636.84375 339.679688 641.644531 336.726562 643.75 331.808594 C 650.246094 316.75 659.4375 303.132812 670.675781 291.617188 C 681.75 280.261719 694.847656 270.851562 709.382812 264.011719 C 714.261719 262.128906 717.722656 257.394531 717.722656 251.871094 L 717.683594 156.429688 C 717.683594 151.53125 714.890625 146.835938 710.132812 144.652344 Z M 405.101562 313.675781 C 374.855469 313.675781 347.445312 301.410156 327.625 281.597656 C 307.804688 261.785156 295.535156 234.40625 295.535156 204.148438 C 295.535156 173.914062 307.804688 146.515625 327.625 126.703125 C 347.445312 106.890625 374.835938 94.625 405.101562 94.625 C 435.367188 94.625 462.757812 106.890625 482.578125 126.703125 C 502.398438 146.515625 514.667969 173.894531 514.667969 204.148438 C 514.667969 234.386719 502.398438 261.785156 482.578125 281.597656 C 462.757812 301.410156 435.367188 313.675781 405.101562 313.675781 Z M 158.171875 273.542969 C 146.632812 261.707031 133.273438 251.648438 118.535156 243.855469 L 118.535156 164.464844 C 133.273438 156.652344 146.632812 146.59375 158.171875 134.777344 C 169.652344 123 179.328125 109.460938 186.71875 94.644531 L 325.277344 94.644531 C 319.585938 98.792969 314.203125 103.367188 309.242188 108.324219 C 284.703125 132.855469 269.519531 166.75 269.519531 204.171875 C 269.519531 241.589844 284.703125 275.488281 309.242188 300.015625 C 314.222656 304.992188 319.585938 309.546875 325.277344 313.695312 L 186.71875 313.695312 C 179.328125 298.863281 169.652344 285.324219 158.171875 273.542969 Z M 691.667969 243.835938 C 676.949219 251.648438 663.566406 261.683594 652.050781 273.523438 C 640.570312 285.300781 630.894531 298.839844 623.503906 313.675781 L 484.945312 313.675781 C 490.636719 309.527344 496.019531 304.953125 500.980469 299.996094 C 525.519531 275.46875 540.703125 241.570312 540.703125 204.148438 C 540.703125 166.730469 525.519531 132.832031 500.980469 108.304688 C 496 103.328125 490.636719 98.773438 484.945312 94.625 L 623.503906 94.625 C 630.914062 109.4375 640.570312 122.976562 652.050781 134.757812 C 663.589844 146.59375 676.949219 156.652344 691.6875 164.445312 L 691.6875 243.835938 Z M 386.578125 166.550781 C 383.785156 169.300781 382.0625 173.148438 382.0625 177.355469 C 382.0625 181.546875 383.804688 185.390625 386.578125 188.164062 C 389.351562 190.933594 393.195312 192.675781 397.386719 192.675781 L 412.835938 192.675781 C 423.382812 192.675781 432.957031 196.984375 439.882812 203.90625 C 446.804688 210.828125 451.117188 220.402344 451.117188 230.945312 C 451.117188 241.488281 446.804688 251.0625 439.882812 257.980469 L 439.09375 258.691406 C 433.058594 264.398438 425.226562 268.160156 416.578125 269.03125 L 416.578125 280.203125 C 416.578125 286.535156 411.4375 291.675781 405.101562 291.675781 C 398.765625 291.675781 393.621094 286.535156 393.621094 280.203125 L 393.621094 269.03125 C 384.574219 268.140625 376.414062 264.074219 370.320312 257.980469 C 363.398438 251.0625 359.085938 241.488281 359.085938 230.945312 C 359.085938 224.609375 364.226562 219.46875 370.5625 219.46875 C 376.898438 219.46875 382.042969 224.609375 382.042969 230.945312 C 382.042969 235.132812 383.785156 238.980469 386.558594 241.75 C 389.332031 244.523438 393.175781 246.265625 397.367188 246.265625 L 412.816406 246.265625 C 416.804688 246.265625 420.445312 244.746094 423.160156 242.238281 L 423.625 241.75 C 426.398438 238.980469 428.140625 235.132812 428.140625 230.945312 C 428.140625 226.753906 426.398438 222.910156 423.625 220.136719 C 420.851562 217.367188 417.003906 215.625 412.816406 215.625 L 397.367188 215.625 C 386.820312 215.625 377.246094 211.316406 370.320312 204.394531 C 363.398438 197.472656 359.085938 187.898438 359.085938 177.355469 C 359.085938 166.851562 363.398438 157.300781 370.320312 150.359375 L 370.320312 150.320312 C 376.414062 144.226562 384.574219 140.160156 393.621094 139.269531 L 393.621094 128.097656 C 393.621094 121.761719 398.765625 116.625 405.101562 116.625 C 411.4375 116.625 416.578125 121.761719 416.578125 128.097656 L 416.578125 139.269531 C 425.628906 140.160156 433.769531 144.226562 439.863281 150.320312 C 446.785156 157.238281 451.097656 166.8125 451.097656 177.355469 C 451.097656 183.691406 445.957031 188.832031 439.617188 188.832031 C 433.28125 188.832031 428.140625 183.691406 428.140625 177.355469 C 428.140625 173.148438 426.398438 169.320312 423.625 166.550781 C 420.851562 163.777344 417.003906 162.035156 412.816406 162.035156 L 405.222656 162.035156 C 405.183594 162.035156 405.140625 162.035156 405.082031 162.035156 C 405.039062 162.035156 405 162.035156 404.9375 162.035156 L 397.347656 162.035156 C 393.195312 162.054688 389.351562 163.777344 386.578125 166.550781 Z M 809.9375 387.925781 C 809.9375 372.203125 803.96875 356.476562 792.0625 344.558594 L 792.003906 344.496094 C 788.945312 341.460938 785.625 338.769531 782.121094 336.503906 C 781.152344 335.875 780.160156 335.269531 779.148438 334.703125 L 779.148438 23.714844 C 779.148438 16.527344 773.316406 10.699219 766.128906 10.699219 L 44.074219 10.699219 C 36.886719 10.699219 31.054688 16.527344 31.054688 23.714844 L 31.054688 384.609375 C 31.054688 391.792969 36.886719 397.621094 44.074219 397.621094 L 538.128906 397.621094 L 490.171875 445.5625 L 208.726562 445.804688 C 208.382812 445.765625 208.035156 445.703125 207.691406 445.683594 C 199.046875 445.078125 190.222656 446.332031 181.902344 449.429688 C 174.226562 452.28125 167.019531 456.695312 160.824219 462.683594 L 160.015625 463.433594 L 4.027344 619.363281 C 1.253906 622.136719 0 625.878906 0.261719 629.523438 L 0.261719 789.035156 L 0.203125 790.1875 C 0.203125 797.371094 6.03125 803.199219 13.21875 803.199219 L 155.277344 803.160156 C 158.679688 803.160156 162.082031 801.824219 164.632812 799.171875 L 200 762.378906 L 525.316406 680.519531 C 535.800781 677.261719 546.429688 671.148438 556.796875 663.378906 C 566.675781 655.972656 576.332031 647.085938 585.382812 637.796875 C 585.441406 637.738281 585.484375 637.675781 585.542969 637.617188 C 585.929688 637.3125 586.3125 636.988281 586.65625 636.625 L 792.042969 431.316406 C 803.988281 419.375 809.980469 403.609375 809.980469 387.90625 L 809.9375 387.90625 Z M 57.089844 36.726562 L 753.113281 36.726562 L 753.113281 371.59375 L 57.089844 371.59375 Z M 652.050781 397.621094 L 556.148438 493.484375 C 553.558594 481.929688 547.726562 471.609375 539.628906 463.554688 C 534.425781 458.351562 528.292969 454.082031 521.53125 451.007812 L 574.9375 397.621094 Z M 783.964844 387.925781 C 783.964844 397.011719 780.523438 406.078125 773.660156 412.960938 L 568.273438 618.25 C 568.074219 618.453125 567.890625 618.652344 567.707031 618.875 C 567.382812 619.140625 567.082031 619.421875 566.796875 619.726562 C 558.515625 628.226562 549.851562 636.242188 541.269531 642.675781 C 533.375 648.585938 525.558594 653.199219 518.289062 655.566406 L 190.101562 738.09375 C 187.40625 738.761719 185.121094 740.242188 183.417969 742.203125 L 149.792969 777.175781 L 26.175781 777.175781 L 26.175781 633.992188 L 178.964844 481.222656 C 182.507812 477.84375 186.597656 475.332031 190.929688 473.714844 C 195.6875 471.953125 200.828125 471.246094 205.953125 471.589844 C 206.195312 471.609375 206.457031 471.589844 206.699219 471.609375 C 207.226562 471.667969 207.773438 471.730469 208.320312 471.730469 L 496.265625 471.488281 L 496.304688 471.546875 C 506.042969 471.546875 514.890625 475.515625 521.246094 481.890625 L 521.246094 481.949219 C 527.683594 488.386719 531.691406 497.230469 531.714844 506.902344 L 531.652344 506.941406 C 531.652344 516.65625 527.664062 525.5 521.246094 531.917969 C 514.828125 538.332031 505.980469 542.320312 496.265625 542.320312 L 295.839844 542.320312 C 288.652344 542.320312 282.820312 548.148438 282.820312 555.332031 C 282.820312 562.515625 288.652344 568.34375 295.839844 568.34375 L 496.265625 568.34375 C 513.167969 568.34375 528.535156 561.441406 539.648438 550.3125 C 543.800781 546.164062 547.363281 541.429688 550.195312 536.226562 L 688.832031 397.640625 L 766.109375 397.640625 C 773.296875 397.640625 779.125 391.8125 779.125 384.628906 L 779.125 370.035156 C 782.34375 375.542969 784.003906 381.753906 784.003906 387.945312 L 783.964844 387.945312 Z M 783.964844 387.925781 " fill-opacity="1" fill-rule="nonzero"/></g></svg>